<svg width="432" height="114" viewBox="0 0 432 114" fill="none" xmlns="http://www.w3.org/2000/svg">
  <rect x="8" y="8.9397" width="335" height="40" rx="20" fill="#F1F3F4" />
  <path fill-rule="evenodd" clip-rule="evenodd"
    d="M29.5106 28.2084H31.7038C31.8916 26.5394 32.6071 24.9672 33.4497 23.6223C31.3727 24.2268 29.7999 26.0153 29.5106 28.2084ZM35 23.9226C34.1183 25.2239 33.3861 26.7005 33.1778 28.2084H36.8222C36.6139 26.7005 35.8817 25.2239 35 23.9226ZM36.8222 29.671C36.6139 31.1789 35.8817 32.6555 35 33.9568C34.1183 32.6555 33.3861 31.1789 33.1778 29.671H36.8222ZM31.7038 29.671H29.5106C29.7999 31.8641 31.3727 33.6526 33.4497 34.2571C32.6071 32.9122 31.8916 31.34 31.7038 29.671ZM36.5503 34.2571C37.3929 32.9122 38.1084 31.34 38.2962 29.671H40.4894C40.2001 31.8641 38.6273 33.6526 36.5503 34.2571ZM40.4894 28.2084H38.2962C38.1084 26.5394 37.3929 24.9672 36.5503 23.6223C38.6273 24.2268 40.2001 26.0153 40.4894 28.2084ZM28 28.9397C28 25.0737 31.134 21.9397 35 21.9397C38.866 21.9397 42 25.0737 42 28.9397C42 32.8057 38.866 35.9397 35 35.9397C31.134 35.9397 28 32.8057 28 28.9397Z"
    fill="#333333" />
  <path
    d="M55.9471 29.4653V33.9397H54.1474V23.7579H55.9073V27.6009H55.9968C56.1758 27.17 56.4525 26.8303 56.8271 26.5817C57.2049 26.3298 57.6855 26.2039 58.2688 26.2039C58.7991 26.2039 59.2615 26.3149 59.6559 26.537C60.0503 26.7591 60.3552 27.0839 60.5707 27.5114C60.7894 27.939 60.8988 28.461 60.8988 29.0775V33.9397H59.0991V29.3559C59.0991 28.8422 58.9665 28.4428 58.7013 28.1577C58.4395 27.8694 58.0716 27.7252 57.5977 27.7252C57.2795 27.7252 56.9944 27.7948 56.7425 27.934C56.494 28.0699 56.2984 28.2671 56.1559 28.5256C56.0167 28.7842 55.9471 29.0974 55.9471 29.4653ZM66.5465 26.3033V27.6954H62.1566V26.3033H66.5465ZM63.2404 24.4738H65.0401V31.6428C65.0401 31.8848 65.0766 32.0704 65.1495 32.1996C65.2257 32.3256 65.3252 32.4118 65.4478 32.4582C65.5704 32.5046 65.7063 32.5278 65.8555 32.5278C65.9682 32.5278 66.0709 32.5195 66.1637 32.5029C66.2598 32.4863 66.3327 32.4714 66.3825 32.4582L66.6857 33.8651C66.5896 33.8983 66.4521 33.9347 66.2731 33.9745C66.0974 34.0143 65.882 34.0375 65.6268 34.0441C65.176 34.0574 64.77 33.9894 64.4087 33.8403C64.0475 33.6878 63.7608 33.4525 63.5487 33.1343C63.3398 32.8161 63.2371 32.4184 63.2404 31.9411V24.4738ZM71.8649 26.3033V27.6954H67.475V26.3033H71.8649ZM68.5588 24.4738H70.3585V31.6428C70.3585 31.8848 70.3949 32.0704 70.4679 32.1996C70.5441 32.3256 70.6435 32.4118 70.7662 32.4582C70.8888 32.5046 71.0247 32.5278 71.1738 32.5278C71.2865 32.5278 71.3893 32.5195 71.4821 32.5029C71.5782 32.4863 71.6511 32.4714 71.7008 32.4582L72.0041 33.8651C71.908 33.8983 71.7704 33.9347 71.5914 33.9745C71.4158 34.0143 71.2003 34.0375 70.9451 34.0441C70.4944 34.0574 70.0884 33.9894 69.7271 33.8403C69.3658 33.6878 69.0791 33.4525 68.867 33.1343C68.6582 32.8161 68.5555 32.4184 68.5588 31.9411V24.4738ZM73.37 36.8033V26.3033H75.1399V27.5661H75.2443C75.3371 27.3805 75.468 27.1833 75.6371 26.9745C75.8061 26.7624 76.0348 26.5817 76.3232 26.4326C76.6115 26.2801 76.9794 26.2039 77.4268 26.2039C78.0168 26.2039 78.5488 26.3547 79.0227 26.6563C79.5 26.9546 79.8778 27.3971 80.1562 27.9837C80.438 28.5671 80.5788 29.283 80.5788 30.1315C80.5788 30.97 80.4413 31.6826 80.1662 32.2692C79.8911 32.8559 79.5166 33.3033 79.0426 33.6116C78.5687 33.9198 78.0317 34.0739 77.4318 34.0739C76.9943 34.0739 76.6314 34.001 76.343 33.8552C76.0547 33.7093 75.8227 33.5337 75.647 33.3282C75.4747 33.1194 75.3404 32.9222 75.2443 32.7366H75.1697V36.8033H73.37ZM75.1349 30.1215C75.1349 30.6154 75.2045 31.0479 75.3438 31.4191C75.4863 31.7903 75.6901 32.0803 75.9553 32.2891C76.2237 32.4946 76.5485 32.5974 76.9297 32.5974C77.3274 32.5974 77.6605 32.4913 77.929 32.2792C78.1974 32.0638 78.3996 31.7704 78.5355 31.3992C78.6747 31.0247 78.7443 30.5988 78.7443 30.1215C78.7443 29.6476 78.6764 29.2266 78.5405 28.8587C78.4046 28.4908 78.2024 28.2025 77.9339 27.9937C77.6655 27.7849 77.3307 27.6805 76.9297 27.6805C76.5452 27.6805 76.2188 27.7816 75.9503 27.9837C75.6818 28.1859 75.478 28.4693 75.3388 28.8339C75.2029 29.1985 75.1349 29.6277 75.1349 30.1215ZM88.1555 28.3218L86.5149 28.5008C86.4685 28.3351 86.3873 28.1793 86.2713 28.0334C86.1586 27.8876 86.0062 27.77 85.8139 27.6805C85.6217 27.591 85.3864 27.5462 85.108 27.5462C84.7334 27.5462 84.4186 27.6274 84.1634 27.7898C83.9115 27.9522 83.7872 28.1627 83.7905 28.4212C83.7872 28.6433 83.8684 28.8239 84.0341 28.9631C84.2031 29.1023 84.4815 29.2167 84.8693 29.3062L86.1719 29.5846C86.8944 29.7404 87.4313 29.9873 87.7827 30.3254C88.1373 30.6634 88.3163 31.1059 88.3196 31.6528C88.3163 32.1334 88.1754 32.5576 87.897 32.9255C87.6219 33.2901 87.2391 33.5751 86.7486 33.7806C86.258 33.9861 85.6946 34.0888 85.0582 34.0888C84.1236 34.0888 83.3712 33.8933 82.8011 33.5022C82.2311 33.1078 81.8913 32.5593 81.782 31.8566L83.5369 31.6876C83.6165 32.0323 83.7855 32.2924 84.044 32.4681C84.3026 32.6438 84.639 32.7316 85.0533 32.7316C85.4808 32.7316 85.8239 32.6438 86.0824 32.4681C86.3442 32.2924 86.4751 32.0754 86.4751 31.8168C86.4751 31.5981 86.3906 31.4174 86.2216 31.2749C86.0559 31.1324 85.7973 31.023 85.446 30.9468L84.1435 30.6734C83.411 30.5209 82.8691 30.264 82.5178 29.9028C82.1664 29.5382 81.9924 29.0775 81.9957 28.5207C81.9924 28.05 82.12 27.6423 82.3786 27.2977C82.6404 26.9496 83.0033 26.6812 83.4673 26.4923C83.9347 26.3 84.4732 26.2039 85.0831 26.2039C85.978 26.2039 86.6823 26.3945 87.196 26.7756C87.7131 27.1568 88.0329 27.6722 88.1555 28.3218ZM90.9123 34.0491C90.6107 34.0491 90.3522 33.943 90.1367 33.7309C89.9213 33.5188 89.8152 33.2602 89.8185 32.9553C89.8152 32.657 89.9213 32.4018 90.1367 32.1897C90.3522 31.9776 90.6107 31.8715 90.9123 31.8715C91.204 31.8715 91.4575 31.9776 91.6729 32.1897C91.8917 32.4018 92.0027 32.657 92.006 32.9553C92.0027 33.1575 91.9497 33.3414 91.8469 33.5072C91.7475 33.6729 91.6149 33.8055 91.4492 33.9049C91.2868 34.001 91.1078 34.0491 90.9123 34.0491ZM90.9123 28.6002C90.6107 28.6002 90.3522 28.4941 90.1367 28.282C89.9213 28.0666 89.8152 27.8081 89.8185 27.5065C89.8152 27.2082 89.9213 26.953 90.1367 26.7408C90.3522 26.5254 90.6107 26.4177 90.9123 26.4177C91.204 26.4177 91.4575 26.5254 91.6729 26.7408C91.8917 26.953 92.0027 27.2082 92.006 27.5065C92.0027 27.7053 91.9497 27.8876 91.8469 28.0533C91.7475 28.2191 91.6149 28.3516 91.4492 28.4511C91.2868 28.5505 91.1078 28.6002 90.9123 28.6002ZM98.0204 23.2806L94.7392 35.4709H93.1632L96.4444 23.2806H98.0204ZM103.325 23.2806L100.044 35.4709H98.4679L101.749 23.2806H103.325Z"
    fill="#696A6C" />
  <path
    d="M107.805 34.0888C107.059 34.0888 106.412 33.9248 105.866 33.5967C105.319 33.2685 104.894 32.8095 104.593 32.2195C104.295 31.6296 104.145 30.9402 104.145 30.1513C104.145 29.3625 104.295 28.6715 104.593 28.0782C104.894 27.4849 105.319 27.0242 105.866 26.6961C106.412 26.368 107.059 26.2039 107.805 26.2039C108.55 26.2039 109.197 26.368 109.743 26.6961C110.29 27.0242 110.713 27.4849 111.011 28.0782C111.313 28.6715 111.464 29.3625 111.464 30.1513C111.464 30.9402 111.313 31.6296 111.011 32.2195C110.713 32.8095 110.29 33.2685 109.743 33.5967C109.197 33.9248 108.55 34.0888 107.805 34.0888ZM107.814 32.6471C108.219 32.6471 108.557 32.5361 108.829 32.314C109.1 32.0886 109.303 31.787 109.435 31.4092C109.571 31.0313 109.639 30.6104 109.639 30.1464C109.639 29.679 109.571 29.2565 109.435 28.8786C109.303 28.4975 109.1 28.1942 108.829 27.9688C108.557 27.7434 108.219 27.6307 107.814 27.6307C107.4 27.6307 107.055 27.7434 106.78 27.9688C106.509 28.1942 106.305 28.4975 106.169 28.8786C106.036 29.2565 105.97 29.679 105.97 30.1464C105.97 30.6104 106.036 31.0313 106.169 31.4092C106.305 31.787 106.509 32.0886 106.78 32.314C107.055 32.5361 107.4 32.6471 107.814 32.6471ZM112.991 33.9397V26.3033H114.736V27.5761H114.816C114.955 27.1352 115.194 26.7955 115.532 26.5569C115.873 26.3149 116.262 26.194 116.7 26.194C116.799 26.194 116.91 26.1989 117.033 26.2089C117.159 26.2155 117.263 26.2271 117.346 26.2437V27.8992C117.27 27.8727 117.149 27.8495 116.983 27.8296C116.821 27.8064 116.663 27.7948 116.511 27.7948C116.183 27.7948 115.888 27.8661 115.626 28.0086C115.368 28.1478 115.164 28.3417 115.015 28.5903C114.865 28.8388 114.791 29.1255 114.791 29.4504V33.9397H112.991ZM121.548 36.9624C120.902 36.9624 120.347 36.8746 119.883 36.6989C119.419 36.5266 119.046 36.2946 118.764 36.0029C118.483 35.7112 118.287 35.3881 118.178 35.0334L119.798 34.6407C119.871 34.7898 119.977 34.9373 120.117 35.0832C120.256 35.2323 120.443 35.3549 120.678 35.4511C120.917 35.5505 121.217 35.6002 121.578 35.6002C122.089 35.6002 122.511 35.4759 122.846 35.2273C123.181 34.9821 123.348 34.5777 123.348 34.0143V32.5675H123.259C123.166 32.7531 123.03 32.9437 122.851 33.1393C122.675 33.3348 122.442 33.4989 122.15 33.6315C121.862 33.764 121.499 33.8303 121.061 33.8303C120.475 33.8303 119.943 33.6928 119.465 33.4177C118.991 33.1393 118.614 32.725 118.332 32.1748C118.053 31.6213 117.914 30.9286 117.914 30.0967C117.914 29.2581 118.053 28.5505 118.332 27.9738C118.614 27.3938 118.993 26.9546 119.47 26.6563C119.948 26.3547 120.48 26.2039 121.066 26.2039C121.514 26.2039 121.882 26.2801 122.17 26.4326C122.462 26.5817 122.694 26.7624 122.866 26.9745C123.038 27.1833 123.169 27.3805 123.259 27.5661H123.358V26.3033H125.133V34.064C125.133 34.7169 124.977 35.2572 124.666 35.6847C124.354 36.1123 123.928 36.4321 123.388 36.6442C122.848 36.8564 122.235 36.9624 121.548 36.9624ZM121.563 32.4184C121.945 32.4184 122.269 32.3256 122.538 32.14C122.806 31.9544 123.01 31.6876 123.149 31.3396C123.289 30.9915 123.358 30.5739 123.358 30.0867C123.358 29.6061 123.289 29.1852 123.149 28.8239C123.013 28.4627 122.811 28.1826 122.543 27.9837C122.278 27.7816 121.951 27.6805 121.563 27.6805C121.162 27.6805 120.828 27.7849 120.559 27.9937C120.291 28.2025 120.088 28.4892 119.953 28.8538C119.817 29.215 119.749 29.626 119.749 30.0867C119.749 30.554 119.817 30.9634 119.953 31.3147C120.092 31.6627 120.296 31.9345 120.564 32.13C120.836 32.3223 121.169 32.4184 121.563 32.4184ZM129.175 34.0938C128.691 34.0938 128.255 34.0076 127.867 33.8353C127.483 33.6596 127.178 33.4011 126.953 33.0597C126.731 32.7183 126.619 32.2974 126.619 31.7969C126.619 31.3661 126.699 31.0098 126.858 30.728C127.017 30.4463 127.234 30.2209 127.509 30.0519C127.785 29.8829 128.094 29.7553 128.439 29.6691C128.787 29.5796 129.147 29.515 129.518 29.4752C129.965 29.4288 130.328 29.3874 130.607 29.3509C130.885 29.3111 131.087 29.2515 131.213 29.1719C131.343 29.0891 131.407 28.9615 131.407 28.7891V28.7593C131.407 28.3848 131.296 28.0948 131.074 27.8893C130.852 27.6838 130.532 27.581 130.115 27.581C129.674 27.581 129.324 27.6771 129.066 27.8694C128.81 28.0616 128.638 28.2887 128.548 28.5505L126.868 28.3119C127.001 27.8478 127.219 27.4601 127.524 27.1485C127.829 26.8336 128.202 26.5983 128.643 26.4425C129.084 26.2834 129.571 26.2039 130.105 26.2039C130.472 26.2039 130.839 26.247 131.203 26.3332C131.568 26.4193 131.901 26.5619 132.203 26.7607C132.504 26.9563 132.746 27.2231 132.928 27.5611C133.114 27.8992 133.207 28.3218 133.207 28.8289V33.9397H131.477V32.8907H131.417C131.308 33.1028 131.154 33.3017 130.955 33.4873C130.759 33.6696 130.512 33.8171 130.214 33.9298C129.919 34.0391 129.573 34.0938 129.175 34.0938ZM129.642 32.7714C130.003 32.7714 130.317 32.7001 130.582 32.5576C130.847 32.4118 131.051 32.2195 131.193 31.9809C131.339 31.7423 131.412 31.4821 131.412 31.2004V30.3005C131.356 30.3469 131.26 30.39 131.124 30.4298C130.991 30.4695 130.842 30.5043 130.676 30.5342C130.511 30.564 130.347 30.5905 130.184 30.6137C130.022 30.6369 129.881 30.6568 129.762 30.6734C129.493 30.7098 129.253 30.7695 129.041 30.8523C128.829 30.9352 128.661 31.0512 128.539 31.2004C128.416 31.3462 128.355 31.5351 128.355 31.7671C128.355 32.0986 128.476 32.3488 128.718 32.5178C128.959 32.6869 129.268 32.7714 129.642 32.7714ZM136.816 29.4653V33.9397H135.017V26.3033H136.737V27.6009H136.826C137.002 27.1734 137.282 26.8336 137.666 26.5817C138.054 26.3298 138.533 26.2039 139.103 26.2039C139.63 26.2039 140.089 26.3166 140.48 26.542C140.875 26.7673 141.18 27.0938 141.395 27.5214C141.614 27.9489 141.722 28.4676 141.718 29.0775V33.9397H139.919V29.3559C139.919 28.8455 139.786 28.4461 139.521 28.1577C139.259 27.8694 138.896 27.7252 138.432 27.7252C138.117 27.7252 137.837 27.7948 137.592 27.934C137.35 28.0699 137.159 28.2671 137.02 28.5256C136.884 28.7842 136.816 29.0974 136.816 29.4653ZM143.548 33.9397V26.3033H145.347V33.9397H143.548ZM144.453 25.2195C144.168 25.2195 143.922 25.1251 143.717 24.9361C143.511 24.7439 143.409 24.5136 143.409 24.2451C143.409 23.9733 143.511 23.743 143.717 23.554C143.922 23.3618 144.168 23.2657 144.453 23.2657C144.741 23.2657 144.986 23.3618 145.188 23.554C145.394 23.743 145.497 23.9733 145.497 24.2451C145.497 24.5136 145.394 24.7439 145.188 24.9361C144.986 25.1251 144.741 25.2195 144.453 25.2195ZM147.099 33.9397V32.7962L151.036 27.8594V27.7948H147.228V26.3033H153.239V27.5313L149.49 32.3836V32.4482H153.368V33.9397H147.099ZM157.257 34.0938C156.773 34.0938 156.337 34.0076 155.949 33.8353C155.565 33.6596 155.26 33.4011 155.035 33.0597C154.813 32.7183 154.702 32.2974 154.702 31.7969C154.702 31.3661 154.781 31.0098 154.94 30.728C155.099 30.4463 155.316 30.2209 155.591 30.0519C155.867 29.8829 156.176 29.7553 156.521 29.6691C156.869 29.5796 157.229 29.515 157.6 29.4752C158.047 29.4288 158.41 29.3874 158.689 29.3509C158.967 29.3111 159.169 29.2515 159.295 29.1719C159.425 29.0891 159.489 28.9615 159.489 28.7891V28.7593C159.489 28.3848 159.378 28.0948 159.156 27.8893C158.934 27.6838 158.614 27.581 158.197 27.581C157.756 27.581 157.406 27.6771 157.148 27.8694C156.892 28.0616 156.72 28.2887 156.631 28.5505L154.95 28.3119C155.083 27.8478 155.301 27.4601 155.606 27.1485C155.911 26.8336 156.284 26.5983 156.725 26.4425C157.166 26.2834 157.653 26.2039 158.187 26.2039C158.555 26.2039 158.921 26.247 159.285 26.3332C159.65 26.4193 159.983 26.5619 160.285 26.7607C160.586 26.9563 160.828 27.2231 161.01 27.5611C161.196 27.8992 161.289 28.3218 161.289 28.8289V33.9397H159.559V32.8907H159.499C159.39 33.1028 159.236 33.3017 159.037 33.4873C158.841 33.6696 158.594 33.8171 158.296 33.9298C158.001 34.0391 157.655 34.0938 157.257 34.0938ZM157.724 32.7714C158.086 32.7714 158.399 32.7001 158.664 32.5576C158.929 32.4118 159.133 32.2195 159.275 31.9809C159.421 31.7423 159.494 31.4821 159.494 31.2004V30.3005C159.438 30.3469 159.342 30.39 159.206 30.4298C159.073 30.4695 158.924 30.5043 158.758 30.5342C158.593 30.564 158.429 30.5905 158.266 30.6137C158.104 30.6369 157.963 30.6568 157.844 30.6734C157.575 30.7098 157.335 30.7695 157.123 30.8523C156.911 30.9352 156.743 31.0512 156.621 31.2004C156.498 31.3462 156.437 31.5351 156.437 31.7671C156.437 32.0986 156.558 32.3488 156.8 32.5178C157.041 32.6869 157.35 32.7714 157.724 32.7714ZM166.912 26.3033V27.6954H162.522V26.3033H166.912ZM163.606 24.4738H165.405V31.6428C165.405 31.8848 165.442 32.0704 165.515 32.1996C165.591 32.3256 165.69 32.4118 165.813 32.4582C165.936 32.5046 166.072 32.5278 166.221 32.5278C166.333 32.5278 166.436 32.5195 166.529 32.5029C166.625 32.4863 166.698 32.4714 166.748 32.4582L167.051 33.8651C166.955 33.8983 166.817 33.9347 166.638 33.9745C166.463 34.0143 166.247 34.0375 165.992 34.0441C165.541 34.0574 165.135 33.9894 164.774 33.8403C164.413 33.6878 164.126 33.4525 163.914 33.1343C163.705 32.8161 163.602 32.4184 163.606 31.9411V24.4738ZM168.417 33.9397V26.3033H170.217V33.9397H168.417ZM169.322 25.2195C169.037 25.2195 168.791 25.1251 168.586 24.9361C168.38 24.7439 168.278 24.5136 168.278 24.2451C168.278 23.9733 168.38 23.743 168.586 23.554C168.791 23.3618 169.037 23.2657 169.322 23.2657C169.61 23.2657 169.855 23.3618 170.058 23.554C170.263 23.743 170.366 23.9733 170.366 24.2451C170.366 24.5136 170.263 24.7439 170.058 24.9361C169.855 25.1251 169.61 25.2195 169.322 25.2195ZM175.398 34.0888C174.653 34.0888 174.006 33.9248 173.459 33.5967C172.912 33.2685 172.488 32.8095 172.187 32.2195C171.888 31.6296 171.739 30.9402 171.739 30.1513C171.739 29.3625 171.888 28.6715 172.187 28.0782C172.488 27.4849 172.912 27.0242 173.459 26.6961C174.006 26.368 174.653 26.2039 175.398 26.2039C176.144 26.2039 176.79 26.368 177.337 26.6961C177.884 27.0242 178.307 27.4849 178.605 28.0782C178.907 28.6715 179.057 29.3625 179.057 30.1513C179.057 30.9402 178.907 31.6296 178.605 32.2195C178.307 32.8095 177.884 33.2685 177.337 33.5967C176.79 33.9248 176.144 34.0888 175.398 34.0888ZM175.408 32.6471C175.813 32.6471 176.151 32.5361 176.422 32.314C176.694 32.0886 176.896 31.787 177.029 31.4092C177.165 31.0313 177.233 30.6104 177.233 30.1464C177.233 29.679 177.165 29.2565 177.029 28.8786C176.896 28.4975 176.694 28.1942 176.422 27.9688C176.151 27.7434 175.813 27.6307 175.408 27.6307C174.994 27.6307 174.649 27.7434 174.374 27.9688C174.102 28.1942 173.898 28.4975 173.763 28.8786C173.63 29.2565 173.564 29.679 173.564 30.1464C173.564 30.6104 173.63 31.0313 173.763 31.4092C173.898 31.787 174.102 32.0886 174.374 32.314C174.649 32.5361 174.994 32.6471 175.408 32.6471ZM182.385 29.4653V33.9397H180.585V26.3033H182.305V27.6009H182.395C182.57 27.1734 182.85 26.8336 183.235 26.5817C183.623 26.3298 184.101 26.2039 184.672 26.2039C185.199 26.2039 185.658 26.3166 186.049 26.542C186.443 26.7673 186.748 27.0938 186.963 27.5214C187.182 27.9489 187.29 28.4676 187.287 29.0775V33.9397H185.487V29.3559C185.487 28.8455 185.354 28.4461 185.089 28.1577C184.827 27.8694 184.464 27.7252 184 27.7252C183.685 27.7252 183.405 27.7948 183.16 27.934C182.918 28.0699 182.728 28.2671 182.588 28.5256C182.453 28.7842 182.385 29.0974 182.385 29.4653Z"
    fill="url(#paint0_linear_2665_237497)" />
  <path
    d="M190.225 34.0491C189.923 34.0491 189.665 33.943 189.449 33.7309C189.234 33.5188 189.128 33.2602 189.131 32.9553C189.128 32.657 189.234 32.4018 189.449 32.1897C189.665 31.9776 189.923 31.8715 190.225 31.8715C190.516 31.8715 190.77 31.9776 190.985 32.1897C191.204 32.4018 191.315 32.657 191.319 32.9553C191.315 33.1575 191.262 33.3414 191.159 33.5072C191.06 33.6729 190.927 33.8055 190.762 33.9049C190.599 34.001 190.42 34.0491 190.225 34.0491ZM197.045 26.3033V27.6954H192.53V26.3033H197.045ZM193.659 33.9397V25.5825C193.659 25.0687 193.765 24.6412 193.977 24.2998C194.193 23.9584 194.481 23.7032 194.842 23.5342C195.203 23.3651 195.604 23.2806 196.045 23.2806C196.357 23.2806 196.634 23.3055 196.876 23.3552C197.117 23.4049 197.296 23.4496 197.412 23.4894L197.055 24.8815C196.978 24.8583 196.882 24.8351 196.766 24.8119C196.65 24.7853 196.521 24.7721 196.378 24.7721C196.044 24.7721 195.807 24.8533 195.667 25.0157C195.532 25.1748 195.464 25.4035 195.464 25.7018V33.9397H193.659ZM203.321 30.728V26.3033H205.121V33.9397H203.376V32.5825H203.296C203.124 33.01 202.841 33.3597 202.446 33.6315C202.055 33.9032 201.573 34.0391 200.999 34.0391C200.499 34.0391 200.057 33.9281 199.672 33.706C199.291 33.4807 198.993 33.1542 198.777 32.7266C198.562 32.2958 198.454 31.7754 198.454 31.1655V26.3033H200.254V30.8871C200.254 31.371 200.386 31.7555 200.651 32.0405C200.917 32.3256 201.265 32.4681 201.695 32.4681C201.961 32.4681 202.218 32.4035 202.466 32.2742C202.715 32.145 202.919 31.9527 203.078 31.6975C203.24 31.439 203.321 31.1158 203.321 30.728ZM213.007 28.3218L211.366 28.5008C211.32 28.3351 211.239 28.1793 211.123 28.0334C211.01 27.8876 210.858 27.77 210.665 27.6805C210.473 27.591 210.238 27.5462 209.96 27.5462C209.585 27.5462 209.27 27.6274 209.015 27.7898C208.763 27.9522 208.639 28.1627 208.642 28.4212C208.639 28.6433 208.72 28.8239 208.886 28.9631C209.055 29.1023 209.333 29.2167 209.721 29.3062L211.023 29.5846C211.746 29.7404 212.283 29.9873 212.634 30.3254C212.989 30.6634 213.168 31.1059 213.171 31.6528C213.168 32.1334 213.027 32.5576 212.749 32.9255C212.473 33.2901 212.091 33.5751 211.6 33.7806C211.11 33.9861 210.546 34.0888 209.91 34.0888C208.975 34.0888 208.223 33.8933 207.653 33.5022C207.083 33.1078 206.743 32.5593 206.634 31.8566L208.388 31.6876C208.468 32.0323 208.637 32.2924 208.896 32.4681C209.154 32.6438 209.491 32.7316 209.905 32.7316C210.332 32.7316 210.675 32.6438 210.934 32.4681C211.196 32.2924 211.327 32.0754 211.327 31.8168C211.327 31.5981 211.242 31.4174 211.073 31.2749C210.907 31.1324 210.649 31.023 210.298 30.9468L208.995 30.6734C208.263 30.5209 207.721 30.264 207.369 29.9028C207.018 29.5382 206.844 29.0775 206.847 28.5207C206.844 28.05 206.972 27.6423 207.23 27.2977C207.492 26.9496 207.855 26.6812 208.319 26.4923C208.786 26.3 209.325 26.2039 209.935 26.2039C210.83 26.2039 211.534 26.3945 212.048 26.7756C212.565 27.1568 212.884 27.6722 213.007 28.3218ZM214.655 33.9397V26.3033H216.455V33.9397H214.655ZM215.56 25.2195C215.275 25.2195 215.03 25.1251 214.824 24.9361C214.619 24.7439 214.516 24.5136 214.516 24.2451C214.516 23.9733 214.619 23.743 214.824 23.554C215.03 23.3618 215.275 23.2657 215.56 23.2657C215.848 23.2657 216.094 23.3618 216.296 23.554C216.501 23.743 216.604 23.9733 216.604 24.2451C216.604 24.5136 216.501 24.7439 216.296 24.9361C216.094 25.1251 215.848 25.2195 215.56 25.2195ZM221.637 34.0888C220.891 34.0888 220.244 33.9248 219.698 33.5967C219.151 33.2685 218.727 32.8095 218.425 32.2195C218.127 31.6296 217.977 30.9402 217.977 30.1513C217.977 29.3625 218.127 28.6715 218.425 28.0782C218.727 27.4849 219.151 27.0242 219.698 26.6961C220.244 26.368 220.891 26.2039 221.637 26.2039C222.382 26.2039 223.029 26.368 223.575 26.6961C224.122 27.0242 224.545 27.4849 224.843 28.0782C225.145 28.6715 225.296 29.3625 225.296 30.1513C225.296 30.9402 225.145 31.6296 224.843 32.2195C224.545 32.8095 224.122 33.2685 223.575 33.5967C223.029 33.9248 222.382 34.0888 221.637 34.0888ZM221.646 32.6471C222.051 32.6471 222.389 32.5361 222.661 32.314C222.932 32.0886 223.135 31.787 223.267 31.4092C223.403 31.0313 223.471 30.6104 223.471 30.1464C223.471 29.679 223.403 29.2565 223.267 28.8786C223.135 28.4975 222.932 28.1942 222.661 27.9688C222.389 27.7434 222.051 27.6307 221.646 27.6307C221.232 27.6307 220.887 27.7434 220.612 27.9688C220.341 28.1942 220.137 28.4975 220.001 28.8786C219.868 29.2565 219.802 29.679 219.802 30.1464C219.802 30.6104 219.868 31.0313 220.001 31.4092C220.137 31.787 220.341 32.0886 220.612 32.314C220.887 32.5361 221.232 32.6471 221.646 32.6471ZM228.623 29.4653V33.9397H226.823V26.3033H228.543V27.6009H228.633C228.808 27.1734 229.089 26.8336 229.473 26.5817C229.861 26.3298 230.34 26.2039 230.91 26.2039C231.437 26.2039 231.896 26.3166 232.287 26.542C232.681 26.7673 232.986 27.0938 233.202 27.5214C233.42 27.9489 233.528 28.4676 233.525 29.0775V33.9397H231.725V29.3559C231.725 28.8455 231.593 28.4461 231.327 28.1577C231.066 27.8694 230.703 27.7252 230.239 27.7252C229.924 27.7252 229.644 27.7948 229.398 27.934C229.156 28.0699 228.966 28.2671 228.827 28.5256C228.691 28.7842 228.623 29.0974 228.623 29.4653ZM236.463 34.0491C236.161 34.0491 235.903 33.943 235.688 33.7309C235.472 33.5188 235.366 33.2602 235.369 32.9553C235.366 32.657 235.472 32.4018 235.688 32.1897C235.903 31.9776 236.161 31.8715 236.463 31.8715C236.755 31.8715 237.008 31.9776 237.224 32.1897C237.442 32.4018 237.554 32.657 237.557 32.9553C237.554 33.1575 237.5 33.3414 237.398 33.5072C237.298 33.6729 237.166 33.8055 237 33.9049C236.838 34.001 236.659 34.0491 236.463 34.0491ZM242.746 34.0888C241.984 34.0888 241.329 33.9215 240.782 33.5867C240.239 33.252 239.819 32.7896 239.524 32.1996C239.233 31.6064 239.087 30.9236 239.087 30.1513C239.087 29.3758 239.236 28.6914 239.534 28.0981C239.833 27.5015 240.253 27.0375 240.797 26.706C241.344 26.3713 241.99 26.2039 242.736 26.2039C243.356 26.2039 243.904 26.3182 244.382 26.5469C244.862 26.7723 245.245 27.0922 245.53 27.5065C245.815 27.9174 245.977 28.398 246.017 28.9482H244.297C244.227 28.5803 244.062 28.2737 243.8 28.0285C243.541 27.7799 243.195 27.6556 242.761 27.6556C242.393 27.6556 242.07 27.755 241.791 27.9539C241.513 28.1495 241.296 28.4312 241.14 28.7991C240.988 29.167 240.911 29.6078 240.911 30.1215C240.911 30.6419 240.988 31.0893 241.14 31.4638C241.293 31.8351 241.506 32.1218 241.781 32.3239C242.06 32.5228 242.386 32.6222 242.761 32.6222C243.026 32.6222 243.263 32.5725 243.472 32.4731C243.684 32.3703 243.861 32.2228 244.004 32.0306C244.146 31.8384 244.244 31.6047 244.297 31.3296H246.017C245.974 31.8699 245.815 32.3488 245.54 32.7664C245.265 33.1807 244.89 33.5055 244.416 33.7408C243.942 33.9728 243.386 34.0888 242.746 34.0888ZM250.826 34.0888C250.08 34.0888 249.434 33.9248 248.887 33.5967C248.34 33.2685 247.916 32.8095 247.614 32.2195C247.316 31.6296 247.167 30.9402 247.167 30.1513C247.167 29.3625 247.316 28.6715 247.614 28.0782C247.916 27.4849 248.34 27.0242 248.887 26.6961C249.434 26.368 250.08 26.2039 250.826 26.2039C251.572 26.2039 252.218 26.368 252.765 26.6961C253.312 27.0242 253.734 27.4849 254.033 28.0782C254.334 28.6715 254.485 29.3625 254.485 30.1513C254.485 30.9402 254.334 31.6296 254.033 32.2195C253.734 32.8095 253.312 33.2685 252.765 33.5967C252.218 33.9248 251.572 34.0888 250.826 34.0888ZM250.836 32.6471C251.24 32.6471 251.578 32.5361 251.85 32.314C252.122 32.0886 252.324 31.787 252.457 31.4092C252.593 31.0313 252.661 30.6104 252.661 30.1464C252.661 29.679 252.593 29.2565 252.457 28.8786C252.324 28.4975 252.122 28.1942 251.85 27.9688C251.578 27.7434 251.24 27.6307 250.836 27.6307C250.422 27.6307 250.077 27.7434 249.802 27.9688C249.53 28.1942 249.326 28.4975 249.19 28.8786C249.058 29.2565 248.991 29.679 248.991 30.1464C248.991 30.6104 249.058 31.0313 249.19 31.4092C249.326 31.787 249.53 32.0886 249.802 32.314C250.077 32.5361 250.422 32.6471 250.836 32.6471ZM259.334 36.9624C258.687 36.9624 258.132 36.8746 257.668 36.6989C257.204 36.5266 256.831 36.2946 256.55 36.0029C256.268 35.7112 256.072 35.3881 255.963 35.0334L257.584 34.6407C257.657 34.7898 257.763 34.9373 257.902 35.0832C258.041 35.2323 258.228 35.3549 258.464 35.4511C258.702 35.5505 259.002 35.6002 259.363 35.6002C259.874 35.6002 260.296 35.4759 260.631 35.2273C260.966 34.9821 261.133 34.5777 261.133 34.0143V32.5675H261.044C260.951 32.7531 260.815 32.9437 260.636 33.1393C260.461 33.3348 260.227 33.4989 259.935 33.6315C259.647 33.764 259.284 33.8303 258.846 33.8303C258.26 33.8303 257.728 33.6928 257.251 33.4177C256.777 33.1393 256.399 32.725 256.117 32.1748C255.839 31.6213 255.699 30.9286 255.699 30.0967C255.699 29.2581 255.839 28.5505 256.117 27.9738C256.399 27.3938 256.778 26.9546 257.256 26.6563C257.733 26.3547 258.265 26.2039 258.851 26.2039C259.299 26.2039 259.667 26.2801 259.955 26.4326C260.247 26.5817 260.479 26.7624 260.651 26.9745C260.823 27.1833 260.954 27.3805 261.044 27.5661H261.143V26.3033H262.918V34.064C262.918 34.7169 262.762 35.2572 262.451 35.6847C262.139 36.1123 261.713 36.4321 261.173 36.6442C260.633 36.8564 260.02 36.9624 259.334 36.9624ZM259.349 32.4184C259.73 32.4184 260.055 32.3256 260.323 32.14C260.591 31.9544 260.795 31.6876 260.934 31.3396C261.074 30.9915 261.143 30.5739 261.143 30.0867C261.143 29.6061 261.074 29.1852 260.934 28.8239C260.799 28.4627 260.596 28.1826 260.328 27.9837C260.063 27.7816 259.736 27.6805 259.349 27.6805C258.948 27.6805 258.613 27.7849 258.344 27.9937C258.076 28.2025 257.874 28.4892 257.738 28.8538C257.602 29.215 257.534 29.626 257.534 30.0867C257.534 30.554 257.602 30.9634 257.738 31.3147C257.877 31.6627 258.081 31.9345 258.349 32.13C258.621 32.3223 258.954 32.4184 259.349 32.4184ZM266.562 29.4653V33.9397H264.763V26.3033H266.483V27.6009H266.572C266.748 27.1734 267.028 26.8336 267.412 26.5817C267.8 26.3298 268.279 26.2039 268.849 26.2039C269.376 26.2039 269.835 26.3166 270.226 26.542C270.621 26.7673 270.926 27.0938 271.141 27.5214C271.36 27.9489 271.468 28.4676 271.464 29.0775V33.9397H269.665V29.3559C269.665 28.8455 269.532 28.4461 269.267 28.1577C269.005 27.8694 268.642 27.7252 268.178 27.7252C267.863 27.7252 267.583 27.7948 267.338 27.934C267.096 28.0699 266.905 28.2671 266.766 28.5256C266.63 28.7842 266.562 29.0974 266.562 29.4653ZM273.294 33.9397V26.3033H275.094V33.9397H273.294ZM274.199 25.2195C273.914 25.2195 273.668 25.1251 273.463 24.9361C273.257 24.7439 273.155 24.5136 273.155 24.2451C273.155 23.9733 273.257 23.743 273.463 23.554C273.668 23.3618 273.914 23.2657 274.199 23.2657C274.487 23.2657 274.732 23.3618 274.934 23.554C275.14 23.743 275.243 23.9733 275.243 24.2451C275.243 24.5136 275.14 24.7439 274.934 24.9361C274.732 25.1251 274.487 25.2195 274.199 25.2195ZM280.757 26.3033V27.6954H276.368V26.3033H280.757ZM277.451 24.4738H279.251V31.6428C279.251 31.8848 279.288 32.0704 279.36 32.1996C279.437 32.3256 279.536 32.4118 279.659 32.4582C279.781 32.5046 279.917 32.5278 280.066 32.5278C280.179 32.5278 280.282 32.5195 280.375 32.5029C280.471 32.4863 280.544 32.4714 280.593 32.4582L280.897 33.8651C280.801 33.8983 280.663 33.9347 280.484 33.9745C280.308 34.0143 280.093 34.0375 279.838 34.0441C279.387 34.0574 278.981 33.9894 278.62 33.8403C278.258 33.6878 277.972 33.4525 277.76 33.1343C277.551 32.8161 277.448 32.4184 277.451 31.9411V24.4738ZM285.561 34.0888C284.796 34.0888 284.134 33.9298 283.578 33.6116C283.024 33.2901 282.598 32.836 282.3 32.2494C282.002 31.6594 281.852 30.965 281.852 30.1663C281.852 29.3807 282.002 28.6914 282.3 28.0981C282.602 27.5015 283.022 27.0375 283.563 26.706C284.103 26.3713 284.738 26.2039 285.467 26.2039C285.937 26.2039 286.382 26.2801 286.799 26.4326C287.22 26.5817 287.591 26.8138 287.913 27.1286C288.238 27.4435 288.493 27.8445 288.678 28.3317C288.864 28.8156 288.957 29.3923 288.957 30.0619V30.6137H282.698V29.4006H287.232C287.228 29.0559 287.154 28.7494 287.008 28.4809C286.862 28.2091 286.658 27.9953 286.396 27.8396C286.138 27.6838 285.836 27.6059 285.492 27.6059C285.124 27.6059 284.801 27.6954 284.522 27.8744C284.244 28.05 284.027 28.282 283.871 28.5704C283.718 28.8554 283.641 29.1686 283.637 29.51V30.569C283.637 31.0131 283.718 31.3942 283.881 31.7124C284.043 32.0273 284.27 32.2692 284.562 32.4383C284.854 32.604 285.195 32.6869 285.586 32.6869C285.848 32.6869 286.085 32.6504 286.297 32.5775C286.509 32.5013 286.693 32.3902 286.849 32.2444C287.005 32.0986 287.122 31.9179 287.202 31.7025L288.882 31.8914C288.776 32.3355 288.574 32.7233 288.276 33.0548C287.981 33.3829 287.603 33.6381 287.142 33.8204C286.682 33.9994 286.155 34.0888 285.561 34.0888ZM291.588 34.0491C291.286 34.0491 291.028 33.943 290.812 33.7309C290.597 33.5188 290.491 33.2602 290.494 32.9553C290.491 32.657 290.597 32.4018 290.812 32.1897C291.028 31.9776 291.286 31.8715 291.588 31.8715C291.88 31.8715 292.133 31.9776 292.349 32.1897C292.567 32.4018 292.679 32.657 292.682 32.9553C292.679 33.1575 292.625 33.3414 292.523 33.5072C292.423 33.6729 292.291 33.8055 292.125 33.9049C291.963 34.001 291.784 34.0491 291.588 34.0491ZM297.871 34.0888C297.109 34.0888 296.454 33.9215 295.907 33.5867C295.364 33.252 294.944 32.7896 294.649 32.1996C294.358 31.6064 294.212 30.9236 294.212 30.1513C294.212 29.3758 294.361 28.6914 294.659 28.0981C294.958 27.5015 295.378 27.0375 295.922 26.706C296.469 26.3713 297.115 26.2039 297.861 26.2039C298.481 26.2039 299.029 26.3182 299.507 26.5469C299.987 26.7723 300.37 27.0922 300.655 27.5065C300.94 27.9174 301.102 28.398 301.142 28.9482H299.422C299.352 28.5803 299.187 28.2737 298.925 28.0285C298.666 27.7799 298.32 27.6556 297.886 27.6556C297.518 27.6556 297.195 27.755 296.916 27.9539C296.638 28.1495 296.421 28.4312 296.265 28.7991C296.113 29.167 296.036 29.6078 296.036 30.1215C296.036 30.6419 296.113 31.0893 296.265 31.4638C296.418 31.8351 296.631 32.1218 296.906 32.3239C297.185 32.5228 297.511 32.6222 297.886 32.6222C298.151 32.6222 298.388 32.5725 298.597 32.4731C298.809 32.3703 298.986 32.2228 299.129 32.0306C299.271 31.8384 299.369 31.6047 299.422 31.3296H301.142C301.099 31.8699 300.94 32.3488 300.665 32.7664C300.39 33.1807 300.015 33.5055 299.541 33.7408C299.067 33.9728 298.511 34.0888 297.871 34.0888ZM305.951 34.0888C305.205 34.0888 304.559 33.9248 304.012 33.5967C303.465 33.2685 303.041 32.8095 302.739 32.2195C302.441 31.6296 302.292 30.9402 302.292 30.1513C302.292 29.3625 302.441 28.6715 302.739 28.0782C303.041 27.4849 303.465 27.0242 304.012 26.6961C304.559 26.368 305.205 26.2039 305.951 26.2039C306.697 26.2039 307.343 26.368 307.89 26.6961C308.437 27.0242 308.859 27.4849 309.158 28.0782C309.459 28.6715 309.61 29.3625 309.61 30.1513C309.61 30.9402 309.459 31.6296 309.158 32.2195C308.859 32.8095 308.437 33.2685 307.89 33.5967C307.343 33.9248 306.697 34.0888 305.951 34.0888ZM305.961 32.6471C306.365 32.6471 306.703 32.5361 306.975 32.314C307.247 32.0886 307.449 31.787 307.582 31.4092C307.718 31.0313 307.786 30.6104 307.786 30.1464C307.786 29.679 307.718 29.2565 307.582 28.8786C307.449 28.4975 307.247 28.1942 306.975 27.9688C306.703 27.7434 306.365 27.6307 305.961 27.6307C305.547 27.6307 305.202 27.7434 304.927 27.9688C304.655 28.1942 304.451 28.4975 304.315 28.8786C304.183 29.2565 304.116 29.679 304.116 30.1464C304.116 30.6104 304.183 31.0313 304.315 31.4092C304.451 31.787 304.655 32.0886 304.927 32.314C305.202 32.5361 305.547 32.6471 305.961 32.6471ZM311.138 33.9397V26.3033H312.858V27.6009H312.947C313.106 27.1634 313.37 26.822 313.738 26.5768C314.106 26.3282 314.545 26.2039 315.055 26.2039C315.572 26.2039 316.008 26.3298 316.363 26.5817C316.721 26.8303 316.973 27.17 317.118 27.6009H317.198C317.367 27.1767 317.652 26.8386 318.053 26.5867C318.457 26.3315 318.936 26.2039 319.49 26.2039C320.193 26.2039 320.766 26.426 321.21 26.8701C321.654 27.3142 321.876 27.9622 321.876 28.814V33.9397H320.072V29.0924C320.072 28.6184 319.946 28.2721 319.694 28.0533C319.442 27.8313 319.134 27.7202 318.769 27.7202C318.335 27.7202 317.995 27.8561 317.75 28.1279C317.508 28.3964 317.387 28.746 317.387 29.1769V33.9397H315.622V29.0178C315.622 28.6234 315.503 28.3085 315.264 28.0732C315.029 27.8379 314.72 27.7202 314.339 27.7202C314.081 27.7202 313.845 27.7865 313.633 27.9191C313.421 28.0484 313.252 28.2323 313.126 28.4709C313 28.7063 312.937 28.9814 312.937 29.2962V33.9397H311.138Z"
    fill="black" fill-opacity="0.4" />
  <path d="M140.4 44.077L133.301 38.9397C134.119 40.368 134.937 42.5095 135.631 45.0904L140.4 44.077Z"
    fill="url(#paint1_linear_2665_237497)" />
  <path d="M133.301 38.9397L128.835 46.5346L135.631 45.0904C134.937 42.5095 134.119 40.368 133.301 38.9397Z"
    fill="url(#paint2_linear_2665_237497)" />
  <path
    d="M127.249 80.1822C126.75 80.419 126.538 81.0155 126.775 81.5144C127.012 82.0133 127.608 82.2258 128.107 81.9889L127.249 80.1822ZM140.4 44.077L140.608 45.0552C140.994 44.973 141.296 44.6708 141.378 44.284C141.46 43.8973 141.306 43.4986 140.986 43.2669L140.4 44.077ZM128.835 46.5346L127.973 46.0277C127.772 46.3694 127.792 46.7975 128.023 47.1191C128.255 47.4407 128.655 47.5951 129.043 47.5128L128.835 46.5346ZM133.301 38.9397L133.887 38.1296C133.659 37.9644 133.371 37.9032 133.096 37.9609C132.82 38.0187 132.581 38.19 132.439 38.4328L133.301 38.9397ZM129.697 47.0415L134.163 39.4466L132.439 38.4328L127.973 46.0277L129.697 47.0415ZM132.714 39.7498L139.814 44.8871L140.986 43.2669L133.887 38.1296L132.714 39.7498ZM129.043 47.5128L135.839 46.0686L135.423 44.1123L128.627 45.5564L129.043 47.5128ZM136.596 44.8309C135.892 42.2081 135.047 39.9752 134.168 38.4425L132.433 39.4369C133.192 40.7609 133.983 42.8109 134.665 45.3499L136.596 44.8309ZM128.107 81.9889C134.375 79.0132 137.2 72.3717 138.126 65.3282C139.057 58.2544 138.12 50.5 136.596 44.8309L134.665 45.3499C136.136 50.8237 137.033 58.3085 136.143 65.0674C135.25 71.8565 132.602 77.6412 127.249 80.1822L128.107 81.9889ZM140.192 43.0988L135.423 44.1123L135.839 46.0686L140.608 45.0552L140.192 43.0988Z"
    fill="url(#paint3_linear_2665_237497)" />
  <rect x="74.6777" y="81.0601" width="82" height="28" rx="6" fill="#4078F0" fill-opacity="0.08" />
  <path
    d="M83.4078 91.2007V89.8782H88.5485V91.2007H83.4078ZM83.4078 100.06V98.7376H88.5485V100.06H83.4078ZM86.7487 89.8782V100.06H85.2075V89.8782H86.7487ZM89.7649 91.2007V89.8782H97.6449V91.2007H94.468V100.06H92.9368V91.2007H89.7649ZM100.531 89.8782V90.8328C100.531 91.1145 100.478 91.4111 100.371 91.7227C100.269 92.0309 100.123 92.3276 99.934 92.6126C99.7451 92.8977 99.523 93.1429 99.2678 93.3484L98.532 92.8214C98.7275 92.5364 98.8966 92.2331 99.0391 91.9116C99.1849 91.5901 99.2578 91.2355 99.2578 90.8477V89.8782H100.531ZM107.701 92.553C107.647 92.0823 107.429 91.7177 107.044 91.4592C106.66 91.1974 106.176 91.0665 105.593 91.0665C105.175 91.0665 104.814 91.1327 104.509 91.2653C104.204 91.3946 103.967 91.5736 103.798 91.8022C103.632 92.0276 103.549 92.2845 103.549 92.5728C103.549 92.8148 103.606 93.0236 103.718 93.1993C103.834 93.3749 103.985 93.5224 104.171 93.6417C104.36 93.7577 104.562 93.8555 104.777 93.9351C104.993 94.0113 105.2 94.0743 105.399 94.124L106.393 94.3825C106.718 94.462 107.051 94.5698 107.392 94.7057C107.734 94.8415 108.05 95.0205 108.342 95.2426C108.634 95.4647 108.869 95.7397 109.048 96.0679C109.23 96.396 109.321 96.7888 109.321 97.2461C109.321 97.8228 109.172 98.3349 108.874 98.7824C108.579 99.2298 108.15 99.5828 107.586 99.8413C107.026 100.1 106.348 100.229 105.553 100.229C104.79 100.229 104.131 100.108 103.574 99.8662C103.017 99.6242 102.581 99.2812 102.267 98.837C101.952 98.3896 101.778 97.8593 101.745 97.2461H103.286C103.316 97.614 103.435 97.9206 103.644 98.1659C103.856 98.4078 104.126 98.5885 104.454 98.7078C104.786 98.8238 105.148 98.8818 105.543 98.8818C105.977 98.8818 106.363 98.8138 106.701 98.678C107.043 98.5388 107.311 98.3465 107.507 98.1013C107.702 97.8527 107.8 97.5627 107.8 97.2312C107.8 96.9296 107.714 96.6827 107.541 96.4905C107.372 96.2982 107.142 96.1391 106.85 96.0132C106.562 95.8872 106.236 95.7762 105.871 95.6801L104.668 95.352C103.853 95.1299 103.206 94.8034 102.729 94.3726C102.255 93.9417 102.018 93.3716 102.018 92.6623C102.018 92.0757 102.177 91.5636 102.495 91.1261C102.813 90.6886 103.244 90.3489 103.788 90.1069C104.331 89.8617 104.945 89.739 105.627 89.739C106.317 89.739 106.925 89.86 107.452 90.102C107.982 90.3439 108.4 90.677 108.705 91.1013C109.01 91.5222 109.169 92.0061 109.182 92.553H107.701ZM114.332 91.2007V89.8782H122.212V91.2007H119.035V100.06H117.504V91.2007H114.332ZM123.939 100.06V89.8782H125.475V94.303H130.551V89.8782H132.093V100.06H130.551V95.6204H125.475V100.06H123.939ZM133.814 91.2007V89.8782H138.954V91.2007H133.814ZM133.814 100.06V98.7376H138.954V100.06H133.814ZM137.155 89.8782V100.06H135.613V89.8782H137.155ZM146.226 92.553C146.173 92.0823 145.954 91.7177 145.57 91.4592C145.186 91.1974 144.702 91.0665 144.118 91.0665C143.701 91.0665 143.339 91.1327 143.034 91.2653C142.73 91.3946 142.493 91.5736 142.324 91.8022C142.158 92.0276 142.075 92.2845 142.075 92.5728C142.075 92.8148 142.131 93.0236 142.244 93.1993C142.36 93.3749 142.511 93.5224 142.696 93.6417C142.885 93.7577 143.087 93.8555 143.303 93.9351C143.518 94.0113 143.726 94.0743 143.924 94.124L144.919 94.3825C145.244 94.462 145.577 94.5698 145.918 94.7057C146.259 94.8415 146.576 95.0205 146.868 95.2426C147.159 95.4647 147.395 95.7397 147.574 96.0679C147.756 96.396 147.847 96.7888 147.847 97.2461C147.847 97.8228 147.698 98.3349 147.4 98.7824C147.105 99.2298 146.675 99.5828 146.112 99.8413C145.552 100.1 144.874 100.229 144.078 100.229C143.316 100.229 142.657 100.108 142.1 99.8662C141.543 99.6242 141.107 99.2812 140.792 98.837C140.477 98.3896 140.303 97.8593 140.27 97.2461H141.811C141.841 97.614 141.961 97.9206 142.169 98.1659C142.382 98.4078 142.652 98.5885 142.98 98.7078C143.311 98.8238 143.674 98.8818 144.069 98.8818C144.503 98.8818 144.889 98.8138 145.227 98.678C145.568 98.5388 145.837 98.3465 146.032 98.1013C146.228 97.8527 146.326 97.5627 146.326 97.2312C146.326 96.9296 146.239 96.6827 146.067 96.4905C145.898 96.2982 145.668 96.1391 145.376 96.0132C145.088 95.8872 144.761 95.7762 144.397 95.6801L143.194 95.352C142.378 95.1299 141.732 94.8034 141.255 94.3726C140.781 93.9417 140.544 93.3716 140.544 92.6623C140.544 92.0757 140.703 91.5636 141.021 91.1261C141.339 90.6886 141.77 90.3489 142.314 90.1069C142.857 89.8617 143.47 89.739 144.153 89.739C144.842 89.739 145.451 89.86 145.978 90.102C146.508 90.3439 146.926 90.677 147.23 91.1013C147.535 91.5222 147.695 92.0061 147.708 92.553H146.226Z"
    fill="#404040" />
  <defs>
    <linearGradient id="paint0_linear_2665_237497" x1="190.359" y1="8.9397" x2="187.36" y2="48.7198"
      gradientUnits="userSpaceOnUse">
      <stop stop-color="#4967FB" />
      <stop offset="1" stop-color="#C844DB" />
    </linearGradient>
    <linearGradient id="paint1_linear_2665_237497" x1="134.15" y1="17.8668" x2="111.169" y2="24.6824"
      gradientUnits="userSpaceOnUse">
      <stop stop-color="#4967FB" />
      <stop offset="1" stop-color="#C844DB" />
    </linearGradient>
    <linearGradient id="paint2_linear_2665_237497" x1="134.15" y1="17.8668" x2="111.169" y2="24.6824"
      gradientUnits="userSpaceOnUse">
      <stop stop-color="#4967FB" />
      <stop offset="1" stop-color="#C844DB" />
    </linearGradient>
    <linearGradient id="paint3_linear_2665_237497" x1="134.15" y1="17.8668" x2="111.169" y2="24.6824"
      gradientUnits="userSpaceOnUse">
      <stop stop-color="#4967FB" />
      <stop offset="1" stop-color="#C844DB" />
    </linearGradient>
  </defs>
</svg>
