<svg width="157" height="142" viewBox="0 0 157 142" fill="none" xmlns="http://www.w3.org/2000/svg">
<circle cx="71.0003" cy="70.9998" r="58.22" fill="#F2F4FF"/>
<rect x="36.4639" y="29.6177" width="69.0715" height="99.1021" rx="1.5" fill="white" stroke="#DADADA"/>
<rect x="45.668" y="43.3179" width="51.12" height="1.42" rx="0.709999" fill="#DADADA"/>
<rect x="45.668" y="60.3579" width="51.12" height="1.41999" rx="0.709997" fill="#DADADA"/>
<rect x="45.668" y="78.8179" width="51.12" height="1.42" rx="0.709999" fill="#DADADA"/>
<rect x="45.668" y="95.8579" width="51.12" height="1.42" rx="0.709999" fill="#DADADA"/>
<rect x="45.668" y="112.897" width="51.12" height="1.42" rx="0.709999" fill="#DADADA"/>
<circle cx="46.9593" cy="128.647" r="4.97" fill="#ACB1FA"/>
<ellipse cx="111.088" cy="61.4646" rx="4.97" ry="4.97" fill="#FFBB00"/>
<path d="M36.9322 20.3548C36.9322 23.0996 34.707 25.3248 31.9622 25.3248C29.2173 25.3248 26.9922 23.0996 26.9922 20.3548C26.9922 17.6099 29.2173 15.3848 31.9622 15.3848C34.707 15.3848 36.9322 17.6099 36.9322 20.3548Z" fill="#4D6AF2"/>
<rect x="2.76179" y="55.0074" width="39.0494" height="34.8569" rx="1.5" transform="rotate(-15 2.76179 55.0074)" fill="white" stroke="#DADADA"/>
<path d="M21.0477 62.3186L34.2945 65.275L24.3006 74.4587L21.0477 62.3186Z" fill="white" stroke="#DADADA" stroke-linejoin="round"/>
<rect x="106.401" y="79.2466" width="51.4113" height="45.9247" rx="1.5" transform="rotate(15 106.401 79.2466)" fill="white" stroke="#DADADA"/>
<rect x="118.183" y="96.4522" width="20.4865" height="20.0985" rx="1.5" transform="rotate(15 118.183 96.4522)" fill="white" stroke="#DADADA"/>
<path d="M134.24 116.126L130.74 108.436L123.393 113.617L119.939 108.719L114.128 111.134" stroke="#DADADA"/>
<circle cx="128.371" cy="105.418" r="1.15106" transform="rotate(15 128.371 105.418)" fill="#C4C4C4"/>
</svg>
