<svg width="40" height="16" viewBox="0 0 40 16" fill="none" xmlns="http://www.w3.org/2000/svg">
<path d="M0.0612298 11.8239H0.162576C1.16759 12.3344 2.87569 12.6605 3.88071 12.6605C5.26788 12.6605 6.23278 12.1499 6.23278 10.8843C6.23066 8.04633 0 9.43422 0 4.30954C0 2.20518 1.40618 0 4.92372 0C6.12932 0 7.55661 0.265994 8.33993 0.613503L8.52151 3.12543H8.44127C7.51649 2.75862 6.23066 2.47117 5.24465 2.47117C3.6569 2.47117 2.9327 3.04392 2.9327 4.065C2.9327 6.73995 9.18448 5.49364 9.18448 10.5797C9.18448 12.5403 8.038 15.1746 4.09818 15.1746C2.692 15.1746 0.861441 14.767 0.259699 14.3787L0.0612298 11.8239Z" fill="#000028"/>
<path d="M16.3613 0.244629H19.4967L22.2499 11.5987H22.3301L24.7624 0.244629H27.7374L24.1396 14.9279H20.261L18.3924 7.75897H18.3312L16.5619 14.9279H13.0654L9.02637 0.244629H12.223L15.0755 11.5794L15.1367 11.6009L17.2079 3.31L16.3613 0.244629Z" fill="#000028"/>
<path d="M31.3372 0.244629H35.1356L40.0002 14.9279H36.8036L35.6972 11.4979H30.632L29.5658 14.9279H26.3691L31.3372 0.244629ZM31.238 9.12755H35.1567L33.1467 2.89814L31.238 9.12755Z" fill="#000028"/>
</svg>
