<svg width="161" height="97" viewBox="0 0 161 97" fill="none" xmlns="http://www.w3.org/2000/svg">
<g opacity="0.5">
<path d="M18.0327 21.7495C18.7725 21.9285 19.5681 21.4862 19.8097 20.7617C20.0513 20.0372 19.6474 19.3049 18.9076 19.1259L4.01053 15.5229L15.7293 2.20627C16.2332 1.63372 16.1583 0.784738 15.562 0.310023C14.9657 -0.164692 14.0739 -0.0853769 13.5701 0.487178L0.33388 15.5281C-0.169975 16.1006 -0.0950727 16.9496 0.501181 17.4243C0.771411 17.6395 1.10235 17.7408 1.43037 17.734L18.0327 21.7495Z" fill="#E8E8E8"/>
<path fill-rule="evenodd" clip-rule="evenodd" d="M42.2924 19.7597C28.4881 13.7583 13.3504 14.4157 3.64883 16.8816C2.91076 17.0692 2.16097 16.6206 1.97411 15.8795C1.78726 15.1385 2.23411 14.3857 2.97218 14.1981C13.1077 11.6219 28.8931 10.9178 43.388 17.2194C57.6946 23.4392 70.5965 36.4248 75.5698 60.7358C93.6481 56.4629 134.976 56.6364 160.733 91.8664C161.183 92.4826 161.051 93.3488 160.437 93.8011C159.823 94.2535 158.961 94.1206 158.51 93.5044C133.594 59.425 93.4634 59.2954 76.0743 63.4603C78.1259 76.5305 73.3524 86.3052 67.007 91.8394C63.7504 94.6798 60.0498 96.4268 56.6296 96.8819C53.2143 97.3363 49.9089 96.5051 47.8185 93.94C44.757 90.1831 43.4615 83.9503 47.0168 77.6342C50.4485 71.5375 58.2779 65.5589 72.8984 61.4368C68.1203 37.881 55.7683 25.6182 42.2924 19.7597ZM73.394 64.1726C59.2902 68.1914 52.3256 73.829 49.4171 78.9961C46.4374 84.2896 47.5901 89.2883 49.9524 92.1871C51.252 93.7818 53.4659 94.5105 56.2673 94.1377C59.0637 93.7656 62.277 92.2982 65.1989 89.7497C70.777 84.8846 75.1871 76.1633 73.394 64.1726Z" fill="#E8E8E8"/>
</g>
</svg>
