<svg width="44" height="44" viewBox="0 0 44 44" fill="none" xmlns="http://www.w3.org/2000/svg">
<rect width="43.9688" height="43.9688" fill="white" fill-opacity="0.01"/>
<g filter="url(#filter0_i_1125_51730)">
<path d="M6.88574 42.6104H37.1143C37.8731 42.6104 38.4883 41.9952 38.4883 41.2363V10.7448C38.4883 10.3901 38.3511 10.0491 38.1055 9.79321L30.4436 1.81212C30.1845 1.54222 29.8265 1.38965 29.4524 1.38965H6.88574C6.12689 1.38965 5.51172 2.00482 5.51172 2.76367V41.2363C5.51172 41.9952 6.12689 42.6104 6.88574 42.6104Z" fill="#F0F0F0"/>
</g>
<path d="M6.88574 43.2974H37.1143C38.2525 43.2974 39.1753 42.3746 39.1753 41.2363V10.7448C39.1753 10.2127 38.9695 9.70126 38.6011 9.31744L30.9392 1.33634C30.5506 0.931489 30.0136 0.702637 29.4524 0.702637H6.88574C5.74746 0.702637 4.82471 1.6254 4.82471 2.76367V41.2363C4.82471 42.3746 5.74747 43.2974 6.88574 43.2974Z" stroke="white" stroke-width="1.37402"/>
<path d="M14.4906 27.0932C16.374 27.0932 17.5743 25.9758 17.7012 24.3851H16.0129C15.8617 25.1902 15.281 25.6538 14.5052 25.6538C13.4025 25.6538 12.6901 24.7316 12.6901 23.1994C12.6901 21.6868 13.4171 20.7793 14.5052 20.7793C15.3542 20.7793 15.8763 21.3258 16.0129 22.0479H17.7012C17.5792 20.4231 16.3106 19.3545 14.4808 19.3545C12.2851 19.3545 10.8994 20.9403 10.8994 23.2287C10.8994 25.4976 12.251 27.0932 14.4906 27.0932ZM25.0751 21.4331C24.8311 20.1645 23.8162 19.3545 22.0597 19.3545C20.2543 19.3545 19.0247 20.2426 19.0296 21.6283C19.0247 22.7213 19.6981 23.4434 21.1375 23.741L22.4158 24.0094C23.1038 24.1607 23.4259 24.4388 23.4259 24.8633C23.4259 25.3756 22.8696 25.7611 22.0304 25.7611C21.2204 25.7611 20.6934 25.4098 20.5422 24.7364L18.8198 24.9023C19.0393 26.2783 20.1957 27.0932 22.0353 27.0932C23.9089 27.0932 25.2312 26.1222 25.2361 24.7023C25.2312 23.6337 24.5432 22.9799 23.1282 22.6725L21.8498 22.3992C21.0887 22.2285 20.7861 21.965 20.791 21.5307C20.7861 21.0233 21.3473 20.6719 22.0841 20.6719C22.8989 20.6719 23.3283 21.116 23.4649 21.6088L25.0751 21.4331ZM33.3871 19.4521H31.5085L29.7812 25.0194H29.7031L27.9807 19.4521H26.0973L28.7663 26.9468H30.7181L33.3871 19.4521Z" fill="#595959"/>
<path fill-rule="evenodd" clip-rule="evenodd" d="M38.488 9.9773L29.9004 1.38965V9.9773H38.488Z" fill="#CDCDCD"/>
<defs>
<filter id="filter0_i_1125_51730" x="4.13672" y="0.015625" width="35.7266" height="43.9688" filterUnits="userSpaceOnUse" color-interpolation-filters="sRGB">
<feFlood flood-opacity="0" result="BackgroundImageFix"/>
<feBlend mode="normal" in="SourceGraphic" in2="BackgroundImageFix" result="shape"/>
<feColorMatrix in="SourceAlpha" type="matrix" values="0 0 0 0 0 0 0 0 0 0 0 0 0 0 0 0 0 0 127 0" result="hardAlpha"/>
<feOffset dy="-2.74805"/>
<feComposite in2="hardAlpha" operator="arithmetic" k2="-1" k3="1"/>
<feColorMatrix type="matrix" values="0 0 0 0 0.874957 0 0 0 0 0.874957 0 0 0 0 0.874957 0 0 0 1 0"/>
<feBlend mode="normal" in2="shape" result="effect1_innerShadow_1125_51730"/>
</filter>
</defs>
</svg>
