<svg width="14" height="14" viewBox="0 0 14 14" fill="none" xmlns="http://www.w3.org/2000/svg">
<path fill-rule="evenodd" clip-rule="evenodd" d="M12 0C13.1046 0 14 0.895431 14 2L14 12C14 13.1046 13.1046 14 12 14L2 14C0.895431 14 0 13.1046 0 12L0 2C0 0.895431 0.895431 0 2 0L12 0ZM12.35 4.82999L12.35 12C12.35 12.1933 12.1933 12.35 12 12.35L2 12.35C1.8067 12.35 1.65 12.1933 1.65 12L1.65 4.82999L12.35 4.82999ZM12.35 3.17999V2C12.35 1.8067 12.1933 1.65 12 1.65L2 1.65C1.8067 1.65 1.65 1.8067 1.65 2V3.17999L12.35 3.17999Z" fill="#3F56B5"/>
</svg>
