<svg width="14" height="14" viewBox="0 0 14 14" fill="none" xmlns="http://www.w3.org/2000/svg">
<path fill-rule="evenodd" clip-rule="evenodd" d="M2 14C0.89543 14 0 13.1046 0 12L0 2C0 0.895431 0.895431 0 2 0H12C13.1046 0 14 0.895431 14 2V12C14 13.1046 13.1046 14 12 14H2ZM1.65 9.17001L1.65 2C1.65 1.8067 1.8067 1.65 2 1.65H12C12.1933 1.65 12.35 1.8067 12.35 2V9.17001H1.65ZM1.65 10.82V12C1.65 12.1933 1.8067 12.35 2 12.35H12C12.1933 12.35 12.35 12.1933 12.35 12V10.82H1.65Z" fill="black" fill-opacity="0.9"/>
</svg>
