<svg width="16" height="16" viewBox="0 0 16 16" fill="none" xmlns="http://www.w3.org/2000/svg">
<path fill-rule="evenodd" clip-rule="evenodd" d="M8 2.46269C6.77216 2.46269 5.63766 2.86232 4.71947 3.53861C4.26892 3.87046 3.87046 4.26893 3.5386 4.71948C2.86232 5.63766 2.46269 6.77216 2.46269 8C2.46269 11.0582 4.94183 13.5373 8 13.5373C9.22784 13.5373 10.3623 13.1377 11.2805 12.4614C11.7311 12.1295 12.1295 11.7311 12.4614 11.2805C13.1377 10.3623 13.5373 9.22784 13.5373 8C13.5373 4.94183 11.0582 2.46269 8 2.46269ZM1 8C1 4.13401 4.13401 1 8 1C11.866 1 15 4.13401 15 8C15 11.866 11.866 15 8 15C4.13401 15 1 11.866 1 8Z" fill="black" fill-opacity="0.45"/>
<path d="M4.71947 3.53861C4.26892 3.87046 3.87046 4.26893 3.5386 4.71948L11.2805 12.4614C11.7311 12.1295 12.1295 11.7311 12.4614 11.2805L4.71947 3.53861Z" fill="black" fill-opacity="0.45"/>
</svg>
