<svg viewBox="0 0 16 13" fill="none" xmlns="http://www.w3.org/2000/svg">
<path d="M15.7109 6.53125L8.95703 0.980469C8.71094 0.761719 8.35547 0.652344 8 0.652344C7.61719 0.652344 7.26172 0.761719 7.01562 0.980469L0.261719 6.53125C0.179688 6.61328 0.125 6.72266 0.125 6.85938C0.125 6.96875 0.152344 7.07812 0.207031 7.13281L0.507812 7.48828C0.5625 7.57031 0.699219 7.625 0.835938 7.625C0.945312 7.625 1.02734 7.59766 1.10938 7.54297L1.875 6.91406V12C1.875 12.4922 2.25781 12.875 2.75 12.875H6.25C6.71484 12.875 7.09766 12.4922 7.125 12V9.15625H8.875V12C8.875 12.4922 9.25781 12.875 9.75 12.875H13.25C13.7148 12.875 14.0977 12.4922 14.125 12.0273V6.91406L14.8633 7.54297C14.9453 7.59766 15.0273 7.65234 15.1367 7.65234C15.2734 7.65234 15.4102 7.57031 15.4922 7.48828L15.7656 7.13281C15.8203 7.07812 15.875 6.96875 15.875 6.85938C15.875 6.72266 15.793 6.61328 15.7109 6.53125ZM12.7852 11.5625H10.1875V8.71875C10.1602 8.25391 9.77734 7.87109 9.3125 7.84375H6.6875C6.19531 7.87109 5.8125 8.25391 5.8125 8.71875V11.5625H3.1875V5.84766L8 1.88281L12.8125 5.84766L12.7852 11.5625Z" fill="#595959"/>
</svg>
