<svg viewBox="0 0 18 12" fill="none" xmlns="http://www.w3.org/2000/svg">
<path d="M17.25 0H3.5C2.84375 0 2.28125 0.4375 2.0625 1H0.75C0.3125 1 0 1.34375 0 1.75V10.25C0 11.2188 0.78125 12 1.75 12H17.25C17.6562 12 18 11.6875 18 11.25V0.75C18 0.34375 17.6562 0 17.25 0ZM1.5 10.25V2.5H2V10.25C2 10.4062 1.875 10.5 1.75 10.5C1.59375 10.5 1.5 10.4062 1.5 10.25ZM16.5 10.5H3.46875C3.46875 10.4375 3.5 10.3438 3.5 10.25V1.5H16.5V10.5ZM5.375 6.75H9.625C9.8125 6.75 10 6.59375 10 6.375V3.375C10 3.1875 9.8125 3 9.625 3H5.375C5.15625 3 5 3.1875 5 3.375V6.375C5 6.59375 5.15625 6.75 5.375 6.75ZM6.25 4.25H8.75V5.5H6.25V4.25ZM5 8.625C5 8.84375 5.15625 9 5.375 9H9.625C9.8125 9 10 8.84375 10 8.625V7.875C10 7.6875 9.8125 7.5 9.625 7.5H5.375C5.15625 7.5 5 7.6875 5 7.875V8.625ZM11 8.625C11 8.84375 11.1562 9 11.375 9H14.625C14.8125 9 15 8.84375 15 8.625V7.875C15 7.6875 14.8125 7.5 14.625 7.5H11.375C11.1562 7.5 11 7.6875 11 7.875V8.625ZM11 4.125C11 4.34375 11.1562 4.5 11.375 4.5H14.625C14.8125 4.5 15 4.34375 15 4.125V3.375C15 3.1875 14.8125 3 14.625 3H11.375C11.1562 3 11 3.1875 11 3.375V4.125ZM11 6.375C11 6.59375 11.1562 6.75 11.375 6.75H14.625C14.8125 6.75 15 6.59375 15 6.375V5.625C15 5.4375 14.8125 5.25 14.625 5.25H11.375C11.1562 5.25 11 5.4375 11 5.625V6.375Z" fill="#595959"/>
</svg>
