<svg width="355" height="280" viewBox="0 0 355 280" fill="none" xmlns="http://www.w3.org/2000/svg">
<g clip-path="url(#clip0_662_134902)">
<g filter="url(#filter0_dd_662_134902)">
<g clip-path="url(#clip1_662_134902)">
<path d="M32.8596 43.8958C33.4088 37.3259 39.1799 32.4452 45.7498 32.9944L331.246 56.8606C337.815 57.4098 342.696 63.1809 342.147 69.7508L310.282 450.932C309.733 457.502 303.962 462.383 297.392 461.834L11.8959 437.968C5.32605 437.418 0.445341 431.647 0.994553 425.077L32.8596 43.8958Z" fill="white"/>
<g filter="url(#filter1_i_662_134902)">
<rect width="310.366" height="108.628" transform="translate(33.854 32) rotate(4.77855)" fill="white"/>
<rect width="310.366" height="54.3141" transform="translate(33.854 32) rotate(4.77855)" fill="white"/>
<path d="M47.5873 67.3638L49.6247 67.5341L49.969 63.4154L52.0448 63.5889L53.9081 67.8922L56.1816 68.0823L54.1216 63.4197C55.4896 62.9977 56.2816 61.9247 56.4093 60.398C56.5888 58.2508 55.3261 56.6853 52.745 56.4696L48.5275 56.117L47.5873 67.3638ZM50.1104 61.724L50.4225 57.9897L52.2897 58.1458C53.8108 58.273 54.4335 59.0273 54.3334 60.2245C54.2334 61.4217 53.4987 62.0072 51.9885 61.881L50.1104 61.724ZM58.9348 68.3124L60.0947 65.6167L64.3233 65.9702L65.025 68.8215L67.1997 69.0033L64.1749 57.425L61.6598 57.2148L56.7601 68.1306L58.9348 68.3124ZM60.7807 64.0261L62.6806 59.6227L62.7685 59.6301L63.9109 64.2878L60.7807 64.0261ZM69.8361 69.2237L71.8461 69.3917L74.7628 61.689L74.8507 61.6963L76.4425 69.776L78.4525 69.944L82.5668 58.9625L80.3756 58.7794L77.6579 66.8803L77.559 66.8721L76.0812 58.4204L74.0878 58.2537L71.2332 66.3377L71.1288 66.329L69.7933 57.8947L67.6022 57.7116L69.8361 69.2237ZM86.5659 70.6222L93.9247 71.2374L94.0675 69.5295L88.7461 69.0847L89.0027 66.0149L93.9012 66.4244L94.044 64.7165L89.1455 64.307L89.4007 61.2536L94.6782 61.6948L94.8209 59.9869L87.5061 59.3754L86.5659 70.6222ZM98.0475 63.088L95.9387 62.9117L98.0903 67.3386L95.1677 71.3413L97.2764 71.5176L99.2986 68.6286L100.83 71.8146L102.922 71.9895L100.688 67.5557L103.583 63.5507L101.48 63.3749L99.4896 66.344L98.0475 63.088ZM103.996 75.2646L105.984 75.4308L106.36 70.9387L106.442 70.9456C106.704 71.5868 107.285 72.5036 108.735 72.6248C110.723 72.791 112.343 71.3393 112.575 68.5605C112.81 65.7488 111.406 64.0941 109.456 63.9311C107.968 63.8067 107.273 64.65 106.92 65.2343L106.804 65.2246L106.921 63.8298L104.966 63.6664L103.996 75.2646ZM106.563 68.0469C106.7 66.4104 107.491 65.4093 108.771 65.5162C110.094 65.6269 110.681 66.8096 110.55 68.3802C110.418 69.9617 109.629 71.0571 108.317 70.9474C107.048 70.8414 106.426 69.6834 106.563 68.0469ZM114.712 61.6497L113.946 70.8042C113.823 72.276 114.527 73.0592 116.139 73.1497C116.645 73.181 116.993 73.1271 117.229 73.075L117.026 71.5427C116.919 71.567 116.801 71.5848 116.537 71.5682C116.047 71.5383 115.909 71.2779 115.961 70.6464L116.7 61.8159L114.712 61.6497ZM121.722 73.7271C124.194 73.9336 125.91 72.3241 126.128 69.7156C126.346 67.1016 124.922 65.224 122.45 65.0174C119.979 64.8108 118.263 66.4258 118.044 69.0398C117.826 71.6483 119.251 73.5205 121.722 73.7271ZM121.867 72.1354C120.499 72.0211 119.931 70.746 120.06 69.2028C120.189 67.6597 120.962 66.4801 122.33 66.5944C123.675 66.7069 124.242 67.9985 124.113 69.5416C123.984 71.0848 123.212 72.2479 121.867 72.1354ZM127.311 74.0283L129.299 74.1945L129.713 69.2356C129.803 68.1647 130.673 67.4744 131.766 67.5657C132.101 67.5937 132.513 67.689 132.679 67.7582L132.832 65.9295C132.653 65.8814 132.342 65.8332 132.123 65.8149C131.156 65.7341 130.303 66.2157 129.914 67.1675L129.826 67.1602L129.943 65.7543L128.016 65.5932L127.311 74.0283ZM136.661 74.9758C138.627 75.1402 140.058 74.2921 140.532 72.8552L138.693 72.4913C138.364 73.1828 137.674 73.5011 136.817 73.4295C135.532 73.3221 134.752 72.4052 134.856 70.9595L140.732 71.4507L140.783 70.8412C141.031 67.8812 139.36 66.4309 137.284 66.2574C134.868 66.0554 133.144 67.6975 132.926 70.3005C132.705 72.9474 134.118 74.7633 136.661 74.9758ZM134.974 69.62C135.124 68.5487 135.996 67.7092 137.182 67.8083C138.325 67.9038 139.024 68.8028 138.939 69.9515L134.974 69.62ZM141.952 75.2523L143.94 75.4185L144.355 70.4595C144.444 69.3887 145.315 68.6983 146.408 68.7897C146.743 68.8177 147.155 68.913 147.321 68.9821L147.474 67.1534C147.295 67.1053 146.984 67.0572 146.764 67.0388C145.798 66.958 144.945 67.4397 144.555 68.3915L144.467 68.3842L144.585 66.9783L142.657 66.8172L141.952 75.2523Z" fill="#333333"/>
<path d="M254.344 72.2334C254.525 70.0682 254.616 68.9856 255.106 68.1938C255.538 67.4973 256.179 66.9553 256.937 66.6455C257.799 66.2932 258.882 66.3837 261.047 66.5647L275.738 67.7929C277.903 67.9739 278.986 68.0644 279.778 68.5549C280.474 68.9863 281.016 69.6272 281.326 70.3856C281.678 71.2479 281.588 72.3305 281.407 74.4957L280.179 89.1868C279.998 91.3521 279.907 92.4347 279.417 93.2264C278.985 93.9229 278.344 94.4649 277.586 94.7748C276.724 95.127 275.641 95.0365 273.476 94.8555L258.785 93.6274C256.62 93.4464 255.537 93.3559 254.745 92.8654C254.049 92.4339 253.507 91.793 253.197 91.0346C252.845 90.1724 252.935 89.0897 253.116 86.9245L254.344 72.2334Z" fill="#4A67FB"/>
<path fill-rule="evenodd" clip-rule="evenodd" d="M267.625 76.3607C268.026 76.3942 268.323 76.7459 268.29 77.1462L268.047 80.0458L270.947 80.2882C271.347 80.3216 271.644 80.6733 271.611 81.0737C271.578 81.474 271.226 81.7714 270.826 81.738L267.926 81.4956L267.684 84.3951C267.65 84.7955 267.298 85.0929 266.898 85.0594C266.498 85.026 266.2 84.6743 266.234 84.2739L266.476 81.3744L263.577 81.132C263.176 81.0985 262.879 80.7468 262.912 80.3465C262.946 79.9461 263.297 79.6487 263.698 79.6822L266.597 79.9246L266.84 77.025C266.873 76.6247 267.225 76.3273 267.625 76.3607Z" fill="white"/>
<rect x="289.171" y="74.7555" width="1.93979" height="15.5183" rx="0.969894" transform="rotate(4.77855 289.171 74.7555)" fill="#E8E8E8"/>
<path d="M298.804 75.95C298.985 73.7848 299.076 72.7022 299.566 71.9104C299.998 71.214 300.639 70.672 301.397 70.3621C302.259 70.0099 303.342 70.1004 305.507 70.2814L320.198 71.5095C322.363 71.6905 323.446 71.781 324.238 72.2715C324.934 72.703 325.476 73.3439 325.786 74.1023C326.138 74.9645 326.048 76.0471 325.867 78.2123L324.639 92.9035C324.458 95.0687 324.367 96.1513 323.877 96.9431C323.445 97.6396 322.804 98.1816 322.046 98.4914C321.184 98.8436 320.101 98.7531 317.936 98.5721L303.245 97.344C301.08 97.163 299.997 97.0725 299.205 96.582C298.509 96.1505 297.967 95.5097 297.657 94.7512C297.305 93.889 297.395 92.8064 297.576 90.6412L298.804 75.95Z" fill="black" fill-opacity="0.06"/>
<g clip-path="url(#clip2_662_134902)">
<path fill-rule="evenodd" clip-rule="evenodd" d="M306.404 77.1693C306.891 77.21 307.253 77.6382 307.213 78.1255L306.229 89.8919C306.188 90.3793 305.76 90.7414 305.273 90.7006C304.785 90.6599 304.423 90.2317 304.464 89.7444L305.448 77.978C305.488 77.4906 305.917 77.1285 306.404 77.1693ZM314.687 80.0967C315.002 80.4702 314.956 81.0289 314.582 81.3447L311.965 83.5584L317.679 84.0361C318.166 84.0768 318.528 84.505 318.487 84.9923C318.446 85.4797 318.018 85.8418 317.531 85.801L311.817 85.3234L314.031 87.941C314.347 88.3144 314.3 88.8732 313.927 89.189C313.553 89.5048 312.994 89.4581 312.679 89.0847L309.593 85.4357C309.588 85.4302 309.583 85.4247 309.579 85.4191C309.502 85.3288 309.414 85.2249 309.345 85.1277C309.265 85.016 309.164 84.8525 309.113 84.6358C309.046 84.3527 309.071 84.0557 309.184 83.7874C309.27 83.5823 309.397 83.4378 309.494 83.3409C309.579 83.2566 309.683 83.1688 309.773 83.0924C309.779 83.0877 309.784 83.083 309.79 83.0784L313.439 79.9924C313.812 79.6766 314.371 79.7233 314.687 80.0967Z" fill="#333333"/>
</g>
<rect width="310.366" height="50.4345" transform="translate(29.3296 86.1253) rotate(4.77855)" fill="white"/>
<path d="M39.5056 104.106C39.7771 100.858 39.9129 99.2339 40.6486 98.0463C41.2958 97.0016 42.2571 96.1886 43.3948 95.7238C44.6881 95.1955 46.312 95.3312 49.5599 95.6027L317.093 117.967C320.341 118.239 321.965 118.375 323.153 119.11C324.198 119.758 325.011 120.719 325.475 121.856C326.004 123.15 325.868 124.774 325.596 128.022L324.239 144.259C323.968 147.507 323.832 149.131 323.096 150.319C322.449 151.363 321.487 152.176 320.35 152.641C319.056 153.169 317.433 153.034 314.185 152.762L46.6512 130.398C43.4034 130.126 41.7795 129.99 40.5918 129.255C39.5471 128.607 38.7341 127.646 38.2693 126.508C37.741 125.215 37.8767 123.591 38.1482 120.343L39.5056 104.106Z" fill="white"/>
<path fill-rule="evenodd" clip-rule="evenodd" d="M54.7731 119.397C56.2928 119.524 57.7374 119.14 58.9376 118.389L61.8989 121.89L63.38 120.638L60.4187 117.136C61.359 116.078 61.9773 114.717 62.1043 113.197C62.4167 109.46 59.6408 106.178 55.9042 105.866C52.1677 105.553 48.8854 108.329 48.573 112.066C48.2606 115.802 51.0365 119.085 54.7731 119.397ZM60.1717 113.035C59.9485 115.704 57.604 117.687 54.9351 117.464C52.2661 117.241 50.2833 114.896 50.5064 112.228C50.7295 109.559 53.074 107.576 55.743 107.799C58.412 108.022 60.3948 110.367 60.1717 113.035Z" fill="black" fill-opacity="0.45"/>
<path d="M72.5222 119.357L73.7139 119.457L74.0818 115.055L78.3488 115.412L78.4372 114.355L74.1702 113.998L74.4482 110.673L79.1572 111.067L79.2456 110.01L73.3448 109.516L72.5222 119.357ZM80.3101 120.008L81.4442 120.103L82.0612 112.722L80.9271 112.628L80.3101 120.008ZM81.6066 111.446C82.0487 111.483 82.4428 111.167 82.4781 110.744C82.5135 110.322 82.1772 109.945 81.7351 109.908C81.2931 109.871 80.8989 110.187 80.8636 110.609C80.8282 111.032 81.1645 111.409 81.6066 111.446ZM84.3438 110.436L83.6562 118.662C83.5682 119.715 84.0545 120.379 85.1309 120.469C85.4577 120.497 85.7844 120.466 85.9862 120.425L85.8375 119.425C85.7242 119.45 85.6205 119.475 85.3506 119.462C84.8497 119.435 84.756 119.165 84.8159 118.449L85.4779 110.531L84.3438 110.436ZM90.8498 113.457L89.2737 113.325L89.4215 111.557L88.2875 111.462L88.1397 113.231L87.0249 113.137L86.9445 114.098L88.0593 114.192L87.6737 118.805C87.5661 120.092 88.5526 120.794 89.5136 120.874C89.9364 120.91 90.212 120.855 90.3705 120.811L90.2251 119.773C90.1273 119.784 89.9704 119.809 89.7205 119.789C89.2208 119.747 88.7531 119.553 88.8334 118.592L89.1934 114.286L90.7694 114.418L90.8498 113.457ZM94.941 121.386C96.4402 121.512 97.5985 120.854 98.0376 119.768L96.9677 119.369C96.6152 120.113 95.9151 120.442 95.0262 120.368C93.6951 120.256 92.8493 119.319 92.9285 117.734L98.2863 118.182L98.3265 117.701C98.5562 114.953 97.0012 113.875 95.4636 113.746C93.4646 113.579 92.0066 115.044 91.817 117.312C91.6274 119.58 92.8075 121.208 94.941 121.386ZM93.0105 116.754C93.1834 115.612 94.081 114.656 95.3784 114.765C96.6085 114.868 97.3194 115.856 97.215 117.105L93.0105 116.754ZM99.735 121.632L100.869 121.727L101.259 117.056C101.343 116.057 102.192 115.392 103.268 115.482C103.571 115.508 103.879 115.591 103.954 115.617L104.05 114.464C103.921 114.443 103.624 114.409 103.456 114.395C102.572 114.321 101.761 114.756 101.431 115.464L101.354 115.458L101.448 114.343L100.352 114.251L99.735 121.632ZM111.349 122.758C112.772 122.877 113.326 122.033 113.61 121.65L113.744 121.661L113.65 122.795L114.745 122.887L115.568 113.046L114.434 112.951L114.13 116.584L114.034 116.576C113.816 116.171 113.448 115.249 112.007 115.129C110.142 114.973 108.731 116.345 108.536 118.671C108.34 121.016 109.504 122.604 111.349 122.758ZM111.588 121.752C110.166 121.633 109.54 120.323 109.672 118.747C109.802 117.19 110.614 116.038 112.056 116.159C113.44 116.275 114.077 117.45 113.939 119.103C113.799 120.776 112.953 121.866 111.588 121.752ZM119.137 123.428C120.425 123.536 121.155 122.9 121.426 122.439L121.484 122.444L121.4 123.443L122.534 123.538L122.941 118.675C123.137 116.33 121.372 115.912 120.43 115.833C119.315 115.74 118.014 116.018 117.325 117.316L118.37 117.79C118.664 117.273 119.304 116.745 120.385 116.836C121.428 116.923 121.896 117.519 121.816 118.465L121.813 118.504C121.767 119.051 121.214 118.957 119.854 119.017C118.47 119.081 116.95 119.258 116.809 120.95C116.688 122.391 117.734 123.311 119.137 123.428ZM119.395 122.424C118.492 122.349 117.872 121.89 117.938 121.102C118.01 120.237 118.821 120.034 119.714 119.993C120.2 119.975 121.499 119.948 121.71 119.734L121.624 120.772C121.546 121.694 120.741 122.537 119.395 122.424ZM128.431 116.599L126.855 116.467L127.003 114.699L125.869 114.604L125.721 116.372L124.606 116.279L124.526 117.24L125.64 117.333L125.255 121.946C125.147 123.234 126.134 123.936 127.095 124.016C127.518 124.051 127.793 123.997 127.952 123.952L127.806 122.914C127.708 122.925 127.552 122.951 127.302 122.93C126.802 122.888 126.334 122.694 126.415 121.733L126.774 117.428L128.351 117.56L128.431 116.599ZM131.677 124.477C132.965 124.584 133.696 123.949 133.966 123.487L134.024 123.492L133.94 124.492L135.075 124.586L135.481 119.724C135.677 117.379 133.912 116.96 132.97 116.881C131.855 116.788 130.555 117.067 129.866 118.364L130.91 118.838C131.205 118.321 131.844 117.794 132.925 117.884C133.968 117.971 134.436 118.567 134.357 119.513L134.353 119.552C134.308 120.1 133.754 120.005 132.394 120.066C131.01 120.129 129.49 120.307 129.349 121.998C129.228 123.44 130.274 124.359 131.677 124.477ZM131.935 123.472C131.032 123.397 130.412 122.939 130.478 122.151C130.55 121.286 131.361 121.082 132.255 121.041C132.74 121.023 134.039 120.997 134.251 120.782L134.164 121.82C134.087 122.743 133.281 123.585 131.935 123.472ZM137.298 124.772L138.394 124.864L138.488 123.73L138.623 123.741C138.839 124.166 139.246 125.09 140.668 125.209C142.513 125.363 143.925 123.991 144.121 121.646C144.315 119.32 143.151 117.732 141.287 117.577C139.845 117.456 139.329 118.303 139.047 118.667L138.951 118.659L139.255 115.026L138.121 114.931L137.298 124.772ZM138.721 121.175C138.86 119.522 139.683 118.468 141.067 118.584C142.509 118.705 143.119 119.975 142.988 121.532C142.857 123.108 142.022 124.296 140.599 124.177C139.235 124.063 138.582 122.847 138.721 121.175ZM147.706 125.817C148.994 125.924 149.724 125.288 149.995 124.827L150.053 124.832L149.969 125.832L151.103 125.926L151.51 121.063C151.706 118.719 149.941 118.3 148.999 118.221C147.884 118.128 146.584 118.407 145.894 119.704L146.939 120.178C147.234 119.661 147.873 119.134 148.954 119.224C149.997 119.311 150.465 119.907 150.385 120.853L150.382 120.892C150.336 121.44 149.783 121.345 148.423 121.405C147.039 121.469 145.519 121.647 145.378 123.338C145.257 124.78 146.303 125.699 147.706 125.817ZM147.964 124.812C147.061 124.737 146.441 124.279 146.507 123.49C146.579 122.626 147.39 122.422 148.284 122.381C148.769 122.363 150.068 122.337 150.279 122.122L150.193 123.16C150.116 124.082 149.31 124.925 147.964 124.812ZM158.88 120.809C158.612 119.731 157.873 118.963 156.412 118.841C154.855 118.711 153.628 119.499 153.524 120.748C153.439 121.767 153.987 122.5 155.316 122.93L156.522 123.321C157.252 123.556 157.573 123.941 157.53 124.451C157.477 125.085 156.761 125.548 155.704 125.459C154.777 125.382 154.229 124.934 154.093 124.125L152.994 124.304C153.154 125.58 154.131 126.334 155.64 126.46C157.355 126.604 158.601 125.764 158.708 124.491C158.794 123.463 158.204 122.76 156.914 122.328L155.841 121.968C154.985 121.678 154.615 121.352 154.663 120.785C154.716 120.151 155.427 119.746 156.33 119.821C157.32 119.904 157.683 120.486 157.837 121.012L158.88 120.809ZM163.324 127.103C164.824 127.228 165.982 126.57 166.421 125.484L165.351 125.085C164.999 125.83 164.299 126.158 163.41 126.084C162.079 125.973 161.233 125.036 161.312 123.451L166.67 123.899L166.71 123.418C166.94 120.669 165.385 119.591 163.847 119.463C161.848 119.295 160.39 120.761 160.2 123.029C160.011 125.297 161.191 126.924 163.324 127.103ZM161.394 122.47C161.567 121.328 162.464 120.373 163.762 120.481C164.992 120.584 165.703 121.573 165.598 122.822L161.394 122.47ZM173.825 122.058C173.557 120.981 172.818 120.213 171.357 120.09C169.801 119.96 168.573 120.748 168.469 121.997C168.384 123.016 168.932 123.749 170.261 124.179L171.467 124.571C172.197 124.806 172.518 125.191 172.476 125.7C172.423 126.334 171.706 126.797 170.649 126.709C169.722 126.631 169.174 126.184 169.038 125.374L167.939 125.553C168.099 126.829 169.076 127.584 170.585 127.71C172.3 127.853 173.546 127.014 173.653 125.74C173.739 124.712 173.149 124.01 171.859 123.578L170.786 123.217C169.93 122.928 169.56 122.601 169.608 122.034C169.661 121.4 170.372 120.995 171.275 121.071C172.265 121.153 172.628 121.735 172.782 122.261L173.825 122.058Z" fill="black" fill-opacity="0.45"/>
<path d="M40.5918 129.255L41.6134 127.606L40.5918 129.255ZM38.2693 126.508L36.4736 127.242L38.2693 126.508ZM323.096 150.319L324.745 151.34L323.096 150.319ZM320.35 152.641L319.616 150.845L320.35 152.641ZM323.153 119.11L322.131 120.759L323.153 119.11ZM325.475 121.856L323.68 122.59L325.475 121.856ZM49.3983 97.5358L316.932 119.9L317.255 116.034L49.7215 93.6697L49.3983 97.5358ZM323.663 127.86L322.306 144.098L326.172 144.421L327.529 128.183L323.663 127.86ZM314.346 150.829L46.8128 128.464L46.4896 132.331L314.023 154.695L314.346 150.829ZM40.0813 120.505L41.4386 104.267L37.5726 103.944L36.2152 120.182L40.0813 120.505ZM46.8128 128.464C45.157 128.326 44.0315 128.23 43.1674 128.087C42.3257 127.947 41.9028 127.785 41.6134 127.606L39.5702 130.904C40.4684 131.46 41.4513 131.734 42.5305 131.914C43.5872 132.089 44.8976 132.197 46.4896 132.331L46.8128 128.464ZM36.2152 120.182C36.0821 121.774 35.971 123.084 35.969 124.155C35.967 125.249 36.074 126.264 36.4736 127.242L40.065 125.775C39.9363 125.46 39.847 125.016 39.8486 124.162C39.8502 123.286 39.9428 122.161 40.0813 120.505L36.2152 120.182ZM41.6134 127.606C40.9169 127.174 40.3749 126.533 40.065 125.775L36.4736 127.242C37.0933 128.759 38.1773 130.041 39.5702 130.904L41.6134 127.606ZM322.306 144.098C322.168 145.753 322.072 146.879 321.928 147.743C321.788 148.585 321.626 149.008 321.447 149.297L324.745 151.34C325.301 150.442 325.575 149.459 325.755 148.38C325.931 147.323 326.039 146.013 326.172 144.421L322.306 144.098ZM314.023 154.695C315.615 154.828 316.925 154.939 317.997 154.941C319.091 154.943 320.105 154.836 321.083 154.437L319.616 150.845C319.301 150.974 318.857 151.063 318.004 151.062C317.128 151.06 316.002 150.967 314.346 150.829L314.023 154.695ZM321.447 149.297C321.016 149.993 320.375 150.535 319.616 150.845L321.083 154.437C322.6 153.817 323.882 152.733 324.745 151.34L321.447 149.297ZM316.932 119.9C318.588 120.039 319.713 120.134 320.577 120.278C321.419 120.418 321.842 120.58 322.131 120.759L324.174 117.461C323.276 116.905 322.293 116.631 321.214 116.451C320.157 116.275 318.847 116.167 317.255 116.034L316.932 119.9ZM327.529 128.183C327.663 126.591 327.774 125.281 327.776 124.21C327.778 123.116 327.671 122.101 327.271 121.123L323.68 122.59C323.808 122.905 323.898 123.349 323.896 124.202C323.894 125.078 323.802 126.204 323.663 127.86L327.529 128.183ZM322.131 120.759C322.828 121.191 323.37 121.832 323.68 122.59L327.271 121.123C326.651 119.606 325.567 118.324 324.174 117.461L322.131 120.759ZM49.7215 93.6697C48.1295 93.5366 46.8193 93.4255 45.748 93.4235C44.6541 93.4215 43.6393 93.5285 42.6612 93.9281L44.1284 97.5195C44.4436 97.3908 44.8875 97.3015 45.7408 97.3031C46.6167 97.3047 47.7425 97.3973 49.3983 97.5358L49.7215 93.6697ZM41.4386 104.267C41.5771 102.611 41.6727 101.486 41.8165 100.622C41.9566 99.7802 42.1183 99.3573 42.2976 99.0678L38.9996 97.0247C38.4432 97.9229 38.1692 98.9058 37.9895 99.985C37.8137 101.042 37.7056 102.352 37.5726 103.944L41.4386 104.267ZM42.6612 93.9281C41.1443 94.5478 39.8626 95.6318 38.9996 97.0247L42.2976 99.0678C42.7291 98.3714 43.37 97.8294 44.1284 97.5195L42.6612 93.9281Z" fill="#D9D9D9"/>
</g>
<g clip-path="url(#clip3_662_134902)">
<rect width="310.366" height="297.758" transform="translate(24.8047 140.251) rotate(4.77855)" fill="white"/>
<g clip-path="url(#clip4_662_134902)">
<path d="M27.1234 205.654C27.4357 201.917 30.7181 199.142 34.4546 199.454L314.746 222.885C318.483 223.197 321.259 226.48 320.946 230.216L318.846 255.346C318.533 259.082 315.251 261.858 311.514 261.546L31.2227 238.115C27.4862 237.802 24.7103 234.52 25.0227 230.784L27.1234 205.654Z" fill="#FAFAFA"/>
<path fill-rule="evenodd" clip-rule="evenodd" d="M41.007 217.168L40.8164 219.448C40.8177 219.462 40.8325 219.546 40.9728 219.699C41.1437 219.886 41.4342 220.097 41.8534 220.302C42.6856 220.709 43.8977 221.031 45.2937 221.147C46.6898 221.264 47.9385 221.148 48.8268 220.885C49.2742 220.752 49.5956 220.592 49.7952 220.436C49.959 220.309 49.9875 220.229 49.9911 220.215L50.1818 217.935C49.9489 218.045 49.6955 218.139 49.4295 218.217C48.3797 218.528 46.9943 218.646 45.5132 218.522C44.0321 218.398 42.6856 218.052 41.7019 217.571C41.4527 217.449 41.2183 217.315 41.007 217.168ZM51.5403 216.28L50.8451 224.596C50.7955 225.189 50.4162 225.58 50.0742 225.814C49.7144 226.061 49.2479 226.242 48.7336 226.372C47.697 226.634 46.3211 226.724 44.8379 226.6C43.3547 226.476 42.0129 226.159 41.0341 225.729C40.5486 225.515 40.1187 225.259 39.8048 224.956C39.5064 224.668 39.1972 224.22 39.2468 223.627L39.942 215.311C39.9912 214.722 40.3357 214.3 40.6931 214.023C41.0578 213.74 41.5312 213.528 42.0528 213.374C43.1025 213.063 44.488 212.945 45.9691 213.069C47.4501 213.193 48.7967 213.539 49.7804 214.02C50.2691 214.259 50.7008 214.546 51.0134 214.886C51.3198 215.218 51.5895 215.692 51.5403 216.28ZM40.6691 221.21L40.4617 223.69C40.4737 223.715 40.5076 223.77 40.596 223.855C40.7694 224.023 41.0647 224.214 41.4899 224.401C42.3326 224.772 43.5542 225.069 44.9561 225.187C46.358 225.304 47.6121 225.213 48.5046 224.987C48.9549 224.874 49.2779 224.734 49.4767 224.598C49.578 224.528 49.6207 224.48 49.6365 224.457L49.8438 221.977C49.6129 222.087 49.3619 222.18 49.0984 222.258C48.0503 222.568 46.6646 222.686 45.1756 222.561C43.6865 222.437 42.3396 222.091 41.3576 221.611C41.1107 221.49 40.8785 221.357 40.6691 221.21ZM49.9911 220.215L49.9909 220.218L49.9911 220.215ZM50.3276 216.179C50.3237 216.157 50.3007 216.075 50.1706 215.933C49.998 215.746 49.7055 215.534 49.2851 215.329C48.4502 214.921 47.238 214.599 45.8509 214.483C44.4638 214.367 43.2148 214.484 42.3239 214.747C41.8751 214.88 41.5516 215.04 41.3503 215.196C41.1985 215.314 41.1622 215.391 41.1547 215.412C41.1586 215.434 41.1816 215.516 41.3117 215.658C41.4843 215.845 41.7767 216.057 42.1972 216.262C43.0321 216.67 44.2443 216.992 45.6314 217.108C47.0185 217.224 48.2675 217.107 49.1584 216.844C49.6072 216.711 49.9307 216.551 50.132 216.395C50.2838 216.277 50.3201 216.2 50.3276 216.179Z" fill="#4255BB"/>
<path d="M73.4641 218.925C73.2816 217.023 71.8749 215.791 70.0366 215.637C67.6985 215.442 65.8523 217.103 65.6106 219.994C65.3689 222.885 66.9137 224.83 69.2518 225.025C71.0901 225.179 72.6818 224.197 73.1776 222.352L72.071 222.259C71.6974 223.504 70.552 224.091 69.3383 223.99C67.6785 223.851 66.483 222.457 66.6815 220.083C66.8799 217.71 68.2902 216.534 69.95 216.672C71.1637 216.774 72.1957 217.543 72.3575 218.833L73.4641 218.925ZM82.8188 221.432C83.0605 218.541 81.5157 216.597 79.1776 216.401C76.8396 216.206 74.9934 217.867 74.7517 220.758C74.51 223.649 76.0548 225.594 78.3929 225.789C80.7309 225.985 82.5771 224.324 82.8188 221.432ZM81.748 221.343C81.5495 223.717 80.1392 224.893 78.4794 224.754C76.8196 224.615 75.6241 223.221 75.8225 220.848C76.021 218.474 77.4313 217.298 79.0911 217.436C80.751 217.575 81.9464 218.969 81.748 221.343ZM85.0611 217.019L84.2972 226.157L85.3324 226.243L85.9128 219.301L86.002 219.308L88.2772 226.49L89.2767 226.573L92.7127 219.869L92.802 219.877L92.2216 226.819L93.2568 226.906L94.0207 217.768L92.6999 217.657L88.9603 224.983L88.8532 224.974L86.3818 217.129L85.0611 217.019ZM103.567 223.167C103.809 220.276 102.264 218.331 99.9261 218.136C97.5881 217.94 95.7418 219.601 95.5001 222.493C95.2584 225.384 96.8033 227.328 99.1413 227.524C101.479 227.719 103.326 226.058 103.567 223.167ZM102.496 223.077C102.298 225.451 100.888 226.627 99.2279 226.489C97.568 226.35 96.3726 224.956 96.571 222.582C96.7694 220.208 98.1797 219.032 99.8396 219.171C101.499 219.31 102.695 220.704 102.496 223.077ZM110.616 221.456L111.687 221.545C111.753 220.162 110.568 219.025 108.801 218.878C107.052 218.731 105.592 219.634 105.464 221.169C105.361 222.4 106.192 223.207 107.586 223.736L108.683 224.152C109.625 224.5 110.453 224.911 110.377 225.821C110.293 226.82 109.274 227.4 108.007 227.294C106.918 227.203 105.995 226.641 105.992 225.598L104.85 225.503C104.832 227.011 105.96 228.13 107.924 228.294C110.03 228.47 111.322 227.41 111.446 225.928C111.589 224.215 110.012 223.526 109.087 223.197L108.179 222.869C107.516 222.634 106.457 222.186 106.539 221.205C106.612 220.33 107.469 219.755 108.683 219.856C109.789 219.949 110.584 220.545 110.616 221.456ZM119.411 229.092C122.196 229.325 123.911 227.725 124.15 224.87C124.387 222.032 122.959 220.187 120.3 219.965L117.355 219.719L116.591 228.857L119.411 229.092ZM117.78 227.967L118.38 220.793L120.147 220.94C122.288 221.119 123.264 222.567 123.079 224.78C122.892 227.011 121.689 228.294 119.422 228.105L117.78 227.967ZM127.483 229.929C128.678 230.029 129.357 229.438 129.608 229.01L129.662 229.015L129.584 229.943L130.637 230.031L131.015 225.515C131.197 223.338 129.558 222.949 128.683 222.876C127.648 222.79 126.44 223.048 125.8 224.253L126.77 224.693C127.044 224.213 127.637 223.723 128.641 223.807C129.61 223.888 130.044 224.441 129.971 225.32L129.968 225.356C129.925 225.865 129.411 225.777 128.149 225.833C126.863 225.892 125.452 226.057 125.321 227.627C125.209 228.966 126.18 229.82 127.483 229.929ZM127.722 228.996C126.883 228.926 126.308 228.501 126.369 227.769C126.436 226.966 127.189 226.777 128.019 226.739C128.47 226.722 129.676 226.697 129.872 226.498L129.792 227.462C129.72 228.319 128.972 229.101 127.722 228.996ZM136.112 223.587L134.649 223.465L134.786 221.823L133.733 221.735L133.596 223.377L132.561 223.29L132.486 224.183L133.521 224.269L133.163 228.553C133.063 229.748 133.979 230.4 134.872 230.475C135.264 230.507 135.52 230.457 135.667 230.415L135.532 229.451C135.442 229.462 135.296 229.486 135.064 229.466C134.6 229.427 134.165 229.247 134.24 228.355L134.574 224.357L136.038 224.479L136.112 223.587ZM139.127 230.902C140.322 231.002 141.001 230.412 141.252 229.984L141.306 229.988L141.228 230.916L142.281 231.004L142.659 226.489C142.841 224.311 141.202 223.923 140.327 223.85C139.292 223.763 138.084 224.021 137.444 225.226L138.414 225.667C138.688 225.186 139.281 224.697 140.285 224.781C141.254 224.862 141.688 225.415 141.615 226.294L141.612 226.329C141.569 226.838 141.055 226.75 139.792 226.806C138.507 226.865 137.096 227.03 136.965 228.601C136.853 229.939 137.824 230.793 139.127 230.902ZM139.366 229.97C138.527 229.9 137.952 229.474 138.013 228.742C138.08 227.939 138.833 227.75 139.663 227.712C140.113 227.696 141.32 227.671 141.516 227.472L141.436 228.435C141.364 229.292 140.616 230.074 139.366 229.97Z" fill="black"/>
<path d="M265.842 234.517C266.023 232.352 266.113 231.269 266.604 230.477C267.035 229.781 267.676 229.239 268.435 228.929C269.297 228.577 270.379 228.667 272.545 228.848L279.744 229.45C281.909 229.631 282.991 229.722 283.783 230.212C284.48 230.644 285.022 231.284 285.332 232.043C285.684 232.905 285.593 233.988 285.412 236.153L284.79 243.592C284.609 245.757 284.519 246.84 284.028 247.631C283.597 248.328 282.956 248.87 282.198 249.18C281.335 249.532 280.253 249.442 278.088 249.261L270.889 248.659C268.723 248.478 267.641 248.387 266.849 247.897C266.153 247.465 265.611 246.824 265.301 246.066C264.948 245.204 265.039 244.121 265.22 241.956L265.842 234.517Z" fill="#595959" fill-opacity="0.12"/>
<path d="M274.984 243.157C276.705 243.301 278.056 242.377 278.169 240.976C278.262 239.909 277.679 239.089 276.574 238.823L276.579 238.757C277.479 238.604 278.11 237.96 278.185 237.012C278.293 235.773 277.364 234.629 275.741 234.494C274.192 234.364 272.87 235.195 272.715 236.563L273.946 236.666C274.04 235.894 274.808 235.486 275.636 235.555C276.497 235.627 277.017 236.197 276.948 236.975C276.884 237.791 276.184 238.272 275.249 238.194L274.537 238.134L274.45 239.172L275.162 239.231C276.332 239.329 276.958 239.979 276.887 240.827C276.819 241.647 276.06 242.143 275.067 242.06C274.153 241.984 273.479 241.455 273.493 240.701L272.199 240.593C272.138 241.973 273.279 243.014 274.984 243.157Z" fill="black" fill-opacity="0.65"/>
<path d="M289.743 230.917C289.924 228.752 290.015 227.669 290.505 226.877C290.937 226.181 291.578 225.639 292.336 225.329C293.198 224.977 294.281 225.067 296.446 225.248L311.137 226.476C313.302 226.657 314.385 226.748 315.177 227.238C315.873 227.67 316.415 228.311 316.725 229.069C317.077 229.931 316.987 231.014 316.806 233.179L315.254 251.736C315.073 253.902 314.983 254.984 314.492 255.776C314.061 256.473 313.42 257.015 312.662 257.324C311.799 257.677 310.717 257.586 308.552 257.405L293.861 256.177C291.695 255.996 290.613 255.906 289.821 255.415C289.124 254.984 288.582 254.343 288.273 253.584C287.92 252.722 288.011 251.639 288.192 249.474L289.743 230.917Z" fill="white" fill-opacity="0.01"/>
<path fill-rule="evenodd" clip-rule="evenodd" d="M301.229 236.639C301.638 236.293 302.25 236.345 302.596 236.754L306.138 240.943C306.484 241.352 306.433 241.964 306.024 242.31L301.835 245.853C301.426 246.198 300.814 246.147 300.468 245.738C300.122 245.329 300.173 244.717 300.582 244.371L304.031 241.455L301.114 238.006C300.768 237.597 300.82 236.985 301.229 236.639Z" fill="#333333"/>
</g>
<g clip-path="url(#clip5_662_134902)">
<path d="M23.245 252.047C23.5573 248.311 26.8396 245.535 30.5762 245.847L310.868 269.278C314.604 269.59 317.38 272.873 317.068 276.609L314.967 301.739C314.655 305.476 311.373 308.251 307.636 307.939L27.3443 284.508C23.6078 284.196 20.8319 280.913 21.1443 277.177L23.245 252.047Z" fill="#FAFAFA"/>
<path fill-rule="evenodd" clip-rule="evenodd" d="M37.1286 263.561L36.9379 265.841C36.9393 265.855 36.9541 265.939 37.0943 266.092C37.2653 266.279 37.5558 266.49 37.975 266.695C38.8072 267.102 40.0193 267.424 41.4153 267.541C42.8114 267.657 44.0601 267.541 44.9484 267.278C45.3957 267.145 45.7172 266.985 45.9168 266.83C46.0805 266.702 46.1091 266.622 46.1127 266.608L46.3033 264.328C46.0705 264.438 45.817 264.532 45.5511 264.61C44.5013 264.921 43.1159 265.039 41.6348 264.915C40.1537 264.791 38.8071 264.445 37.8235 263.964C37.5743 263.843 37.3399 263.708 37.1286 263.561ZM47.6619 262.673L46.9667 270.989C46.9171 271.583 46.5378 271.973 46.1958 272.208C45.8359 272.454 45.3695 272.635 44.8552 272.765C43.8186 273.027 42.4427 273.117 40.9595 272.994C39.4763 272.87 38.1345 272.552 37.1557 272.122C36.6702 271.908 36.2402 271.652 35.9264 271.349C35.628 271.061 35.3188 270.613 35.3684 270.02L36.0636 261.704C36.1128 261.116 36.4573 260.693 36.8147 260.416C37.1794 260.133 37.6528 259.921 38.1744 259.767C39.2241 259.457 40.6096 259.338 42.0906 259.462C43.5717 259.586 44.9183 259.933 45.9019 260.413C46.3907 260.652 46.8224 260.939 47.135 261.279C47.4414 261.612 47.711 262.085 47.6619 262.673ZM36.7906 267.603L36.5833 270.084C36.5952 270.108 36.6292 270.163 36.7176 270.249C36.8909 270.416 37.1863 270.607 37.6115 270.794C38.4542 271.165 39.6758 271.463 41.0777 271.58C42.4796 271.697 43.7336 271.606 44.6262 271.381C45.0765 271.267 45.3995 271.127 45.5983 270.991C45.6996 270.922 45.7422 270.873 45.7581 270.85L45.9654 268.37C45.7345 268.48 45.4835 268.573 45.22 268.651C44.1719 268.961 42.7862 269.079 41.2971 268.954C39.8081 268.83 38.4612 268.484 37.4791 268.004C37.2323 267.883 37.0001 267.75 36.7906 267.603ZM46.1127 266.608L46.1124 266.611L46.1127 266.608ZM46.4492 262.572C46.4453 262.55 46.4223 262.468 46.2921 262.326C46.1196 262.139 45.8271 261.927 45.4066 261.722C44.5718 261.314 43.3595 260.992 41.9725 260.876C40.5854 260.76 39.3364 260.877 38.4455 261.14C37.9967 261.273 37.6732 261.433 37.4719 261.589C37.3201 261.707 37.2838 261.784 37.2763 261.805C37.2801 261.828 37.3032 261.91 37.4333 262.051C37.6058 262.238 37.8983 262.45 38.3188 262.655C39.1537 263.063 40.3659 263.385 41.753 263.501C43.1401 263.617 44.389 263.501 45.28 263.237C45.7287 263.104 46.0523 262.944 46.2535 262.788C46.4053 262.67 46.4416 262.593 46.4492 262.572Z" fill="#4255BB"/>
<path d="M67.2775 264.55L68.3483 264.64C68.4145 263.257 67.229 262.12 65.4621 261.972C63.713 261.826 62.2537 262.728 62.1254 264.263C62.0224 265.495 62.8537 266.301 64.2472 266.831L65.3447 267.246C66.2861 267.594 67.1145 268.005 67.0384 268.915C66.9548 269.915 65.9358 270.495 64.6686 270.389C63.5799 270.298 62.6564 269.735 62.6537 268.693L61.5115 268.597C61.4932 270.105 62.6218 271.224 64.5851 271.388C66.6911 271.564 67.9839 270.504 68.1077 269.023C68.251 267.309 66.6731 266.62 65.748 266.291L64.8408 265.964C64.1775 265.729 63.1187 265.281 63.2007 264.299C63.2738 263.425 64.1307 262.849 65.3443 262.951C66.4509 263.043 67.2457 263.64 67.2775 264.55ZM72.4382 272.027C73.8303 272.143 74.9058 271.532 75.3136 270.524L74.3201 270.153C73.9927 270.845 73.3427 271.15 72.5172 271.081C71.2813 270.977 70.4958 270.108 70.5694 268.635L75.5445 269.051L75.5818 268.605C75.7952 266.053 74.3512 265.052 72.9234 264.932C71.0672 264.777 69.7134 266.138 69.5373 268.244C69.3613 270.35 70.4571 271.861 72.4382 272.027ZM70.6455 267.725C70.8061 266.665 71.6396 265.777 72.8443 265.878C73.9866 265.974 74.6467 266.891 74.5497 268.052L70.6455 267.725ZM78.2871 268.22C78.387 267.024 79.1844 266.408 80.1928 266.492C81.17 266.574 81.7101 267.262 81.6202 268.337L81.2621 272.621L82.3151 272.709L82.6792 268.354C82.8254 266.605 81.9629 265.688 80.5753 265.572C79.5401 265.485 78.8588 265.896 78.4794 266.565L78.3901 266.557L78.4796 265.487L77.4623 265.401L76.8894 272.255L77.9424 272.343L78.2871 268.22ZM89.5382 267.957C89.2893 266.956 88.6031 266.243 87.2467 266.13C85.801 266.009 84.6615 266.74 84.5645 267.9C84.4855 268.846 84.9947 269.527 86.2283 269.926L87.3482 270.29C88.0264 270.508 88.3245 270.866 88.285 271.339C88.2357 271.927 87.5708 272.357 86.5892 272.275C85.728 272.203 85.2191 271.788 85.0932 271.036L84.0729 271.202C84.2209 272.387 85.1284 273.088 86.5294 273.205C88.1223 273.338 89.2793 272.558 89.3782 271.376C89.458 270.421 88.9104 269.769 87.7129 269.368L86.7164 269.033C85.9211 268.764 85.578 268.461 85.622 267.935C85.6713 267.346 86.3317 266.97 87.1706 267.04C88.0897 267.117 88.4265 267.657 88.5699 268.145L89.5382 267.957ZM93.5756 273.794C95.4318 273.949 96.799 272.643 96.9765 270.519C97.1556 268.378 96.0241 266.863 94.1679 266.708C92.3118 266.553 90.9446 267.859 90.7655 270C90.588 272.124 91.7194 273.639 93.5756 273.794ZM93.6547 272.848C92.2447 272.73 91.7037 271.463 91.8185 270.088C91.9334 268.714 92.6789 267.536 94.0889 267.654C95.4988 267.772 96.0384 269.057 95.9235 270.431C95.8086 271.806 95.0647 272.966 93.6547 272.848ZM98.3002 274.045L99.3532 274.133L99.7157 269.796C99.7933 268.868 100.582 268.251 101.581 268.334C101.862 268.358 102.148 268.436 102.218 268.459L102.307 267.389C102.188 267.37 101.912 267.338 101.756 267.324C100.935 267.256 100.182 267.66 99.8753 268.318L99.8039 268.312L99.8904 267.276L98.8731 267.191L98.3002 274.045ZM108.274 269.523C108.025 268.523 107.339 267.809 105.982 267.696C104.537 267.575 103.397 268.306 103.3 269.467C103.221 270.412 103.731 271.093 104.964 271.493L106.084 271.856C106.762 272.074 107.06 272.432 107.021 272.905C106.972 273.494 106.307 273.923 105.325 273.841C104.464 273.769 103.955 273.354 103.829 272.602L102.809 272.768C102.957 273.953 103.864 274.654 105.265 274.771C106.858 274.904 108.015 274.125 108.114 272.942C108.194 271.987 107.646 271.335 106.449 270.934L105.452 270.599C104.657 270.33 104.314 270.028 104.358 269.501C104.407 268.912 105.068 268.536 105.906 268.606C106.826 268.683 107.162 269.223 107.306 269.711L108.274 269.523Z" fill="black"/>
<path d="M255.984 280.41C256.165 278.245 256.255 277.162 256.746 276.371C257.177 275.674 257.818 275.132 258.577 274.822C259.439 274.47 260.522 274.56 262.687 274.741L275.865 275.843C278.03 276.024 279.113 276.115 279.904 276.605C280.601 277.037 281.143 277.677 281.453 278.436C281.805 279.298 281.714 280.381 281.533 282.546L280.912 289.985C280.731 292.15 280.64 293.233 280.15 294.025C279.718 294.721 279.077 295.263 278.319 295.573C277.457 295.925 276.374 295.835 274.209 295.654L261.031 294.552C258.865 294.371 257.783 294.28 256.991 293.79C256.295 293.358 255.753 292.718 255.443 291.959C255.091 291.097 255.181 290.014 255.362 287.849L255.984 280.41Z" fill="#595959" fill-opacity="0.12"/>
<path d="M285.865 277.31C286.046 275.145 286.136 274.062 286.627 273.27C287.058 272.574 287.699 272.032 288.458 271.722C289.32 271.37 290.402 271.46 292.568 271.641L307.259 272.869C309.424 273.05 310.507 273.141 311.298 273.632C311.995 274.063 312.537 274.704 312.847 275.462C313.199 276.325 313.108 277.407 312.927 279.572L311.376 298.13C311.195 300.295 311.105 301.377 310.614 302.169C310.183 302.866 309.542 303.408 308.783 303.717C307.921 304.07 306.838 303.979 304.673 303.798L289.982 302.57C287.817 302.389 286.734 302.299 285.942 301.808C285.246 301.377 284.704 300.736 284.394 299.977C284.042 299.115 284.132 298.032 284.313 295.867L285.865 277.31Z" fill="white" fill-opacity="0.01"/>
</g>
</g>
</g>
</g>
<g opacity="0.1" filter="url(#filter2_f_662_134902)">
<rect x="5.46094" y="148.838" width="311.32" height="47.2587" rx="10" transform="rotate(4.78 5.46094 148.838)" fill="black"/>
</g>
<g filter="url(#filter3_dd_662_134902)">
<g clip-path="url(#clip6_662_134902)">
<rect x="11.2319" y="148" width="294.848" height="38.7958" rx="6.78926" transform="rotate(4.77855 11.2319 148)" fill="#FAFAFA"/>
<path fill-rule="evenodd" clip-rule="evenodd" d="M24.55 166.279L24.3593 168.56C24.3607 168.574 24.3755 168.657 24.5157 168.811C24.6867 168.997 24.9772 169.208 25.3964 169.413C26.2286 169.82 27.4406 170.142 28.8367 170.259C30.2328 170.376 31.4815 170.259 32.3697 169.996C32.8171 169.864 33.1386 169.704 33.3382 169.548C33.5019 169.42 33.5304 169.34 33.5341 169.327L33.7247 167.046C33.4919 167.157 33.2384 167.25 32.9725 167.329C31.9227 167.639 30.5373 167.757 29.0562 167.634C27.5751 167.51 26.2285 167.163 25.2449 166.683C24.9957 166.561 24.7613 166.427 24.55 166.279ZM35.0832 165.392L34.3881 173.708C34.3385 174.301 33.9592 174.692 33.6172 174.926C33.2573 175.173 32.7909 175.354 32.2766 175.484C31.2399 175.746 29.8641 175.836 28.3809 175.712C26.8976 175.588 25.5559 175.271 24.5771 174.84C24.0915 174.627 23.6616 174.371 23.3477 174.068C23.0494 173.78 22.7402 173.332 22.7898 172.738L23.485 164.422C23.5341 163.834 23.8787 163.412 24.2361 163.135C24.6008 162.851 25.0742 162.64 25.5958 162.486C26.6455 162.175 28.031 162.057 29.512 162.181C30.9931 162.305 32.3397 162.651 33.3233 163.132C33.8121 163.37 34.2438 163.658 34.5564 163.997C34.8627 164.33 35.1324 164.804 35.0832 165.392ZM24.212 170.322L24.0047 172.802C24.0166 172.827 24.0506 172.882 24.139 172.967C24.3123 173.134 24.6077 173.326 25.0329 173.513C25.8756 173.883 27.0971 174.181 28.4991 174.298C29.901 174.416 31.155 174.325 32.0476 174.099C32.4979 173.985 32.8209 173.846 33.0197 173.71C33.121 173.64 33.1636 173.591 33.1795 173.569L33.3868 171.089C33.1559 171.198 32.9049 171.291 32.6414 171.369C31.5932 171.68 30.2076 171.797 28.7185 171.673C27.2294 171.548 25.8826 171.202 24.9005 170.722C24.6537 170.602 24.4215 170.468 24.212 170.322ZM33.5341 169.327L33.5338 169.33L33.5341 169.327ZM33.8706 165.291C33.8667 165.268 33.8437 165.186 33.7135 165.045C33.541 164.857 33.2485 164.646 32.828 164.441C31.9932 164.033 30.7809 163.71 29.3938 163.594C28.0068 163.479 26.7578 163.595 25.8668 163.859C25.4181 163.991 25.0946 164.151 24.8933 164.308C24.7415 164.425 24.7052 164.502 24.6976 164.524C24.7015 164.546 24.7246 164.628 24.8547 164.77C25.0272 164.957 25.3197 165.168 25.7402 165.374C26.575 165.781 27.7873 166.104 29.1744 166.22C30.5614 166.336 31.8104 166.219 32.7014 165.956C33.1501 165.823 33.4737 165.663 33.6749 165.507C33.8267 165.389 33.863 165.312 33.8706 165.291Z" fill="#4255BB"/>
<path d="M54.6989 167.269L55.7697 167.358C55.8359 165.975 54.6504 164.838 52.8835 164.691C51.1344 164.544 49.6751 165.447 49.5468 166.982C49.4438 168.213 50.275 169.02 51.6686 169.549L52.7661 169.965C53.7075 170.313 54.5358 170.724 54.4598 171.634C54.3762 172.633 53.3572 173.213 52.09 173.107C51.0013 173.016 50.0778 172.454 50.0751 171.411L48.9329 171.316C48.9146 172.824 50.0432 173.943 52.0065 174.107C54.1125 174.283 55.4053 173.223 55.5291 171.741C55.6724 170.028 54.0945 169.339 53.1694 169.01L52.2622 168.682C51.5989 168.447 50.5401 167.999 50.6221 167.018C50.6952 166.143 51.5521 165.568 52.7657 165.669C53.8723 165.762 54.6671 166.358 54.6989 167.269ZM57.5156 174.406L58.6511 171.894L62.3456 172.203L63.0484 174.868L64.2085 174.965L61.617 165.547L60.4747 165.451L56.3555 174.309L57.5156 174.406ZM59.0812 170.942L60.8893 166.941L60.9607 166.947L62.0796 171.193L59.0812 170.942ZM65.6315 175.084L66.7381 175.176L67.0171 171.839L69.016 172.006C71.1444 172.184 72.2118 170.97 72.3469 169.355C72.4819 167.74 71.6293 166.383 69.4831 166.204L66.3954 165.946L65.6315 175.084ZM67.0991 170.857L67.4199 167.02L69.3653 167.183C70.8511 167.307 71.3499 168.166 71.2582 169.264C71.1664 170.362 70.5304 171.144 69.0624 171.021L67.0991 170.857ZM82.7107 169.61L83.7816 169.7C83.8478 168.317 82.6623 167.18 80.8954 167.032C79.1463 166.886 77.687 167.788 77.5586 169.323C77.4557 170.555 78.2869 171.361 79.6804 171.891L80.778 172.306C81.7194 172.655 82.5477 173.065 82.4716 173.976C82.3881 174.975 81.3691 175.555 80.1019 175.449C79.0132 175.358 78.0897 174.795 78.087 173.753L76.9447 173.657C76.9265 175.166 78.0551 176.284 80.0183 176.448C82.1244 176.624 83.4172 175.564 83.541 174.083C83.6842 172.37 82.1063 171.681 81.1813 171.352L80.2741 171.024C79.6108 170.789 78.5519 170.341 78.634 169.359C78.7071 168.485 79.564 167.909 80.7776 168.011C81.8842 168.103 82.679 168.7 82.7107 169.61ZM87.7822 177.079C89.6383 177.235 91.0055 175.929 91.1831 173.805C91.3621 171.663 90.2307 170.149 88.3745 169.994C86.5183 169.839 85.1511 171.144 84.9721 173.286C84.7945 175.41 85.926 176.924 87.7822 177.079ZM87.8612 176.134C86.4513 176.016 85.9102 174.748 86.0251 173.374C86.14 172 86.8854 170.822 88.2954 170.94C89.7054 171.058 90.245 172.343 90.1301 173.717C90.0152 175.091 89.2712 176.251 87.8612 176.134ZM97.0601 174.89C96.9527 176.175 95.9218 176.682 95.1365 176.616C94.262 176.543 93.691 175.848 93.7746 174.849L94.1326 170.565L93.0796 170.477L92.7156 174.832C92.5694 176.581 93.4273 177.497 94.7124 177.605C95.7475 177.691 96.472 177.195 96.8514 176.526L96.9228 176.532L96.8259 177.692L97.8789 177.78L98.4518 170.926L97.3988 170.838L97.0601 174.89ZM99.8072 177.941L100.86 178.029L101.223 173.692C101.3 172.764 102.089 172.147 103.088 172.23C103.369 172.254 103.655 172.332 103.725 172.355L103.814 171.285C103.695 171.266 103.419 171.234 103.263 171.221C102.442 171.152 101.689 171.556 101.382 172.214L101.311 172.208L101.397 171.172L100.38 171.087L99.8072 177.941ZM107.046 178.69C108.563 178.817 109.64 177.972 109.92 176.773L108.867 176.685C108.608 177.419 107.946 177.813 107.125 177.744C105.875 177.639 105.159 176.537 105.292 174.949C105.421 173.396 106.327 172.447 107.559 172.55C108.487 172.628 108.992 173.245 109.101 173.883L110.154 173.971C110.083 172.671 109.066 171.724 107.62 171.603C105.764 171.448 104.41 172.808 104.236 174.896C104.064 176.949 105.118 178.529 107.046 178.69ZM114.153 179.284C115.545 179.4 116.621 178.789 117.029 177.781L116.035 177.41C115.708 178.102 115.058 178.407 114.232 178.338C112.996 178.235 112.211 177.365 112.284 175.893L117.26 176.309L117.297 175.862C117.51 173.31 116.066 172.309 114.638 172.189C112.782 172.034 111.428 173.395 111.252 175.501C111.076 177.607 112.172 179.118 114.153 179.284ZM112.361 174.982C112.521 173.922 113.355 173.035 114.559 173.135C115.702 173.231 116.362 174.149 116.265 175.309L112.361 174.982ZM127.851 173.384L128.922 173.473C128.988 172.091 127.803 170.954 126.036 170.806C124.287 170.66 122.827 171.562 122.699 173.097C122.596 174.328 123.427 175.135 124.821 175.665L125.918 176.08C126.86 176.428 127.688 176.839 127.612 177.749C127.528 178.749 126.509 179.328 125.242 179.222C124.153 179.131 123.23 178.569 123.227 177.526L122.085 177.431C122.067 178.939 123.195 180.058 125.159 180.222C127.265 180.398 128.557 179.338 128.681 177.856C128.824 176.143 127.247 175.454 126.322 175.125L125.414 174.798C124.751 174.562 123.692 174.115 123.774 173.133C123.847 172.258 124.704 171.683 125.918 171.784C127.024 171.877 127.819 172.474 127.851 173.384ZM130.614 183.104C131.564 183.184 132.275 182.735 132.762 181.702L136.335 174.111L135.185 173.997L132.837 179.3L132.765 179.294L131.33 173.675L130.188 173.579L132.146 180.68L131.905 181.199C131.434 182.211 130.953 182.27 130.202 182.009L129.856 182.915C129.959 182.978 130.257 183.074 130.614 183.104ZM142.455 176.15C142.206 175.15 141.52 174.437 140.164 174.323C138.718 174.202 137.579 174.934 137.482 176.094C137.403 177.04 137.912 177.721 139.146 178.12L140.265 178.483C140.944 178.702 141.242 179.059 141.202 179.532C141.153 180.121 140.488 180.551 139.506 180.469C138.645 180.397 138.136 179.981 138.01 179.229L136.99 179.396C137.138 180.581 138.046 181.281 139.447 181.398C141.039 181.532 142.196 180.752 142.295 179.57C142.375 178.615 141.828 177.962 140.63 177.561L139.634 177.226C138.838 176.958 138.495 176.655 138.539 176.128C138.588 175.54 139.249 175.163 140.088 175.234C141.007 175.31 141.344 175.851 141.487 176.339L142.455 176.15ZM147.274 175.008L145.81 174.885L145.948 173.243L144.895 173.155L144.757 174.797L143.722 174.711L143.648 175.603L144.683 175.69L144.325 179.973C144.225 181.169 145.141 181.82 146.033 181.895C146.426 181.928 146.682 181.877 146.829 181.836L146.694 180.872C146.603 180.882 146.457 180.906 146.225 180.887C145.761 180.848 145.327 180.668 145.402 179.775L145.736 175.778L147.199 175.9L147.274 175.008ZM151.073 182.37C152.465 182.487 153.54 181.876 153.948 180.867L152.955 180.497C152.627 181.188 151.977 181.493 151.152 181.424C149.916 181.321 149.13 180.451 149.204 178.979L154.179 179.395L154.216 178.949C154.43 176.396 152.986 175.395 151.558 175.276C149.702 175.121 148.348 176.481 148.172 178.587C147.996 180.693 149.092 182.205 151.073 182.37ZM149.28 178.069C149.441 177.008 150.274 176.121 151.479 176.222C152.621 176.317 153.281 177.235 153.184 178.395L149.28 178.069ZM155.524 182.599L156.577 182.687L156.935 178.403C157.019 177.399 157.81 176.751 158.631 176.82C159.43 176.886 159.944 177.455 159.878 178.236L159.486 182.93L160.557 183.019L160.93 178.557C161.004 177.674 161.612 177.069 162.575 177.149C163.325 177.212 163.934 177.663 163.85 178.676L163.466 183.263L164.519 183.351L164.903 178.764C165.037 177.153 164.234 176.335 163.011 176.233C162.03 176.151 161.274 176.542 160.862 177.222L160.79 177.216C160.513 176.456 159.95 175.977 159.049 175.902C158.157 175.827 157.461 176.201 157.114 176.908L157.025 176.901L157.114 175.83L156.097 175.745L155.524 182.599Z" fill="black"/>
<path d="M249.385 183.629C249.566 181.463 249.656 180.381 250.147 179.589C250.578 178.892 251.219 178.35 251.978 178.041C252.84 177.688 253.922 177.779 256.088 177.96L263.287 178.562C265.452 178.743 266.534 178.833 267.326 179.324C268.023 179.755 268.565 180.396 268.874 181.154C269.227 182.017 269.136 183.099 268.955 185.265L268.333 192.704C268.152 194.869 268.062 195.951 267.571 196.743C267.14 197.44 266.499 197.982 265.741 198.291C264.878 198.644 263.796 198.553 261.631 198.372L254.432 197.77C252.266 197.589 251.184 197.499 250.392 197.008C249.695 196.577 249.153 195.936 248.844 195.178C248.491 194.315 248.582 193.233 248.763 191.068L249.385 183.629Z" fill="#595959" fill-opacity="0.12"/>
<path d="M258.514 192.267C260.268 192.414 261.591 191.521 261.714 190.154C261.795 189.091 261.124 188.135 260.195 187.887L260.199 187.838C261.035 187.708 261.655 186.985 261.74 186.075C261.839 184.785 260.783 183.731 259.238 183.601C257.677 183.471 256.46 184.336 256.361 185.625C256.277 186.531 256.768 187.352 257.588 187.619L257.583 187.669C256.61 187.757 255.789 188.589 255.709 189.652C255.586 191.019 256.743 192.119 258.514 192.267ZM258.601 191.225C257.546 191.137 256.926 190.521 257.005 189.677C257.07 188.799 257.847 188.234 258.844 188.317C259.824 188.399 260.497 189.086 260.432 189.964C260.353 190.808 259.643 191.312 258.601 191.225ZM258.929 187.3C258.076 187.229 257.516 186.639 257.591 185.836C257.649 185.045 258.278 184.57 259.151 184.643C260.008 184.715 260.549 185.287 260.491 186.079C260.416 186.881 259.769 187.37 258.929 187.3Z" fill="black" fill-opacity="0.65"/>
<path d="M273.286 180.029C273.467 177.863 273.558 176.781 274.048 175.989C274.48 175.293 275.12 174.751 275.879 174.441C276.741 174.088 277.824 174.179 279.989 174.36L294.68 175.588C296.845 175.769 297.928 175.86 298.72 176.35C299.416 176.782 299.958 177.422 300.268 178.181C300.62 179.043 300.53 180.126 300.349 182.291L298.797 200.848C298.616 203.013 298.526 204.096 298.035 204.888C297.604 205.584 296.963 206.126 296.205 206.436C295.342 206.788 294.26 206.698 292.095 206.517L277.403 205.289C275.238 205.108 274.156 205.017 273.364 204.527C272.667 204.095 272.125 203.454 271.816 202.696C271.463 201.834 271.554 200.751 271.735 198.586L273.286 180.029Z" fill="white" fill-opacity="0.01"/>
<path fill-rule="evenodd" clip-rule="evenodd" d="M284.772 185.751C285.181 185.405 285.793 185.456 286.139 185.865L289.682 190.054C290.028 190.463 289.977 191.075 289.568 191.421L285.378 194.964C284.969 195.31 284.357 195.259 284.011 194.85C283.666 194.441 283.717 193.829 284.126 193.483L287.574 190.567L284.658 187.118C284.312 186.709 284.363 186.097 284.772 185.751Z" fill="#333333"/>
</g>
</g>
</g>
<defs>
<filter id="filter0_dd_662_134902" x="-20" y="20" width="383.141" height="470.828" filterUnits="userSpaceOnUse" color-interpolation-filters="sRGB">
<feFlood flood-opacity="0" result="BackgroundImageFix"/>
<feColorMatrix in="SourceAlpha" type="matrix" values="0 0 0 0 0 0 0 0 0 0 0 0 0 0 0 0 0 0 127 0" result="hardAlpha"/>
<feOffset dy="2"/>
<feGaussianBlur stdDeviation="5"/>
<feColorMatrix type="matrix" values="0 0 0 0 0 0 0 0 0 0 0 0 0 0 0 0 0 0 0.06 0"/>
<feBlend mode="normal" in2="BackgroundImageFix" result="effect1_dropShadow_662_134902"/>
<feColorMatrix in="SourceAlpha" type="matrix" values="0 0 0 0 0 0 0 0 0 0 0 0 0 0 0 0 0 0 127 0" result="hardAlpha"/>
<feMorphology radius="4" operator="dilate" in="SourceAlpha" result="effect2_dropShadow_662_134902"/>
<feOffset dy="8"/>
<feGaussianBlur stdDeviation="8"/>
<feColorMatrix type="matrix" values="0 0 0 0 0 0 0 0 0 0 0 0 0 0 0 0 0 0 0.08 0"/>
<feBlend mode="normal" in2="effect1_dropShadow_662_134902" result="effect2_dropShadow_662_134902"/>
<feBlend mode="normal" in="SourceGraphic" in2="effect2_dropShadow_662_134902" result="shape"/>
</filter>
<filter id="filter1_i_662_134902" x="24.8047" y="32" width="318.336" height="134.106" filterUnits="userSpaceOnUse" color-interpolation-filters="sRGB">
<feFlood flood-opacity="0" result="BackgroundImageFix"/>
<feBlend mode="normal" in="SourceGraphic" in2="BackgroundImageFix" result="shape"/>
<feColorMatrix in="SourceAlpha" type="matrix" values="0 0 0 0 0 0 0 0 0 0 0 0 0 0 0 0 0 0 127 0" result="hardAlpha"/>
<feOffset dy="-1"/>
<feComposite in2="hardAlpha" operator="arithmetic" k2="-1" k3="1"/>
<feColorMatrix type="matrix" values="0 0 0 0 0.909804 0 0 0 0 0.909804 0 0 0 0 0.909804 0 0 0 1 0"/>
<feBlend mode="normal" in2="shape" result="effect1_innerShadow_662_134902"/>
</filter>
<filter id="filter2_f_662_134902" x="-26.4771" y="120.838" width="370.175" height="129.037" filterUnits="userSpaceOnUse" color-interpolation-filters="sRGB">
<feFlood flood-opacity="0" result="BackgroundImageFix"/>
<feBlend mode="normal" in="SourceGraphic" in2="BackgroundImageFix" result="shape"/>
<feGaussianBlur stdDeviation="14" result="effect1_foregroundBlur_662_134902"/>
</filter>
<filter id="filter3_dd_662_134902" x="0" y="143" width="313.055" height="79.2232" filterUnits="userSpaceOnUse" color-interpolation-filters="sRGB">
<feFlood flood-opacity="0" result="BackgroundImageFix"/>
<feColorMatrix in="SourceAlpha" type="matrix" values="0 0 0 0 0 0 0 0 0 0 0 0 0 0 0 0 0 0 127 0" result="hardAlpha"/>
<feOffset dy="3"/>
<feGaussianBlur stdDeviation="4"/>
<feColorMatrix type="matrix" values="0 0 0 0 0 0 0 0 0 0 0 0 0 0 0 0 0 0 0.06 0"/>
<feBlend mode="normal" in2="BackgroundImageFix" result="effect1_dropShadow_662_134902"/>
<feColorMatrix in="SourceAlpha" type="matrix" values="0 0 0 0 0 0 0 0 0 0 0 0 0 0 0 0 0 0 127 0" result="hardAlpha"/>
<feMorphology radius="1" operator="dilate" in="SourceAlpha" result="effect2_dropShadow_662_134902"/>
<feOffset/>
<feGaussianBlur stdDeviation="1"/>
<feColorMatrix type="matrix" values="0 0 0 0 0 0 0 0 0 0 0 0 0 0 0 0 0 0 0.04 0"/>
<feBlend mode="normal" in2="effect1_dropShadow_662_134902" result="effect2_dropShadow_662_134902"/>
<feBlend mode="normal" in="SourceGraphic" in2="effect2_dropShadow_662_134902" result="shape"/>
</filter>
<clipPath id="clip0_662_134902">
<rect width="355" height="280" fill="white"/>
</clipPath>
<clipPath id="clip1_662_134902">
<path d="M32.8596 43.8958C33.4088 37.3259 39.1799 32.4452 45.7498 32.9944L331.246 56.8606C337.815 57.4098 342.696 63.1809 342.147 69.7508L310.282 450.932C309.733 457.502 303.962 462.383 297.392 461.834L11.8959 437.968C5.32605 437.418 0.445341 431.647 0.994553 425.077L32.8596 43.8958Z" fill="white"/>
</clipPath>
<clipPath id="clip2_662_134902">
<rect width="15.5183" height="15.5183" fill="white" transform="translate(304.636 76.0482) rotate(4.77855)"/>
</clipPath>
<clipPath id="clip3_662_134902">
<rect width="310.366" height="297.758" fill="white" transform="translate(24.8047 140.251) rotate(4.77855)"/>
</clipPath>
<clipPath id="clip4_662_134902">
<path d="M27.1234 205.654C27.4357 201.917 30.7181 199.142 34.4546 199.454L314.746 222.885C318.483 223.197 321.259 226.48 320.946 230.216L318.846 255.346C318.533 259.082 315.251 261.858 311.514 261.546L31.2227 238.115C27.4862 237.802 24.7103 234.52 25.0227 230.784L27.1234 205.654Z" fill="white"/>
</clipPath>
<clipPath id="clip5_662_134902">
<path d="M23.245 252.047C23.5573 248.311 26.8396 245.535 30.5762 245.847L310.868 269.278C314.604 269.59 317.38 272.873 317.068 276.609L314.967 301.739C314.655 305.476 311.373 308.251 307.636 307.939L27.3443 284.508C23.6078 284.196 20.8319 280.913 21.1443 277.177L23.245 252.047Z" fill="white"/>
</clipPath>
<clipPath id="clip6_662_134902">
<rect x="11.2319" y="148" width="294.848" height="38.7958" rx="6.78926" transform="rotate(4.77855 11.2319 148)" fill="white"/>
</clipPath>
</defs>
</svg>
