<svg width="16" height="16" viewBox="0 0 16 16" fill="none" xmlns="http://www.w3.org/2000/svg">
<path d="M3.44234 1L3.47059 1H4.91177C5.36659 1 5.7353 1.36871 5.7353 1.82353C5.7353 2.27836 5.36659 2.64706 4.91177 2.64706H3.47059C3.16874 2.64706 2.99188 2.6477 2.86154 2.65835C2.7956 2.66374 2.76368 2.67042 2.75242 2.67327C2.71924 2.69184 2.69184 2.71924 2.67327 2.75242C2.67042 2.76368 2.66374 2.7956 2.65835 2.86154C2.6477 2.99188 2.64706 3.16874 2.64706 3.47059V12.5294C2.64706 12.8313 2.6477 13.0081 2.65835 13.1385C2.66374 13.2044 2.67042 13.2363 2.67327 13.2476C2.69184 13.2808 2.71924 13.3082 2.75242 13.3267C2.76368 13.3296 2.7956 13.3363 2.86154 13.3416C2.99188 13.3523 3.16874 13.3529 3.47059 13.3529H4.91177C5.36659 13.3529 5.7353 13.7216 5.7353 14.1765C5.7353 14.6313 5.36659 15 4.91177 15H3.47059L3.44233 15C3.1784 15 2.93306 15 2.72741 14.9832C2.50483 14.9651 2.25727 14.9231 2.01173 14.798C1.66307 14.6204 1.37961 14.3369 1.20196 13.9883C1.07685 13.7427 1.03495 13.4952 1.01676 13.2726C0.999963 13.067 0.999982 12.8216 1 12.5577L1 12.5294V3.47059L1 3.44227C0.999982 3.17836 0.999963 2.93305 1.01676 2.72741C1.03495 2.50483 1.07685 2.25727 1.20196 2.01173C1.37961 1.66307 1.66307 1.37961 2.01173 1.20196C2.25727 1.07685 2.50483 1.03495 2.72741 1.01676C2.93305 0.999963 3.17843 0.999982 3.44234 1Z" fill="#333333"/>
<path d="M3.44234 1L3.47059 1H4.91177C5.36659 1 5.7353 1.36871 5.7353 1.82353C5.7353 2.27836 5.36659 2.64706 4.91177 2.64706H3.47059C3.16874 2.64706 2.99188 2.6477 2.86154 2.65835C2.7956 2.66374 2.76368 2.67042 2.75242 2.67327C2.71924 2.69184 2.69184 2.71924 2.67327 2.75242C2.67042 2.76368 2.66374 2.7956 2.65835 2.86154C2.6477 2.99188 2.64706 3.16874 2.64706 3.47059V12.5294C2.64706 12.8313 2.6477 13.0081 2.65835 13.1385C2.66374 13.2044 2.67042 13.2363 2.67327 13.2476C2.69184 13.2808 2.71924 13.3082 2.75242 13.3267C2.76368 13.3296 2.7956 13.3363 2.86154 13.3416C2.99188 13.3523 3.16874 13.3529 3.47059 13.3529H4.91177C5.36659 13.3529 5.7353 13.7216 5.7353 14.1765C5.7353 14.6313 5.36659 15 4.91177 15H3.47059L3.44233 15C3.1784 15 2.93306 15 2.72741 14.9832C2.50483 14.9651 2.25727 14.9231 2.01173 14.798C1.66307 14.6204 1.37961 14.3369 1.20196 13.9883C1.07685 13.7427 1.03495 13.4952 1.01676 13.2726C0.999963 13.067 0.999982 12.8216 1 12.5577L1 12.5294V3.47059L1 3.44227C0.999982 3.17836 0.999963 2.93305 1.01676 2.72741C1.03495 2.50483 1.07685 2.25727 1.20196 2.01173C1.37961 1.66307 1.66307 1.37961 2.01173 1.20196C2.25727 1.07685 2.50483 1.03495 2.72741 1.01676C2.93305 0.999963 3.17843 0.999982 3.44234 1Z" fill="#333333"/>
<path d="M12.5577 1L12.5294 1H11.0882C10.6334 1 10.2647 1.36871 10.2647 1.82353C10.2647 2.27836 10.6334 2.64706 11.0882 2.64706H12.5294C12.8313 2.64706 13.0081 2.6477 13.1385 2.65835C13.2044 2.66374 13.2363 2.67042 13.2476 2.67327C13.2808 2.69184 13.3082 2.71924 13.3267 2.75242C13.3296 2.76368 13.3363 2.7956 13.3416 2.86154C13.3523 2.99188 13.3529 3.16874 13.3529 3.47059V12.5294C13.3529 12.8313 13.3523 13.0081 13.3416 13.1385C13.3363 13.2044 13.3296 13.2363 13.3267 13.2476C13.3082 13.2808 13.2808 13.3082 13.2476 13.3267C13.2363 13.3296 13.2044 13.3363 13.1385 13.3416C13.0081 13.3523 12.8313 13.3529 12.5294 13.3529H11.0882C10.6334 13.3529 10.2647 13.7216 10.2647 14.1765C10.2647 14.6313 10.6334 15 11.0882 15H12.5294L12.5577 15C12.8216 15 13.0669 15 13.2726 14.9832C13.4952 14.9651 13.7427 14.9231 13.9883 14.798C14.3369 14.6204 14.6204 14.3369 14.798 13.9883C14.9231 13.7427 14.965 13.4952 14.9832 13.2726C15 13.067 15 12.8216 15 12.5577L15 12.5294V3.47059L15 3.44227C15 3.17836 15 2.93305 14.9832 2.72741C14.965 2.50483 14.9231 2.25727 14.798 2.01173C14.6204 1.66307 14.3369 1.37961 13.9883 1.20196C13.7427 1.07685 13.4952 1.03495 13.2726 1.01676C13.067 0.999963 12.8216 0.999982 12.5577 1Z" fill="#333333"/>
<path d="M6.56764 7.22998C6.01536 7.22998 5.56764 7.6777 5.56764 8.22998C5.56764 8.78227 6.01536 9.22998 6.56764 9.22998C7.11993 9.22998 7.56764 8.78227 7.56764 8.22998C7.56764 7.6777 7.11993 7.22998 6.56764 7.22998Z" fill="#333333"/>
<path d="M9.76765 7.22998C9.21537 7.22998 8.76765 7.6777 8.76765 8.22998C8.76765 8.78227 9.21537 9.22998 9.76765 9.22998C10.3199 9.22998 10.7677 8.78227 10.7677 8.22998C10.7677 7.6777 10.3199 7.22998 9.76765 7.22998Z" fill="#333333"/>
</svg>
