<svg width="44" height="44" viewBox="0 0 44 44" fill="none" xmlns="http://www.w3.org/2000/svg">
<g filter="url(#filter0_i_1125_49621)">
<path d="M6.8858 42.5947H37.1143C37.8732 42.5947 38.4883 41.9796 38.4883 41.2207V10.7291C38.4883 10.3744 38.3512 10.0335 38.1055 9.77759L30.4437 1.79649C30.1846 1.52659 29.8266 1.37402 29.4525 1.37402H6.8858C6.12695 1.37402 5.51178 1.9892 5.51178 2.74805V41.2207C5.51178 41.9796 6.12695 42.5947 6.8858 42.5947Z" fill="#6E85FC"/>
</g>
<path d="M14.4905 27.0775C16.3739 27.0775 17.5743 25.9602 17.7011 24.3695H16.0129C15.8616 25.1746 15.281 25.6381 14.5051 25.6381C13.4024 25.6381 12.69 24.7159 12.69 23.1838C12.69 21.6712 13.4171 20.7637 14.5051 20.7637C15.3542 20.7637 15.8762 21.3101 16.0129 22.0323H17.7011C17.5791 20.4075 16.3105 19.3389 14.4808 19.3389C12.285 19.3389 10.8993 20.9247 10.8993 23.2131C10.8993 25.482 12.2509 27.0775 14.4905 27.0775ZM25.075 21.4175C24.8311 20.1489 23.8162 19.3389 22.0596 19.3389C20.2542 19.3389 19.0246 20.2269 19.0295 21.6127C19.0246 22.7056 19.698 23.4278 21.1374 23.7254L22.4158 23.9938C23.1038 24.145 23.4258 24.4232 23.4258 24.8477C23.4258 25.36 22.8696 25.7455 22.0303 25.7455C21.2203 25.7455 20.6934 25.3942 20.5421 24.7208L18.8197 24.8867C19.0393 26.2627 20.1957 27.0775 22.0352 27.0775C23.9089 27.0775 25.2312 26.1065 25.236 24.6867C25.2312 23.6181 24.5432 22.9642 23.1282 22.6568L21.8498 22.3836C21.0886 22.2128 20.7861 21.9493 20.791 21.5151C20.7861 21.0076 21.3472 20.6563 22.084 20.6563C22.8988 20.6563 23.3282 21.1003 23.4648 21.5931L25.075 21.4175ZM33.387 19.4365H31.5084L29.7812 25.0038H29.7031L27.9807 19.4365H26.0973L28.7663 26.9312H30.718L33.387 19.4365Z" fill="white"/>
<path fill-rule="evenodd" clip-rule="evenodd" d="M38.4883 9.96167L29.9006 1.37402V9.96167H38.4883Z" fill="#4A67FB"/>
<defs>
<filter id="filter0_i_1125_49621" x="5.51178" y="1.37402" width="32.9766" height="41.2207" filterUnits="userSpaceOnUse" color-interpolation-filters="sRGB">
<feFlood flood-opacity="0" result="BackgroundImageFix"/>
<feBlend mode="normal" in="SourceGraphic" in2="BackgroundImageFix" result="shape"/>
<feColorMatrix in="SourceAlpha" type="matrix" values="0 0 0 0 0 0 0 0 0 0 0 0 0 0 0 0 0 0 127 0" result="hardAlpha"/>
<feOffset dy="-2.74805"/>
<feComposite in2="hardAlpha" operator="arithmetic" k2="-1" k3="1"/>
<feColorMatrix type="matrix" values="0 0 0 0 0.290196 0 0 0 0 0.403922 0 0 0 0 0.984314 0 0 0 1 0"/>
<feBlend mode="normal" in2="shape" result="effect1_innerShadow_1125_49621"/>
</filter>
</defs>
</svg>
