<svg width="20" height="20" viewBox="0 0 20 20" fill="none" xmlns="http://www.w3.org/2000/svg">
<path d="M9.18535 13.7882L10.0858 14.6888C10.1835 14.7907 10.3013 14.8713 10.4318 14.9253C10.5622 14.9793 10.7025 15.0056 10.8437 15.0025H11.9091V15.9031C11.9091 16.2273 12.0379 16.5383 12.2672 16.7675C12.4964 16.9968 12.8073 17.1256 13.1315 17.1256H14.032V18.1891C14.0328 18.4696 14.1432 18.7386 14.3396 18.9389L15.0465 19.6459C15.234 19.8318 15.4874 19.9358 15.7514 19.9352H18.5587C18.7909 19.9347 19.0134 19.8422 19.1776 19.678C19.3417 19.5138 19.4342 19.2913 19.4347 19.0591V16.2515C19.4351 16.1198 19.4094 15.9893 19.3591 15.8676C19.3087 15.7459 19.2347 15.6354 19.1414 15.5425L13.2863 9.68678C13.7885 8.25548 13.7896 6.69604 13.2895 5.26402C12.7894 3.83201 11.8177 2.61234 10.5338 1.80491C9.24985 0.997472 7.72974 0.650153 6.22258 0.819869C4.71542 0.989584 3.3106 1.66627 2.23833 2.73903C1.16568 3.81141 0.489073 5.21638 0.319376 6.7237C0.149679 8.23103 0.49696 9.7513 1.30431 11.0354C2.11166 12.3195 3.33119 13.2912 4.76306 13.7913C6.19492 14.2915 7.75419 14.2904 9.18535 13.7882ZM3.10416 3.60087C4.00135 2.70241 5.1831 2.14406 6.44683 2.02155C7.71055 1.89903 8.97754 2.21999 10.0306 2.92939C11.0836 3.63879 11.8571 4.69245 12.2184 5.90973C12.5797 7.127 12.5064 8.43208 12.011 9.60121C11.9636 9.71323 11.9506 9.83687 11.9739 9.95628C11.9971 10.0757 12.0554 10.1855 12.1414 10.2715L18.2104 16.3432V18.7128H15.841L15.2441 18.1158V16.6753C15.2441 16.4667 15.1613 16.2667 15.0138 16.1192C14.8663 15.9717 14.6663 15.8888 14.4577 15.8888H13.1315V14.5665C13.1315 14.3579 13.0486 14.1579 12.9012 14.0104C12.7537 13.8629 12.5537 13.7801 12.3451 13.7801H10.9068L9.77004 12.6431C9.68398 12.5572 9.57422 12.4988 9.45482 12.4756C9.33541 12.4524 9.21179 12.4653 9.09978 12.5127C7.9309 13.0072 6.62648 13.0798 5.40997 12.718C4.19347 12.3563 3.1406 11.5827 2.43173 10.5299C1.72285 9.47705 1.4021 8.21047 1.5244 6.9471C1.64671 5.68374 2.20446 4.50222 3.10212 3.60495L3.10416 3.60087ZM5.66294 8.40726C6.10617 8.40726 6.53944 8.27581 6.90796 8.02954C7.27649 7.78328 7.56372 7.43325 7.73333 7.02372C7.90295 6.61419 7.94733 6.16356 7.86086 5.7288C7.77439 5.29405 7.56096 4.89471 7.24755 4.58127C6.93415 4.26783 6.53484 4.05437 6.10014 3.9679C5.66543 3.88142 5.21485 3.9258 4.80536 4.09543C4.39588 4.26507 4.04588 4.55233 3.79964 4.92089C3.5534 5.28946 3.42197 5.72277 3.42197 6.16604C3.42197 6.76045 3.65807 7.33051 4.07834 7.75082C4.4986 8.17113 5.0686 8.40726 5.66294 8.40726ZM5.66294 5.16361C5.86441 5.16361 6.06135 5.22336 6.22886 5.3353C6.39637 5.44724 6.52693 5.60634 6.60403 5.79249C6.68113 5.97864 6.7013 6.18347 6.662 6.38109C6.62269 6.5787 6.52568 6.76022 6.38322 6.9027C6.24076 7.04517 6.05926 7.14219 5.86167 7.1815C5.66407 7.22081 5.45926 7.20063 5.27313 7.12353C5.087 7.04642 4.92792 6.91585 4.81599 6.74832C4.70406 6.58079 4.64432 6.38383 4.64432 6.18234C4.64405 6.04839 4.6702 5.9157 4.72127 5.79187C4.77234 5.66803 4.84733 5.55549 4.94195 5.46067C5.03656 5.36586 5.14894 5.29064 5.27266 5.23931C5.39638 5.18799 5.52901 5.16157 5.66294 5.16157V5.16361Z" fill="#333333"/>
</svg>
