<svg width="16" height="16" viewBox="0 0 16 16" fill="none" xmlns="http://www.w3.org/2000/svg">
<path d="M11.5108 1L11.4825 1H11.0414C10.5865 1 10.2178 1.36871 10.2178 1.82353C10.2178 2.27836 10.5865 2.64706 11.0414 2.64706H11.4825C11.7844 2.64706 11.9612 2.6477 12.0916 2.65835C12.1575 2.66374 12.1894 2.67042 12.2007 2.67327C12.2339 2.69184 12.2613 2.71924 12.2799 2.75242C12.2827 2.76368 12.2894 2.7956 12.2948 2.86154C12.3054 2.99188 12.3061 3.16874 12.3061 3.47059C12.3061 3.47059 12.3061 3.40491 12.3061 5.39709C12.3061 7.38928 12.6666 7.89709 13.7512 7.89709C12.6666 7.89709 12.2799 8.40491 12.3061 10.4074C12.3065 10.444 12.3061 12.5294 12.3061 12.5294C12.3061 12.8313 12.3054 13.0081 12.2948 13.1385C12.2894 13.2044 12.2827 13.2363 12.2799 13.2476C12.2613 13.2808 12.2339 13.3082 12.2007 13.3267C12.1894 13.3296 12.1575 13.3363 12.0916 13.3416C11.9612 13.3523 11.7844 13.3529 11.4825 13.3529H11.0414C10.5865 13.3529 10.2178 13.7216 10.2178 14.1765C10.2178 14.6313 10.5865 15 11.0414 15H11.4825L11.5108 15C11.7747 15 12.0201 15 12.2257 14.9832C12.4483 14.9651 12.6959 14.9231 12.9414 14.798C13.2901 14.6204 13.5735 14.3369 13.7512 13.9883C13.8763 13.7427 13.9182 13.4952 13.9364 13.2726C13.9532 13.067 13.9531 12.8216 13.9531 12.5577L13.9531 12.5294C13.9531 12.5294 13.9606 11.3033 13.9531 10.4074C13.9364 8.40491 15 8.40491 15 8.40491V7.89709V7.38928C15 7.38928 13.9959 7.38928 13.9531 5.39709C13.9364 4.61584 13.9531 3.47059 13.9531 3.47059L13.9531 3.44227C13.9531 3.17836 13.9532 2.93305 13.9364 2.72741C13.9182 2.50483 13.8763 2.25727 13.7512 2.01173C13.5735 1.66307 13.2901 1.37961 12.9414 1.20196C12.6959 1.07685 12.4483 1.03495 12.2257 1.01676C12.0201 0.999963 11.7747 0.999982 11.5108 1Z" fill="#333333"/>
<path d="M4.48921 1L4.51747 1H4.95864C5.41347 1 5.78217 1.36871 5.78217 1.82353C5.78217 2.27836 5.41347 2.64706 4.95864 2.64706H4.51747C4.21562 2.64706 4.03876 2.6477 3.90841 2.65835C3.84247 2.66374 3.81055 2.67042 3.7993 2.67327C3.76611 2.69184 3.73871 2.71924 3.72015 2.75242C3.7173 2.76368 3.71062 2.7956 3.70523 2.86154C3.69458 2.99188 3.69394 3.16874 3.69394 3.47059C3.69394 3.47059 3.69394 3.40491 3.69394 5.39709C3.69394 7.38928 3.3334 7.89709 2.24884 7.89709C3.3334 7.89709 3.72015 8.40491 3.69394 10.4074C3.69346 10.444 3.69394 12.5294 3.69394 12.5294C3.69394 12.8313 3.69458 13.0081 3.70523 13.1385C3.71062 13.2044 3.7173 13.2363 3.72015 13.2476C3.73871 13.2808 3.76611 13.3082 3.7993 13.3267C3.81055 13.3296 3.84247 13.3363 3.90841 13.3416C4.03876 13.3523 4.21562 13.3529 4.51747 13.3529H4.95864C5.41347 13.3529 5.78217 13.7216 5.78217 14.1765C5.78217 14.6313 5.41347 15 4.95864 15H4.51747L4.48921 15C4.22528 15 3.97994 15 3.77429 14.9832C3.55171 14.9651 3.30415 14.9231 3.0586 14.798C2.70995 14.6204 2.42649 14.3369 2.24884 13.9883C2.12373 13.7427 2.08183 13.4952 2.06364 13.2726C2.04684 13.067 2.04686 12.8216 2.04688 12.5577L2.04688 12.5294C2.04688 12.5294 2.03938 11.3033 2.04688 10.4074C2.06364 8.40491 1 8.40491 1 8.40491V7.89709V7.38928C1 7.38928 2.00413 7.38928 2.04688 5.39709C2.06364 4.61584 2.04688 3.47059 2.04688 3.47059L2.04688 3.44227C2.04686 3.17836 2.04684 2.93305 2.06364 2.72741C2.08183 2.50483 2.12373 2.25727 2.24884 2.01173C2.42649 1.66307 2.70995 1.37961 3.0586 1.20196C3.30415 1.07685 3.55171 1.03495 3.77429 1.01676C3.97992 0.999963 4.2253 0.999982 4.48921 1Z" fill="#333333"/>
<path d="M8.23887 6.56949C7.81361 6.56949 7.46887 6.22475 7.46887 5.79949C7.46887 5.37423 7.81361 5.02949 8.23887 5.02949C8.66413 5.02949 9.00887 5.37423 9.00887 5.79949C9.00887 6.22475 8.66413 6.56949 8.23887 6.56949Z" fill="#333333"/>
<path d="M9.00887 10.2005C9.00887 10.6257 8.66412 10.9705 8.23887 10.9705C7.81361 10.9705 7.46887 10.6257 7.46887 10.2005L7.46887 8.35049C7.46887 7.92523 7.81361 7.58049 8.23887 7.58049C8.66412 7.58049 9.00887 7.92523 9.00887 8.35049L9.00887 10.2005Z" fill="#333333"/>
</svg>
