<svg fill="none" xmlns="http://www.w3.org/2000/svg" width="64" height="38" viewBox="0 0 64 38">
  <path id="reveal-spinner-top-1" fill-rule="evenodd" clip-rule="evenodd" fill="currentColor" d="M50.4542 15.3288c-28.2275 5.9674-28.7378 6.0661-29.2355 6.1624h-.0001c-1.3944.2698-2.6891.5203-3.9772.7036v-6.3583c-.0652-1.475-1.2799-2.6372-2.7563-2.6372s-2.6911 1.1622-2.7563 2.6372v7.1072z"/>
  <path id="reveal-spinner-top-2" fill-rule="evenodd" clip-rule="evenodd" fill="currentColor" d="M50.4542 15.3288c-16.8452 3.375-17.0189 3.4183-17.1711 3.506-1.7276.3694-3.3435.7389-4.9594 1.1083l-.0571.013V7.6106c-.0465-1.48876-1.2668-2.67155-2.7563-2.67155S22.8005 6.12184 22.754 7.6106v13.5866z"/>
  <path id="reveal-spinner-top-3" fill-rule="evenodd" clip-rule="evenodd" fill="currentColor" d="M50.4542 15.3288c-7.274 1.2593-9.1537 1.6344-11.0347 2.0095V2.74337c-.0338-1.54541-1.3116-2.7721267-2.8571-2.74285692h-.0134C35.0327.00556379 33.8015 1.2272 33.7846 2.74337V18.7098z"/>
  <path id="reveal-spinner-top-4" fill-rule="evenodd" clip-rule="evenodd" fill="currentColor" d="M50.4542 15.3288v-3.2274c0-1.5594-1.2642-2.82358-2.8236-2.82358s-2.8235 1.26418-2.8235 2.82358v4.4z"/>
  <path id="reveal-spinner-center" fill-rule="evenodd" clip-rule="evenodd" fill="currentColor" d="M50.4542 15.3288C5.46324 23.6926 1.83164 23.4439 1.45248 22.3172c-.773329-1.6548 3.63593-3.8942 5.79662-4.9915.28489-.1447.53068-.2695.72036-.3706v-.1237h-.12505c-1.62823.6226-8.646718 3.4958-7.768735 5.9832.875294 2.7456 11.653125 3.4958 34.086725-1.9939 18.7926-4.6145 27.4393-5.4925 28.3173-3.7446.6266 1.4952-4.0121 4.3644-8.5217 6.3597-.0966.0984-.1427.2357-.125.3724l.002.002c.1243.1244.2474.2475.3745.1231 1.6268-.6266 10.1499-4.238 9.7721-7.2323-.3738-1.9935-4.8842-2.6175-13.5274-1.3722z"/>
  <path id="reveal-spinner-bot-1" fill-rule="evenodd" clip-rule="evenodd" fill="currentColor" d="M11.7557 30.5551v-2.0894c1.8291-.1048 3.6511-.3108 5.4575-.6171v2.7065c-.033 1.4835-1.245 2.6689-2.7288 2.6689s-2.6958-1.1854-2.7287-2.6689z"/>
  <path id="reveal-spinner-bot-2" fill-rule="evenodd" clip-rule="evenodd" fill="currentColor" d="M22.7715 26.9222v7.602c-.0132 1.496 1.1804 2.7238 2.6762 2.7529 1.4957.0291 2.7362-1.1513 2.7813-2.6467v-8.8309c-1.7953.4821-3.6177.857-5.4575 1.1227z"/>
  <path id="reveal-spinner-bot-3" fill-rule="evenodd" clip-rule="evenodd" fill="currentColor" d="M33.87 24.7193h-.3764v5.3419c.066 1.5151 1.3136 2.7095 2.8302 2.7095s2.7642-1.1944 2.8303-2.7095v-6.5883c-.3876.0886-.7821.1771-1.1838.2671l-.0007.0002c-1.2926.2897-2.6585.5959-4.0996.9764v.0027z"/>
  <path id="reveal-spinner-bot-4" fill-rule="evenodd" clip-rule="evenodd" fill="currentColor" d="M44.5094 22.2377c2.1383-.3726 4.0242-.7438 5.6578-1.1137v4.3375c-.0249 1.5094-1.2534 2.7212-2.763 2.7254h-.0162c-.7432.0206-1.4641-.255-2.004-.7662-.54-.5112-.8546-1.216-.8746-1.9592v-3.2238z"/>
</svg>
