<svg width="56" height="56" viewBox="0 0 56 56" fill="none" xmlns="http://www.w3.org/2000/svg">
<g filter="url(#filter0_d)">
<path fill-rule="evenodd" clip-rule="evenodd" d="M34.6803 2.29393C34.662 2.11559 34.59 1.94706 34.4739 1.81066C34.3578 1.67426 34.203 1.57642 34.03 1.53008C33.8571 1.48374 33.6741 1.49108 33.5054 1.55115C33.3366 1.61121 33.19 1.72116 33.0849 1.86644L23.0679 15.4769L6.26626 17.3747C6.09384 17.3953 5.9315 17.4672 5.80021 17.5811C5.66891 17.695 5.57468 17.8456 5.52968 18.0135C5.48468 18.1815 5.49097 18.359 5.54774 18.5233C5.60451 18.6876 5.70916 18.831 5.84817 18.935L19.4499 28.9795L21.3326 45.8017C21.353 45.9744 21.4247 46.1369 21.5383 46.2682C21.6519 46.3996 21.8023 46.4939 21.97 46.5388C22.1377 46.5837 22.315 46.5773 22.4791 46.5203C22.6432 46.4634 22.7865 46.3585 22.8905 46.2192L32.9321 32.592L49.7337 30.6941C49.9062 30.6735 50.0685 30.6017 50.1998 30.4878C50.3311 30.3739 50.4253 30.2233 50.4703 30.0553C50.5153 29.8874 50.509 29.7098 50.4523 29.5456C50.3955 29.3813 50.2908 29.2379 50.1518 29.1338L36.5501 19.0894L34.6803 2.29393Z" fill="url(#paint0_linear)"/>
<path fill-rule="evenodd" clip-rule="evenodd" d="M34.6803 2.29393C34.662 2.11559 34.59 1.94706 34.4739 1.81066C34.3578 1.67426 34.203 1.57642 34.03 1.53008C33.8571 1.48374 33.6741 1.49108 33.5054 1.55115C33.3366 1.61121 33.19 1.72116 33.0849 1.86644L23.0679 15.4769L6.26626 17.3747C6.09384 17.3953 5.9315 17.4672 5.80021 17.5811C5.66891 17.695 5.57468 17.8456 5.52968 18.0135C5.48468 18.1815 5.49097 18.359 5.54774 18.5233C5.60451 18.6876 5.70916 18.831 5.84817 18.935L19.4499 28.9795L21.3326 45.8017C21.353 45.9744 21.4247 46.1369 21.5383 46.2682C21.6519 46.3996 21.8023 46.4939 21.97 46.5388C22.1377 46.5837 22.315 46.5773 22.4791 46.5203C22.6432 46.4634 22.7865 46.3585 22.8905 46.2192L32.9321 32.592L49.7337 30.6941C49.9062 30.6735 50.0685 30.6017 50.1998 30.4878C50.3311 30.3739 50.4253 30.2233 50.4703 30.0553C50.5153 29.8874 50.509 29.7098 50.4523 29.5456C50.3955 29.3813 50.2908 29.2379 50.1518 29.1338L36.5501 19.0894L34.6803 2.29393Z" fill="url(#paint1_linear)"/>
<path d="M31.63 12.7357L32.5738 21.2041C32.5832 21.2807 32.6079 21.3545 32.6463 21.4213C32.6848 21.488 32.7363 21.5464 32.7978 21.5928L39.6435 26.6586C39.7351 26.7264 39.8041 26.8204 39.8416 26.9281C39.8791 27.0358 39.8834 27.1524 39.8538 27.2626C39.8243 27.3728 39.7623 27.4717 39.676 27.5462C39.5896 27.6207 39.4829 27.6676 39.3697 27.6806L30.9082 28.6448C30.8318 28.6543 30.758 28.679 30.6913 28.7176C30.6246 28.7562 30.5663 28.8078 30.5199 28.8694L25.4683 35.7314C25.4004 35.8231 25.3066 35.8923 25.199 35.9299C25.0914 35.9676 24.975 35.9719 24.8649 35.9424C24.7548 35.9129 24.6562 35.851 24.5818 35.7646C24.5074 35.6782 24.4607 35.5713 24.4478 35.458L23.504 26.9895C23.4946 26.913 23.47 26.8391 23.4315 26.7724C23.393 26.7056 23.3415 26.6473 23.28 26.6008L16.4343 21.5351C16.3427 21.4672 16.2737 21.3733 16.2362 21.2655C16.1987 21.1578 16.1944 21.0412 16.224 20.931C16.2535 20.8208 16.3155 20.722 16.4018 20.6474C16.4882 20.5729 16.5949 20.526 16.7081 20.513L25.1696 19.5488C25.2461 19.5393 25.3198 19.5146 25.3865 19.476C25.4532 19.4374 25.5115 19.3858 25.5579 19.3242L30.6095 12.4622C30.6774 12.3705 30.7712 12.3013 30.8788 12.2637C30.9864 12.2261 31.1029 12.2217 31.2129 12.2512C31.323 12.2807 31.4216 12.3427 31.496 12.4291C31.5704 12.5155 31.6171 12.6223 31.63 12.7357Z" fill="#DB57ED"/>
<path d="M31.63 12.7357L32.5738 21.2041C32.5832 21.2807 32.6079 21.3545 32.6463 21.4213C32.6848 21.488 32.7363 21.5464 32.7978 21.5928L39.6435 26.6586C39.7351 26.7264 39.8041 26.8204 39.8416 26.9281C39.8791 27.0358 39.8834 27.1524 39.8538 27.2626C39.8243 27.3728 39.7623 27.4717 39.676 27.5462C39.5896 27.6207 39.4829 27.6676 39.3697 27.6806L30.9082 28.6448C30.8318 28.6543 30.758 28.679 30.6913 28.7176C30.6246 28.7562 30.5663 28.8078 30.5199 28.8694L25.4683 35.7314C25.4004 35.8231 25.3066 35.8923 25.199 35.9299C25.0914 35.9676 24.975 35.9719 24.8649 35.9424C24.7548 35.9129 24.6562 35.851 24.5818 35.7646C24.5074 35.6782 24.4607 35.5713 24.4478 35.458L23.504 26.9895C23.4946 26.913 23.47 26.8391 23.4315 26.7724C23.393 26.7056 23.3415 26.6473 23.28 26.6008L16.4343 21.5351C16.3427 21.4672 16.2737 21.3733 16.2362 21.2655C16.1987 21.1578 16.1944 21.0412 16.224 20.931C16.2535 20.8208 16.3155 20.722 16.4018 20.6474C16.4882 20.5729 16.5949 20.526 16.7081 20.513L25.1696 19.5488C25.2461 19.5393 25.3198 19.5146 25.3865 19.476C25.4532 19.4374 25.5115 19.3858 25.5579 19.3242L30.6095 12.4622C30.6774 12.3705 30.7712 12.3013 30.8788 12.2637C30.9864 12.2261 31.1029 12.2217 31.2129 12.2512C31.323 12.2807 31.4216 12.3427 31.496 12.4291C31.5704 12.5155 31.6171 12.6223 31.63 12.7357Z" fill="url(#paint2_radial)"/>
<path d="M34.4958 1.81649C34.6119 1.95289 34.6839 2.12142 34.7023 2.29976L36.5501 19.0894L28 24.0344L34.03 1.53003C34.203 1.57637 34.3797 1.6801 34.4958 1.81649Z" fill="url(#paint3_linear)" fill-opacity="0.55"/>
<path d="M33.5272 1.55699C33.696 1.49692 33.857 1.48369 34.03 1.53004L27.9999 24.0344L23.0678 15.4768L33.1068 1.87228C33.2119 1.727 33.3585 1.61705 33.5272 1.55699Z" fill="url(#paint4_linear)" fill-opacity="0.15"/>
<path d="M21.5041 46.2523C21.388 46.1159 21.316 45.9474 21.2977 45.7691L19.4499 28.9795L28 24.0344L21.9699 46.5388C21.797 46.4924 21.6203 46.3887 21.5041 46.2523Z" fill="url(#paint5_linear)" fill-opacity="0.55"/>
<path d="M22.4727 46.5118C22.3039 46.5719 22.1429 46.5851 21.9699 46.5388L28 24.0344L32.9321 32.592L22.8931 46.1965C22.788 46.3418 22.6414 46.4518 22.4727 46.5118Z" fill="url(#paint6_linear)" fill-opacity="0.15"/>
<path d="M50.1839 30.5219C50.0476 30.6383 49.8792 30.7105 49.7011 30.729L32.9321 32.592L28 24.0344L50.4703 30.0553C50.4239 30.2285 50.3202 30.4056 50.1839 30.5219Z" fill="url(#paint7_linear)" fill-opacity="0.55"/>
<path d="M50.4438 29.5518C50.5036 29.7207 50.5167 29.8819 50.4703 30.0551L28 24.0342L36.5501 19.0892L50.1292 29.131C50.2742 29.2361 50.3839 29.3828 50.4438 29.5518Z" fill="url(#paint8_linear)" fill-opacity="0.15"/>
<path d="M5.81611 17.5469C5.95241 17.4305 6.12077 17.3583 6.2989 17.3398L23.0679 15.4768L28 24.0344L5.52966 18.0135C5.57607 17.8403 5.6798 17.6633 5.81611 17.5469Z" fill="url(#paint9_linear)" fill-opacity="0.55"/>
<path d="M5.55626 18.5168C5.49641 18.3478 5.48332 18.1866 5.52973 18.0134L28 24.0343L19.4499 28.9793L5.87083 18.9375C5.72581 18.8324 5.61612 18.6857 5.55626 18.5168Z" fill="url(#paint10_linear)" fill-opacity="0.15"/>
</g>
<defs>
<filter id="filter0_d" x="0" y="0" width="56" height="56" filterUnits="userSpaceOnUse" color-interpolation-filters="sRGB">
<feFlood flood-opacity="0" result="BackgroundImageFix"/>
<feColorMatrix in="SourceAlpha" type="matrix" values="0 0 0 0 0 0 0 0 0 0 0 0 0 0 0 0 0 0 127 0"/>
<feOffset dy="4"/>
<feGaussianBlur stdDeviation="2"/>
<feColorMatrix type="matrix" values="0 0 0 0 0 0 0 0 0 0 0 0 0 0 0 0 0 0 0.25 0"/>
<feBlend mode="normal" in2="BackgroundImageFix" result="effect1_dropShadow"/>
<feBlend mode="normal" in="SourceGraphic" in2="effect1_dropShadow" result="shape"/>
</filter>
<linearGradient id="paint0_linear" x1="5.51668" y1="18.0449" x2="50.5472" y2="30.1108" gradientUnits="userSpaceOnUse">
<stop stop-color="#4967FB"/>
<stop offset="1" stop-color="#C844DB"/>
</linearGradient>
<linearGradient id="paint1_linear" x1="33.9325" y1="1.95764" x2="22.083" y2="46.4888" gradientUnits="userSpaceOnUse">
<stop stop-color="white" stop-opacity="0.6"/>
<stop offset="0.979167" stop-color="white" stop-opacity="0"/>
</linearGradient>
<radialGradient id="paint2_radial" cx="0" cy="0" r="1" gradientUnits="userSpaceOnUse" gradientTransform="translate(28.0389 24.0969) rotate(105) scale(28.063 27.9903)">
<stop stop-color="white" stop-opacity="0.8"/>
<stop offset="1" stop-color="white" stop-opacity="0"/>
</radialGradient>
<linearGradient id="paint3_linear" x1="40.0221" y1="3.1356" x2="27.9842" y2="24.0253" gradientUnits="userSpaceOnUse">
<stop stop-color="white" stop-opacity="0"/>
<stop offset="1" stop-color="white"/>
</linearGradient>
<linearGradient id="paint4_linear" x1="28.0378" y1="-0.0756111" x2="28.018" y2="24.0343" gradientUnits="userSpaceOnUse">
<stop stop-color="white" stop-opacity="0"/>
<stop offset="1" stop-color="white"/>
</linearGradient>
<linearGradient id="paint5_linear" x1="15.9778" y1="44.9333" x2="28.0157" y2="24.0436" gradientUnits="userSpaceOnUse">
<stop stop-color="white" stop-opacity="0"/>
<stop offset="1" stop-color="white"/>
</linearGradient>
<linearGradient id="paint6_linear" x1="27.962" y1="48.1445" x2="27.9818" y2="24.0346" gradientUnits="userSpaceOnUse">
<stop stop-color="white" stop-opacity="0"/>
<stop offset="1" stop-color="white"/>
</linearGradient>
<linearGradient id="paint7_linear" x1="48.8623" y1="36.0566" x2="27.9909" y2="24.0503" gradientUnits="userSpaceOnUse">
<stop stop-color="white" stop-opacity="0"/>
<stop offset="1" stop-color="white"/>
</linearGradient>
<linearGradient id="paint8_linear" x1="52.0783" y1="24.0541" x2="28" y2="24.0162" gradientUnits="userSpaceOnUse">
<stop stop-color="white" stop-opacity="0"/>
<stop offset="1" stop-color="white"/>
</linearGradient>
<linearGradient id="paint9_linear" x1="7.13762" y1="12.0123" x2="28.009" y2="24.0186" gradientUnits="userSpaceOnUse">
<stop stop-color="white" stop-opacity="0"/>
<stop offset="1" stop-color="white"/>
</linearGradient>
<linearGradient id="paint10_linear" x1="3.9217" y1="24.0146" x2="28" y2="24.0525" gradientUnits="userSpaceOnUse">
<stop stop-color="white" stop-opacity="0"/>
<stop offset="1" stop-color="white"/>
</linearGradient>
</defs>
</svg>
