<svg width="144" height="48" viewBox="0 0 144 48" fill="none" xmlns="http://www.w3.org/2000/svg">
<rect x="97" width="46" height="48" fill="#F7F7F7"/>
<path d="M113.586 13.5C113.851 13.5 114.105 13.6054 114.293 13.7929L116.707 16.2071C116.895 16.3946 117.149 16.5 117.414 16.5H134C134.552 16.5 135 16.9477 135 17.5V33.5C135 34.0523 134.552 34.5 134 34.5H106C105.448 34.5 105 34.0523 105 33.5V14.5C105 13.9477 105.448 13.5 106 13.5H113.586Z" fill="#A4B2FC"/>
<rect x="1" width="46" height="48" fill="#F7F7F7"/>
<rect x="15" y="15" width="18" height="18" rx="1" fill="#4A67FB"/>
<path d="M22.4194 25.337L28.6066 19.1498L30.3744 20.9176L22.4194 28.8725L18 24.4531L19.7678 22.6854L22.4194 25.337Z" fill="white"/>
<path fill-rule="evenodd" clip-rule="evenodd" d="M72.929 31.0718L71.5147 29.6576L76.1716 25.0007H64.0039V23.0007H76.1716L71.5147 18.3439L72.929 16.9297L76.4645 20.4652L80 24.0008L76.4645 27.5363L72.929 31.0718Z" fill="#1F1F1F"/>
</svg>
