<?xml version="1.0" encoding="UTF-8" standalone="no"?><!DOCTYPE svg PUBLIC "-//W3C//DTD SVG 1.1//EN" "http://www.w3.org/Graphics/SVG/1.1/DTD/svg11.dtd"><svg width="100%" height="100%" viewBox="0 0 2767 1592" version="1.1" xmlns="http://www.w3.org/2000/svg" xmlns:xlink="http://www.w3.org/1999/xlink" xml:space="preserve" xmlns:serif="http://www.serif.com/" style="fill-rule:evenodd;clip-rule:evenodd;stroke-linecap:round;stroke-linejoin:round;stroke-miterlimit:1.5;"><g><path id="Path_1966" d="M2201.41,535.921l-62.818,8.178l-270.089,47.653c-26.953,5.727 -54.852,11.456 -83.217,17.188l-138.157,31.681l-159.733,37.649c0,-0 -117.858,29.893 -160.483,39.562l-208.099,49.647l-321.903,62.304l-160.728,26.716l-203.468,18.971c-7.469,0.725 -14.834,1.412 -22.094,2.06l-0.106,0.009l0.001,-0c-211.364,18.867 -333.174,5.297 -347.491,-37.289c-38.25,-80.708 211.084,-194.083 281.5,-231.583l0,-5.333l-5.416,-0c-70.417,26.875 -373.792,150.833 -335.834,258.666c37.875,118.625 503.75,150.959 1473.5,-86.208c812.5,-199.5 1186.46,-237.208 1224.42,-161.708c27.125,64.583 -173.417,188.666 -368.375,275c-4.132,4.27 -6.124,10.184 -5.417,16.083c5.417,5.417 10.75,10.792 16.292,5.417c70.333,-27.084 438.792,-183.334 422.417,-312.5c-15.83,-84.631 -163.31,-117.412 -564.699,-62.163Z" style="fill:#010101;fill-rule:nonzero;"/><path d="M1171.27,686.484c-2.335,-79.138 -23.393,-172.927 -70.488,-235.586c-36.112,-48.048 -87.21,-78.126 -155.947,-74.339c-96.94,5.46 -149.752,31.351 -202.554,31.2c-21.862,-0.062 -43.539,-5.933 -69.822,-21.225c-66.365,-38.005 -227.188,-117.708 -354.506,-129.995c-74.558,-7.195 -137.968,9.607 -173.35,56.779c-27.464,37.307 -31.219,89.049 -10.122,133.571c17.378,36.675 50.826,68.669 99.716,81.09c128.272,32.105 264.695,43.136 354.421,57.698c35.563,5.772 63.206,11.366 78.356,20.383c48.951,29.204 95.543,48.317 131.763,78.326c23.056,19.101 41.741,42.747 53.536,77.226c2.517,7.892 10.968,12.257 18.86,9.74c7.893,-2.516 12.257,-10.967 9.741,-18.86c-12.262,-41.436 -33.286,-70.339 -59.651,-94.116c-36.131,-32.585 -83.22,-54.716 -132.542,-87.023c-17.593,-11.551 -49.816,-21.129 -91.941,-29.806c-87.804,-18.085 -221.872,-34.021 -346.996,-70.762c-28.876,-8.368 -48.426,-27.747 -58.109,-49.913c-10.018,-22.932 -9.094,-49.274 5.381,-67.825c15.304,-19.919 39.932,-27.677 68.452,-30.101c28.519,-2.425 60.771,1.119 94.318,7.812c108.685,21.686 229.66,77.776 284.027,107.173c37.711,20.114 68.677,26.479 99.386,25.377c53.825,-1.933 106.664,-30.158 205.24,-39.727c52.132,-5.125 91.603,16.896 120.632,52.239c45.349,55.213 66.974,140.22 72.219,212.198c0.423,8.273 7.484,14.646 15.757,14.223c8.273,-0.424 14.646,-7.484 14.223,-15.757Z"/><path d="M2168.65,1189.06c32.836,-52.052 57.859,-106.885 76.424,-158.637c23.845,-66.47 36.834,-127.922 41.164,-172.321c9.427,-95.62 6.713,-178.373 -2.561,-249.107c-14.059,-107.219 -43.77,-186.98 -71.835,-241.895c-42.785,-83.638 -98.068,-156.944 -168.312,-214.63c-68.257,-56.054 -150.816,-96.876 -249.964,-118.189c-64.034,-13.466 -148.345,-11.261 -213.904,17.969c-50.775,22.638 -90.361,61.207 -107.013,118.176c-14.327,50.334 -7.302,110.967 26.659,162.462c26.136,39.632 68.424,74.072 129.693,92.941c158.636,46.01 254.036,100.218 311.094,156.265c71.458,70.191 79.57,142.094 79.926,198.067c0.143,20.492 -7.219,43.112 -19.181,64.245c-11.89,21.007 -27.885,40.783 -46.498,55.677c-23.937,19.101 -51.506,32.582 -78.914,42.169c-32.865,11.495 -65.374,17.768 -91.46,21.583c-72.484,10.545 -165.324,2.654 -261.926,-19.483c-85.209,-19.526 -173.12,-50.056 -252.883,-88.196c-4.134,-2.09 -9.187,-0.432 -11.277,3.702c-2.091,4.133 -0.432,9.186 3.701,11.277c79.438,42.416 167.618,77.095 253.349,101.14c100.355,28.146 197.403,41.256 274.105,34.138c33.933,-3.129 77.811,-9.63 121.049,-24.756c26.56,-9.291 52.703,-22.023 76.435,-38.961c25.083,-17.859 47.32,-42.063 64.096,-68.344c19.157,-30.013 30.37,-63.052 31.661,-93.071c2.958,-69.772 -3.468,-160.09 -89.047,-251.159c-60.869,-64.774 -164.395,-129.82 -339.006,-186.44c-39.118,-11.976 -66.674,-33.054 -83.528,-58.229c-19.605,-29.285 -24.869,-63.647 -17.035,-92.5c10.958,-41.584 45.339,-64.795 84.679,-77.36c45.908,-14.663 98.901,-15.706 141.098,-8.264c88.249,15.18 162.485,48.283 224.857,95.1c66.424,49.859 119.724,114.603 162.284,189.152c28.685,50.199 59.957,123.651 77.569,223.489c11.992,67.98 17.699,147.909 12.45,240.734c-2.469,42.876 -12.57,102.516 -33.135,167.317c-16.223,51.121 -38.906,105.377 -69.163,157.23c-2.403,3.96 -1.14,9.126 2.82,11.53c3.96,2.403 9.126,1.139 11.529,-2.821Z"/><path d="M1114.83,1264.55c30.419,39.928 78.596,97.123 149.341,145.024c33.148,22.444 70.946,43.079 114.263,57.646c26.038,8.756 54.197,14.477 83.881,18.572c66.039,5.711 127.316,4.396 181.403,-2.48c74.586,-9.483 134.758,-28.418 173.704,-49.783c4.185,-1.985 5.971,-6.995 3.986,-11.18c-1.985,-4.185 -6.995,-5.971 -11.18,-3.986c-32.552,13.177 -78.826,22.699 -134.678,26.313c-59.655,3.86 -129.765,0.419 -205.542,-14.263c-26.545,-3.713 -51.357,-10.059 -75,-16.751c-39.908,-11.295 -76.11,-25.1 -108.35,-41.846c-72.235,-37.521 -125.407,-84.448 -159.183,-118.304c-3.046,-3.489 -8.352,-3.85 -11.842,-0.804c-3.489,3.047 -3.849,8.353 -0.803,11.842Z"/><path d="M1138.85,993.225c-65.606,26.38 -134.426,47.056 -200.174,45.816c-42.885,-0.808 -84.11,-11.716 -121.899,-37.175c-62.597,-41.48 -155.448,-26.842 -203.92,16.686c-50.584,45.425 -64.514,122.266 42.501,198.34c65.91,42.876 137.698,57.529 207.835,54.503c120.975,-5.22 234.75,-60.676 294.382,-83.907c5.964,-2.006 9.178,-8.477 7.173,-14.441c-2.006,-5.965 -8.477,-9.179 -14.442,-7.173c-58.783,16.732 -171.675,58.851 -287.23,54.393c-58.627,-2.261 -117.941,-17.041 -170.416,-56.595c-56.497,-39.04 -62.572,-74.612 -37.079,-99.402c31.057,-30.201 91.313,-44.116 134.667,-19.343c47.657,26.75 97.872,36.192 149.228,33.114c69.773,-4.181 141.276,-30.742 208.679,-63.997c5.745,-2.568 8.324,-9.317 5.757,-15.062c-2.568,-5.745 -9.317,-8.325 -15.062,-5.757Z"/><path d="M1754.41,1239.66c63.781,136.575 179.604,238.904 299.869,286.778c102.483,40.796 208.04,40.689 290.13,-4.528c59.103,-35.213 96.816,-83.475 104.772,-128.468c7.414,-41.927 -6.645,-82.819 -51.093,-111.676c-34.373,-21.887 -75.768,-30.963 -119.769,-33.949c-56.043,-3.803 -115.888,1.684 -165.643,-10.029c-35.341,-8.32 -65.223,-25.448 -83.108,-62.996c-2.467,-5.789 -9.17,-8.487 -14.959,-6.02c-5.789,2.467 -8.487,9.169 -6.02,14.959c18.041,47.786 52.807,71.811 95.179,85.702c80.378,26.35 193.384,7.173 261.716,59.206c24.911,18.481 27.628,43.596 15.973,67.951c-11.989,25.054 -36.764,49.218 -70.219,68.471c-81.197,50.34 -194.102,39.481 -299.314,-11.968c-93.166,-45.559 -180.712,-122.571 -237.213,-223.819c-2.866,-5.602 -9.741,-7.824 -15.343,-4.958c-5.603,2.866 -7.824,9.742 -4.958,15.344Z"/><path d="M959.343,999.814c-16.023,-36.631 -33.391,-77.298 -33.391,-77.298" style="fill:none;stroke:#000;stroke-width:25px;"/></g></svg>