<svg viewBox="0 0 16 16" width="16" height="16" fill="none" xmlns="http://www.w3.org/2000/svg"><path fill-rule="evenodd" clip-rule="evenodd" d="M6.316 2a.832.832 0 0 0-.69.359l-.879 1.294h-1.8c-.522 0-1.018.203-1.382.56A1.87 1.87 0 0 0 1 5.548v6.557c0 .498.201.978.565 1.335.364.357.86.56 1.382.56h10.107c.52 0 1.017-.203 1.381-.56A1.87 1.87 0 0 0 15 12.105V5.548a1.87 1.87 0 0 0-.565-1.335 1.973 1.973 0 0 0-1.382-.56h-1.8l-.88-1.294A.832.832 0 0 0 9.684 2H6.316Zm-.434 2.88.879-1.293h2.478l.88 1.294a.832.832 0 0 0 .688.359h2.246c.075 0 .15.029.207.085a.313.313 0 0 1 .093.223v6.557a.313.313 0 0 1-.093.223.295.295 0 0 1-.207.085H2.947a.295.295 0 0 1-.207-.085.313.313 0 0 1-.093-.223V5.548c0-.086.035-.166.093-.223a.295.295 0 0 1 .207-.085h2.246a.832.832 0 0 0 .689-.36Zm.883 3.864c0-.657.553-1.19 1.235-1.19s1.235.533 1.235 1.19c0 .657-.553 1.19-1.235 1.19S6.765 9.4 6.765 8.744ZM8 5.967c-1.592 0-2.882 1.243-2.882 2.777 0 1.533 1.29 2.777 2.882 2.777s2.882-1.244 2.882-2.777c0-1.534-1.29-2.777-2.882-2.777Z" fill="currentColor"></path></svg>