<svg xmlns="http://www.w3.org/2000/svg" xmlns:xlink="http://www.w3.org/1999/xlink" viewBox="-1 -2 16 16" width="16" height="16" xmlns:v="https://vecta.io/nano"><defs><path id="A" d="M5.316 0c-.275-.002-.534.133-.69.359l-.879 1.294h-1.8c-.522 0-1.018.203-1.382.56A1.87 1.87 0 0 0 0 3.548v6.557a1.87 1.87 0 0 0 .565 1.335c.364.357.86.56 1.382.56h10.107c.52 0 1.017-.203 1.381-.56A1.87 1.87 0 0 0 14 10.105V3.548a1.87 1.87 0 0 0-.565-1.335c-.37-.36-.866-.561-1.382-.56h-1.8L9.373.359C9.217.133 8.959-.001 8.684 0H5.316zm-.434 2.88l.879-1.293h2.478l.88 1.294c.156.226.414.36.688.359h2.246c.075 0 .15.029.207.085s.093.139.093.223v6.557c0 .084-.033.164-.093.223s-.13.085-.207.085H1.947c-.077 0-.152-.031-.207-.085s-.093-.139-.093-.223V3.548c0-.086.035-.166.093-.223s.13-.085.207-.085h2.246c.275.001.533-.134.689-.36z"/></defs><use xlink:href="#A" filter="none"/><defs><path id="B" d="M7.013 9.3c1.755.007 3.206-1.251 3.214-2.788.008-1.546-1.448-2.819-3.214-2.813-1.755.007-3.194 1.277-3.186 2.813.008 1.527 1.441 2.781 3.186 2.788zm0 .7c2.194.009 4.008-1.564 4.018-3.484.01-1.932-1.81-3.524-4.018-3.516-2.194.009-3.992 1.596-3.982 3.516.01 1.908 1.801 3.476 3.982 3.484z"/></defs><use xlink:href="#B" fill-rule="evenodd" filter="none"/><defs><path id="C" d="M7.013 7.8c.815.003 1.489-.581 1.492-1.294S7.833 5.197 7.013 5.2c-.815.003-1.483.593-1.479 1.306S6.203 7.797 7.013 7.8zm0 .7c1.254.005 2.29-.894 2.296-1.991.006-1.104-1.034-2.014-2.296-2.009-1.254.005-2.281.912-2.276 2.009.006 1.09 1.029 1.986 2.276 1.991z"/></defs><use xlink:href="#C" fill-rule="evenodd" filter="none"/><defs><path id="D" d="M7.585 6.5c.001.274-.255.501-.569.502s-.575-.226-.574-.502.261-.499.574-.498.567.225.569.498z"/></defs><use xlink:href="#D" filter="none"/></svg>