<svg viewBox="0 0 16 16" width="16" height="16" fill="none" xmlns="http://www.w3.org/2000/svg"><path fill-rule="evenodd" clip-rule="evenodd" d="M1.864 8a6.136 6.136 0 1 1 12.272 0A6.136 6.136 0 0 1 1.864 8ZM8 .5a7.5 7.5 0 1 0 0 15 7.5 7.5 0 0 0 0-15Zm1.03 8.53a.2.2 0 0 1-.088.333l-2.87.812a.2.2 0 0 1-.247-.246l.812-2.871a.2.2 0 0 1 .334-.087l2.058 2.058Zm1.084-4.492a1.093 1.093 0 0 1 1.348 1.348l-1.066 3.766c-.102.361-.383.642-.744.744l-3.766 1.066a1.093 1.093 0 0 1-1.348-1.348l1.066-3.766c.102-.361.383-.642.744-.744l3.766-1.066Z" fill="currentColor"></path></svg>