<svg xmlns="http://www.w3.org/2000/svg" width="16" height="16" fill="none" xmlns:v="https://vecta.io/nano"><path d="M8 1c.504 0 .913.409.913.913v5.912l2.5-2.5a.913.913 0 1 1 1.29 1.292L9.22 10.1l-.016.016a4.908 4.908 0 0 1-.28.265c-.108.091-.267.21-.485.28a1.42 1.42 0 0 1-.878 0 1.429 1.429 0 0 1-.485-.28 4.907 4.907 0 0 1-.28-.265L6.78 10.1 3.296 6.617a.913.913 0 1 1 1.292-1.292l2.499 2.5V1.913C7.087 1.409 7.496 1 8 1ZM1 14.087c0-.504.409-.913.913-.913h12.174a.913.913 0 0 1 0 1.826H1.913A.913.913 0 0 1 1 14.087Z" fill="#000"/></svg>