<svg viewBox="0 0 16 16" width="16" height="16" fill="none" xmlns="http://www.w3.org/2000/svg"><path fill-rule="evenodd" clip-rule="evenodd" d="M10.059 1c.455 0 .823.369.823.824v2.129l2.712-2.712a.824.824 0 0 1 1.165 1.165l-2.712 2.712h2.13a.824.824 0 0 1 0 1.647h-4.118a.824.824 0 0 1-.824-.824V1.824c0-.455.369-.824.824-.824ZM1 10.059c0-.455.369-.824.824-.824H5.94c.455 0 .824.369.824.824v4.118a.824.824 0 0 1-1.647 0v-2.13l-2.712 2.712a.824.824 0 1 1-1.165-1.165l2.712-2.712h-2.13A.824.824 0 0 1 1 10.06Z" fill="currentColor"></path></svg>