<svg xmlns="http://www.w3.org/2000/svg" width="16" height="16" fill="none" xmlns:v="https://vecta.io/nano"><path d="M3.351 2.448a.903.903 0 1 0 0 1.806.903.903 0 0 0 0-1.806ZM1 3.351a2.351 2.351 0 0 1 4.589-.724h4.822a2.352 2.352 0 1 1 2.962 2.962v4.822a2.352 2.352 0 1 1-2.962 2.962H5.59a2.352 2.352 0 1 1-2.962-2.962V5.59A2.352 2.352 0 0 1 1 3.35ZM4.075 5.59v4.822a2.357 2.357 0 0 1 1.514 1.514h4.822a2.357 2.357 0 0 1 1.514-1.514V5.59a2.357 2.357 0 0 1-1.514-1.514H5.59A2.357 2.357 0 0 1 4.075 5.59Zm8.574-3.14a.903.903 0 1 0 0 1.805.903.903 0 0 0 0-1.806ZM3.35 11.745a.903.903 0 1 0 0 1.806.903.903 0 0 0 0-1.806Zm9.298 0a.903.903 0 1 0 0 1.806.903.903 0 0 0 0-1.806Z" fill="#000"/></svg>