<svg xmlns="http://www.w3.org/2000/svg" width="16" height="16" fill="#000" xmlns:v="https://vecta.io/nano"><path d="M1 3.66A2.66 2.66 0 0 1 3.66 1h8.68A2.66 2.66 0 0 1 15 3.66v8.68A2.66 2.66 0 0 1 12.34 15H3.66A2.66 2.66 0 0 1 1 12.34V3.66zm2.66-1.197c-.661 0-1.197.536-1.197 1.197v8.68c0 .308.116.59.308.801L9.378 5.59a.731.731 0 0 1 1.068-.036l3.091 3.091V3.66c0-.661-.536-1.197-1.197-1.197H3.66zm9.877 8.154a.73.73 0 0 1-.268-.171L9.964 7.141l-5.596 6.396h7.972c.661 0 1.197-.536 1.197-1.197v-1.723zM6.955 5.388a1.567 1.567 0 1 1-3.134 0 1.567 1.567 0 0 1 3.134 0z"/></svg>