<svg
    viewBox="0 0 16 16"
    width="16"
    height="16"
    fill="none"
    xmlns="http://www.w3.org/2000/svg"
  >
    <path
      d="M7.544 4.036a.72.72 0 0 0 .445-.922.733.733 0 0 0-.932-.44 3.85 3.85 0 0 0-2.354 2.328.72.72 0 0 0 .445.922.733.733 0 0 0 .932-.44c.24-.674.782-1.21 1.464-1.448Z"
      fill="currentColor"
    />
    <path
      fillRule="evenodd"
      clipRule="evenodd"
      d="M8 0C4.728 0 2 2.491 2 5.654c0 2.062 1.612 3.734 3.13 4.67v3.382c0 .343.099.678.285.968l.312.488c.335.522.917.838 1.542.838h1.462c.625 0 1.207-.316 1.542-.838l.312-.488c.186-.29.285-.625.285-.968v-3.381C12.388 9.388 14 7.716 14 5.654 14 2.491 11.272 0 8 0ZM3.565 5.654C3.565 3.427 5.51 1.548 8 1.548c2.491 0 4.435 1.879 4.435 4.106 0 1.293-1.1 2.588-2.483 3.411a1.31 1.31 0 0 0-.648 1.122v.29H6.696v-.29a1.31 1.31 0 0 0-.648-1.122c-1.383-.823-2.483-2.118-2.483-3.411Zm3.13 6.888v-.826h2.61v.826h-2.61Zm.012 1.239a.255.255 0 0 0 .03.063l.312.488c.048.074.131.12.22.12h1.462c.089 0 .172-.046.22-.12l.313-.488a.255.255 0 0 0 .03-.063H6.706Z"
      fill="currentColor"
    />
  </svg>