<svg xmlns="http://www.w3.org/2000/svg" width="16" height="16" fill="none" xmlns:v="https://vecta.io/nano"><path d="M3.391 2.556a.835.835 0 1 0 0 1.67.835.835 0 0 0 0-1.67zM1 3.39a2.39 2.39 0 0 1 4.653-.778h4.695a2.392 2.392 0 1 1 2.594 3.146L11.662 8l1.28 2.241a2.391 2.391 0 1 1-2.595 3.146H5.654a2.392 2.392 0 1 1-3.04-3.04V5.654A2.392 2.392 0 0 1 1 3.39zm3.169 2.262v4.695a2.397 2.397 0 0 1 1.484 1.483h4.695a2.4 2.4 0 0 1 .996-1.251L10.22 8.615a1.239 1.239 0 0 1 0-1.23l1.123-1.965a2.398 2.398 0 0 1-.996-1.251H5.652a2.397 2.397 0 0 1-1.484 1.484zm8.44-3.097a.835.835 0 1 0 0 1.67.835.835 0 0 0 0-1.67zm-9.218 9.218a.835.835 0 1 0 0 1.67.835.835 0 0 0 0-1.67zm9.218 0a.835.835 0 1 0 0 1.67.835.835 0 0 0 0-1.67z" fill="#000"/></svg>