<svg viewBox="0 0 16 16" width="16" height="16" fill="none" xmlns="http://www.w3.org/2000/svg"><path fill-rule="evenodd" clip-rule="evenodd" d="M9.296 2.556h-3.63v.674c0 .303.001.484.012.618a.65.65 0 0 0 .019.125.26.26 0 0 0 .108.108.65.65 0 0 0 .125.019c.134.01.315.011.618.011h1.867c.303 0 .484 0 .618-.011a.65.65 0 0 0 .125-.019.26.26 0 0 0 .108-.108.652.652 0 0 0 .019-.125c.01-.134.011-.315.011-.618v-.674Zm-.03 1.42v-.002.001Zm-.105.104h-.002.002Zm-3.359 0h.002-.002Zm-.105-.106v.001-.001ZM4.11 2.556V3.257c0 .267 0 .512.017.717.018.221.06.463.18.702.175.341.453.619.794.793.239.122.48.163.702.181.205.017.45.017.717.017h1.92c.268 0 .513 0 .718-.017a1.84 1.84 0 0 0 .702-.181c.341-.174.619-.452.793-.793a1.84 1.84 0 0 0 .181-.702c.017-.205.017-.45.017-.717V3.24l2.334 2.334c.095.095.147.148.185.19.034.036.038.044.035.04a.258.258 0 0 1 .031.075c0 .004.003.019.005.054.002.056.002.13.002.264v6.365c0 .303 0 .484-.011.618a.648.648 0 0 1-.019.125.26.26 0 0 1-.108.109.66.66 0 0 1-.125.018 8.6 8.6 0 0 1-.618.011h-.705a2.84 2.84 0 0 0 .014-.137c.017-.205.017-.45.017-.717V9.632c0-.267 0-.512-.017-.717a1.84 1.84 0 0 0-.181-.702 1.815 1.815 0 0 0-.793-.793 1.84 1.84 0 0 0-.702-.181c-.205-.017-.45-.017-.717-.017H6.521c-.267 0-.512 0-.717.017a1.84 1.84 0 0 0-.702.181c-.341.174-.62.452-.793.793a1.84 1.84 0 0 0-.181.702c-.017.205-.017.45-.017.717v2.958c0 .267 0 .512.017.717.003.045.008.091.014.137h-.705c-.303 0-.484 0-.618-.011a.66.66 0 0 1-.125-.018.26.26 0 0 1-.109-.109.649.649 0 0 1-.018-.125 8.647 8.647 0 0 1-.011-.618V3.437c0-.303 0-.484.011-.618a.65.65 0 0 1 .018-.125.26.26 0 0 1 .109-.108.65.65 0 0 1 .125-.019 8.64 8.64 0 0 1 .618-.011h.674ZM3.437 1H3.41c-.267 0-.512 0-.717.017a1.84 1.84 0 0 0-.702.18c-.342.175-.62.453-.793.794a1.84 1.84 0 0 0-.181.702C1 2.898 1 3.143 1 3.41v9.18c0 .267 0 .512.017.717.018.221.06.463.18.702.175.342.452.62.794.793.239.122.48.163.702.181.205.017.45.017.717.017H12.59c.267 0 .512 0 .717-.017a1.84 1.84 0 0 0 .702-.18c.341-.175.62-.452.793-.794a1.84 1.84 0 0 0 .181-.702c.017-.205.017-.45.017-.717V6.148c0-.202 0-.419-.05-.63a1.813 1.813 0 0 0-.217-.525c-.115-.187-.268-.34-.412-.483l-.035-.035-2.761-2.761a16.811 16.811 0 0 1-.036-.035c-.143-.144-.296-.297-.482-.411-.162-.1-.339-.173-.524-.218a1.801 1.801 0 0 0-.308-.043.784.784 0 0 0-.101-.007H3.437Zm-.746 1.586h.002-.002Zm-.105.105v.002-.002Zm0 10.618v-.002.002Zm.105.105h.002-.002Zm3.857.03h2.904c.303 0 .484 0 .618-.011a.663.663 0 0 0 .125-.018.26.26 0 0 0 .108-.109.66.66 0 0 0 .019-.125c.01-.134.011-.315.011-.618V9.659c0-.303 0-.484-.011-.617a.66.66 0 0 0-.019-.126.26.26 0 0 0-.108-.108.653.653 0 0 0-.125-.019 8.65 8.65 0 0 0-.618-.011H6.548c-.303 0-.484 0-.618.011a.65.65 0 0 0-.125.019.26.26 0 0 0-.108.108.65.65 0 0 0-.019.126c-.01.133-.011.314-.011.617v2.904c0 .303 0 .484.011.618a.649.649 0 0 0 .019.125.26.26 0 0 0 .108.109.66.66 0 0 0 .125.018c.134.01.315.011.618.011Zm-.746-.03h.002-.002Zm-.105-.105v-.002.002Zm0-4.395v.001-.001Zm.107-.106h-.002.002Zm4.393 0h-.001.002Zm.105.106.001.001v-.001Zm0 4.395.001-.002v.002Zm-.104.105h-.002.002Zm3.239-7.535v.001Zm-.023 7.43v-.002.002Zm-.105.105h-.002.002Z" fill="currentColor"></path></svg>