<svg xmlns="http://www.w3.org/2000/svg" width="16" height="16" fill="none" xmlns:v="https://vecta.io/nano"><path fill-rule="evenodd" d="M9.296 2.556h-3.63v.674l.012.618a.65.65 0 0 0 .019.125.26.26 0 0 0 .108.108.65.65 0 0 0 .125.019c.134.01.315.011.618.011h1.867l.618-.011a.65.65 0 0 0 .125-.019.26.26 0 0 0 .108-.108.652.652 0 0 0 .019-.125c.01-.134.011-.315.011-.618v-.674zm-.03 1.42v-.002.001zm-.105.104h-.002.002zm-3.359 0h.002-.002zm-.105-.106v.001-.001zM4.11 2.556v.701l.017.717a1.87 1.87 0 0 0 .18.702c.175.341.453.619.794.793a1.83 1.83 0 0 0 .702.181 9.25 9.25 0 0 0 .717.017h1.92l.718-.017a1.84 1.84 0 0 0 .702-.181 1.82 1.82 0 0 0 .793-.793 1.84 1.84 0 0 0 .181-.702c.017-.205.017-.45.017-.717V3.24l2.334 2.334.185.19.035.04a.258.258 0 0 1 .031.075c0 .004.003.019.005.054l.002.264v6.365l-.011.618a.648.648 0 0 1-.019.125.26.26 0 0 1-.108.109.66.66 0 0 1-.125.018 8.6 8.6 0 0 1-.618.011h-.705a2.84 2.84 0 0 0 .014-.137c.017-.205.017-.45.017-.717V9.632l-.017-.717a1.84 1.84 0 0 0-.181-.702 1.815 1.815 0 0 0-.793-.793 1.84 1.84 0 0 0-.702-.181c-.205-.017-.45-.017-.717-.017H6.521l-.717.017a1.84 1.84 0 0 0-.702.181c-.341.174-.62.452-.793.793a1.84 1.84 0 0 0-.181.702c-.017.205-.017.45-.017.717v2.958l.017.717.014.137h-.705c-.303 0-.484 0-.618-.011a.66.66 0 0 1-.125-.018.26.26 0 0 1-.109-.109.649.649 0 0 1-.018-.125 8.647 8.647 0 0 1-.011-.618V3.437l.011-.618a.65.65 0 0 1 .018-.125.26.26 0 0 1 .109-.108.65.65 0 0 1 .125-.019 8.64 8.64 0 0 1 .618-.011h.674zM3.437 1H3.41l-.717.017a1.84 1.84 0 0 0-.702.18c-.342.175-.62.453-.793.794a1.84 1.84 0 0 0-.181.702C1 2.898 1 3.143 1 3.41v9.18l.017.717a1.87 1.87 0 0 0 .18.702 1.81 1.81 0 0 0 .794.793 1.83 1.83 0 0 0 .702.181c.205.017.45.017.717.017h9.18l.717-.017a1.84 1.84 0 0 0 .702-.18c.341-.175.62-.452.793-.794a1.84 1.84 0 0 0 .181-.702c.017-.205.017-.45.017-.717V6.148c0-.202 0-.419-.05-.63a1.813 1.813 0 0 0-.217-.525c-.115-.187-.268-.34-.412-.483l-.035-.035-2.761-2.761a16.811 16.811 0 0 1-.036-.035c-.143-.144-.296-.297-.482-.411a1.81 1.81 0 0 0-.524-.218 1.801 1.801 0 0 0-.308-.043.784.784 0 0 0-.101-.007H3.437zm-.746 1.586h.002-.002zm-.105.105v.002-.002zm0 10.618v-.002.002zm.105.105h.002-.002zm3.857.03h2.904l.618-.011a.663.663 0 0 0 .125-.018.26.26 0 0 0 .108-.109.66.66 0 0 0 .019-.125c.01-.134.011-.315.011-.618V9.659l-.011-.617a.66.66 0 0 0-.019-.126.26.26 0 0 0-.108-.108.653.653 0 0 0-.125-.019 8.65 8.65 0 0 0-.618-.011H6.548l-.618.011a.65.65 0 0 0-.125.019.26.26 0 0 0-.108.108.65.65 0 0 0-.019.126 9.33 9.33 0 0 0-.011.617v2.904l.011.618a.649.649 0 0 0 .019.125.26.26 0 0 0 .108.109.66.66 0 0 0 .125.018c.134.01.315.011.618.011zm-.746-.03h.002-.002zm-.105-.105v-.002.002zm0-4.395v.001-.001zm.107-.106h-.002.002zm4.393 0h-.001.002zm.105.106l.001.001v-.001zm0 4.395l.001-.002v.002zm-.104.105h-.002.002zm3.239-7.535v.001zm-.023 7.43v-.002.002zm-.105.105h-.002.002z" fill="#000"/></svg>