<svg xmlns="http://www.w3.org/2000/svg" width="16" height="16" fill="none" xmlns:v="https://vecta.io/nano"><path fill-rule="evenodd" d="M3.41 3h5.032l.717.017c.221.018.463.06.702.184a1.82 1.82 0 0 1 .793.805c.122.242.163.488.181.712.017.208.017.457.017.728v.648l1.427-1.448.551-.533c.148-.126.415-.336.772-.365.414-.033.818.137 1.087.458.233.276.275.616.292.811.019.213.019.482.019.773v4.42l-.019.773c-.017.195-.059.535-.292.811a1.29 1.29 0 0 1-1.087.458c-.357-.029-.624-.239-.772-.365a9.441 9.441 0 0 1-.551-.533l-1.427-1.448v.648l-.017.728a1.9 1.9 0 0 1-.181.712 1.828 1.828 0 0 1-.793.805c-.239.124-.48.166-.702.184-.205.017-.45.017-.717.017H3.41c-.267 0-.512 0-.717-.017a1.818 1.818 0 0 1-.702-.184 1.829 1.829 0 0 1-.793-.805 1.89 1.89 0 0 1-.181-.712C1 11.074 1 10.825 1 10.554V5.446l.017-.728c.018-.224.06-.47.18-.712a1.83 1.83 0 0 1 .794-.805c.239-.124.48-.166.702-.184C2.898 3 3.143 3 3.41 3zm-.72 1.61h.002-.002zm.003 0a.642.642 0 0 1 .125-.02c.134-.01.315-.011.618-.011h4.978l.618.012a.642.642 0 0 1 .125.018.261.261 0 0 1 .108.11.67.67 0 0 1 .019.128 9.65 9.65 0 0 1 .011.627v5.052l-.011.627a.672.672 0 0 1-.019.128.26.26 0 0 1-.108.11.636.636 0 0 1-.125.018 8.51 8.51 0 0 1-.618.012H3.437c-.303 0-.484 0-.618-.012a.636.636 0 0 1-.125-.018.26.26 0 0 1-.109-.11.67.67 0 0 1-.018-.128 8.91 8.91 0 0 1-.011-.627V5.474l.011-.627a.669.669 0 0 1 .018-.128.261.261 0 0 1 .109-.11zm-.108.107v.001-.001zm0 6.566v-.001.001zm.105.107h.002-.002zm6.47 0h-.002.002zm.104-.107l.001-.001v.001zm0-6.566l.001.001v-.001zM9.16 4.61a.01.01 0 0 1 .002 0H9.16zm4.285 1.086l-.088.09-2.145 2.177-.037.037.037.037 2.145 2.178.088.09V5.696z" fill="#000"/></svg>