<svg viewBox="0 0 16 16" width="16" height="16" fill="none" xmlns="http://www.w3.org/2000/svg"><path fill-rule="evenodd" clip-rule="evenodd" d="M3.41 3h5.032c.267 0 .512 0 .717.017.221.018.463.06.702.184.341.176.62.458.793.805.122.242.163.488.181.712.017.208.017.457.017.728v.648l1.427-1.448c.202-.206.39-.396.551-.533.148-.126.415-.336.772-.365.414-.033.818.137 1.087.458.233.276.275.616.292.811.019.213.019.482.019.773v4.42c0 .29 0 .56-.019.773-.017.195-.059.535-.292.811-.27.32-.673.49-1.087.458-.357-.029-.624-.239-.772-.365a9.441 9.441 0 0 1-.551-.533l-1.427-1.448v.648c0 .271 0 .52-.017.728-.018.224-.06.47-.181.712a1.828 1.828 0 0 1-.793.805c-.239.124-.48.166-.702.184-.205.017-.45.017-.717.017H3.41c-.267 0-.512 0-.717-.017a1.818 1.818 0 0 1-.702-.184 1.829 1.829 0 0 1-.793-.805 1.89 1.89 0 0 1-.181-.712C1 11.074 1 10.825 1 10.554V5.446c0-.271 0-.52.017-.728.018-.224.06-.47.18-.712.175-.347.452-.629.794-.805.239-.124.48-.166.702-.184C2.898 3 3.143 3 3.41 3ZM2.69 4.61h.002-.002Zm.003 0a.642.642 0 0 1 .125-.02c.134-.01.315-.011.618-.011h4.978c.303 0 .484 0 .618.012a.642.642 0 0 1 .125.018.261.261 0 0 1 .108.11.67.67 0 0 1 .019.128c.01.136.011.319.011.627v5.052c0 .308 0 .492-.011.627a.672.672 0 0 1-.019.128.26.26 0 0 1-.108.11.636.636 0 0 1-.125.018 8.51 8.51 0 0 1-.618.012H3.437c-.303 0-.484 0-.618-.012a.636.636 0 0 1-.125-.018.26.26 0 0 1-.109-.11.67.67 0 0 1-.018-.128 8.91 8.91 0 0 1-.011-.627V5.474c0-.308 0-.491.011-.627a.669.669 0 0 1 .018-.128.261.261 0 0 1 .109-.11Zm-.108.107v.001-.001Zm0 6.566v-.001.001Zm.105.107h.002-.002Zm6.47 0h-.002.002Zm.104-.107.001-.001v.001Zm0-6.566.001.001v-.001ZM9.16 4.61a.01.01 0 0 1 .002 0h-.002Zm4.285 1.086-.088.09-2.145 2.177-.037.037.037.037 2.145 2.178.088.09V5.696Z" fill="currentColor"></path></svg>