<svg xmlns="http://www.w3.org/2000/svg" width="16" height="16" fill="none" xmlns:v="https://vecta.io/nano"><path fill-rule="evenodd" d="M2.51 7.269h2.194c.188-1.67.903-3.242 1.746-4.586a5.543 5.543 0 0 0-3.94 4.586ZM8 2.983C7.118 4.284 6.386 5.76 6.178 7.269h3.644C9.614 5.76 8.882 4.284 8 2.983ZM9.822 8.73c-.208 1.508-.94 2.985-1.822 4.286-.882-1.301-1.614-2.778-1.822-4.286h3.644Zm-5.118 0H2.51a5.543 5.543 0 0 0 3.939 4.586c-.843-1.345-1.558-2.917-1.746-4.586Zm4.846 4.586c.843-1.345 1.558-2.917 1.746-4.586h2.193a5.543 5.543 0 0 1-3.939 4.586Zm3.94-6.048h-2.194c-.188-1.67-.903-3.242-1.746-4.586a5.543 5.543 0 0 1 3.94 4.586ZM1 8a7 7 0 1 1 14 0A7 7 0 0 1 1 8Z" fill="#000"/></svg>