<svg viewBox="0 0 16 16" width="16" height="16" fill="none" xmlns="http://www.w3.org/2000/svg"><path opacity=".5" fill-rule="evenodd" clip-rule="evenodd" d="M6 1c.442 0 .8.369.8.824v12.353A.812.812 0 0 1 6 15a.812.812 0 0 1-.8-.823V1.824C5.2 1.369 5.558 1 6 1Z" fill="currentColor"></path><path d="M10.71 4.222a.713.713 0 0 1 1.032 0l2.983 3.09a.998.998 0 0 1 0 1.376l-2.983 3.09a.713.713 0 0 1-1.033 0 .776.776 0 0 1 0-1.07l1.78-1.843h-3.35c-.461 0-.835-.387-.835-.865s.374-.865.835-.865h3.35l-1.78-1.843a.776.776 0 0 1 0-1.07ZM1.835 7.135C1.374 7.135 1 7.522 1 8s.374.865.835.865h1.043c.461 0 .835-.387.835-.865s-.374-.865-.835-.865H1.835Z" fill="currentColor"></path></svg>