<svg xmlns="http://www.w3.org/2000/svg" xmlns:xlink="http://www.w3.org/1999/xlink" viewBox="-1 -2 16 16" width="16" height="16" preserveAspectRatio="none" xmlns:v="https://vecta.io/nano"><defs><path id="A" d="M5.316 0c-.275-.002-.534.133-.69.359l-.879 1.294h-1.8c-.522 0-1.018.203-1.382.56A1.87 1.87 0 0 0 0 3.548v6.557a1.87 1.87 0 0 0 .565 1.335c.364.357.86.56 1.382.56h10.107c.52 0 1.017-.203 1.381-.56A1.87 1.87 0 0 0 14 10.105V3.548a1.87 1.87 0 0 0-.565-1.335c-.37-.36-.866-.561-1.382-.56h-1.8L9.373.359C9.217.133 8.959-.001 8.684 0H5.316zm-.434 2.88l.879-1.293h2.478l.88 1.294c.156.226.414.36.688.359h2.246c.075 0 .15.029.207.085s.093.139.093.223v6.557c0 .084-.033.164-.093.223s-.13.085-.207.085H1.947c-.077 0-.152-.031-.207-.085s-.093-.139-.093-.223V3.548c0-.086.035-.166.093-.223s.13-.085.207-.085h2.246c.275.001.533-.134.689-.36z"/></defs><use xlink:href="#A" filter="none"/><defs><path id="B" d="M6.609 8.525c1.051.016 1.93-.836 1.945-1.888s-.836-1.93-1.888-1.945c-.019 0-.038 0-.057 0-1.052.005-1.913.874-1.908 1.925.005 1.045.863 1.904 1.908 1.908zm0 .697c.573.001 1.13-.187 1.585-.535l1.217 1.217a.35.35 0 0 0 .493-.012.35.35 0 0 0 0-.481L8.687 8.194a2.63 2.63 0 0 0-.493-3.663 2.63 2.63 0 0 0-3.663.493 2.63 2.63 0 0 0 .493 3.663c.455.347 1.012.536 1.585.536zm-.037-1.578a.25.25 0 0 1-.248-.248v-.578h-.578a.25.25 0 0 1-.249-.247.25.25 0 0 1 .249-.249h.578v-.578a.25.25 0 0 1 .247-.249.25.25 0 0 1 .249.249v.578h.578a.25.25 0 0 1 .249.247.25.25 0 0 1-.249.249h-.578v.578a.25.25 0 0 1-.248.248z"/></defs><use xlink:href="#B" fill-rule="evenodd" filter="none"/></svg>