<svg xmlns="http://www.w3.org/2000/svg" width="16" height="16" fill="none" xmlns:v="https://vecta.io/nano"><path fill-rule="evenodd" d="M7.087 11.55a4.464 4.464 0 1 0 0-8.927 4.464 4.464 0 0 0 0 8.928Zm0 1.624a6.06 6.06 0 0 0 3.692-1.247l2.835 2.835a.812.812 0 0 0 1.148-1.148l-2.835-2.835a6.087 6.087 0 1 0-4.84 2.395ZM7 9.5a.577.577 0 0 1-.577-.577V7.577H5.077a.577.577 0 1 1 0-1.154h1.346V5.077a.577.577 0 1 1 1.154 0v1.346h1.346a.577.577 0 1 1 0 1.154H7.577v1.346A.577.577 0 0 1 7 9.5Z" fill="#000"/></svg>