<svg width="14" height="14" viewBox="0 0 14 14" fill="none" xmlns="http://www.w3.org/2000/svg">
  <path fill-rule="evenodd" clip-rule="evenodd"
    d="M0 1.3254C0 0.869543 0.368707 0.5 0.823529 0.5H4.52941C5.40799 0.5 6.24747 0.856426 6.86402 1.48582C6.91094 1.53372 6.95628 1.58289 7 1.63327C7.04372 1.58289 7.08906 1.53372 7.13598 1.48582C7.75253 0.856426 8.59201 0.5 9.47059 0.5H13.1765C13.6313 0.5 14 0.869543 14 1.3254V10.7831C14 11.2389 13.6313 11.6085 13.1765 11.6085H8.85294C8.58485 11.6085 8.32462 11.717 8.13035 11.9154C7.93559 12.1142 7.82353 12.387 7.82353 12.6746C7.82353 13.1305 7.45482 13.5 7 13.5C6.54518 13.5 6.17647 13.1305 6.17647 12.6746C6.17647 12.387 6.06441 12.1142 5.86965 11.9154C5.67538 11.717 5.41515 11.6085 5.14706 11.6085H0.823529C0.368707 11.6085 0 11.2389 0 10.7831V1.3254ZM6.17647 10.1667C5.85388 10.0302 5.50452 9.95767 5.14706 9.95767H1.64706V2.15079H4.52941C4.96131 2.15079 5.37865 2.3258 5.68874 2.64235C5.99934 2.95942 6.17647 3.39263 6.17647 3.84744V10.1667ZM7.82353 10.1667C8.14612 10.0302 8.49548 9.95767 8.85294 9.95767H12.3529V2.15079H9.47059C9.03869 2.15079 8.62136 2.3258 8.31126 2.64235C8.00066 2.95942 7.82353 3.39263 7.82353 3.84744V10.1667Z"
    fill="black" />
</svg>
