<svg viewBox="0 0 16 16" width="16" height="16" fill="none" xmlns="http://www.w3.org/2000/svg">
  <path fill-rule="evenodd" clip-rule="evenodd"
    d="M3.196 2.647a.549.549 0 0 0-.549.55v8.991l1.34-1.339a.824.824 0 0 1 .582-.241h8.235a.549.549 0 0 0 .549-.55V3.197a.549.549 0 0 0-.55-.549H3.197ZM1.643 1.643C2.055 1.231 2.613 1 3.196 1h9.608A2.196 2.196 0 0 1 15 3.196v6.863a2.196 2.196 0 0 1-2.196 2.196H4.91l-2.504 2.504A.824.824 0 0 1 1 14.176V3.196c0-.582.231-1.14.643-1.553Z"
    fill="currentColor"></path>
  <path fill-rule="evenodd" clip-rule="evenodd"
    d="M8 3.574c.455 0 .824.368.824.823v1.544a.824.824 0 0 1-1.648 0V4.397c0-.455.37-.823.824-.823Z"
    fill="currentColor"></path>
  <path d="M8.823 8.617a.824.824 0 1 1-1.647 0 .824.824 0 0 1 1.647 0Z" fill="currentColor"></path>
</svg>
