<svg
  xmlns="http://www.w3.org/2000/svg"
  viewBox="0 0 16 16"
  className="animated-spinner"
>
  <path
    fillRule="evenodd"
    clipRule="evenodd"
    d="M2.167 6.833a1.167 1.167 0 1 0 0 2.334 1.167 1.167 0 0 0 0-2.334Zm11.666 0a1.167 1.167 0 1 0 0 2.334 1.167 1.167 0 0 0 0-2.334ZM3.05 11.3a1.167 1.167 0 1 0 1.65 1.65 1.167 1.167 0 0 0-1.65-1.65ZM6.833 13.833a1.167 1.167 0 1 0 2.334 0 1.167 1.167 0 0 0-2.334 0Zm0-11.666a1.167 1.167 0 1 0 2.334 0 1.167 1.167 0 0 0-2.334 0ZM11.3 12.95a1.167 1.167 0 1 0 1.65-1.65 1.167 1.167 0 0 0-1.65 1.65ZM3.05 4.7A1.167 1.167 0 1 0 4.7 3.05 1.167 1.167 0 0 0 3.05 4.7Z"
    fill="currentColor"
  />
</svg>