<svg width="20" height="19" viewBox="0 0 20 19" fill="none" xmlns="http://www.w3.org/2000/svg">
<path d="M14.5717 3.85938C14.5038 3.85938 14.4342 3.87188 14.3646 3.90045L4.07171 8.03616H1.14314C0.985993 8.03616 0.857422 8.1683 0.857422 8.33259V13.6719C0.857422 13.8362 0.985993 13.9683 1.14314 13.9683H2.95921C2.89314 14.1754 2.85742 14.3951 2.85742 14.6183C2.85742 15.7951 3.81814 16.7522 5.00028 16.7522C5.98956 16.7522 6.82349 16.0808 7.06992 15.1737L14.3663 18.1058C14.436 18.1326 14.5056 18.1469 14.5735 18.1469C14.8753 18.1469 15.1449 17.8933 15.1449 17.554V4.45223C15.1431 4.11295 14.8753 3.85938 14.5717 3.85938ZM5.00028 15.4719C4.52706 15.4719 4.14314 15.0897 4.14314 14.6183C4.14314 14.4183 4.21278 14.2272 4.33956 14.0754L5.85564 14.6844C5.81992 15.1237 5.45028 15.4719 5.00028 15.4719ZM13.8574 16.5147L4.55028 12.7754L4.31992 12.6826H2.14314V9.32187H4.31992L4.55028 9.22902L13.8574 5.48973V16.5147Z" fill="black" fill-opacity="0.65"/>
<path d="M13 3.00052C13 1.34325 14.3435 -0.000732422 16.0008 -0.000732422C17.658 -0.000732422 19.0015 1.34325 19.0015 3.00052C19.0015 4.65779 17.658 6.00177 16.0008 6.00177C14.3435 6.00177 13 4.65779 13 3.00052Z" fill="#FF4D4F"/>
<g clip-path="url(#clip0)">
<rect x="13" y="6.00073" width="0.001" height="0.001" transform="rotate(-90 13 6.00073)" fill="#C4C4C4"/>
</g>
<g clip-path="url(#clip1)">
<rect x="13" y="6.00073" width="0.001" height="0.001" fill="#C4C4C4"/>
</g>
<defs>
<clipPath id="clip0">
<rect width="6.0015" height="0.001" fill="white" transform="translate(13 6.00073) rotate(-90)"/>
</clipPath>
<clipPath id="clip1">
<rect width="6.0015" height="0.001" fill="white" transform="translate(13 6.00073)"/>
</clipPath>
</defs>
</svg>
