<svg width="187" height="187" viewBox="0 0 187 187" fill="none" xmlns="http://www.w3.org/2000/svg">
<circle cx="93.5001" cy="93.5001" r="76.67" fill="#F2F4FF"/>
<path d="M181.973 93.0583C181.977 94.0759 181.964 95.0971 181.933 96.1217L181.433 96.1066C181.408 96.9525 181.37 97.8007 181.32 98.6511C181.27 99.5014 181.209 100.348 181.135 101.191L181.633 101.235C181.544 102.256 181.438 103.272 181.315 104.282L180.818 104.221C180.612 105.912 180.359 107.588 180.06 109.245L180.552 109.334C180.37 110.342 180.171 111.343 179.955 112.338L179.467 112.232C179.106 113.895 178.699 115.54 178.247 117.165L178.729 117.299C178.455 118.286 178.164 119.265 177.856 120.237L177.38 120.086C176.867 121.707 176.31 123.306 175.708 124.883L176.175 125.061C175.81 126.018 175.429 126.967 175.033 127.907L174.572 127.713C173.912 129.277 173.208 130.817 172.462 132.332L172.911 132.553C172.458 133.472 171.991 134.381 171.508 135.281L171.067 135.045C170.265 136.54 169.422 138.008 168.538 139.449L168.964 139.711C168.429 140.583 167.879 141.445 167.315 142.296L166.898 142.02C165.962 143.434 164.986 144.818 163.972 146.172L164.372 146.472C163.759 147.29 163.132 148.098 162.492 148.894L162.103 148.58C161.04 149.901 159.941 151.19 158.806 152.446L159.177 152.781C158.492 153.539 157.793 154.286 157.083 155.02L156.724 154.672C155.545 155.889 154.332 157.071 153.086 158.218L153.425 158.586C152.673 159.278 151.909 159.957 151.134 160.623L150.808 160.244C149.523 161.347 148.207 162.414 146.861 163.442L147.164 163.839C146.352 164.459 145.529 165.065 144.696 165.658L144.406 165.25C143.027 166.23 141.618 167.171 140.182 168.072L140.448 168.495C139.582 169.038 138.707 169.566 137.823 170.079L137.572 169.647C136.109 170.495 134.62 171.303 133.106 172.068L133.332 172.514C132.42 172.974 131.5 173.42 130.571 173.849L130.361 173.395C128.827 174.105 127.27 174.771 125.691 175.393L125.874 175.858C124.924 176.232 123.967 176.59 123.001 176.932L122.834 176.461C121.243 177.024 119.631 177.543 118 178.016L118.139 178.496C117.159 178.78 116.172 179.048 115.179 179.299L115.057 178.814C113.421 179.227 111.767 179.594 110.097 179.913L110.191 180.404C109.19 180.596 108.184 180.77 107.172 180.927L107.095 180.433C105.429 180.692 103.747 180.904 102.053 181.067L102.101 181.565C101.088 181.663 100.07 181.743 99.0485 181.806L99.0178 181.307C97.3362 181.411 95.6429 181.467 93.9394 181.473L93.9414 181.973C92.9238 181.977 91.9025 181.964 90.878 181.933L90.893 181.434C90.0471 181.408 89.1989 181.37 88.3486 181.32C87.4983 181.271 86.6515 181.209 85.8084 181.135L85.7649 181.633C84.7438 181.544 83.728 181.438 82.7178 181.315L82.7783 180.819C81.0872 180.613 79.4121 180.359 77.7542 180.06L77.6653 180.552C76.6577 180.37 75.6565 180.171 74.6618 179.956L74.7676 179.467C73.1042 179.107 71.4593 178.7 69.8342 178.248L69.7002 178.729C68.7137 178.455 67.7344 178.164 66.7628 177.857L66.9135 177.38C65.2928 176.868 63.6933 176.31 62.1165 175.709L61.9383 176.176C60.9813 175.811 60.0326 175.43 59.0925 175.033L59.2869 174.572C57.7226 173.912 56.1823 173.208 54.6673 172.462L54.4465 172.911C53.5278 172.459 52.6184 171.991 51.7186 171.508L51.955 171.068C50.4598 170.266 48.9912 169.422 47.5506 168.538L47.2891 168.964C46.417 168.429 45.555 167.879 44.7037 167.315L44.9798 166.899C43.566 165.962 42.1815 164.986 40.8276 163.972L40.5279 164.373C39.7093 163.76 38.9019 163.133 38.106 162.493L38.4194 162.103C37.0986 161.041 35.8097 159.941 34.554 158.807L34.2188 159.178C33.4604 158.492 32.714 157.794 31.9801 157.083L32.3279 156.724C31.1109 155.545 29.9283 154.332 28.7814 153.086L28.4136 153.425C27.7215 152.673 27.0423 151.909 26.3765 151.134L26.7558 150.808C25.6526 149.524 24.5861 148.207 23.5579 146.861L23.1605 147.164C22.5404 146.352 21.9342 145.53 21.3421 144.696L21.7497 144.407C20.7696 143.027 19.8284 141.618 18.9278 140.182L18.5042 140.448C17.9615 139.583 17.4334 138.708 16.9203 137.823L17.3528 137.572C16.5042 136.109 15.6968 134.62 14.932 133.106L14.4857 133.332C14.0252 132.42 13.58 131.5 13.1506 130.571L13.6044 130.362C12.895 128.828 12.2287 127.27 11.6069 125.692L11.1417 125.875C10.7675 124.925 10.4094 123.967 10.0676 123.002L10.539 122.835C9.9753 121.243 9.4564 119.631 8.98366 118L8.50344 118.14C8.21931 117.159 7.95177 116.173 7.70112 115.18L8.18592 115.057C7.77291 113.421 7.40603 111.767 7.08665 110.098L6.59555 110.192C6.40407 109.191 6.22957 108.184 6.07234 107.172L6.56641 107.096C6.30742 105.429 6.09558 103.748 5.93221 102.053L5.43452 102.101C5.33684 101.088 5.25639 100.071 5.19346 99.0488L5.69251 99.0181C5.58897 97.3365 5.53312 95.6433 5.52625 93.9397L5.02625 93.9417C5.02215 92.9241 5.03542 91.9029 5.06634 90.8783L5.56611 90.8934C5.59164 90.0475 5.62927 89.1993 5.67915 88.3489C5.72902 87.4986 5.79081 86.6518 5.86435 85.8087L5.36624 85.7653C5.45531 84.7441 5.56152 83.7283 5.68456 82.7182L6.18089 82.7786C6.38687 81.0876 6.64029 79.4124 6.93972 77.7545L6.44768 77.6656C6.62965 76.6581 6.82851 75.6568 7.04396 74.6621L7.53263 74.768C7.89293 73.1045 8.29987 71.4596 8.75193 69.8346L8.27022 69.7006C8.54466 68.714 8.83565 67.7348 9.14283 66.7631L9.61957 66.9138C10.1319 65.2931 10.6896 63.6937 11.2911 62.1168L10.8239 61.9386C11.189 60.9816 11.57 60.0329 11.9668 59.0928L12.4275 59.2872C13.0876 57.723 13.7914 56.1827 14.5373 54.6676L14.0887 54.4468C14.5409 53.5282 15.0086 52.6188 15.4913 51.719L15.9319 51.9553C16.7339 50.4601 17.5777 48.9915 18.4616 47.5509L18.0354 47.2894C18.5705 46.4173 19.1202 45.5554 19.6842 44.704L20.101 44.9801C21.0375 43.5663 22.0135 42.1818 23.0273 40.828L22.6271 40.5283C23.2401 39.7097 23.8669 38.9023 24.507 38.1063L24.8967 38.4197C25.9589 37.0989 27.0583 35.81 28.1931 34.5544L27.8221 34.2191C28.5075 33.4607 29.2058 32.7144 29.9166 31.9804L30.2757 32.3283C31.4543 31.1113 32.6674 29.9286 33.9132 28.7818L33.5746 28.4139C34.3265 27.7218 35.0902 27.0427 35.8655 26.3768L36.1913 26.7562C37.4759 25.6529 38.7923 24.5864 40.1387 23.5582L39.8352 23.1608C40.6472 22.5408 41.4701 21.9345 42.3034 21.3425L42.593 21.7501C43.9727 20.7699 45.3813 19.8288 46.8172 18.9282L46.5515 18.5046C47.4168 17.9619 48.292 17.4338 49.1766 16.9207L49.4275 17.3532C50.8906 16.5046 52.3797 15.6971 53.8933 14.9324L53.6678 14.4861C54.5792 14.0255 55.4995 13.5804 56.4282 13.1509L56.6381 13.6047C58.1721 12.8953 59.7293 12.229 61.308 11.6073L61.1248 11.142C62.0749 10.7679 63.0327 10.4097 63.9979 10.068L64.1648 10.5393C65.7566 9.97565 67.3687 9.45674 68.9993 8.98401L68.8601 8.50378C69.8402 8.21966 70.8269 7.95212 71.82 7.70147L71.9424 8.18626C73.5788 7.77326 75.2325 7.40637 76.9019 7.08699L76.808 6.5959C77.8089 6.40441 78.8154 6.22991 79.8273 6.07268L79.9041 6.56675C81.5708 6.30777 83.252 6.09593 84.9462 5.93256L84.8982 5.43487C85.9112 5.33718 86.9289 5.25673 87.9508 5.1938L87.9816 5.69286C89.6631 5.58931 91.3564 5.53346 93.0599 5.52659L93.0579 5.0266C94.0755 5.02249 95.0968 5.03577 96.1213 5.06669L96.1063 5.56646C96.9522 5.59199 97.8004 5.62961 98.6507 5.67949C99.5011 5.72937 100.348 5.79116 101.191 5.8647L101.234 5.36659C102.256 5.45566 103.271 5.56187 104.281 5.68491L104.221 6.18124C105.912 6.38722 107.587 6.64064 109.245 6.94006L109.334 6.44802C110.342 6.62999 111.343 6.82886 112.338 7.0443L112.232 7.53297C113.895 7.89328 115.54 8.30021 117.165 8.75227L117.299 8.27056C118.286 8.54501 119.265 8.83599 120.237 9.14317L120.086 9.61992C121.707 10.1323 123.306 10.69 124.883 11.2915L125.061 10.8243C126.018 11.1893 126.967 11.5704 127.907 11.9671L127.712 12.4278C129.277 13.0879 130.817 13.7917 132.332 14.5376L132.553 14.089C133.471 14.5413 134.381 15.0089 135.281 15.4916L135.044 15.9322C136.54 16.7343 138.008 17.5781 139.449 18.4619L139.71 18.0358C140.582 18.5708 141.444 19.1206 142.296 19.6845L142.02 20.1013C143.433 21.0378 144.818 22.0138 146.172 23.0277L146.471 22.6275C147.29 23.2405 148.097 23.8672 148.893 24.5074L148.58 24.897C149.901 25.9593 151.19 27.0586 152.445 28.1934L152.781 27.8225C153.539 28.5079 154.285 29.2062 155.019 29.9169L154.671 30.2761C155.888 31.4546 157.071 32.6677 158.218 33.9136L158.586 33.5749C159.278 34.3268 159.957 35.0906 160.623 35.8659L160.243 36.1916C161.347 37.4762 162.413 38.7926 163.441 40.139L163.839 39.8356C164.459 40.6476 165.065 41.4704 165.657 42.3038L165.25 42.5933C166.23 43.973 167.171 45.3816 168.071 46.8175L168.495 46.5519C169.038 47.4172 169.566 48.2923 170.079 49.177L169.646 49.4278C170.495 50.8909 171.303 52.3801 172.067 53.8936L172.514 53.6681C172.974 54.5796 173.419 55.4999 173.849 56.4286L173.395 56.6384C174.104 58.1725 174.771 59.7297 175.392 61.3084L175.858 61.1252C176.232 62.0752 176.59 63.033 176.932 63.9983L176.46 64.1652C177.024 65.757 177.543 67.369 178.016 68.9997L178.496 68.8605C178.78 69.8405 179.048 70.8273 179.298 71.8204L178.813 71.9427C179.226 73.5791 179.593 75.2328 179.913 76.9023L180.404 76.8083C180.595 77.8092 180.77 78.8158 180.927 79.8276L180.433 79.9044C180.692 81.5711 180.904 83.2523 181.067 84.9465L181.565 84.8985C181.662 85.9116 181.743 86.9292 181.806 87.9512L181.307 87.9819C181.41 89.6635 181.466 91.3567 181.473 93.0603L181.973 93.0583Z" stroke="#B5B9FB" stroke-dasharray="5 3"/>
<circle cx="94.4346" cy="92.5649" r="69.625" stroke="#ACB1FA" stroke-dasharray="5 3"/>
<rect x="9.60254" y="185.925" width="88.9685" height="131.56" rx="1.5" transform="rotate(-90 9.60254 185.925)" fill="white" stroke="#E8E8E8"/>
<rect x="80.4102" y="117.81" width="46.75" height="1.87" rx="0.934998" fill="#E8E8E8"/>
<rect x="65.4502" y="112.2" width="63.58" height="1.87" rx="0.935001" fill="#E8E8E8"/>
<rect x="61.71" y="129.03" width="65.45" height="1.87" rx="0.934998" fill="#E8E8E8"/>
<rect x="61.71" y="123.42" width="46.75" height="1.87" rx="0.934998" fill="#E8E8E8"/>
<rect x="61.71" y="168.3" width="65.45" height="1.87" rx="0.934998" fill="#E8E8E8"/>
<rect x="61.71" y="151.47" width="65.45" height="1.87" rx="0.934998" fill="#E8E8E8"/>
<rect x="80.4102" y="157.08" width="46.75" height="1.87" rx="0.934998" fill="#E8E8E8"/>
<rect x="61.71" y="162.69" width="46.75" height="1.87" rx="0.934998" fill="#E8E8E8"/>
<path fill-rule="evenodd" clip-rule="evenodd" d="M43.2519 151.437C43.4471 151.242 43.4471 150.925 43.2519 150.73C43.0566 150.535 42.74 150.535 42.5448 150.73L33.7046 159.57L26.632 152.498C26.4367 152.302 26.1201 152.302 25.9249 152.498C25.7296 152.693 25.7296 153.009 25.9249 153.205L32.9975 160.277L25.9248 167.35C25.7295 167.545 25.7295 167.862 25.9248 168.057C26.12 168.252 26.4366 168.252 26.6319 168.057L33.7046 160.984L42.5449 169.825C42.7401 170.02 43.0567 170.02 43.252 169.825C43.4473 169.629 43.4473 169.313 43.252 169.118L34.4117 160.277L43.2519 151.437Z" fill="#E8E8E8"/>
<path d="M43.2519 150.73L43.6054 150.376L43.6054 150.376L43.2519 150.73ZM43.2519 151.437L43.6054 151.791L43.6054 151.791L43.2519 151.437ZM42.5448 150.73L42.1912 150.376L42.1912 150.376L42.5448 150.73ZM33.7046 159.57L33.351 159.924L33.7046 160.277L34.0581 159.924L33.7046 159.57ZM26.632 152.498L26.9855 152.144L26.9855 152.144L26.632 152.498ZM25.9249 152.498L26.2784 152.851L26.2784 152.851L25.9249 152.498ZM25.9249 153.205L26.2784 152.851L26.2784 152.851L25.9249 153.205ZM32.9975 160.277L33.351 160.631L33.7046 160.277L33.351 159.924L32.9975 160.277ZM25.9248 167.35L26.2783 167.703L26.2783 167.703L25.9248 167.35ZM25.9248 168.057L26.2783 167.703L26.2783 167.703L25.9248 168.057ZM26.6319 168.057L26.9854 168.411L26.9854 168.411L26.6319 168.057ZM33.7046 160.984L34.0581 160.631L33.7046 160.277L33.351 160.631L33.7046 160.984ZM42.5449 169.825L42.1913 170.178L42.1913 170.178L42.5449 169.825ZM43.252 169.825L42.8984 169.471L42.8984 169.471L43.252 169.825ZM43.252 169.118L43.6055 168.764L43.6055 168.764L43.252 169.118ZM34.4117 160.277L34.0581 159.924L33.7046 160.277L34.0581 160.631L34.4117 160.277ZM42.8983 151.083L42.8983 151.083L43.6054 151.791C43.9959 151.4 43.996 150.767 43.6054 150.376L42.8983 151.083ZM42.8983 151.083H42.8983L43.6054 150.376C43.2149 149.986 42.5817 149.986 42.1912 150.376L42.8983 151.083ZM34.0581 159.924L42.8983 151.083L42.1912 150.376L33.351 159.217L34.0581 159.924ZM26.2784 152.851L33.351 159.924L34.0581 159.217L26.9855 152.144L26.2784 152.851ZM26.2784 152.851H26.2784L26.9855 152.144C26.595 151.753 25.9619 151.753 25.5713 152.144L26.2784 152.851ZM26.2784 152.851V152.851L25.5713 152.144C25.1808 152.534 25.1808 153.168 25.5713 153.558L26.2784 152.851ZM33.351 159.924L26.2784 152.851L25.5713 153.558L32.6439 160.631L33.351 159.924ZM26.2783 167.703L33.351 160.631L32.6439 159.924L25.5712 166.996L26.2783 167.703ZM26.2783 167.703L26.2783 167.703L25.5712 166.996C25.1807 167.387 25.1807 168.02 25.5712 168.411L26.2783 167.703ZM26.2783 167.703H26.2783L25.5712 168.411C25.9617 168.801 26.5949 168.801 26.9854 168.411L26.2783 167.703ZM33.351 160.631L26.2783 167.703L26.9854 168.411L34.0581 161.338L33.351 160.631ZM42.8984 169.471L34.0581 160.631L33.351 161.338L42.1913 170.178L42.8984 169.471ZM42.8984 169.471L42.8984 169.471L42.1913 170.178C42.5818 170.569 43.215 170.569 43.6055 170.178L42.8984 169.471ZM42.8984 169.471L42.8984 169.471L43.6055 170.178C43.9961 169.788 43.9961 169.154 43.6055 168.764L42.8984 169.471ZM34.0581 160.631L42.8984 169.471L43.6055 168.764L34.7653 159.924L34.0581 160.631ZM42.8983 151.083L34.0581 159.924L34.7653 160.631L43.6054 151.791L42.8983 151.083Z" fill="#E8E8E8"/>
<path fill-rule="evenodd" clip-rule="evenodd" d="M34.7947 134.99C35.2793 134.848 35.6677 134.481 35.8783 134.172L36.759 132.185L36.7635 132.188L46.2982 110.717C46.4103 110.465 46.2965 110.17 46.0442 110.058C45.7918 109.945 45.4963 110.059 45.3843 110.312L34.5559 134.695L25.2472 123.187C25.0735 122.972 24.7587 122.939 24.544 123.112C24.3293 123.286 24.296 123.601 24.4697 123.816L32.371 133.584L32.8747 134.195C33.5654 135.051 34.2521 135.177 34.8094 135.008L34.7947 134.99Z" fill="#E8E8E8"/>
<path d="M34.7947 134.99L34.6541 134.51L33.9341 134.721L34.4059 135.304L34.7947 134.99ZM35.8783 134.172L36.2914 134.454L36.317 134.417L36.3354 134.375L35.8783 134.172ZM36.759 132.185L37.0053 131.75L36.5254 131.478L36.3019 131.983L36.759 132.185ZM36.7635 132.188L36.5172 132.623L36.9968 132.894L37.2204 132.391L36.7635 132.188ZM46.2982 110.717L46.7552 110.92L46.7552 110.92L46.2982 110.717ZM46.0442 110.058L45.8412 110.515L45.8412 110.515L46.0442 110.058ZM45.3843 110.312L45.8412 110.515L45.8412 110.515L45.3843 110.312ZM34.5559 134.695L34.1672 135.009L34.6812 135.645L35.0129 134.898L34.5559 134.695ZM25.2472 123.187L24.8584 123.501L24.8584 123.501L25.2472 123.187ZM24.544 123.112L24.8584 123.501L24.8584 123.501L24.544 123.112ZM24.4697 123.816L24.0809 124.13L24.0809 124.13L24.4697 123.816ZM32.371 133.584L31.9822 133.898L31.9851 133.902L32.371 133.584ZM32.8747 134.195L33.2639 133.881L33.2606 133.877L32.8747 134.195ZM34.8094 135.008L34.9547 135.487L35.665 135.271L35.1982 134.694L34.8094 135.008ZM34.9353 135.47C35.5617 135.286 36.0363 134.828 36.2914 134.454L35.4652 133.891C35.299 134.134 34.9969 134.41 34.6541 134.51L34.9353 135.47ZM36.3354 134.375L37.2162 132.388L36.3019 131.983L35.4212 133.97L36.3354 134.375ZM36.5127 132.62L36.5172 132.623L37.0098 131.753L37.0053 131.75L36.5127 132.62ZM37.2204 132.391L46.7552 110.92L45.8412 110.515L36.3065 131.985L37.2204 132.391ZM46.7552 110.92C46.9793 110.416 46.7519 109.825 46.2471 109.601L45.8412 110.515L45.8412 110.515L46.7552 110.92ZM46.2471 109.601C45.7424 109.376 45.1515 109.604 44.9273 110.109L45.8412 110.515L45.8412 110.515L46.2471 109.601ZM44.9273 110.109L34.099 134.492L35.0129 134.898L45.8412 110.515L44.9273 110.109ZM34.9447 134.38L25.6359 122.872L24.8584 123.501L34.1672 135.009L34.9447 134.38ZM25.6359 122.872C25.2886 122.443 24.6589 122.376 24.2295 122.724L24.8584 123.501L24.8584 123.501L25.6359 122.872ZM24.2295 122.724C23.8001 123.071 23.7336 123.701 24.0809 124.13L24.8584 123.501L24.8584 123.501L24.2295 122.724ZM24.0809 124.13L31.9823 133.898L32.7598 133.269L24.8584 123.501L24.0809 124.13ZM31.9851 133.902L32.4888 134.513L33.2606 133.877L32.7569 133.266L31.9851 133.902ZM32.4856 134.509C32.8736 134.99 33.2892 135.301 33.7234 135.457C34.1622 135.614 34.5839 135.599 34.9547 135.487L34.6642 134.53C34.4777 134.586 34.2774 134.593 34.0608 134.515C33.8396 134.436 33.5665 134.256 33.2639 133.881L32.4856 134.509ZM35.1982 134.694L35.1834 134.675L34.4059 135.304L34.4207 135.323L35.1982 134.694Z" fill="#E8E8E8"/>
<circle cx="180.455" cy="180.455" r="6.545" fill="#FFBB00"/>
<rect x="94.3105" y="49.1201" width="91.2772" height="130.825" rx="1.5" fill="white" stroke="#DADADA"/>
<rect x="106.59" y="67.3201" width="67.32" height="1.87" rx="0.935001" fill="#DADADA"/>
<rect x="106.59" y="89.76" width="67.32" height="1.87001" rx="0.935005" fill="#DADADA"/>
<rect x="106.59" y="114.07" width="67.32" height="1.87" rx="0.935001" fill="#DADADA"/>
<rect x="106.59" y="136.51" width="67.32" height="1.87" rx="0.934998" fill="#DADADA"/>
<rect x="106.59" y="158.95" width="67.32" height="1.87001" rx="0.935005" fill="#DADADA"/>
<ellipse cx="92.5645" cy="99.1099" rx="6.545" ry="7.48" fill="#ACB1FA"/>
<ellipse cx="9.35012" cy="168.3" rx="7.48" ry="7.48" fill="#4D6AF2"/>
<path fill-rule="evenodd" clip-rule="evenodd" d="M141.944 114.223L146.006 99.541L135.32 110.402C134.805 110.6 134.353 110.969 134.055 111.484L133.772 111.975L133.77 111.977L133.771 111.977L102.012 166.985C101.322 168.181 101.731 169.71 102.927 170.4L106.181 172.279C107.377 172.969 108.906 172.559 109.596 171.364L141.64 115.863C141.938 115.347 142.031 114.769 141.944 114.223Z" fill="white"/>
<path d="M146.006 99.541L146.488 99.6743C146.549 99.4547 146.453 99.2219 146.256 99.108C146.059 98.9941 145.809 99.0279 145.65 99.1903L146.006 99.541ZM141.944 114.223L141.462 114.09C141.443 114.159 141.439 114.231 141.45 114.302L141.944 114.223ZM135.32 110.402L135.499 110.868C135.566 110.843 135.626 110.803 135.676 110.753L135.32 110.402ZM134.055 111.484L133.622 111.234L134.055 111.484ZM133.772 111.975L134.129 112.325C134.158 112.295 134.184 112.261 134.205 112.225L133.772 111.975ZM133.77 111.977L133.414 111.626C133.305 111.737 133.254 111.891 133.274 112.044C133.295 112.197 133.386 112.333 133.52 112.41L133.77 111.977ZM133.771 111.977L134.204 112.227C134.342 111.988 134.26 111.682 134.021 111.544L133.771 111.977ZM102.012 166.985L101.579 166.735L101.579 166.735L102.012 166.985ZM109.596 171.364L110.029 171.614L110.029 171.614L109.596 171.364ZM141.64 115.863L141.207 115.613L141.207 115.613L141.64 115.863ZM145.524 99.4077L141.462 114.09L142.426 114.357L146.488 99.6743L145.524 99.4077ZM135.676 110.753L146.362 99.8917L145.65 99.1903L134.963 110.051L135.676 110.753ZM134.488 111.734C134.726 111.322 135.088 111.027 135.499 110.868L135.14 109.935C134.522 110.173 133.979 110.617 133.622 111.234L134.488 111.734ZM134.205 112.225L134.488 111.734L133.622 111.234L133.339 111.725L134.205 112.225ZM134.126 112.328L134.129 112.325L133.416 111.624L133.414 111.626L134.126 112.328ZM134.021 111.544L134.02 111.544L133.52 112.41L133.521 112.41L134.021 111.544ZM102.445 167.235L134.204 112.227L133.338 111.727L101.579 166.735L102.445 167.235ZM103.177 169.967C102.22 169.415 101.893 168.191 102.445 167.235L101.579 166.735C100.751 168.17 101.242 170.005 102.677 170.833L103.177 169.967ZM106.431 171.846L103.177 169.967L102.677 170.833L105.931 172.712L106.431 171.846ZM109.163 171.114C108.611 172.07 107.388 172.398 106.431 171.846L105.931 172.712C107.366 173.54 109.201 173.049 110.029 171.614L109.163 171.114ZM141.207 115.613L109.163 171.114L110.029 171.614L142.073 116.113L141.207 115.613ZM141.45 114.302C141.52 114.738 141.445 115.2 141.207 115.613L142.073 116.113C142.43 115.494 142.542 114.8 142.438 114.145L141.45 114.302Z" fill="#DADADA"/>
</svg>
