<svg width="80" height="44" viewBox="0 0 80 44" fill="none" xmlns="http://www.w3.org/2000/svg">
<path d="M16 31V4C16 2.89543 16.8954 2 18 2H26.2106C26.7944 2 27.3491 2.25513 27.7291 2.69842L30.7057 6.17115C31.0857 6.61444 31.6404 6.86957 32.2242 6.86957H56C57.1046 6.86957 58 7.765 58 8.86957V31C58 32.1046 57.1046 33 56 33H18C16.8954 33 16 32.1046 16 31Z" fill="white" stroke="#4078F0" stroke-width="2" stroke-linecap="round" stroke-linejoin="round"/>
<path d="M62 41H24C22.8954 41 22 40.1046 22 39V31.25V23.5V12C22 10.8954 22.8954 10 24 10H32.2106C32.7944 10 33.3491 10.2551 33.7291 10.6984L36.7057 14.1711C37.0857 14.6144 37.6404 14.8696 38.2242 14.8696H62C63.1046 14.8696 64 15.765 64 16.8696V21.5V34.25V39C64 40.1046 63.1046 41 62 41Z" fill="#DBE1FE" stroke="#4078F0" stroke-width="2" stroke-linecap="round" stroke-linejoin="round"/>
<path fill-rule="evenodd" clip-rule="evenodd" d="M36 22.8529C36 21.8296 36.8296 21 37.8529 21H39.9118C40.9351 21 41.7647 21.8296 41.7647 22.8529V24.9118C41.7647 25.9351 40.9351 26.7647 39.9118 26.7647H37.8529C36.8296 26.7647 36 25.9351 36 24.9118V22.8529ZM37.8529 22.6471C37.7392 22.6471 37.6471 22.7392 37.6471 22.8529V24.9118C37.6471 25.0255 37.7392 25.1176 37.8529 25.1176H39.9118C40.0255 25.1176 40.1176 25.0255 40.1176 24.9118V22.8529C40.1176 22.7392 40.0255 22.6471 39.9118 22.6471H37.8529Z" fill="#4078F0"/>
<path fill-rule="evenodd" clip-rule="evenodd" d="M36 31.0882C36 30.0649 36.8296 29.2353 37.8529 29.2353H39.9118C40.9351 29.2353 41.7647 30.0649 41.7647 31.0882V33.1471C41.7647 34.1704 40.9351 35 39.9118 35H37.8529C36.8296 35 36 34.1704 36 33.1471V31.0882ZM37.8529 30.8824C37.7392 30.8824 37.6471 30.9745 37.6471 31.0882V33.1471C37.6471 33.2608 37.7392 33.3529 37.8529 33.3529H39.9118C40.0255 33.3529 40.1176 33.2608 40.1176 33.1471V31.0882C40.1176 30.9745 40.0255 30.8824 39.9118 30.8824H37.8529Z" fill="#4078F0"/>
<path fill-rule="evenodd" clip-rule="evenodd" d="M44.2353 22.8529C44.2353 21.8296 45.0649 21 46.0882 21H48.1471C49.1704 21 50 21.8296 50 22.8529V24.9118C50 25.9351 49.1704 26.7647 48.1471 26.7647H46.0882C45.0649 26.7647 44.2353 25.9351 44.2353 24.9118V22.8529ZM46.0882 22.6471C45.9745 22.6471 45.8824 22.7392 45.8824 22.8529V24.9118C45.8824 25.0255 45.9745 25.1176 46.0882 25.1176H48.1471C48.2608 25.1176 48.3529 25.0255 48.3529 24.9118V22.8529C48.3529 22.7392 48.2608 22.6471 48.1471 22.6471H46.0882Z" fill="#4078F0"/>
<path fill-rule="evenodd" clip-rule="evenodd" d="M44.2353 31.0882C44.2353 30.0649 45.0649 29.2353 46.0882 29.2353H48.1471C49.1704 29.2353 50 30.0649 50 31.0882V33.1471C50 34.1704 49.1704 35 48.1471 35H46.0882C45.0649 35 44.2353 34.1704 44.2353 33.1471V31.0882ZM46.0882 30.8824C45.9745 30.8824 45.8824 30.9745 45.8824 31.0882V33.1471C45.8824 33.2608 45.9745 33.3529 46.0882 33.3529H48.1471C48.2608 33.3529 48.3529 33.2608 48.3529 33.1471V31.0882C48.3529 30.9745 48.2608 30.8824 48.1471 30.8824H46.0882Z" fill="#4078F0"/>
</svg>
