<svg width="80" height="44" viewBox="0 0 80 44" fill="none" xmlns="http://www.w3.org/2000/svg">
<rect x="16" y="6" width="48" height="32" rx="2" fill="#DBE1FE"/>
<line x1="17" y1="14" x2="63" y2="14" stroke="#4078F0" stroke-width="2"/>
<circle cx="20" cy="10" r="1" fill="#4078F0"/>
<circle cx="24" cy="10" r="1" fill="#4078F0"/>
<circle cx="28" cy="10" r="1" fill="#4078F0"/>
<path fill-rule="evenodd" clip-rule="evenodd" d="M38.5633 19.1249C38.0817 19.2157 37.8269 19.7152 37.9784 20.1748C38.1299 20.6344 38.6309 20.878 39.1158 20.807C39.65 20.7288 40.1949 20.7308 40.7317 20.8146C41.5619 20.9442 42.3492 21.2657 43.0291 21.7527C43.7091 22.2396 44.2625 22.8783 44.6441 23.6166C45.0257 24.3548 45.2246 25.1715 45.2246 26C45.2246 26.8285 45.0257 27.6452 44.6441 28.3835C44.2625 29.1217 43.7091 29.7604 43.0291 30.2473C42.3492 30.7343 41.5619 31.0558 40.7317 31.1854C40.1949 31.2692 39.65 31.2712 39.1158 31.193C38.6309 31.122 38.1299 31.3656 37.9784 31.8252C37.8269 32.2848 38.0817 32.7843 38.5633 32.8751C39.3681 33.027 40.1957 33.0409 41.0095 32.9138C42.1163 32.741 43.166 32.3124 44.0727 31.6631C44.9793 31.0138 45.7172 30.1622 46.226 29.1779C46.7348 28.1937 47 27.1047 47 26C47 24.8953 46.7348 23.8063 46.226 22.8221C45.7172 21.8378 44.9793 20.9862 44.0727 20.3369C43.166 19.6876 42.1163 19.259 41.0095 19.0862C40.1957 18.9591 39.3681 18.973 38.5633 19.1249ZM37.429 22.4343C37.112 22.1219 36.5981 22.1219 36.2812 22.4343C35.9642 22.7467 35.9642 23.2533 36.2812 23.5657L37.9392 25.2H33.8116C33.3634 25.2 33 25.5582 33 26C33 26.4418 33.3634 26.8 33.8116 26.8H37.9392L36.2812 28.4343C35.9642 28.7467 35.9642 29.2533 36.2812 29.5657C36.5981 29.8781 37.112 29.8781 37.429 29.5657L40.4724 26.5657C40.7894 26.2533 40.7894 25.7467 40.4724 25.4343L37.429 22.4343Z" fill="#4078F0"/>
<path d="M24 20C24 18.8954 24.8954 18 26 18C27.1046 18 28 18.8954 28 20C28 21.1046 27.1046 22 26 22C24.8954 22 24 21.1046 24 20Z" fill="white" stroke="#4078F0" stroke-width="2"/>
<rect x="16" y="6" width="48" height="32" rx="2" stroke="#4078F0" stroke-width="2"/>
<path d="M4 31C4 28.7909 5.79086 27 8 27C10.2091 27 12 28.7909 12 31C12 33.2091 10.2091 35 8 35C5.79086 35 4 33.2091 4 31Z" fill="white" stroke="#4078F0" stroke-width="2"/>
<path d="M20.5833 29.1099C20.5833 26.9007 22.3741 25.1099 24.5833 25.1099C26.7924 25.1099 28.5833 26.9007 28.5833 29.1099C28.5833 31.319 26.7924 33.1099 24.5833 33.1099C22.3741 33.1099 20.5833 31.319 20.5833 29.1099Z" fill="white" stroke="#4078F0" stroke-width="2"/>
<path d="M14 20.7764C14 19.1195 15.3431 17.7764 17 17.7764C18.6569 17.7764 20 19.1195 20 20.7764C20 22.4332 18.6569 23.7764 17 23.7764C15.3431 23.7764 14 22.4332 14 20.7764Z" fill="white" stroke="#4078F0" stroke-width="2"/>
</svg>
