<svg width="80" height="47" viewBox="0 0 80 47" fill="none" xmlns="http://www.w3.org/2000/svg">
<path fill-rule="evenodd" clip-rule="evenodd" d="M52.8806 31.4559V34.9952C52.8845 35.0167 52.9181 35.1436 53.1539 35.3616C53.4415 35.6275 53.9164 35.9151 54.5888 36.177C55.9239 36.697 57.8334 37.0373 60 37.0373C62.1666 37.0373 64.0761 36.697 65.4112 36.177C66.0836 35.9151 66.5585 35.6275 66.8461 35.3616C67.0819 35.1436 67.1155 35.0167 67.1194 34.9952V31.4559C66.7747 31.656 66.3962 31.8329 65.9964 31.9884C64.4186 32.602 62.2986 32.9627 60 32.9627C57.7014 32.9627 55.5814 32.602 54.0036 31.9884C53.6038 31.8329 53.2253 31.656 52.8806 31.4559ZM69 28.7313V41.6374C69 42.558 68.4657 43.2089 67.9688 43.6142C67.446 44.0406 66.7505 44.3797 65.9747 44.6464C64.4107 45.1838 62.3019 45.5 60 45.5C57.6981 45.5 55.5893 45.1838 54.0253 44.6464C53.2495 44.3797 52.554 44.0406 52.0312 43.6142C51.5343 43.2089 51 42.558 51 41.6374V28.7313C51 27.8184 51.4766 27.1232 51.9916 26.6497C52.5173 26.1664 53.2196 25.7792 54.0036 25.4743C55.5814 24.8607 57.7014 24.5 60 24.5C62.2986 24.5 64.4186 24.8607 65.9964 25.4743C66.7804 25.7792 67.4827 26.1664 68.0084 26.6497C68.5234 27.1232 69 27.8184 69 28.7313ZM52.8806 37.73V41.579C52.9021 41.6151 52.9616 41.696 53.1088 41.8161C53.3975 42.0516 53.8774 42.3083 54.5567 42.5417C55.9033 43.0045 57.8243 43.306 60 43.306C62.1757 43.306 64.0967 43.0045 65.4433 42.5417C66.1226 42.3083 66.6025 42.0516 66.8912 41.8161C67.0384 41.696 67.0979 41.6151 67.1194 41.579V37.73C66.7777 37.9284 66.4027 38.1038 66.0067 38.2581C64.4314 38.8717 62.311 39.2313 60 39.2313C57.689 39.2313 55.5686 38.8717 53.9933 38.2581C53.5973 38.1038 53.2223 37.9284 52.8806 37.73ZM67.1194 34.9952V35V34.9952ZM67.118 28.7313C67.1091 28.6974 67.0631 28.5741 66.8443 28.3729C66.5542 28.1062 66.0762 27.8181 65.4017 27.5558C64.0625 27.035 62.1527 26.694 60 26.694C57.8473 26.694 55.9375 27.035 54.5983 27.5558C53.9238 27.8181 53.4458 28.1062 53.1557 28.3729C52.9369 28.5741 52.8909 28.6974 52.882 28.7313C52.8909 28.7653 52.9369 28.8886 53.1557 29.0898C53.4458 29.3565 53.9238 29.6446 54.5983 29.9069C55.9375 30.4277 57.8473 30.7687 60 30.7687C62.1527 30.7687 64.0625 30.4277 65.4017 29.9069C66.0762 29.6446 66.5542 29.3565 66.8443 29.0898C67.0631 28.8886 67.1091 28.7653 67.118 28.7313Z" fill="#4078F0"/>
<path d="M16 8V36C16 37.1046 16.8954 38 18 38H46C47.1046 38 48 37.1046 48 36V24C48 22.8954 48.8954 22 50 22H62C63.1046 22 64 21.1046 64 20V8C64 6.89543 63.1046 6 62 6H18C16.8954 6 16 6.89543 16 8Z" stroke="#4078F0" stroke-width="2" stroke-linecap="round" stroke-linejoin="round"/>
<path d="M16 8C16 6.89543 16.8954 6 18 6H62C63.1046 6 64 6.89543 64 8V14H16V8Z" fill="#DBE1FE"/>
<path d="M16 8C16 6.89543 16.8954 6 18 6H62C63.1046 6 64 6.89543 64 8V14H16V8Z" stroke="#4078F0" stroke-width="2"/>
<path d="M48 30L17 30" stroke="#4078F0" stroke-width="2"/>
<path d="M56 22L17 22" stroke="#4078F0" stroke-width="2"/>
<path d="M40 6V37" stroke="#4078F0" stroke-width="2"/>
<path d="M32 6V37" stroke="#4078F0" stroke-width="2"/>
<path d="M24 6L24 37" stroke="#4078F0" stroke-width="2"/>
<path d="M56 6V22" stroke="#4078F0" stroke-width="2"/>
<path d="M48 6V30" stroke="#4078F0" stroke-width="2"/>
</svg>
