<svg width="80" height="44" viewBox="0 0 80 44" fill="none" xmlns="http://www.w3.org/2000/svg">
<rect x="16" y="6" width="48" height="32" rx="2" fill="white"/>
<rect x="21" y="23" width="10" height="2" rx="1" fill="#4078F0"/>
<rect x="21" y="27" width="5" height="2" rx="1" fill="#4078F0"/>
<rect x="21" y="31" width="8" height="2" rx="1" fill="#4078F0"/>
<rect x="31" y="31" width="4" height="2" rx="1" fill="#4078F0"/>
<rect x="37" y="31" width="14" height="2" rx="1" fill="#DBE1FE"/>
<rect x="28" y="27" width="10" height="2" rx="1" fill="#DBE1FE"/>
<rect x="40" y="27" width="19" height="2" rx="1" fill="#4078F0"/>
<rect x="33" y="23" width="12" height="2" rx="1" fill="#DBE1FE"/>
<rect x="47" y="23" width="6" height="2" rx="1" fill="#4078F0"/>
<path fill-rule="evenodd" clip-rule="evenodd" d="M31.5353 12.3459C31.8569 12.0228 32.3784 12.0228 32.7 12.3459L34.7588 14.4148C35.0804 14.738 35.0804 15.262 34.7588 15.5852L32.7 17.6541C32.3784 17.9772 31.8569 17.9772 31.5353 17.6541C31.2137 17.3309 31.2137 16.8069 31.5353 16.4837L33.0118 15L31.5353 13.5163C31.2137 13.1931 31.2137 12.6691 31.5353 12.3459Z" fill="#4078F0"/>
<path fill-rule="evenodd" clip-rule="evenodd" d="M24.4647 12.3459C24.7863 12.6691 24.7863 13.1931 24.4647 13.5163L22.9882 15L24.4647 16.4837C24.7863 16.8069 24.7863 17.3309 24.4647 17.6541C24.1431 17.9772 23.6216 17.9772 23.3 17.6541L21.2412 15.5852C20.9196 15.262 20.9196 14.738 21.2412 14.4148L23.3 12.3459C23.6216 12.0228 24.1431 12.0228 24.4647 12.3459Z" fill="#4078F0"/>
<path fill-rule="evenodd" clip-rule="evenodd" d="M29.7808 9.03512C30.2164 9.16645 30.4636 9.6278 30.3329 10.0656L27.2447 20.41C27.114 20.8478 26.6549 21.0962 26.2192 20.9649C25.7836 20.8336 25.5364 20.3722 25.6671 19.9344L28.7553 9.58998C28.886 9.15221 29.3451 8.90379 29.7808 9.03512Z" fill="#4078F0"/>
<rect x="16" y="6" width="48" height="32" rx="2" stroke="#4078F0" stroke-width="2"/>
</svg>
