<svg width="28" height="28" viewBox="0 0 28 28" fill="none" xmlns="http://www.w3.org/2000/svg">
<path fill-rule="evenodd" clip-rule="evenodd" d="M0.549988 6.00005C0.549988 2.9901 2.99004 0.550049 5.99999 0.550049H22C25.0099 0.550049 27.45 2.9901 27.45 6.00005V22C27.45 25.01 25.0099 27.4501 22 27.4501H5.99999C2.99004 27.4501 0.549988 25.01 0.549988 22V6.00005ZM5.99999 3.45005C4.59166 3.45005 3.44999 4.59172 3.44999 6.00005V9.88346H9.88365V3.45005H5.99999ZM12.7836 3.45005V9.88346H24.55V6.00005C24.55 4.59172 23.4083 3.45005 22 3.45005H12.7836ZM9.88365 12.7835H3.44999V22C3.44999 23.4084 4.59166 24.55 5.99999 24.55H9.88365V12.7835ZM12.7836 24.55V12.7835H24.55V22C24.55 23.4084 23.4083 24.55 22 24.55H12.7836Z" fill="#3F56B5"/>
</svg>

