<svg width="30" height="22" viewBox="0 0 30 22" fill="none" xmlns="http://www.w3.org/2000/svg">
<path d="M29.8124 15.5628H27.1724V18.2028H29.8124V15.5628Z" fill="white"/>
<path d="M24.6062 13.5382H21.9662V16.1782H24.6062V13.5382Z" fill="white"/>
<path d="M28.0524 12.1413H25.4124V14.7813H28.0524V12.1413Z" fill="white"/>
<path d="M24.6062 10.1105H21.9662V12.7505H24.6062V10.1105Z" fill="white"/>
<path d="M26.4031 11.089H28.4893V9.00283H26.4031V11.089Z" fill="white"/>
<path d="M23.7446 9.24283H25.8308V7.15667H23.7446V9.24283Z" fill="white"/>
<path d="M26.4831 4.1782H28.4216V2.23974H26.4831V4.1782Z" fill="white"/>
<path d="M27.1785 8.20283H29.2647V6.11667H27.1785V8.20283Z" fill="white"/>
<path d="M25.5662 4.38742H24.0093V5.94437H25.5662V4.38742Z" fill="white"/>
<path d="M23.5538 2.08589H21.9969V3.64282H23.5538V2.08589Z" fill="white"/>
<path d="M17.9477 16.2951L17.5169 16.7259H19.9661V14.289L19.5354 14.7136L17.9477 16.2951Z" fill="white"/>
<path d="M21.1601 8.81821H22.397V6.73206H21.1601V8.81821Z" fill="white"/>
<path d="M17.6647 7.18129C17.6647 7.24283 17.6462 7.2859 17.6093 7.32283C17.5724 7.35975 17.5231 7.37821 17.4677 7.37821H15.6093C15.5601 7.37821 15.5293 7.40283 15.5293 7.45821V13.3598C15.5293 13.4213 15.5108 13.4705 15.4739 13.5074C15.437 13.5444 15.3877 13.5628 15.3262 13.5628H13.8801C13.8185 13.5628 13.7693 13.5444 13.7324 13.5074C13.6954 13.4705 13.677 13.4213 13.677 13.3598V7.45821C13.677 7.40898 13.6524 7.37821 13.597 7.37821L8.95082 7.3659C8.90159 7.3659 8.87082 7.39052 8.87082 7.4459V8.76898C8.87082 8.81821 8.89544 8.84898 8.95082 8.84898H11.0985C11.1601 8.84898 11.2093 8.86744 11.2462 8.90437C11.2831 8.94129 11.3016 8.99052 11.3016 9.0459V10.209C11.3016 10.2705 11.2831 10.3197 11.2462 10.3567C11.2093 10.3936 11.1601 10.4121 11.0985 10.4121H8.95082C8.90159 10.4121 8.87082 10.4367 8.87082 10.4921V13.3659C8.87082 13.4274 8.85236 13.4767 8.81544 13.5136C8.77851 13.5505 8.72928 13.569 8.66774 13.569H7.22159C7.16005 13.569 7.11082 13.5505 7.0739 13.5136C7.03697 13.4767 7.01851 13.4274 7.01851 13.3659V5.9936C7.01851 5.93206 7.03697 5.88898 7.0739 5.8459C7.11082 5.80898 7.16005 5.79052 7.22159 5.79052H17.4677C17.5293 5.79052 17.5724 5.80898 17.6093 5.8459C17.6462 5.88283 17.6647 5.93206 17.6647 5.9936V7.18129ZM20.1631 5.16283L16.1816 1.18745C15.7631 0.768987 15.1908 0.528987 14.5939 0.528987H9.14159C8.54467 0.528987 7.97236 0.762833 7.5539 1.18745L3.57237 5.16283C3.2339 5.50129 3.04313 5.96283 3.04313 6.44283V12.0551C3.04313 12.6582 3.28313 13.2305 3.70775 13.6551L7.56005 17.5013C7.97851 17.9198 8.55082 18.1536 9.14159 18.1536H11.9785V21.3413C11.9847 21.4644 12.1324 21.5198 12.2185 21.4398L20.1693 13.5198C20.5077 13.1813 20.7047 12.7198 20.7047 12.2398V6.44283C20.7047 5.96283 20.5139 5.50129 20.1754 5.16283" fill="white"/>
<path d="M2.63082 13.9628C2.16928 13.5074 1.91697 12.8859 1.91697 12.2336V6.17821C1.91697 5.66129 2.12621 5.16283 2.48928 4.7936L6.76005 0.522827H6.34774C5.74467 0.522827 5.17236 0.762827 4.74774 1.18744L0.723129 5.2059C0.378513 5.55052 0.187744 6.01206 0.187744 6.49821V12.1659C0.187744 12.7751 0.427744 13.3536 0.858513 13.7844L4.74774 17.6674C5.17236 18.0921 5.74467 18.3259 6.34774 18.3259H7.03082C6.94467 18.2644 6.86467 18.1967 6.79082 18.1167L2.63697 13.9628H2.63082Z" fill="white"/>
</svg>
