<svg xmlns="http://www.w3.org/2000/svg" x="0px" y="0px"
width="18" height="18"
viewBox="0 0 172 172"
style=" fill:#ffffff;"><g transform="translate(4.73,4.73) scale(0.945,0.945)"><g fill="none" fill-rule="nonzero" stroke="none" stroke-width="none" stroke-linecap="butt" stroke-linejoin="none" stroke-miterlimit="10" stroke-dasharray="" stroke-dashoffset="0" font-family="none" font-weight="none" font-size="none" text-anchor="none" style="mix-blend-mode: normal"><g fill="#3498db" stroke="#4a67fb" stroke-width="10" stroke-linejoin="round"><path d="M78.83333,17.91667v46.58333l52.51823,8.74837c6.90867,1.15383 11.98177,7.13553 11.98177,14.13737v48.78093c0,11.87517 -9.62483,21.5 -21.5,21.5h-47.08724c-5.6975,0 -11.16634,-2.26399 -15.20118,-6.29883l-34.67155,-34.67155c-4.88767,-4.88767 -4.40369,-12.95946 1.03581,-17.2308c3.526,-2.76633 8.3467,-3.23194 12.3457,-1.20377l19.07845,9.6722v-90.01725c0,-5.934 4.816,-10.75 10.75,-10.75c5.934,0 10.75,4.816 10.75,10.75z"></path></g><path d="M0,172v-172h172v172z" fill="none" stroke="none" stroke-width="1" stroke-linejoin="miter"></path><g fill="#ffffff" stroke="none" stroke-width="1" stroke-linejoin="miter"><path d="M68.08333,7.16667c-5.934,0 -10.75,4.816 -10.75,10.75v46.58333v35.83333v7.60059l-19.07845,-9.6722c-3.999,-2.02817 -8.8197,-1.56256 -12.3457,1.20377c-5.4395,4.27133 -5.92347,12.34313 -1.03581,17.2308l34.67155,34.67155c4.03483,4.03483 9.50367,6.29883 15.20118,6.29883h47.08724c11.87517,0 21.5,-9.62483 21.5,-21.5v-48.78093c0,-7.00183 -5.0731,-12.98353 -11.98177,-14.13737l-52.51823,-8.74837v-46.58333c0,-5.934 -4.816,-10.75 -10.75,-10.75z"></path></g><path d="" fill="none" stroke="none" stroke-width="1" stroke-linejoin="miter"></path></g></g></svg>
