<svg width="214" height="128" viewBox="0 0 214 128" fill="none" xmlns="http://www.w3.org/2000/svg">
<path d="M196.08 18.88C202.907 23.5733 208.88 29.2267 214 35.84L172.72 69.44C167.387 63.04 160.88 58.1333 153.2 54.72C145.52 51.3067 136.56 49.6 126.32 49.6C116.293 49.6 107.013 51.52 98.48 55.36C89.9467 59.2 82.48 64.64 76.08 71.68C69.8933 78.72 64.9867 87.04 61.36 96.64C57.7333 106.24 55.92 116.693 55.92 128H0.240002C0.240002 108.587 3.44 90.9867 9.84 75.2C16.4533 59.2 25.6267 45.6533 37.36 34.56C49.0933 23.4667 62.96 14.9333 78.96 8.96C94.96 2.98666 112.56 -3.8147e-06 131.76 -3.8147e-06C139.013 -3.8147e-06 146.16 0.639994 153.2 1.91999C160.667 3.19999 168.027 5.22665 175.28 7.99999C182.533 10.7733 189.467 14.4 196.08 18.88Z" fill="#FFBB00"/>
</svg>
