<svg width="80" height="44" viewBox="0 0 80 44" fill="none" xmlns="http://www.w3.org/2000/svg">
<rect x="13" y="3" width="48" height="32" rx="2" fill="#DBE1FE"/>
<rect x="13" y="3" width="48" height="32" rx="2" stroke="#4078F0" stroke-width="2"/>
<rect x="19" y="8" width="48" height="32" rx="2" fill="white"/>
<path d="M26 15H56C57.1046 15 58 15.8954 58 17V21" stroke="#4078F0" stroke-width="2" stroke-linecap="round" stroke-linejoin="round"/>
<path d="M51 33H56C57.1046 33 58 32.1046 58 31V27" stroke="#4078F0" stroke-width="2" stroke-linecap="round" stroke-linejoin="round"/>
<path d="M31.5 33H48" stroke="#4078F0" stroke-width="2" stroke-linecap="round" stroke-linejoin="round"/>
<rect x="55" y="21" width="6" height="6" rx="3" stroke="#4078F0" stroke-width="2"/>
<rect x="36" y="23" width="10" height="4" rx="1" stroke="#4078F0" stroke-width="2"/>
<path d="M27.8284 12L25 14.8284L27.8284 17.6569" stroke="#4078F0" stroke-width="2" stroke-linecap="round" stroke-linejoin="round"/>
<path d="M29 29L32.4641 35H25.5359L29 29Z" stroke="#4078F0" stroke-width="2" stroke-linejoin="round"/>
<path d="M48 31L48 35" stroke="#4078F0" stroke-width="2" stroke-linecap="round"/>
<path d="M51 31L51 35" stroke="#4078F0" stroke-width="2" stroke-linecap="round"/>
<path d="M41 16L41 20" stroke="#4078F0" stroke-width="2" stroke-linecap="round" stroke-linejoin="round" stroke-dasharray="1 3"/>
<rect x="19" y="8" width="48" height="32" rx="2" stroke="#4078F0" stroke-width="2"/>
</svg>
