<svg width="190" height="190" viewBox="0 0 190 190" fill="none" xmlns="http://www.w3.org/2000/svg">
    <rect x="3.21484" y="4" width="182.785" height="182.785" fill="#F6F7FF"/>
    <rect x="0.5" y="0.5" width="189" height="189" stroke="#A4B2FC" stroke-dasharray="5 5"/>
    <rect x="10.5" y="11.5" width="168" height="168" stroke="#A4B2FC" stroke-dasharray="5 5"/>
    <mask id="mask0_8076_350060" style="mask-type:alpha" maskUnits="userSpaceOnUse" x="3" y="55" width="178" height="111">
    <rect x="3.5" y="55.5" width="177" height="110" fill="#F6F7FF" stroke="#D9D9D9"/>
    </mask>
    <g mask="url(#mask0_8076_350060)">
    <rect x="66.9062" y="75.9844" width="38.9348" height="38.5616" fill="white" stroke="#BFBFBF"/>
    <path d="M106.949 106.566C107.881 107.527 107.337 108.888 106.949 109.448C104.852 108.007 66.3996 106.491 65.4674 106.491C64.5352 106.491 64.0689 104.405 65.2341 103.925C66.3993 103.445 105.784 105.366 106.949 106.566Z" fill="white" stroke="#BFBFBF"/>
    <path d="M106.58 110.297C107.504 111.257 106.965 112.618 106.58 113.178C104.501 111.738 66.3834 110.221 65.4594 110.221C64.5353 110.221 64.073 108.136 65.2281 107.656C66.3832 107.175 105.425 109.096 106.58 110.297Z" fill="white" stroke="#BFBFBF"/>
    <path d="M107.324 114.029C108.256 114.99 107.712 116.351 107.324 116.911C105.227 115.47 66.7746 113.954 65.8424 113.954C64.9102 113.954 64.4439 111.868 65.6091 111.388C66.7743 110.908 106.159 112.829 107.324 114.029Z" fill="white" stroke="#BFBFBF"/>
    <path d="M106.949 99.1016C107.881 100.062 107.337 101.423 106.949 101.983C104.852 100.542 66.3996 99.0261 65.4674 99.0261C64.5352 99.0261 64.0689 96.9405 65.2341 96.4603C66.3993 95.98 105.784 97.901 106.949 99.1016Z" fill="white" stroke="#BFBFBF"/>
    <path d="M106.58 102.834C107.504 103.795 106.965 105.155 106.58 105.716C104.501 104.275 66.3834 102.759 65.4594 102.759C64.5353 102.759 64.073 100.673 65.2281 100.193C66.3832 99.7125 105.425 101.633 106.58 102.834Z" fill="white" stroke="#BFBFBF"/>
    <path d="M106.949 91.8307C107.881 92.7271 107.337 93.9971 106.949 94.52C104.852 93.1754 66.3996 91.7602 65.4674 91.7602C64.5352 91.7602 64.0689 89.8136 65.2341 89.3654C66.3993 88.9172 105.784 90.7101 106.949 91.8307Z" fill="white" stroke="#BFBFBF"/>
    <path d="M106.58 95.3673C107.504 96.3277 106.965 97.6884 106.58 98.2487C104.501 96.808 66.3834 95.2917 65.4594 95.2917C64.5353 95.2917 64.073 93.2061 65.2281 92.7259C66.3832 92.2457 105.425 94.1666 106.58 95.3673Z" fill="white" stroke="#BFBFBF"/>
    <path d="M106.949 84.3639C107.881 85.2603 107.337 86.5303 106.949 87.0532C104.852 85.7086 66.3996 84.2934 65.4674 84.2934C64.5352 84.2934 64.0689 82.3468 65.2341 81.8986C66.3993 81.4504 105.784 83.2433 106.949 84.3639Z" fill="white" stroke="#BFBFBF"/>
    <path d="M106.58 88.0963C107.504 88.9927 106.965 90.2627 106.58 90.7857C104.501 89.441 66.3834 88.0258 65.4594 88.0258C64.5353 88.0258 64.073 86.0793 65.2281 85.631C66.3832 85.1828 105.425 86.9757 106.58 88.0963Z" fill="white" stroke="#BFBFBF"/>
    <path d="M106.949 81.0064C107.881 81.9029 107.337 83.1729 106.949 83.6958C104.852 82.3511 66.3996 80.936 65.4674 80.936C64.5352 80.936 64.0689 78.9894 65.2341 78.5412C66.3993 78.0929 105.784 79.8859 106.949 81.0064Z" fill="white" stroke="#BFBFBF"/>
    <path d="M106.949 73.5416C107.881 74.4381 107.337 75.708 106.949 76.231C104.852 74.8863 66.3996 73.4711 65.4674 73.4711C64.5352 73.4711 64.0689 71.5246 65.2341 71.0763C66.3993 70.6281 105.784 72.421 106.949 73.5416Z" fill="white" stroke="#BFBFBF"/>
    <path d="M106.58 77.2721C107.504 78.1685 106.965 79.4385 106.58 79.9614C104.501 78.6168 66.3834 77.2016 65.4594 77.2016C64.5353 77.2016 64.073 75.255 65.2281 74.8068C66.3832 74.3586 105.425 76.1515 106.58 77.2721Z" fill="white" stroke="#BFBFBF"/>
    <rect x="66.9062" y="32.4727" width="38.9348" height="38.5616" fill="white" stroke="#BFBFBF"/>
    <path d="M106.949 63.0548C107.881 64.0152 107.337 65.3759 106.949 65.9362C104.852 64.4955 66.3996 62.9792 65.4674 62.9792C64.5352 62.9792 64.0689 60.8936 65.2341 60.4134C66.3993 59.9332 105.784 61.8541 106.949 63.0548Z" fill="white" stroke="#BFBFBF"/>
    <path d="M106.58 66.7852C107.504 67.7457 106.965 69.1064 106.58 69.6667C104.501 68.226 66.3834 66.7097 65.4594 66.7097C64.5353 66.7097 64.073 64.6241 65.2281 64.1439C66.3832 63.6636 105.425 65.5846 106.58 66.7852Z" fill="white" stroke="#BFBFBF"/>
    <path d="M107.324 70.5176C108.256 71.4781 107.712 72.8388 107.324 73.3991C105.227 71.9584 66.7746 70.4421 65.8424 70.4421C64.9102 70.4421 64.4439 68.3565 65.6091 67.8763C66.7743 67.396 106.159 69.317 107.324 70.5176Z" fill="white" stroke="#BFBFBF"/>
    <path d="M106.949 55.5899C107.881 56.5504 107.337 57.9111 106.949 58.4714C104.852 57.0306 66.3996 55.5144 65.4674 55.5144C64.5352 55.5144 64.0689 53.4288 65.2341 52.9486C66.3993 52.4683 105.784 54.3893 106.949 55.5899Z" fill="white" stroke="#BFBFBF"/>
    <path d="M106.58 59.3223C107.504 60.2828 106.965 61.6435 106.58 62.2038C104.501 60.7631 66.3834 59.2468 65.4594 59.2468C64.5353 59.2468 64.073 57.1612 65.2281 56.681C66.3832 56.2007 105.425 58.1217 106.58 59.3223Z" fill="white" stroke="#BFBFBF"/>
    <path d="M106.58 51.8555C107.504 52.816 106.965 54.1767 106.58 54.737C104.501 53.2963 66.3834 51.78 65.4594 51.78C64.5353 51.78 64.073 49.6944 65.2281 49.2142C66.3832 48.7339 105.425 50.6549 106.58 51.8555Z" fill="white" stroke="#BFBFBF"/>
    <rect x="61.3125" y="30.9805" width="38.9348" height="38.5616" fill="white" stroke="#BFBFBF"/>
    <path d="M101.355 61.5606C102.287 62.5211 101.744 63.8818 101.355 64.4421C99.2579 63.0014 60.8058 61.4851 59.8737 61.4851C58.9415 61.4851 58.4752 59.3995 59.6404 58.9193C60.8056 58.439 100.19 60.36 101.355 61.5606Z" fill="white" stroke="#BFBFBF"/>
    <path d="M100.986 65.293C101.91 66.2535 101.371 67.6142 100.986 68.1745C98.9073 66.7338 60.7897 65.2175 59.8656 65.2175C58.9415 65.2175 58.4793 63.1319 59.6344 62.6517C60.7894 62.1714 99.8313 64.0924 100.986 65.293Z" fill="white" stroke="#BFBFBF"/>
    <path d="M101.73 69.0255C102.662 69.9859 102.119 71.3466 101.73 71.9069C99.6329 70.4662 61.1808 68.9499 60.2487 68.9499C59.3165 68.9499 58.8502 66.8643 60.0154 66.3841C61.1806 65.9039 100.565 67.8248 101.73 69.0255Z" fill="white" stroke="#BFBFBF"/>
    <path d="M101.355 54.0977C102.287 55.0582 101.744 56.4189 101.355 56.9792C99.2579 55.5385 60.8058 54.0222 59.8737 54.0222C58.9415 54.0222 58.4752 51.9366 59.6404 51.4564C60.8056 50.9761 100.19 52.8971 101.355 54.0977Z" fill="white" stroke="#BFBFBF"/>
    <path d="M100.986 57.8301C101.91 58.7906 101.371 60.1513 100.986 60.7116C98.9073 59.2709 60.7897 57.7546 59.8656 57.7546C58.9415 57.7546 58.4793 55.669 59.6344 55.1888C60.7894 54.7085 99.8313 56.6295 100.986 57.8301Z" fill="white" stroke="#BFBFBF"/>
    <rect x="43.0273" y="100.615" width="16.9147" height="13.9289" fill="white" stroke="#BFBFBF"/>
    <rect x="46.5352" y="79.7148" width="9.63293" height="14.1899" fill="white" stroke="#BFBFBF"/>
    <rect x="41.9102" y="92.7773" width="4.22512" height="8.33056" fill="white" stroke="#BFBFBF"/>
    <rect x="46.7656" y="92.7773" width="9.45023" height="8.33056" fill="white" stroke="#BFBFBF"/>
    <rect x="56.8438" y="92.7773" width="4.22512" height="8.33056" fill="white" stroke="#BFBFBF"/>
    <rect x="28.0977" y="121.143" width="221.441" height="20.2737" fill="white" stroke="#BFBFBF"/>
    <rect x="13.168" y="140.178" width="191.583" height="86.7073" fill="white" stroke="#BFBFBF"/>
    <rect x="13.168" y="140.178" width="4.22512" height="86.7073" fill="white" stroke="#BFBFBF"/>
    <rect x="32.207" y="140.178" width="4.22512" height="86.7073" fill="white" stroke="#BFBFBF"/>
    <rect x="54.2227" y="140.178" width="3.85189" height="86.7073" fill="white" stroke="#BFBFBF"/>
    <rect x="73.2578" y="140.178" width="3.85189" height="86.7073" fill="white" stroke="#BFBFBF"/>
    <rect x="16.5" y="114.5" width="185" height="7" fill="white" stroke="#BFBFBF"/>
    <rect x="10.9297" y="140.178" width="193.822" height="6.09123" fill="white" stroke="#BFBFBF"/>
    <rect x="84.832" y="142.416" width="107.981" height="109.101" fill="white" stroke="#BFBFBF"/>
    <path d="M96.1641 168.388H101.498L103.403 165.34H107.975L109.118 168.388H114.452L107.975 150.1H102.26L96.1641 168.388Z" stroke="#BFBFBF"/>
    <path d="M122.454 168.388H119.787H119.215C117.006 168.388 115.215 166.597 115.215 164.388V154.1C115.215 151.89 117.006 150.1 119.215 150.1H123.216C127.178 151.624 126.264 156.958 124.74 158.482C129.693 162.292 125.502 168.388 122.454 168.388Z" stroke="#BFBFBF"/>
    <path d="M135.028 168.388H132.361H131.789C129.58 168.388 127.789 166.597 127.789 164.388V154.1C127.789 151.89 129.58 150.1 131.789 150.1H135.79C139.752 151.624 138.838 156.958 137.314 158.482C142.267 162.292 138.076 168.388 135.028 168.388Z" stroke="#BFBFBF"/>
    <rect x="61.3125" y="74.4922" width="38.9348" height="38.5616" fill="white" stroke="#BFBFBF"/>
    <path d="M101.355 105.072C102.287 106.033 101.744 107.394 101.355 107.954C99.2579 106.513 60.8058 104.997 59.8737 104.997C58.9415 104.997 58.4752 102.911 59.6404 102.431C60.8056 101.951 100.19 103.872 101.355 105.072Z" fill="white" stroke="#BFBFBF"/>
    <path d="M100.986 108.805C101.91 109.765 101.371 111.126 100.986 111.686C98.9073 110.245 60.7897 108.729 59.8656 108.729C58.9415 108.729 58.4793 106.644 59.6344 106.163C60.7894 105.683 99.8313 107.604 100.986 108.805Z" fill="white" stroke="#BFBFBF"/>
    <path d="M101.73 112.537C102.662 113.498 102.119 114.858 101.73 115.419C99.6329 113.978 61.1808 112.462 60.2487 112.462C59.3165 112.462 58.8502 110.376 60.0154 109.896C61.1806 109.416 100.565 111.337 101.73 112.537Z" fill="white" stroke="#BFBFBF"/>
    <path d="M101.355 97.6094C102.287 98.5699 101.744 99.9306 101.355 100.491C99.2579 99.0502 60.8058 97.5339 59.8737 97.5339C58.9415 97.5339 58.4752 95.4483 59.6404 94.9681C60.8056 94.4878 100.19 96.4088 101.355 97.6094Z" fill="white" stroke="#BFBFBF"/>
    <path d="M100.986 101.342C101.91 102.302 101.371 103.663 100.986 104.223C98.9073 102.783 60.7897 101.266 59.8656 101.266C58.9415 101.266 58.4793 99.1808 59.6344 98.7005C60.7894 98.2203 99.8313 100.141 100.986 101.342Z" fill="white" stroke="#BFBFBF"/>
    <path d="M101.355 90.3365C102.287 91.233 101.744 92.503 101.355 93.0259C99.2579 91.6812 60.8058 90.266 59.8737 90.266C58.9415 90.266 58.4752 88.3195 59.6404 87.8713C60.8056 87.423 100.19 89.2159 101.355 90.3365Z" fill="white" stroke="#BFBFBF"/>
    <path d="M100.986 93.877C101.91 94.8375 101.371 96.1982 100.986 96.7585C98.9073 95.3178 60.7897 93.8015 59.8656 93.8015C58.9415 93.8015 58.4793 91.7159 59.6344 91.2357C60.7894 90.7554 99.8313 92.6764 100.986 93.877Z" fill="white" stroke="#BFBFBF"/>
    <path d="M101.355 82.8736C102.287 83.7701 101.744 85.0401 101.355 85.563C99.2579 84.2183 60.8058 82.8032 59.8737 82.8032C58.9415 82.8032 58.4752 80.8566 59.6404 80.4084C60.8056 79.9601 100.19 81.7531 101.355 82.8736Z" fill="white" stroke="#BFBFBF"/>
    <path d="M100.986 86.6021C101.91 87.4986 101.371 88.7686 100.986 89.2915C98.9073 87.9468 60.7897 86.5317 59.8656 86.5317C58.9415 86.5317 58.4793 84.5851 59.6344 84.1369C60.7894 83.6887 99.8313 85.4816 100.986 86.6021Z" fill="white" stroke="#BFBFBF"/>
    <path d="M101.355 79.5143C102.287 80.4107 101.744 81.6807 101.355 82.2036C99.2579 80.8589 60.8058 79.4438 59.8737 79.4438C58.9415 79.4438 58.4752 77.4972 59.6404 77.049C60.8056 76.6008 100.19 78.3937 101.355 79.5143Z" fill="white" stroke="#BFBFBF"/>
    <path d="M101.355 72.0475C102.287 72.9439 101.744 74.2139 101.355 74.7368C99.2579 73.3921 60.8058 71.977 59.8737 71.977C58.9415 71.977 58.4752 70.0304 59.6404 69.5822C60.8056 69.134 100.19 70.9269 101.355 72.0475Z" fill="white" stroke="#BFBFBF"/>
    <path d="M100.986 75.7799C101.91 76.6763 101.371 77.9463 100.986 78.4693C98.9073 77.1246 60.7897 75.7094 59.8656 75.7094C58.9415 75.7094 58.4793 73.7628 59.6344 73.3146C60.7894 72.8664 99.8313 74.6593 100.986 75.7799Z" fill="white" stroke="#BFBFBF"/>
    </g>
    <path d="M42.5 51.5H122.5V118.5H42.5V51.5Z" fill="#FF6918" fill-opacity="0.2" stroke="#FF6918" stroke-width="5"/>
    <rect width="135" height="24" transform="translate(40 25)" fill="#FF6918"/>
    <path fill-rule="evenodd" clip-rule="evenodd" d="M51.3749 41.7359L48.75 37.118L51.3749 32.5L52.3213 34.1648L50.6425 37.1182L52.3211 40.0713L51.3749 41.7359ZM57.4517 37.1181L55.7494 40.1129L52.3448 40.1129L52.3211 40.0713L51.3749 41.7359L56.6248 41.736L59.2497 37.1181L56.6251 32.5001L51.3749 32.5L52.3213 34.1648L53.9998 37.118L57.4517 37.1181ZM57.4517 37.1181L53.9998 37.118L52.3213 34.1648L52.3448 34.1234L55.7494 34.1234L57.4517 37.1181Z" fill="white"/>
    <path d="M77.0795 35C76.7557 33.2102 75.3239 32.1534 73.5682 32.1534C71.3352 32.1534 69.7159 33.875 69.7159 36.6364C69.7159 39.3977 71.3352 41.1193 73.5682 41.1193C75.3239 41.1193 76.7557 40.0625 77.0795 38.2727H76.0227C75.767 39.483 74.7273 40.1307 73.5682 40.1307C71.983 40.1307 70.7386 38.9034 70.7386 36.6364C70.7386 34.3693 71.983 33.142 73.5682 33.142C74.7273 33.142 75.767 33.7898 76.0227 35H77.0795ZM81.214 41.1364C82.9867 41.1364 84.1799 39.7898 84.1799 37.7614C84.1799 35.7159 82.9867 34.3693 81.214 34.3693C79.4413 34.3693 78.2481 35.7159 78.2481 37.7614C78.2481 39.7898 79.4413 41.1364 81.214 41.1364ZM81.214 40.233C79.8674 40.233 79.2538 39.0739 79.2538 37.7614C79.2538 36.4489 79.8674 35.2727 81.214 35.2727C82.5606 35.2727 83.1742 36.4489 83.1742 37.7614C83.1742 39.0739 82.5606 40.233 81.214 40.233ZM85.6191 41H86.6248V36.858C86.6248 35.9716 87.3236 35.3239 88.2782 35.3239C88.5466 35.3239 88.8236 35.375 88.8918 35.392V34.3693C88.7767 34.3608 88.5125 34.3523 88.3634 34.3523C87.5793 34.3523 86.8975 34.7955 86.6589 35.4432H86.5907V34.4545H85.6191V41ZM89.9879 41H90.9936V36.858C90.9936 35.9716 91.6925 35.3239 92.647 35.3239C92.9155 35.3239 93.1925 35.375 93.2607 35.392V34.3693C93.1456 34.3608 92.8814 34.3523 92.7322 34.3523C91.9482 34.3523 91.2663 34.7955 91.0277 35.4432H90.9595V34.4545H89.9879V41ZM96.8166 41.1364C98.5894 41.1364 99.7825 39.7898 99.7825 37.7614C99.7825 35.7159 98.5894 34.3693 96.8166 34.3693C95.0439 34.3693 93.8507 35.7159 93.8507 37.7614C93.8507 39.7898 95.0439 41.1364 96.8166 41.1364ZM96.8166 40.233C95.47 40.233 94.8564 39.0739 94.8564 37.7614C94.8564 36.4489 95.47 35.2727 96.8166 35.2727C98.1632 35.2727 98.7769 36.4489 98.7769 37.7614C98.7769 39.0739 98.1632 40.233 96.8166 40.233ZM105.858 35.9205C105.543 34.9915 104.835 34.3693 103.54 34.3693C102.159 34.3693 101.136 35.1534 101.136 36.2614C101.136 37.1648 101.673 37.7699 102.875 38.0511L103.966 38.3068C104.627 38.4602 104.938 38.7756 104.938 39.2273C104.938 39.7898 104.341 40.25 103.404 40.25C102.581 40.25 102.065 39.8963 101.886 39.1932L100.932 39.4318C101.166 40.544 102.083 41.1364 103.421 41.1364C104.942 41.1364 105.977 40.3054 105.977 39.1761C105.977 38.2642 105.406 37.6889 104.239 37.4034L103.267 37.1648C102.492 36.973 102.142 36.7131 102.142 36.2102C102.142 35.6477 102.739 35.2386 103.54 35.2386C104.418 35.2386 104.78 35.7244 104.955 36.1761L105.858 35.9205ZM107.395 41H108.401V34.4545H107.395V41ZM107.907 33.3636C108.299 33.3636 108.623 33.0568 108.623 32.6818C108.623 32.3068 108.299 32 107.907 32C107.515 32 107.191 32.3068 107.191 32.6818C107.191 33.0568 107.515 33.3636 107.907 33.3636ZM112.806 41.1364C114.579 41.1364 115.772 39.7898 115.772 37.7614C115.772 35.7159 114.579 34.3693 112.806 34.3693C111.033 34.3693 109.84 35.7159 109.84 37.7614C109.84 39.7898 111.033 41.1364 112.806 41.1364ZM112.806 40.233C111.459 40.233 110.846 39.0739 110.846 37.7614C110.846 36.4489 111.459 35.2727 112.806 35.2727C114.153 35.2727 114.766 36.4489 114.766 37.7614C114.766 39.0739 114.153 40.233 112.806 40.233ZM118.217 37.0625C118.217 35.9205 118.924 35.2727 119.887 35.2727C120.82 35.2727 121.387 35.8821 121.387 36.9091V41H122.393V36.8409C122.393 35.1705 121.502 34.3693 120.177 34.3693C119.188 34.3693 118.575 34.8125 118.268 35.4773H118.183V34.4545H117.211V41H118.217V37.0625ZM124.868 41.0682C125.289 41.0682 125.635 40.723 125.635 40.3011C125.635 39.8793 125.289 39.5341 124.868 39.5341C124.446 39.5341 124.1 39.8793 124.1 40.3011C124.1 40.723 124.446 41.0682 124.868 41.0682ZM124.868 36.2102C125.289 36.2102 125.635 35.8651 125.635 35.4432C125.635 35.0213 125.289 34.6761 124.868 34.6761C124.446 34.6761 124.1 35.0213 124.1 35.4432C124.1 35.8651 124.446 36.2102 124.868 36.2102ZM135.259 35.9205C134.943 34.9915 134.236 34.3693 132.94 34.3693C131.56 34.3693 130.537 35.1534 130.537 36.2614C130.537 37.1648 131.074 37.7699 132.276 38.0511L133.367 38.3068C134.027 38.4602 134.338 38.7756 134.338 39.2273C134.338 39.7898 133.742 40.25 132.804 40.25C131.982 40.25 131.466 39.8963 131.287 39.1932L130.332 39.4318C130.567 40.544 131.483 41.1364 132.821 41.1364C134.342 41.1364 135.378 40.3054 135.378 39.1761C135.378 38.2642 134.807 37.6889 133.639 37.4034L132.668 37.1648C131.892 36.973 131.543 36.7131 131.543 36.2102C131.543 35.6477 132.139 35.2386 132.94 35.2386C133.818 35.2386 134.181 35.7244 134.355 36.1761L135.259 35.9205ZM139.54 41.1364C140.87 41.1364 141.841 40.4716 142.148 39.483L141.176 39.2102C140.921 39.892 140.328 40.233 139.54 40.233C138.36 40.233 137.546 39.4702 137.499 38.0682H142.25V37.642C142.25 35.2045 140.801 34.3693 139.438 34.3693C137.665 34.3693 136.489 35.767 136.489 37.7784C136.489 39.7898 137.648 41.1364 139.54 41.1364ZM137.499 37.1989C137.567 36.1804 138.287 35.2727 139.438 35.2727C140.529 35.2727 141.228 36.0909 141.228 37.1989H137.499ZM148.837 34.4545H147.746L145.939 39.6705H145.871L144.064 34.4545H142.974L145.394 41H146.417L148.837 34.4545ZM152.579 41.1364C153.908 41.1364 154.88 40.4716 155.187 39.483L154.215 39.2102C153.959 39.892 153.367 40.233 152.579 40.233C151.398 40.233 150.584 39.4702 150.537 38.0682H155.289V37.642C155.289 35.2045 153.84 34.3693 152.476 34.3693C150.704 34.3693 149.527 35.767 149.527 37.7784C149.527 39.7898 150.687 41.1364 152.579 41.1364ZM150.537 37.1989C150.606 36.1804 151.326 35.2727 152.476 35.2727C153.567 35.2727 154.266 36.0909 154.266 37.1989H150.537ZM156.723 41H157.728V36.858C157.728 35.9716 158.427 35.3239 159.382 35.3239C159.65 35.3239 159.927 35.375 159.995 35.392V34.3693C159.88 34.3608 159.616 34.3523 159.467 34.3523C158.683 34.3523 158.001 34.7955 157.762 35.4432H157.694V34.4545H156.723V41ZM163.637 41.1364C164.966 41.1364 165.938 40.4716 166.245 39.483L165.273 39.2102C165.017 39.892 164.425 40.233 163.637 40.233C162.456 40.233 161.642 39.4702 161.595 38.0682H166.347V37.642C166.347 35.2045 164.898 34.3693 163.534 34.3693C161.762 34.3693 160.585 35.767 160.585 37.7784C160.585 39.7898 161.745 41.1364 163.637 41.1364ZM161.595 37.1989C161.664 36.1804 162.384 35.2727 163.534 35.2727C164.625 35.2727 165.324 36.0909 165.324 37.1989H161.595Z" fill="#F5F5F5"/>
    </svg>
