<svg xmlns="http://www.w3.org/2000/svg" width="213" height="230" fill="none"><path fill="#F6F7FF" d="M26 26h180v180H26z"/><path stroke="#A4B2FC" d="M21.5 21.5h189v189h-189z"/><path fill="#fff" stroke="#BFBFBF" d="m114.522 136.506 34.05-22.703 56.128 84.181c.836 1.254.993 2.844.375 4.2-3.058 6.707-6.383 11.243-11.051 14.359-4.678 3.122-10.757 4.857-19.397 5.848-1.629.187-3.227-.578-4.143-1.952l-55.962-83.933z"/><path fill="#fff" stroke="#BFBFBF" d="M181.331 108.095c18.707 66.003-71.033 101.475-106.329 68.827L63.09 161.921 167.213 76.77l14.118 31.325z"/><path fill="#fff" stroke="#BFBFBF" d="M136.399 145.924c-18.146 12.906-38.498 19.04-56.72 18.544-18.221-.495-34.28-7.614-43.929-21.181-9.648-13.567-11.102-31.073-5.59-48.448 5.513-17.375 17.987-34.586 36.134-47.491 18.146-12.905 38.498-19.04 56.72-18.544 18.221.495 34.28 7.615 43.929 21.181 9.648 13.567 11.102 31.073 5.59 48.448-5.513 17.375-17.987 34.586-36.134 47.491z"/><path fill="#EDF0FF" stroke="#BFBFBF" d="M129.014 136.483c-15.385 10.941-32.641 16.133-48.092 15.702-15.45-.431-29.063-6.48-37.245-17.984-8.182-11.505-9.427-26.349-4.763-41.085C43.577 78.38 54.146 63.783 69.53 52.842c15.384-10.94 32.641-16.132 48.092-15.701 15.45.43 29.062 6.48 37.244 17.984 8.182 11.505 9.428 26.349 4.764 41.084-4.664 14.737-15.232 29.333-30.616 40.274z"/><path fill="#fff" stroke="#BFBFBF" d="M124.385 132.839c-13.488 9.593-28.317 14.558-41.373 14.852-13.06.295-24.288-4.079-30.698-13.094-6.411-9.014-6.858-21.056-2.294-33.295 4.564-12.236 14.121-24.614 27.61-34.207 13.488-9.593 28.317-14.558 41.373-14.852 13.06-.295 24.288 4.08 30.699 13.094 6.41 9.014 6.857 21.056 2.293 33.295-4.564 12.236-14.121 24.614-27.61 34.207z"/><path stroke="#BFBFBF" d="m62.65 118.684 10.525-4.412c-2.785-12.963 6.096-28.452 22.07-36.827 18.314-9.6 39.014-6.216 46.236 7.56 7.222 13.775-1.769 32.726-20.083 42.326a48.909 48.909 0 0 1-10.217 3.988l2.207 5.895M105.007 73.68l-.882-7.059"/><path stroke="#bfbfbf" d="m76.387 88.73-5.294-1.766"/><path stroke="#BFBFBF" d="m135.895 78.093 5.294-4.853M140.305 109.859l4.853 1.324"/><path fill="#cc512b" d="m130.857 101.988-15.669-2.017L72 86l-.907.964 42.017 16.503 13.706 9.257c5.366-4.16 4.93-8.89 4.04-10.736z"/><path fill="#fff" stroke="#BFBFBF" d="M112.328 96.192c.691 1.351.606 2.98-.158 4.549-.764 1.569-2.198 3.048-4.134 4.038-1.937.991-3.975 1.288-5.695.988-1.719-.299-3.089-1.184-3.78-2.535-.69-1.351-.607-2.98.158-4.549.764-1.57 2.198-3.048 4.134-4.038 1.936-.99 3.975-1.287 5.694-.988 1.72.299 3.09 1.184 3.781 2.535z"/><path fill="#fff" stroke="#BFBFBF" d="M108.829 97.662c.339.662.307 1.477-.088 2.287-.395.811-1.142 1.586-2.162 2.108-1.02.521-2.086.673-2.974.519-.888-.155-1.568-.606-1.906-1.268-.339-.662-.307-1.476.088-2.287.395-.81 1.142-1.585 2.162-2.107 1.02-.522 2.086-.674 2.974-.52.888.155 1.568.606 1.906 1.268z"/><path stroke="#BFBFBF" d="M59.893 123.428c-.824.426-1.623.657-2.236.702-.307.023-.543-.003-.704-.055-.158-.051-.208-.114-.226-.149-.018-.034-.04-.111.01-.27.051-.161.166-.368.363-.606.391-.473 1.042-.991 1.866-1.416.823-.426 1.622-.657 2.235-.702.307-.023.543.003.704.055.158.051.209.114.226.148.018.035.04.112-.01.271-.05.161-.166.368-.362.606-.392.473-1.043.991-1.866 1.416z"/><path stroke="#bfbfbf" d="m68.444 83.876-1.324 2.206c-.294-1.03-1.059-3.088-1.765-3.088-.882 0-1.323 1.323-.882 1.765"/><path stroke="#BFBFBF" d="m104.565 63.534-3.088.441 1.323-3.088.883 4.412M147.362 69.71c.295-.734-.441-2.206-1.323-1.763-.694.347-.97.87-1.324 1.079m0 0c-1.097.648-1.431 1.234-1.765 1.568-.441.44 0 1.764.883 1.323.706-.353 1.471-1.323 1.765-1.765.147-.457.176-1.322-.883-1.126z"/><path fill="#fff" stroke="#BFBFBF" d="m140.956 222.812-19.636-26.669 64.045-59.534 1.879-.034 10.473 19.996-54.648 66.593-2.113-.352z"/><path fill="#fff" stroke="#BFBFBF" d="m143.206 222.747-19.302-26.771 63.727-59.237 18.095 27.315-62.52 58.693z"/><path fill="#bfbfbf" d="m194.529 155.818-4.467-4.668-.67.642 3.235 3.38-.044.041-4.605-2.055-.556.532 1.85 4.688-.044.042-3.232-3.378-.671.641 4.468 4.668.855-.818-1.987-5.051.055-.052 4.958 2.206.855-.818zM184.308 156.657l-.704.674 1.948 2.035-1.983 1.898.578.604 1.983-1.898 1.361 1.423-2.191 2.096.581.606 2.894-2.77-4.467-4.668zM178.758 168.086l-.722.692c1.027.759 2.407.644 3.414-.32 1.208-1.156 1.22-2.91-.207-4.401-1.413-1.477-3.149-1.575-4.414-.364-1.133 1.084-1.231 2.601-.103 3.78l.508.531 1.835-1.756-.557-.582-1.153 1.104c-.704-.767-.663-1.719.085-2.435.823-.787 2.018-.739 3.104.397 1.082 1.13 1.073 2.33.282 3.087-.62.594-1.366.653-2.072.267zM176.458 169.759a.632.632 0 0 0-.02.892.632.632 0 0 0 .912-.872.63.63 0 0 0-.892-.02zm-2.238-2.338a.632.632 0 0 0-.02.892.632.632 0 0 0 .912-.873.63.63 0 0 0-.892-.019zM172.313 168.137l-3.073 2.94.578.604 2.102-2.011.032.034.002 1.859c-.028 1.682.123 2.328.622 2.85.718.75 1.879.739 2.758-.103.873-.835.971-2.011.155-2.864l-.673.644c.483.499.473 1.137-.031 1.619-.474.454-1.113.507-1.558.042-.395-.413-.432-.945-.439-1.955l.013-3.149-.488-.51zM166.683 173.376c-1.078 1.031-.867 2.515.597 4.045 1.452 1.518 2.937 1.787 4.006.764 1.071-1.025.867-2.516-.585-4.038-1.462-1.528-2.935-1.803-4.018-.771zm.583.608c.631-.604 1.618-.335 2.735.832 1.11 1.165 1.343 2.17.714 2.772-.627.6-1.623.326-2.736-.837-1.116-1.167-1.342-2.165-.713-2.767zM166.942 182.22l.686-.657.437-1.876-.646-.675-.419 1.799-.027.026-3.791-3.962-.707.677 4.467 4.668zM162.189 179.572l-2.213 2.118-.873-.912-.672.644.873.911-.618.592.571.597.618-.591 3.023 3.159.869-.831-1.032-5.117-.546-.57zm-1.646 2.719 1.479-1.415.035.036.743 3.665-.036.035-2.221-2.321zM155.326 184.245c-1.078 1.031-.867 2.516.596 4.045 1.453 1.518 2.938 1.787 4.007.764 1.071-1.025.867-2.516-.585-4.038-1.462-1.527-2.935-1.803-4.018-.771zm.583.608c.631-.604 1.618-.335 2.735.832 1.11 1.165 1.342 2.17.713 2.772-.627.6-1.622.326-2.735-.837-1.117-1.167-1.342-2.165-.713-2.767zM155.865 192.943c.989-.929.955-2.246.109-3.13-.855-.889-2.115-.915-2.925-.14-.494.473-.687 1.12-.551 1.741l-.037.035c-1.025-1.075-1.221-2.088-.537-2.743.446-.427.995-.429 1.468-.117l.695-.665c-.824-.657-1.918-.632-2.752.167-1.085 1.038-.872 2.62.692 4.255 1.634 1.702 2.999 1.387 3.838.597zm-.569-.59c-.541.517-1.378.44-1.869-.073-.499-.517-.514-1.376.019-1.887.536-.512 1.334-.455 1.853.083.519.543.532 1.364-.003 1.877zM151.511 196.988l.686-.657.436-1.876-.645-.674-.419 1.798-.028.026-3.791-3.961-.706.676 4.467 4.668zM145.787 193.522l-3.072 2.94.578.605 2.101-2.012.033.035.002 1.858c-.028 1.682.123 2.328.622 2.85.718.75 1.878.74 2.758-.102.873-.836.97-2.012.155-2.864l-.673.643c.482.5.473 1.138-.031 1.62-.474.453-1.113.506-1.558.041-.395-.412-.433-.944-.439-1.955l.013-3.148-.489-.511z"/><path fill="#fff" d="M92 142h3v-3h-1.5v1.5H92v1.5zm3-9v-3h-3v1.5h1.5v1.5H95zm-12 7.5V139h1.5v1.5H86v1.5h-3v-1.5zm3-10.5h-3v3h1.5v-1.5H86V130zM87.602 138.4l.426-1.184h1.944l.43 1.184h1l-1.823-4.8h-1.157l-1.82 4.8h1zm.679-1.882.7-1.934h.04l.699 1.934h-1.44z"/><path fill="#ff6914" stroke="#ff6918" d="M50.675 73.695h28v22h-28z"/><path fill="#ff6918" d="M48.175 71.195h10v10h-10zM48.175 88.195h10v10h-10zM71.175 71.195h10v10h-10zM71.175 88.195h10v10h-10zM48.175 47.195h45v24h-45z"/><path fill="#fff" d="M65.175 65.195h3v-3h-1.5v1.5h-1.5zm3-9v-3h-3v1.5h1.5v1.5zm-12 7.5v-1.5h1.5v1.5h1.5v1.5h-3zm3-10.5h-3v3h1.5v-1.5h1.5z"/><path fill="#f5f5f5" d="M78.078 63.195h5.506v-.938h-4.057v-.068l1.96-2.096c1.5-1.607 1.944-2.357 1.944-3.324 0-1.347-1.091-2.42-2.625-2.42-1.53 0-2.694 1.04-2.694 2.573h1.006c0-.993.644-1.653 1.654-1.653.946 0 1.67.58 1.67 1.5 0 .805-.473 1.402-1.483 2.505l-2.88 3.154zM68.175 56.195v-3h-3v1.5h1.5v1.5zm-10.5-3h1.5v1.5h-1.5v1.5h-1.5v-3zm1.5 3h6v6h-6zm7.5 9h-1.5v-1.5h1.5v-1.5h1.5v3zm-10.5-3v3h3v-1.5h-1.5v-1.5z"/></svg>
