<svg width="213" height="203" viewBox="0 0 213 203" fill="none" xmlns="http://www.w3.org/2000/svg">
    <rect x="5" y="6.54102" width="180" height="180" fill="#F6F7FF"/>
    <rect x="0.5" y="2.5" width="189" height="189" stroke="#A4B2FC" stroke-dasharray="5 5"/>
    <rect x="10.5" y="13.5" width="168" height="168" stroke="#A4B2FC" stroke-dasharray="5 5"/>
    <path d="M106.201 143.967L100.137 4H117.657L114.962 158.988L106.201 143.967Z" fill="white" stroke="#BFBFBF"/>
    <path fill-rule="evenodd" clip-rule="evenodd" d="M106.332 45.8358C106.319 45.3725 106.306 44.9041 106.294 44.4312C106.039 34.414 103.167 30.5804 93.8038 29.2461C86.2161 29.4391 78.8609 37.2914 79.1158 47.3086C79.3707 57.3258 91.968 62.8185 99.5557 62.6254C104.441 62.5011 105.935 59.1474 106.311 54.1008C106.384 54.0899 106.458 54.0794 106.532 54.0688C107.422 53.9418 108.32 53.8135 108.32 53.191C108.32 52.3791 107.301 50.752 106.414 49.5183C106.4 48.3378 106.366 47.1061 106.332 45.8358Z" fill="white"/>
    <path d="M106.294 44.4312L105.794 44.4439V44.4439L106.294 44.4312ZM106.332 45.8358L106.832 45.8221L106.332 45.8358ZM93.8038 29.2461L93.8743 28.7511L93.8329 28.7452L93.7911 28.7463L93.8038 29.2461ZM79.1158 47.3086L79.6157 47.2959L79.1158 47.3086ZM99.5557 62.6254L99.5684 63.1252L99.5557 62.6254ZM106.311 54.1008L106.238 53.6062L105.842 53.6646L105.812 54.0636L106.311 54.1008ZM106.532 54.0688L106.462 53.5738H106.462L106.532 54.0688ZM106.414 49.5183L105.914 49.5243L105.916 49.682L106.008 49.8102L106.414 49.5183ZM105.794 44.4439C105.807 44.9174 105.819 45.3862 105.832 45.8494L106.832 45.8221C106.819 45.3588 106.806 44.8909 106.794 44.4185L105.794 44.4439ZM93.7333 29.7411C98.3695 30.4018 101.274 31.6663 103.076 33.8967C104.888 36.1399 105.668 39.4598 105.794 44.4439L106.794 44.4185C106.666 39.3853 105.882 35.7798 103.854 33.2684C101.815 30.7442 98.6015 29.4247 93.8743 28.7511L93.7333 29.7411ZM79.6157 47.2959C79.3664 37.5014 86.5554 29.9307 93.8165 29.7459L93.7911 28.7463C85.8768 28.9476 78.3554 37.0814 78.616 47.3213L79.6157 47.2959ZM99.543 62.1256C95.8548 62.2194 90.9048 60.9253 86.8524 58.3728C82.8016 55.8212 79.7372 52.0747 79.6157 47.2959L78.616 47.3213C78.7493 52.5597 82.111 56.5681 86.3195 59.2189C90.5264 61.8688 95.6689 63.2245 99.5684 63.1252L99.543 62.1256ZM105.812 54.0636C105.626 56.5646 105.166 58.5526 104.213 59.9238C103.288 61.2561 101.855 62.0668 99.543 62.1256L99.5684 63.1252C102.142 63.0598 103.898 62.1314 105.035 60.4942C106.145 58.8957 106.62 56.6835 106.809 54.138L105.812 54.0636ZM106.462 53.5738C106.388 53.5844 106.313 53.5951 106.238 53.6062L106.384 54.5954C106.456 54.5848 106.529 54.5744 106.603 54.5638L106.462 53.5738ZM107.82 53.191C107.82 53.2102 107.819 53.2122 107.806 53.2255C107.781 53.2522 107.717 53.2977 107.584 53.3475C107.31 53.4501 106.924 53.5077 106.462 53.5738L106.603 54.5638C107.029 54.5029 107.537 54.4329 107.935 54.284C108.138 54.208 108.355 54.0968 108.525 53.9204C108.709 53.7306 108.82 53.4831 108.82 53.191H107.82ZM106.008 49.8102C106.446 50.4186 106.91 51.116 107.262 51.7544C107.438 52.0739 107.582 52.3699 107.68 52.6267C107.782 52.8921 107.82 53.0787 107.82 53.191H108.82C108.82 52.8974 108.731 52.5762 108.614 52.2695C108.494 51.9544 108.327 51.6143 108.138 51.2712C107.759 50.5847 107.27 49.8518 106.82 49.2264L106.008 49.8102ZM105.832 45.8494C105.867 47.1205 105.9 48.3483 105.914 49.5243L106.914 49.5123C106.9 48.3273 106.866 47.0917 106.832 45.8221L105.832 45.8494Z" fill="#BFBFBF"/>
    <path d="M55.08 182.572C55.6191 191.736 61.594 198.07 64.514 200.092C62.4925 200.092 57.6408 199.149 54.4063 195.376C51.1717 191.602 49.9138 187.065 49.6891 185.268C50.5876 183.92 51.8454 180.416 49.6891 177.181C46.9936 173.138 46.9936 164.377 49.0152 163.03C50.6325 161.951 51.486 163.03 51.7107 163.704C52.6092 166.174 54.5409 173.407 55.08 182.572Z" fill="white" stroke="#BFBFBF"/>
    <path d="M50.7171 162.566C50.6219 162.56 50.5287 162.555 50.4375 162.549C50.5341 162.549 50.6272 162.555 50.7171 162.566C54.3754 162.793 60.9199 163.179 62.4962 163.705C64.5177 164.379 70.5825 171.791 69.9086 175.834C69.2348 179.877 65.8655 187.29 64.5177 187.964C63.4396 188.503 63.17 189.985 63.17 190.659C64.5177 191.333 67.2132 193.355 67.2132 196.05C67.2132 198.746 66.7639 200.318 66.5393 200.767C64.2931 200.318 58.9921 197.128 55.7576 187.964C51.7972 176.743 55.0168 163.119 50.7171 162.566Z" fill="white"/>
    <path d="M50.4375 162.549C54.0314 162.773 60.8789 163.166 62.4962 163.705C64.5177 164.379 70.5825 171.791 69.9086 175.834C69.2348 179.877 65.8655 187.29 64.5177 187.964C63.4396 188.503 63.17 189.985 63.17 190.659C64.5177 191.333 67.2132 193.355 67.2132 196.05C67.2132 198.746 66.7639 200.318 66.5393 200.767C64.2931 200.318 58.9921 197.128 55.7576 187.964C51.7144 176.508 55.1545 162.549 50.4375 162.549Z" stroke="#BFBFBF"/>
    <path d="M102.425 119.231C103.61 120.848 101.931 135.628 100.943 142.816L92.0508 129.339L97.9788 114.514C98.9668 115.412 101.239 117.613 102.425 119.231Z" fill="white" stroke="#BFBFBF"/>
    <path d="M53.0617 115.861L51.7139 124.621C49.0185 135.403 55.7571 144.837 60.4741 149.554C64.2478 153.327 77.3206 158.763 83.3854 161.009L85.407 165.052H79.3422C76.6468 164.379 70.582 162.896 67.8866 162.357C64.5173 161.683 61.8219 165.052 63.8434 165.052C65.865 165.052 67.8866 170.443 69.9082 174.487C71.5254 177.721 66.9881 184.819 64.5173 187.964H67.8866L93.4933 185.268C97.3118 185.044 106.431 183.651 112.361 179.877C119.774 175.16 112.361 164.379 112.361 163.031C112.361 161.683 92.1456 129.338 93.4933 129.338C94.5715 129.338 98.4349 115.861 100.232 109.122L101.58 110.47C102.029 107.55 103.062 102.249 103.601 104.405C104.14 106.561 116.405 112.042 122.469 114.513L121.122 92.2755L120.448 91.6017C119.998 90.9278 119.1 89.3105 119.1 88.2323C119.1 86.8846 114.383 84.863 114.383 82.1676C114.383 79.4722 106.297 72.0597 106.297 71.3858C106.297 70.8467 101.804 68.4658 99.558 67.3427C99.3334 67.5673 98.8842 66.8036 98.8842 61.9518C98.8842 55.887 84.0593 49.1484 82.0377 49.1484C80.0161 49.1484 79.3422 52.5177 77.9945 55.2132C76.6468 57.9086 76.6468 58.5825 75.9729 59.2563C75.4338 59.7954 70.3574 61.2779 67.8866 61.9518C54.4094 70.0381 52.3878 101.26 53.0617 115.861Z" fill="white" stroke="#BFBFBF"/>
    <path d="M140.66 117.208C139.582 115.591 136.617 116.535 135.27 117.208L133.922 102.383L140.66 105.752L145.378 117.208L143.356 120.577C142.907 120.128 141.739 118.826 140.66 117.208Z" fill="white" stroke="#BFBFBF"/>
    <path d="M131.902 57.9082L143.358 63.2991L142.01 84.1888L133.25 81.4933L131.902 57.9082Z" fill="white" stroke="#BFBFBF"/>
    <path d="M152.29 74.0806C152.29 80.1919 147.931 85.0363 142.682 85.0363C137.433 85.0363 133.074 80.1919 133.074 74.0806C133.074 67.9694 137.433 63.125 142.682 63.125C147.931 63.125 152.29 67.9694 152.29 74.0806Z" fill="white" stroke="#BFBFBF"/>
    <path d="M150.942 75.43C150.942 78.5603 148.698 80.9947 146.051 80.9947C143.404 80.9947 141.16 78.5603 141.16 75.43C141.16 72.2997 143.404 69.8652 146.051 69.8652C148.698 69.8652 150.942 72.2997 150.942 75.43Z" fill="white" stroke="#BFBFBF"/>
    <path d="M151.312 80.1466C150.413 79.6974 148.124 79.0685 145.428 77.4512C143.811 74.7557 145.202 72.7342 146.775 72.0603C147.898 72.9588 151.581 74.2167 152.66 74.7557C153.738 75.2948 155.804 74.9804 156.703 74.7557L190.875 63.7344C193.032 65.3516 191.324 67.5529 190.875 68.4514C185.934 69.5745 160.072 79.0685 157.377 80.1466C154.681 81.2248 152.21 80.5959 151.312 80.1466Z" fill="white" stroke="#BFBFBF"/>
    <path d="M145.381 194.029L136.621 184.595V169.77L148.751 168.422L157.511 175.834L145.381 177.182V194.029Z" fill="white" stroke="#BFBFBF"/>
    <path d="M158.184 193.495V175.975L146.055 177.183V195.377L158.184 193.495Z" fill="white"/>
    <path d="M158.184 175.975H158.684L158.135 175.477L158.184 175.975ZM158.184 193.495L158.261 193.989L158.684 193.924V193.495H158.184ZM146.055 195.377H145.555L146.131 195.871L146.055 195.377ZM146.055 177.183L146.005 176.685L145.555 177.183H146.055ZM157.684 175.975V193.495H158.684V175.975H157.684ZM158.108 193.001L145.978 194.883L146.131 195.871L158.261 193.989L158.108 193.001ZM146.555 195.377V177.183H145.555V195.377H146.555ZM146.104 177.68L158.234 176.472L158.135 175.477L146.005 176.685L146.104 177.68Z" fill="#BFBFBF"/>
    <path d="M127.186 177.856L136.62 183.921V170.444L145.287 169.096L144.613 157.64H136.62L129.114 4H117.078L123.143 173.813L127.186 177.856Z" fill="white" stroke="#BFBFBF"/>
    <path d="M148.769 101.024C153.467 97.6673 187.86 85.4161 190.556 84.0679C192.577 86.0899 191.712 87.9312 190.553 88.7836C189.395 89.6359 154.796 103.071 152.794 104.406C150.791 105.741 150.098 108.579 150.098 109.797L146.765 173.247C144.645 174.911 142.611 173.994 141.86 173.328C142.054 168.264 145.4 110.471 145.4 107.762C145.4 105.054 146.865 102.384 148.769 101.024Z" fill="white" stroke="#BFBFBF"/>
    <path d="M168.345 116.822C173.044 113.466 182.304 123.943 185 122.595C187.021 124.617 186.156 126.458 184.997 127.311C183.839 128.163 174.373 118.869 172.37 120.204C170.367 121.539 169.674 124.378 169.674 125.595L166.341 189.045C164.221 190.71 162.188 189.793 161.436 189.126C161.63 184.062 164.976 126.269 164.976 123.561C164.976 120.853 166.441 118.183 168.345 116.822Z" fill="white" stroke="#BFBFBF"/>
    <path fill-rule="evenodd" clip-rule="evenodd" d="M77.1798 48.4977C82.3461 48.0484 92.9482 47.15 94.0264 47.15C94.3668 47.15 94.8791 46.849 95.5526 46.4535C96.425 45.9411 97.5678 45.2699 98.9572 44.8884C98.9852 45.2371 98.9506 45.5646 98.8226 45.8371C95.755 46.2055 93.3582 49.3675 93.3582 53.2137C93.3582 57.3075 96.0735 60.6261 99.423 60.6261C102.772 60.6261 105.488 57.3075 105.488 53.2137C105.488 50.3023 104.114 47.783 102.117 46.5705V46.4748C102.389 46.0667 102.727 45.3621 102.711 44.75C103.581 44.9266 104.505 45.2595 105.482 45.8022L111.547 45.1285L108.851 43.1069C108.627 37.2668 105.212 25.7213 93.3525 26.2604C81.4925 26.7995 75.1609 37.7162 77.1798 48.4977Z" fill="#4A67FB"/>
    <mask id="path-24-inside-1" fill="white">
    <path fill-rule="evenodd" clip-rule="evenodd" d="M94.0264 47.15C92.9482 47.15 82.3461 48.0484 77.1798 48.4977C75.1609 37.7162 81.4925 26.7995 93.3525 26.2604C105.212 25.7213 108.627 37.2668 108.851 43.1069C109.818 43.8323 109.4 45.367 108.198 45.5005L105.482 45.8022C104.505 45.2595 103.581 44.9266 102.711 44.75C102.727 45.3621 102.389 46.0667 102.117 46.4748V46.5705C104.114 47.783 105.488 50.3023 105.488 53.2137C105.488 57.3075 102.772 60.6261 99.423 60.6261C96.0735 60.6261 93.3582 57.3075 93.3582 53.2137C93.3582 49.3675 95.755 46.2055 98.8226 45.8371C98.9506 45.5646 98.9852 45.2371 98.9572 44.8884C97.5678 45.2699 96.425 45.9411 95.5526 46.4535C94.8791 46.849 94.3668 47.15 94.0264 47.15Z"/>
    </mask>
    <path d="M77.1798 48.4977L76.1969 48.6817C76.2916 49.1872 76.7542 49.5385 77.2665 49.4939L77.1798 48.4977ZM93.3525 26.2604L93.3071 25.2615L93.3525 26.2604ZM108.851 43.1069L107.852 43.1454C107.864 43.4464 108.01 43.7262 108.251 43.9069L108.851 43.1069ZM108.198 45.5005L108.308 46.4944L108.198 45.5005ZM105.482 45.8022L104.996 46.6764C105.178 46.7772 105.386 46.819 105.592 46.7961L105.482 45.8022ZM102.711 44.75L102.91 43.77C102.612 43.7094 102.302 43.788 102.069 43.9836C101.836 44.1792 101.704 44.4704 101.712 44.7748L102.711 44.75ZM102.117 46.4748L101.284 45.9201C101.175 46.0844 101.117 46.2774 101.117 46.4748H102.117ZM102.117 46.5705H101.117C101.117 46.92 101.299 47.2441 101.598 47.4254L102.117 46.5705ZM98.8226 45.8371L98.9419 46.8299C99.2842 46.7888 99.5811 46.5743 99.7277 46.2623L98.8226 45.8371ZM98.9572 44.8884L99.954 44.8084C99.9302 44.5114 99.7752 44.2406 99.5312 44.0696C99.2873 43.8985 98.9798 43.8452 98.6925 43.9241L98.9572 44.8884ZM95.5526 46.4535L96.059 47.3157H96.059L95.5526 46.4535ZM77.2665 49.4939C79.8486 49.2694 83.7889 48.9326 87.2177 48.652C90.6843 48.3683 93.5408 48.15 94.0264 48.15V46.15C93.4337 46.15 90.4501 46.3808 87.0546 46.6587C83.6213 46.9396 79.6774 47.2767 77.0932 47.5014L77.2665 49.4939ZM93.3071 25.2615C80.6952 25.8347 74.0946 37.455 76.1969 48.6817L78.1628 48.3136C76.2272 37.9775 82.2899 27.7643 93.3979 27.2594L93.3071 25.2615ZM109.851 43.0685C109.733 40.0188 108.79 35.4792 106.297 31.7371C103.769 27.9422 99.6391 24.9736 93.3071 25.2615L93.3979 27.2594C98.9258 27.0081 102.433 29.5428 104.633 32.8459C106.868 36.2018 107.745 40.3549 107.852 43.1454L109.851 43.0685ZM108.308 46.4944C110.411 46.2609 111.143 43.5759 109.451 42.3069L108.251 43.9069C108.494 44.0887 108.389 44.4732 108.088 44.5066L108.308 46.4944ZM105.592 46.7961L108.308 46.4944L108.088 44.5066L105.372 44.8083L105.592 46.7961ZM102.512 45.7299C103.275 45.8849 104.103 46.1801 104.996 46.6764L105.968 44.9281C104.907 44.3388 103.886 43.9683 102.91 43.77L102.512 45.7299ZM102.949 47.0295C103.26 46.5622 103.734 45.6458 103.711 44.7251L101.712 44.7748C101.715 44.902 101.679 45.0943 101.588 45.3305C101.501 45.5586 101.384 45.7714 101.284 45.9201L102.949 47.0295ZM103.117 46.5705V46.4748H101.117V46.5705H103.117ZM101.598 47.4254C103.253 48.4298 104.488 50.5968 104.488 53.2137H106.488C106.488 50.0079 104.976 47.1362 102.635 45.7156L101.598 47.4254ZM104.488 53.2137C104.488 56.9522 102.042 59.6261 99.423 59.6261V61.6261C103.503 61.6261 106.488 57.6628 106.488 53.2137H104.488ZM99.423 59.6261C96.8041 59.6261 94.3582 56.9522 94.3582 53.2137H92.3582C92.3582 57.6628 95.343 61.6261 99.423 61.6261V59.6261ZM94.3582 53.2137C94.3582 49.7156 96.5194 47.1209 98.9419 46.8299L98.7034 44.8442C94.9906 45.2901 92.3582 49.0194 92.3582 53.2137H94.3582ZM97.9605 44.9684C97.9803 45.2151 97.9461 45.3512 97.9175 45.4119L99.7277 46.2623C99.9552 45.778 99.9902 45.2591 99.954 44.8084L97.9605 44.9684ZM96.059 47.3157C96.9369 46.8001 97.9756 46.1949 99.222 45.8527L98.6925 43.9241C97.16 44.3449 95.9131 45.082 95.0462 45.5912L96.059 47.3157ZM94.0264 48.15C94.4438 48.15 94.836 47.9794 95.1041 47.8483C95.4005 47.7033 95.7334 47.507 96.059 47.3157L95.0462 45.5912C94.6983 45.7955 94.4383 45.9475 94.2251 46.0518C94.1216 46.1024 94.0512 46.1307 94.0062 46.1452C93.9578 46.1609 93.971 46.15 94.0264 46.15V48.15Z" fill="#4A67FB" mask="url(#path-24-inside-1)"/>
    <circle cx="165.5" cy="130.5" r="18.5" fill="white" stroke="#BFBFBF"/>
    <circle cx="165.501" cy="130.499" r="12.3333" fill="white" stroke="#BFBFBF"/>
    <path d="M171.051 126.801L156.867 134.817L172.284 129.884L171.051 126.801Z" fill="#CC512B"/>
    <circle cx="165.95" cy="130.951" r="2.58333" transform="rotate(-27.0847 165.95 130.951)" fill="white" stroke="#BFBFBF"/>
    <path d="M141.5 108.5H187.5V152.5H141.5V108.5Z" fill="#FF6918" fill-opacity="0.2" stroke="#FF6918" stroke-width="5"/>
    <rect width="74" height="24" transform="translate(139 82)" fill="#FF6918"/>
    <rect x="139" y="106" width="10" height="10" fill="#FF6918"/>
    <rect x="139" y="145" width="10" height="10" fill="#FF6918"/>
    <rect x="180" y="106" width="10" height="10" fill="#FF6918"/>
    <rect x="180" y="145" width="10" height="10" fill="#FF6918"/>
    <rect x="139" y="106" width="10" height="10" fill="#FF6918"/>
    <rect x="139" y="145" width="10" height="10" fill="#FF6918"/>
    <rect x="180" y="106" width="10" height="10" fill="#FF6918"/>
    <rect x="180" y="145" width="10" height="10" fill="#FF6918"/>
    <path fill-rule="evenodd" clip-rule="evenodd" d="M159 91V89.5V88H157.5H156V89.5H157.5V91H159ZM148.5 88H150V89.5H148.5V91H147V89.5V88H148.5ZM150 91H156V97H150V91ZM157.5 100H156V98.5H157.5V97H159V98.5V100H157.5ZM147 97V98.5V100H148.5H150L150 98.5L148.5 98.5L148.5 97H147Z" fill="#F5F5F5"/>
    <path d="M175.023 92H176.114C175.79 90.3125 174.375 89.1534 172.534 89.1534C170.297 89.1534 168.716 90.875 168.716 93.6364C168.716 96.3977 170.284 98.1193 172.602 98.1193C174.682 98.1193 176.165 96.7344 176.165 94.5739V93.6364H172.841V94.5739H175.142C175.112 96.142 174.081 97.1307 172.602 97.1307C170.983 97.1307 169.739 95.9034 169.739 93.6364C169.739 91.3693 170.983 90.142 172.534 90.142C173.795 90.142 174.652 90.8537 175.023 92ZM179.669 98.1534C180.811 98.1534 181.407 97.5398 181.612 97.1136H181.663V98H182.669V93.6875C182.669 91.608 181.083 91.3693 180.248 91.3693C179.259 91.3693 178.134 91.7102 177.623 92.9034L178.578 93.2443C178.799 92.767 179.323 92.2557 180.282 92.2557C181.207 92.2557 181.663 92.7457 181.663 93.5852V93.6193C181.663 94.1051 181.169 94.0625 179.975 94.2159C178.761 94.3736 177.436 94.642 177.436 96.142C177.436 97.4205 178.424 98.1534 179.669 98.1534ZM179.822 97.25C179.021 97.25 178.441 96.892 178.441 96.1932C178.441 95.4261 179.14 95.1875 179.924 95.0852C180.35 95.0341 181.492 94.9148 181.663 94.7102V95.6307C181.663 96.4489 181.015 97.25 179.822 97.25ZM188.533 95.3239C188.533 96.5511 187.596 97.1136 186.846 97.1136C186.01 97.1136 185.414 96.5 185.414 95.5455V91.4545H184.408V95.6136C184.408 97.2841 185.295 98.0852 186.522 98.0852C187.51 98.0852 188.158 97.5568 188.465 96.892H188.533V98H189.539V91.4545H188.533V95.3239ZM193.927 100.591C195.495 100.591 196.756 99.875 196.756 98.1875V91.4545H195.785V92.4943H195.683C195.461 92.1534 195.052 91.3693 193.773 91.3693C192.12 91.3693 190.978 92.6818 190.978 94.6932C190.978 96.7386 192.171 97.8977 193.756 97.8977C195.035 97.8977 195.444 97.1477 195.665 96.7898H195.751V98.1193C195.751 99.2102 194.984 99.7045 193.927 99.7045C192.738 99.7045 192.32 99.0781 192.052 98.7159L191.251 99.2784C191.66 99.9645 192.465 100.591 193.927 100.591ZM193.893 96.9943C192.631 96.9943 191.984 96.0398 191.984 94.6761C191.984 93.3466 192.614 92.2727 193.893 92.2727C195.12 92.2727 195.768 93.2614 195.768 94.6761C195.768 96.125 195.103 96.9943 193.893 96.9943ZM201.246 98.1364C202.575 98.1364 203.547 97.4716 203.854 96.483L202.882 96.2102C202.626 96.892 202.034 97.233 201.246 97.233C200.065 97.233 199.251 96.4702 199.204 95.0682H203.956V94.642C203.956 92.2045 202.507 91.3693 201.143 91.3693C199.371 91.3693 198.194 92.767 198.194 94.7784C198.194 96.7898 199.354 98.1364 201.246 98.1364ZM199.204 94.1989C199.273 93.1804 199.993 92.2727 201.143 92.2727C202.234 92.2727 202.933 93.0909 202.933 94.1989H199.204Z" fill="#F5F5F5"/>
    <path fill-rule="evenodd" clip-rule="evenodd" d="M52.4102 9V7.5V6H50.9102H49.4102V7.5H50.9102V9H52.4102ZM41.9102 6L43.4102 6V7.5H41.9102V9H40.4102V7.5V6H41.9102ZM43.4102 9L49.4102 9V15L43.4102 15V9ZM50.9102 18H49.4102V16.5H50.9102V15H52.4102V16.5V18H50.9102ZM40.4102 15V16.5V18H41.9102H43.4102L43.4102 16.5L41.9102 16.5L41.9102 15H40.4102Z" fill="#F5F5F5"/>
    <path d="M62.467 16H63.5238V12.8125H65.4329C67.4656 12.8125 68.3817 11.5767 68.3817 10.0341C68.3817 8.49148 67.4656 7.27273 65.4158 7.27273H62.467V16ZM63.5238 11.875V8.21023H65.3817C66.8008 8.21023 67.342 8.9858 67.342 10.0341C67.342 11.0824 66.8008 11.875 65.3988 11.875H63.5238ZM72.5258 16.1364C73.8553 16.1364 74.8269 15.4716 75.1338 14.483L74.1622 14.2102C73.9065 14.892 73.3142 15.233 72.5258 15.233C71.3454 15.233 70.5315 14.4702 70.4846 13.0682H75.236V12.642C75.236 10.2045 73.7872 9.36932 72.4235 9.36932C70.6508 9.36932 69.4747 10.767 69.4747 12.7784C69.4747 14.7898 70.6338 16.1364 72.5258 16.1364ZM70.4846 12.1989C70.5528 11.1804 71.273 10.2727 72.4235 10.2727C73.5144 10.2727 74.2133 11.0909 74.2133 12.1989H70.4846ZM76.6699 16H77.6755V11.858C77.6755 10.9716 78.3744 10.3239 79.329 10.3239C79.5974 10.3239 79.8744 10.375 79.9426 10.392V9.36932C79.8275 9.3608 79.5633 9.35227 79.4142 9.35227C78.6301 9.35227 77.9483 9.79545 77.7096 10.4432H77.6415V9.45455H76.6699V16ZM85.6751 10.9205C85.3597 9.99148 84.6523 9.36932 83.3569 9.36932C81.9762 9.36932 80.9535 10.1534 80.9535 11.2614C80.9535 12.1648 81.4904 12.7699 82.6921 13.0511L83.783 13.3068C84.4435 13.4602 84.7546 13.7756 84.7546 14.2273C84.7546 14.7898 84.158 15.25 83.2205 15.25C82.3981 15.25 81.8825 14.8963 81.7035 14.1932L80.7489 14.4318C80.9833 15.544 81.8995 16.1364 83.2376 16.1364C84.7589 16.1364 85.7944 15.3054 85.7944 14.1761C85.7944 13.2642 85.2234 12.6889 84.0557 12.4034L83.0842 12.1648C82.3086 11.973 81.9592 11.7131 81.9592 11.2102C81.9592 10.6477 82.5557 10.2386 83.3569 10.2386C84.2347 10.2386 84.5969 10.7244 84.7717 11.1761L85.6751 10.9205ZM89.8713 16.1364C91.6441 16.1364 92.8372 14.7898 92.8372 12.7614C92.8372 10.7159 91.6441 9.36932 89.8713 9.36932C88.0986 9.36932 86.9054 10.7159 86.9054 12.7614C86.9054 14.7898 88.0986 16.1364 89.8713 16.1364ZM89.8713 15.233C88.5247 15.233 87.9111 14.0739 87.9111 12.7614C87.9111 11.4489 88.5247 10.2727 89.8713 10.2727C91.2179 10.2727 91.8316 11.4489 91.8316 12.7614C91.8316 14.0739 91.2179 15.233 89.8713 15.233ZM95.2821 12.0625C95.2821 10.9205 95.9895 10.2727 96.9525 10.2727C97.8858 10.2727 98.4525 10.8821 98.4525 11.9091V16H99.4582V11.8409C99.4582 10.1705 98.5676 9.36932 97.2423 9.36932C96.2537 9.36932 95.64 9.8125 95.3332 10.4773H95.248V9.45455H94.2764V16H95.2821V12.0625Z" fill="#F5F5F5"/>
    </svg>
