<svg width="213" height="230" viewBox="0 0 213 230" fill="none" xmlns="http://www.w3.org/2000/svg">
    <rect x="26" y="26" width="180" height="180" fill="#F6F7FF"/>
    <rect x="21.5" y="21.5" width="189" height="189" stroke="#A4B2FC" stroke-dasharray="5 5"/>
    <path d="M114.522 136.506L148.572 113.803L204.7 197.984C205.536 199.238 205.693 200.828 205.075 202.184C202.017 208.891 198.692 213.427 194.024 216.543C189.346 219.665 183.267 221.4 174.627 222.391C172.998 222.578 171.4 221.813 170.484 220.439L114.522 136.506Z" fill="white" stroke="#BFBFBF"/>
    <path d="M181.331 108.095C200.038 174.098 110.298 209.57 75.0022 176.922L63.0898 161.921L167.213 76.7695L181.331 108.095Z" fill="white" stroke="#BFBFBF"/>
    <path d="M136.399 145.924C118.253 158.83 97.9009 164.964 79.6792 164.468C61.4577 163.973 45.3985 156.854 35.7501 143.287C26.1017 129.72 24.6476 112.214 30.1604 94.8393C35.6732 77.4644 48.1473 60.2534 66.2937 47.348C84.4402 34.4427 104.792 28.3085 123.014 28.8039C141.235 29.2992 157.294 36.4187 166.943 49.9854C176.591 63.5521 178.045 81.0585 172.533 98.4331C167.02 115.808 154.546 133.019 136.399 145.924Z" fill="white" stroke="#BFBFBF"/>
    <path d="M129.014 136.483C113.629 147.424 96.3726 152.616 80.922 152.185C65.4717 151.754 51.8593 145.705 43.6773 134.201C35.4953 122.696 34.2497 107.852 38.9136 93.1163C43.5775 78.3801 54.1456 63.7834 69.53 52.8423C84.9143 41.9013 102.171 36.7096 117.622 37.1407C133.072 37.5718 146.684 43.6203 154.866 55.1252C163.048 66.63 164.294 81.4735 159.63 96.2094C154.966 110.946 144.398 125.542 129.014 136.483Z" fill="#EDF0FF" stroke="#BFBFBF"/>
    <path d="M124.385 132.839C110.897 142.432 96.068 147.397 83.0119 147.691C69.9525 147.986 58.7244 143.612 52.3136 134.597C45.9027 125.583 45.4561 113.541 50.0205 101.302C54.5838 89.0656 64.1413 76.6877 77.6297 67.095C91.1181 57.5023 105.947 52.5369 119.003 52.2426C132.063 51.9482 143.291 56.3225 149.702 65.3368C156.112 74.3512 156.559 86.393 151.995 98.6323C147.431 110.868 137.874 123.246 124.385 132.839Z" fill="white" stroke="#BFBFBF"/>
    <path d="M62.6498 118.684L73.1754 114.272C70.3896 101.309 79.2711 85.8202 95.2459 77.4454C113.559 67.8448 134.259 71.2292 141.481 85.0048C148.703 98.7804 139.712 117.731 121.398 127.331C118.04 129.092 114.602 130.416 111.181 131.319L113.388 137.214" stroke="#BFBFBF"/>
    <path d="M105.007 73.6803L104.125 66.6211" stroke="#BFBFBF"/>
    <path d="M77.2124 93.5343L71.918 91.7695" stroke="#BFBFBF"/>
    <path d="M135.895 78.0934L141.189 73.2402" stroke="#BFBFBF"/>
    <path d="M140.305 109.859L145.158 111.183" stroke="#BFBFBF"/>
    <path d="M125.303 86.0332L112.508 95.2984L71.4766 114.711V116.035L113.39 99.2692L129.715 96.622C130.774 89.9158 127.215 86.7685 125.303 86.0332Z" fill="#CC512B"/>
    <path d="M112.328 96.192C113.019 97.5433 112.934 99.1719 112.17 100.741C111.406 102.31 109.972 103.789 108.036 104.779C106.099 105.77 104.061 106.067 102.341 105.767C100.622 105.468 99.2521 104.583 98.5611 103.232C97.8701 101.881 97.9544 100.252 98.7186 98.6831C99.4828 97.1137 100.917 95.635 102.853 94.6447C104.789 93.6544 106.828 93.3576 108.547 93.6567C110.267 93.9557 111.637 94.8407 112.328 96.192Z" fill="white" stroke="#BFBFBF"/>
    <path d="M108.829 97.6621C109.168 98.3241 109.136 99.1388 108.741 99.9492C108.346 100.76 107.599 101.535 106.579 102.057C105.559 102.578 104.493 102.73 103.605 102.576C102.717 102.421 102.037 101.97 101.699 101.308C101.36 100.646 101.392 99.8317 101.787 99.0213C102.182 98.2107 102.929 97.4355 103.949 96.9139C104.969 96.3922 106.035 96.2402 106.923 96.3947C107.811 96.5491 108.491 97 108.829 97.6621Z" fill="white" stroke="#BFBFBF"/>
    <path d="M59.8926 123.428C59.0688 123.854 58.2701 124.085 57.6574 124.13C57.35 124.153 57.1144 124.127 56.9534 124.075C56.7952 124.024 56.7446 123.961 56.7269 123.926C56.7093 123.892 56.6873 123.815 56.7372 123.656C56.788 123.495 56.9032 123.288 57.0996 123.05C57.4912 122.577 58.142 122.059 58.9658 121.634C59.7895 121.208 60.5882 120.977 61.201 120.932C61.5084 120.909 61.7439 120.935 61.9049 120.987C62.0631 121.038 62.1137 121.101 62.1314 121.135C62.149 121.17 62.171 121.247 62.1211 121.406C62.0703 121.567 61.9551 121.774 61.7587 122.012C61.3671 122.485 60.7163 123.003 59.8926 123.428Z" stroke="#BFBFBF"/>
    <path d="M69.2689 88.6812L67.9453 90.8872C67.6511 89.8578 66.8864 87.7988 66.1805 87.7988C65.2981 87.7988 64.8569 89.1224 65.2981 89.5636" stroke="#BFBFBF"/>
    <path d="M104.565 63.5339L101.477 63.9751L102.8 60.8867L103.683 65.2987" stroke="#BFBFBF"/>
    <path d="M147.362 69.7109C147.657 68.9755 146.921 67.5041 146.039 67.9466C145.345 68.2945 145.069 68.8172 144.715 69.0258M144.715 69.0258C143.618 69.6735 143.284 70.2597 142.95 70.5935C142.509 71.0347 142.95 72.3583 143.833 71.9171C144.539 71.5641 145.304 70.5935 145.598 70.1523C145.745 69.6954 145.774 68.8305 144.715 69.0258Z" stroke="#BFBFBF"/>
    <path d="M140.956 222.812L121.32 196.143L185.365 136.609L187.244 136.575L197.717 156.571L143.069 223.164L140.956 222.812Z" fill="white" stroke="#BFBFBF"/>
    <path d="M143.206 222.747L123.904 195.976L187.631 136.739L205.726 164.054L143.206 222.747Z" fill="white" stroke="#BFBFBF"/>
    <path d="M194.529 155.818L190.062 151.15L189.392 151.792L192.627 155.172L192.583 155.213L187.978 153.158L187.422 153.69L189.272 158.378L189.228 158.42L185.996 155.042L185.325 155.683L189.793 160.351L190.648 159.533L188.661 154.482L188.716 154.43L193.674 156.636L194.529 155.818Z" fill="#FFBB00"/>
    <path d="M184.308 156.657L183.604 157.331L185.552 159.366L183.569 161.264L184.147 161.868L186.13 159.97L187.491 161.393L185.3 163.489L185.881 164.095L188.775 161.325L184.308 156.657Z" fill="#FFBB00"/>
    <path d="M178.758 168.086L178.036 168.778C179.063 169.537 180.443 169.422 181.45 168.458C182.658 167.302 182.67 165.548 181.243 164.057C179.83 162.58 178.094 162.482 176.829 163.693C175.696 164.777 175.598 166.294 176.726 167.473L177.234 168.004L179.069 166.248L178.512 165.666L177.359 166.77C176.655 166.003 176.696 165.051 177.444 164.335C178.267 163.548 179.462 163.596 180.548 164.732C181.63 165.862 181.621 167.062 180.83 167.819C180.21 168.413 179.464 168.472 178.758 168.086Z" fill="#FFBB00"/>
    <path d="M176.458 169.759C176.209 169.997 176.196 170.398 176.438 170.651C176.676 170.9 177.08 170.906 177.328 170.669C177.579 170.429 177.588 170.027 177.35 169.779C177.108 169.526 176.709 169.519 176.458 169.759ZM174.22 167.421C173.971 167.658 173.958 168.06 174.2 168.313C174.438 168.561 174.842 168.568 175.09 168.33C175.341 168.09 175.35 167.689 175.112 167.44C174.87 167.187 174.471 167.181 174.22 167.421Z" fill="#FFBB00"/>
    <path d="M172.313 168.137L169.24 171.077L169.818 171.681L171.92 169.67L171.952 169.704L171.954 171.563C171.926 173.245 172.077 173.891 172.576 174.413C173.294 175.163 174.455 175.152 175.334 174.31C176.207 173.475 176.305 172.299 175.489 171.446L174.816 172.09C175.299 172.589 175.289 173.227 174.785 173.709C174.311 174.163 173.672 174.216 173.227 173.751C172.832 173.338 172.795 172.806 172.788 171.796L172.801 168.647L172.313 168.137Z" fill="#FFBB00"/>
    <path d="M166.683 173.376C165.605 174.407 165.816 175.891 167.28 177.421C168.732 178.939 170.217 179.208 171.286 178.185C172.357 177.16 172.153 175.669 170.701 174.147C169.239 172.619 167.766 172.344 166.683 173.376ZM167.266 173.984C167.897 173.38 168.884 173.649 170.001 174.816C171.111 175.981 171.344 176.986 170.715 177.588C170.088 178.188 169.092 177.914 167.979 176.751C166.863 175.584 166.637 174.586 167.266 173.984Z" fill="#FFBB00"/>
    <path d="M166.942 182.22L167.628 181.563L168.065 179.687L167.419 179.012L167 180.811L166.973 180.837L163.182 176.875L162.475 177.552L166.942 182.22Z" fill="#FFBB00"/>
    <path d="M162.189 179.572L159.976 181.69L159.103 180.778L158.431 181.422L159.304 182.333L158.686 182.925L159.257 183.522L159.875 182.931L162.898 186.09L163.767 185.259L162.735 180.142L162.189 179.572ZM160.543 182.291L162.022 180.876L162.057 180.912L162.8 184.577L162.764 184.612L160.543 182.291Z" fill="#FFBB00"/>
    <path d="M155.326 184.245C154.248 185.276 154.459 186.761 155.922 188.29C157.375 189.808 158.86 190.077 159.929 189.054C161 188.029 160.796 186.538 159.344 185.016C157.882 183.489 156.409 183.213 155.326 184.245ZM155.909 184.853C156.54 184.249 157.527 184.518 158.644 185.685C159.754 186.85 159.986 187.855 159.357 188.457C158.73 189.057 157.735 188.783 156.622 187.62C155.505 186.453 155.28 185.455 155.909 184.853Z" fill="#FFBB00"/>
    <path d="M155.865 192.943C156.854 192.014 156.82 190.697 155.974 189.813C155.119 188.924 153.859 188.898 153.049 189.673C152.555 190.146 152.362 190.793 152.498 191.414L152.461 191.449C151.436 190.374 151.24 189.361 151.924 188.706C152.37 188.279 152.919 188.277 153.392 188.589L154.087 187.924C153.263 187.267 152.169 187.292 151.335 188.091C150.25 189.129 150.463 190.711 152.027 192.346C153.661 194.048 155.026 193.733 155.865 192.943ZM155.296 192.353C154.755 192.87 153.918 192.793 153.427 192.28C152.928 191.763 152.913 190.904 153.446 190.393C153.982 189.881 154.78 189.938 155.299 190.476C155.818 191.019 155.831 191.84 155.296 192.353Z" fill="#FFBB00"/>
    <path d="M151.511 196.988L152.197 196.331L152.633 194.455L151.988 193.781L151.569 195.579L151.541 195.605L147.75 191.644L147.044 192.32L151.511 196.988Z" fill="#FFBB00"/>
    <path d="M145.787 193.522L142.715 196.462L143.293 197.067L145.394 195.055L145.427 195.09L145.429 196.948C145.401 198.63 145.552 199.276 146.051 199.798C146.769 200.548 147.929 200.538 148.809 199.696C149.682 198.86 149.779 197.684 148.964 196.832L148.291 197.475C148.773 197.975 148.764 198.613 148.26 199.095C147.786 199.548 147.147 199.601 146.702 199.136C146.307 198.724 146.269 198.192 146.263 197.181L146.276 194.033L145.787 193.522Z" fill="#FFBB00"/>
    <path d="M147.698 208.864L134.472 193.233L193.599 139.828L204.225 155.163L147.698 208.864Z" fill="#00665C" fill-opacity="0.2" stroke="#078D79" stroke-width="5"/>
    <rect width="122" height="24" transform="translate(75 124)" fill="#078D79"/>
    <path fill-rule="evenodd" clip-rule="evenodd" d="M92 142L93.5 142L95 142L95 140.5L95 139L93.5 139L93.5 140.5L92 140.5L92 142ZM95 133L95 131.5L95 130L93.5 130L92 130L92 131.5L93.5 131.5L93.5 133L95 133ZM83 140.5L83 139L84.5 139L84.5 140.5L86 140.5L86 142L84.5 142L83 142L83 140.5ZM86 130L84.5 130L83 130L83 131.5L83 133L84.5 133L84.5 131.5L86 131.5L86 130Z" fill="white"/>
    <path d="M87.6015 138.4L88.0282 137.216H89.9724L90.4017 138.4H91.4016L89.5785 133.6H88.4221L86.6016 138.4H87.6015ZM88.2807 136.518L88.9801 134.584H89.0205L89.7199 136.518H88.2807Z" fill="white"/>
    <path d="M105.057 131.273V140H106.045V133.369H106.131L108.858 140H109.812L112.54 133.369H112.625V140H113.614V131.273H112.352L109.386 138.517H109.284L106.318 131.273H105.057ZM115.637 140H116.693V136.097H120.478V135.159H116.693V132.21H120.87V131.273H115.637V140ZM128.549 134H129.64C129.317 132.312 127.902 131.153 126.061 131.153C123.824 131.153 122.243 132.875 122.243 135.636C122.243 138.398 123.811 140.119 126.129 140.119C128.209 140.119 129.692 138.734 129.692 136.574V135.636H126.368V136.574H128.669C128.639 138.142 127.608 139.131 126.129 139.131C124.51 139.131 123.265 137.903 123.265 135.636C123.265 133.369 124.51 132.142 126.061 132.142C127.322 132.142 128.179 132.854 128.549 134ZM132.002 138.884C132.424 138.884 132.769 138.538 132.769 138.116C132.769 137.695 132.424 137.349 132.002 137.349C131.58 137.349 131.235 137.695 131.235 138.116C131.235 138.538 131.58 138.884 132.002 138.884ZM132.002 134.469C132.424 134.469 132.769 134.124 132.769 133.702C132.769 133.28 132.424 132.935 132.002 132.935C131.58 132.935 131.235 133.28 131.235 133.702C131.235 134.124 131.58 134.469 132.002 134.469ZM134.461 140H139.966V139.062H135.91V138.994L137.87 136.898C139.37 135.291 139.813 134.541 139.813 133.574C139.813 132.227 138.722 131.153 137.188 131.153C135.658 131.153 134.495 132.193 134.495 133.727H135.501C135.501 132.734 136.144 132.074 137.154 132.074C138.1 132.074 138.824 132.653 138.824 133.574C138.824 134.379 138.351 134.976 137.341 136.08L134.461 139.233V140ZM144.477 140.119C146.403 140.119 147.511 138.487 147.511 135.636C147.511 132.807 146.386 131.153 144.477 131.153C142.568 131.153 141.443 132.807 141.443 135.636C141.443 138.487 142.551 140.119 144.477 140.119ZM144.477 139.182C143.207 139.182 142.466 137.908 142.466 135.636C142.466 133.369 143.216 132.074 144.477 132.074C145.738 132.074 146.488 133.369 146.488 135.636C146.488 137.908 145.747 139.182 144.477 139.182ZM152.103 131.273H151.046L148.864 132.722V133.795L150.995 132.381H151.046V140H152.103V131.273ZM154.312 138.21H158.42V140H159.426V138.21H160.619V137.273H159.426V131.273H158.147L154.312 137.341V138.21ZM158.42 137.273H155.454V137.205L158.352 132.619H158.42V137.273ZM164.966 140.119C166.893 140.119 168 138.487 168 135.636C168 132.807 166.875 131.153 164.966 131.153C163.057 131.153 161.932 132.807 161.932 135.636C161.932 138.487 163.04 140.119 164.966 140.119ZM164.966 139.182C163.696 139.182 162.955 137.908 162.955 135.636C162.955 133.369 163.705 132.074 164.966 132.074C166.228 132.074 166.978 133.369 166.978 135.636C166.978 137.908 166.236 139.182 164.966 139.182ZM172.302 131.153C170.529 131.132 169.387 132.466 169.387 134.068C169.387 135.756 170.632 136.966 172.132 136.966C173.035 136.966 173.802 136.523 174.279 135.807H174.348C174.348 137.955 173.512 139.182 172.166 139.182C171.245 139.182 170.683 138.602 170.495 137.801H169.456C169.66 139.182 170.7 140.119 172.166 140.119C174.126 140.119 175.336 138.381 175.336 135.278C175.336 132.074 173.734 131.17 172.302 131.153ZM172.302 132.091C173.393 132.091 174.194 133.028 174.194 134.051C174.194 135.091 173.342 136.028 172.268 136.028C171.194 136.028 170.41 135.159 170.41 134.068C170.41 132.977 171.228 132.091 172.302 132.091ZM179.984 131.273H178.927L176.746 132.722V133.795L178.876 132.381H178.927V140H179.984V131.273ZM182.398 140H187.904V139.062H183.847V138.994L185.807 136.898C187.307 135.291 187.75 134.541 187.75 133.574C187.75 132.227 186.66 131.153 185.125 131.153C183.596 131.153 182.432 132.193 182.432 133.727H183.438C183.438 132.734 184.081 132.074 185.091 132.074C186.037 132.074 186.762 132.653 186.762 133.574C186.762 134.379 186.289 134.976 185.279 136.08L182.398 139.233V140Z" fill="#F5F5F5"/>
    <path d="M51.5 78.5H79.5V100.5H51.5V78.5Z" fill="#00665C" fill-opacity="0.2" stroke="#078D79" stroke-width="5"/>
    <rect width="45" height="24" transform="translate(49 52)" fill="#078D79"/>
    <path fill-rule="evenodd" clip-rule="evenodd" d="M66 70L67.5 70L69 70L69 68.5L69 67L67.5 67L67.5 68.5L66 68.5L66 70ZM69 61L69 59.5L69 58L67.5 58L66 58L66 59.5L67.5 59.5L67.5 61L69 61ZM57 68.5L57 67L58.5 67L58.5 68.5L60 68.5L60 70L58.5 70L57 70L57 68.5ZM60 58L58.5 58L57 58L57 59.5L57 61L58.5 61L58.5 59.5L60 59.5L60 58Z" fill="white"/>
    <path d="M61.6015 66.3996L62.0282 65.216H63.9724L64.4017 66.3996H65.4016L63.5785 61.5996H62.4221L60.6016 66.3996H61.6015ZM62.2807 64.5176L62.9801 62.584H63.0205L63.7199 64.5176H62.2807Z" fill="white"/>
    <path d="M78.9034 68H84.4091V67.0625H80.3523V66.9943L82.3125 64.8977C83.8125 63.2912 84.2557 62.5412 84.2557 61.5739C84.2557 60.2273 83.1648 59.1534 81.6307 59.1534C80.1009 59.1534 78.9375 60.1932 78.9375 61.7273H79.9432C79.9432 60.7344 80.5866 60.0739 81.5966 60.0739C82.5426 60.0739 83.267 60.6534 83.267 61.5739C83.267 62.3793 82.794 62.9759 81.7841 64.0795L78.9034 67.233V68Z" fill="#F5F5F5"/>
    </svg>
