<svg width="206" height="190" viewBox="0 0 206 190" fill="none" xmlns="http://www.w3.org/2000/svg">
    <rect x="17.2148" y="4" width="182.785" height="182.785" fill="#F6F7FF"/>
    <rect x="14.5" y="0.5" width="189" height="189" stroke="#A4B2FC" stroke-dasharray="5 5"/>
    <rect x="24.5" y="11.5" width="168" height="168" stroke="#A4B2FC" stroke-dasharray="5 5"/>
    <mask id="mask0" style="mask-type:alpha" maskUnits="userSpaceOnUse" x="0" y="21" width="195" height="146">
    <rect x="0.5" y="21.7168" width="193.937" height="143.81" fill="#F6F7FF" stroke="#D9D9D9"/>
    </mask>
    <g mask="url(#mask0)">
    <rect x="63.9062" y="17.9844" width="38.9348" height="38.5616" fill="white" stroke="#BFBFBF"/>
    <path d="M103.949 48.5665C104.881 49.527 104.337 50.8877 103.949 51.4479C101.852 50.0072 63.3996 48.491 62.4674 48.491C61.5352 48.491 61.0689 46.4054 62.2341 45.9251C63.3993 45.4449 102.784 47.3659 103.949 48.5665Z" fill="white" stroke="#BFBFBF"/>
    <path d="M103.58 52.2969C104.504 53.2574 103.965 54.6181 103.58 55.1784C101.501 53.7377 63.3834 52.2214 62.4594 52.2214C61.5353 52.2214 61.073 50.1358 62.2281 49.6556C63.3832 49.1753 102.425 51.0963 103.58 52.2969Z" fill="white" stroke="#BFBFBF"/>
    <path d="M104.324 56.0294C105.256 56.9899 104.712 58.3506 104.324 58.9108C102.227 57.4701 63.7746 55.9539 62.8424 55.9539C61.9102 55.9539 61.4439 53.8683 62.6091 53.388C63.7743 52.9078 103.159 54.8287 104.324 56.0294Z" fill="white" stroke="#BFBFBF"/>
    <path d="M103.949 41.1016C104.881 42.0621 104.337 43.4228 103.949 43.9831C101.852 42.5424 63.3996 41.0261 62.4674 41.0261C61.5352 41.0261 61.0689 38.9405 62.2341 38.4603C63.3993 37.98 102.784 39.901 103.949 41.1016Z" fill="white" stroke="#BFBFBF"/>
    <path d="M103.58 44.8341C104.504 45.7945 103.965 47.1552 103.58 47.7155C101.501 46.2748 63.3834 44.7585 62.4594 44.7585C61.5353 44.7585 61.073 42.6729 62.2281 42.1927C63.3832 41.7125 102.425 43.6334 103.58 44.8341Z" fill="white" stroke="#BFBFBF"/>
    <path d="M103.949 33.8307C104.881 34.7271 104.337 35.9971 103.949 36.52C101.852 35.1754 63.3996 33.7602 62.4674 33.7602C61.5352 33.7602 61.0689 31.8136 62.2341 31.3654C63.3993 30.9172 102.784 32.7101 103.949 33.8307Z" fill="white" stroke="#BFBFBF"/>
    <path d="M103.58 37.3673C104.504 38.3277 103.965 39.6884 103.58 40.2487C101.501 38.808 63.3834 37.2917 62.4594 37.2917C61.5353 37.2917 61.073 35.2061 62.2281 34.7259C63.3832 34.2457 102.425 36.1666 103.58 37.3673Z" fill="white" stroke="#BFBFBF"/>
    <path d="M103.949 26.3639C104.881 27.2603 104.337 28.5303 103.949 29.0532C101.852 27.7086 63.3996 26.2934 62.4674 26.2934C61.5352 26.2934 61.0689 24.3468 62.2341 23.8986C63.3993 23.4504 102.784 25.2433 103.949 26.3639Z" fill="white" stroke="#BFBFBF"/>
    <path d="M103.58 30.0963C104.504 30.9927 103.965 32.2627 103.58 32.7857C101.501 31.441 63.3834 30.0258 62.4594 30.0258C61.5353 30.0258 61.073 28.0793 62.2281 27.631C63.3832 27.1828 102.425 28.9757 103.58 30.0963Z" fill="white" stroke="#BFBFBF"/>
    <path d="M103.949 23.0064C104.881 23.9029 104.337 25.1729 103.949 25.6958C101.852 24.3511 63.3996 22.936 62.4674 22.936C61.5352 22.936 61.0689 20.9894 62.2341 20.5412C63.3993 20.0929 102.784 21.8859 103.949 23.0064Z" fill="white" stroke="#BFBFBF"/>
    <path d="M103.58 19.2721C104.504 20.1685 103.965 21.4385 103.58 21.9614C101.501 20.6168 63.3834 19.2016 62.4594 19.2016C61.5353 19.2016 61.073 17.255 62.2281 16.8068C63.3832 16.3586 102.425 18.1515 103.58 19.2721Z" fill="white" stroke="#BFBFBF"/>
    <rect x="58.3125" y="16.4922" width="38.9348" height="38.5616" fill="white" stroke="#BFBFBF"/>
    <path d="M98.3551 47.0723C99.2873 48.0328 98.7435 49.3935 98.3551 49.9538C96.2579 48.5131 57.8058 46.9968 56.8737 46.9968C55.9415 46.9968 55.4752 44.9112 56.6404 44.431C57.8056 43.9507 97.1899 45.8717 98.3551 47.0723Z" fill="white" stroke="#BFBFBF"/>
    <path d="M97.9864 50.8048C98.9104 51.7652 98.3714 53.1259 97.9864 53.6862C95.9073 52.2455 57.7897 50.7292 56.8656 50.7292C55.9415 50.7292 55.4793 48.6436 56.6344 48.1634C57.7894 47.6832 96.8313 49.6041 97.9864 50.8048Z" fill="white" stroke="#BFBFBF"/>
    <path d="M98.7301 54.5372C99.6623 55.4977 99.1185 56.8584 98.7301 57.4187C96.6329 55.9779 58.1808 54.4617 57.2487 54.4617C56.3165 54.4617 55.8502 52.3761 57.0154 51.8958C58.1806 51.4156 97.5649 53.3366 98.7301 54.5372Z" fill="white" stroke="#BFBFBF"/>
    <path d="M98.3551 39.6094C99.2873 40.5699 98.7435 41.9306 98.3551 42.4909C96.2579 41.0502 57.8058 39.5339 56.8737 39.5339C55.9415 39.5339 55.4752 37.4483 56.6404 36.9681C57.8056 36.4878 97.1899 38.4088 98.3551 39.6094Z" fill="white" stroke="#BFBFBF"/>
    <path d="M97.9864 43.3419C98.9104 44.3024 98.3714 45.6631 97.9864 46.2233C95.9073 44.7826 57.7897 43.2664 56.8656 43.2664C55.9415 43.2664 55.4793 41.1808 56.6344 40.7005C57.7894 40.2203 96.8313 42.1412 97.9864 43.3419Z" fill="white" stroke="#BFBFBF"/>
    <path d="M98.3551 32.3365C99.2873 33.233 98.7435 34.503 98.3551 35.0259C96.2579 33.6812 57.8058 32.266 56.8737 32.266C55.9415 32.266 55.4752 30.3195 56.6404 29.8713C57.8056 29.423 97.1899 31.2159 98.3551 32.3365Z" fill="white" stroke="#BFBFBF"/>
    <path d="M97.9864 35.877C98.9104 36.8375 98.3714 38.1982 97.9864 38.7585C95.9073 37.3178 57.7897 35.8015 56.8656 35.8015C55.9415 35.8015 55.4793 33.7159 56.6344 33.2357C57.7894 32.7554 96.8313 34.6764 97.9864 35.877Z" fill="white" stroke="#BFBFBF"/>
    <path d="M98.3551 24.8736C99.2873 25.7701 98.7435 27.0401 98.3551 27.563C96.2579 26.2183 57.8058 24.8032 56.8737 24.8032C55.9415 24.8032 55.4752 22.8566 56.6404 22.4084C57.8056 21.9601 97.1899 23.7531 98.3551 24.8736Z" fill="white" stroke="#BFBFBF"/>
    <path d="M97.9864 28.6021C98.9104 29.4986 98.3714 30.7686 97.9864 31.2915C95.9073 29.9468 57.7897 28.5317 56.8656 28.5317C55.9415 28.5317 55.4793 26.5851 56.6344 26.1369C57.7894 25.6887 96.8313 27.4816 97.9864 28.6021Z" fill="white" stroke="#BFBFBF"/>
    <path d="M98.3551 21.5143C99.2873 22.4107 98.7435 23.6807 98.3551 24.2036C96.2579 22.8589 57.8058 21.4438 56.8737 21.4438C55.9415 21.4438 55.4752 19.4972 56.6404 19.049C57.8056 18.6008 97.1899 20.3937 98.3551 21.5143Z" fill="white" stroke="#BFBFBF"/>
    <rect x="40.0273" y="42.6152" width="16.9147" height="13.9289" fill="white" stroke="#BFBFBF"/>
    <rect x="43.5352" y="21.7148" width="9.63293" height="14.1899" fill="white" stroke="#BFBFBF"/>
    <rect x="38.9102" y="34.7773" width="4.22512" height="8.33056" fill="white" stroke="#BFBFBF"/>
    <rect x="43.7656" y="34.7773" width="9.45023" height="8.33056" fill="white" stroke="#BFBFBF"/>
    <rect x="53.8438" y="34.7773" width="4.22512" height="8.33056" fill="white" stroke="#BFBFBF"/>
    <rect x="25.0977" y="63.1426" width="221.441" height="20.2737" fill="white" stroke="#BFBFBF"/>
    <rect x="10.168" y="82.1777" width="191.583" height="86.7073" fill="white" stroke="#BFBFBF"/>
    <rect x="10.168" y="82.1777" width="4.22512" height="86.7073" fill="white" stroke="#BFBFBF"/>
    <rect x="29.207" y="82.1777" width="4.22512" height="86.7073" fill="white" stroke="#BFBFBF"/>
    <rect x="51.2227" y="82.1777" width="3.85189" height="86.7073" fill="white" stroke="#BFBFBF"/>
    <rect x="70.2578" y="82.1777" width="3.85189" height="86.7073" fill="white" stroke="#BFBFBF"/>
    <rect x="13.5" y="56.5" width="185" height="7" fill="white" stroke="#BFBFBF"/>
    <rect x="7.92969" y="82.1777" width="193.822" height="6.09123" fill="white" stroke="#BFBFBF"/>
    <rect x="81.832" y="84.416" width="107.981" height="109.101" fill="white" stroke="#BFBFBF"/>
    <path d="M93.1641 110.388H98.498L100.403 107.34H104.975L106.118 110.388H111.452L104.975 92.0996H99.26L93.1641 110.388Z" stroke="#BFBFBF"/>
    <path d="M119.454 110.388H116.787H116.215C114.006 110.388 112.215 108.597 112.215 106.388V96.0996C112.215 93.8905 114.006 92.0996 116.215 92.0996H120.216C124.178 93.6236 123.264 98.9576 121.74 100.482C126.693 104.292 122.502 110.388 119.454 110.388Z" stroke="#BFBFBF"/>
    <path d="M132.028 110.388H129.361H128.789C126.58 110.388 124.789 108.597 124.789 106.388V96.0996C124.789 93.8905 126.58 92.0996 128.789 92.0996H132.79C136.752 93.6236 135.838 98.9576 134.314 100.482C139.267 104.292 135.076 110.388 132.028 110.388Z" stroke="#BFBFBF"/>
    <path d="M95.6924 119.224H97.4833C97.4574 117.648 96.1628 116.561 94.195 116.561C92.2574 116.561 90.8377 117.631 90.8463 119.237C90.842 120.54 91.7612 121.286 93.2543 121.644L94.2166 121.886C95.1789 122.119 95.714 122.395 95.7183 122.991C95.714 123.638 95.1012 124.078 94.1518 124.078C93.1809 124.078 92.4818 123.63 92.4214 122.745H90.6133C90.6607 124.657 92.0287 125.645 94.1734 125.645C96.3311 125.645 97.5998 124.613 97.6041 122.995C97.5998 121.524 96.4907 120.743 94.9545 120.397L94.1605 120.207C93.3923 120.031 92.7494 119.746 92.7623 119.111C92.7623 118.542 93.2672 118.123 94.182 118.123C95.0753 118.123 95.6234 118.529 95.6924 119.224Z" fill="#FFBB00"/>
    <path d="M98.8592 125.52H104.832V123.979H100.728V121.869H104.508V120.328H100.728V118.222H104.814V116.682H98.8592V125.52Z" fill="#FFBB00"/>
    <path d="M106.298 125.52H108.167V122.387H109.53L111.205 125.52H113.267L111.39 122.085C112.396 121.653 112.952 120.777 112.952 119.569C112.952 117.812 111.792 116.682 109.785 116.682H106.298V125.52ZM108.167 120.885V118.209H109.427C110.506 118.209 111.028 118.688 111.028 119.569C111.028 120.445 110.506 120.885 109.435 120.885H108.167Z" fill="#FFBB00"/>
    <path d="M113.935 118.222H115.484V123.979H113.935V125.52H118.902V123.979H117.352V118.222H118.902V116.682H113.935V118.222Z" fill="#FFBB00"/>
    <path d="M121.62 125.52L122.275 123.504H125.464L126.12 125.52H128.123L125.076 116.682H122.668L119.617 125.52H121.62ZM122.75 122.046L123.838 118.701H123.907L124.994 122.046H122.75Z" fill="#FFBB00"/>
    <path d="M129.185 125.52H134.842V123.979H131.053V116.682H129.185V125.52Z" fill="#FFBB00"/>
    <path d="M139.893 116.268H138.309L135.461 126.849H137.044L139.893 116.268Z" fill="#FFBB00"/>
    <path d="M145.605 119.224H147.396C147.37 117.648 146.076 116.561 144.108 116.561C142.17 116.561 140.751 117.631 140.759 119.237C140.755 120.54 141.674 121.286 143.167 121.644L144.13 121.886C145.092 122.119 145.627 122.395 145.631 122.991C145.627 123.638 145.014 124.078 144.065 124.078C143.094 124.078 142.395 123.63 142.334 122.745H140.526C140.574 124.657 141.942 125.645 144.086 125.645C146.244 125.645 147.513 124.613 147.517 122.995C147.513 121.524 146.404 120.743 144.867 120.397L144.073 120.207C143.305 120.031 142.662 119.746 142.675 119.111C142.675 118.542 143.18 118.123 144.095 118.123C144.988 118.123 145.536 118.529 145.605 119.224Z" fill="#FFBB00"/>
    <path d="M148.772 125.52H154.745V123.979H150.641V121.869H154.421V120.328H150.641V118.222H154.727V116.682H148.772V125.52Z" fill="#FFBB00"/>
    <path d="M156.211 125.52H158.08V122.387H159.443L161.118 125.52H163.18L161.303 122.085C162.309 121.653 162.865 120.777 162.865 119.569C162.865 117.812 161.705 116.682 159.698 116.682H156.211V125.52ZM158.08 120.885V118.209H159.34C160.419 118.209 160.941 118.688 160.941 119.569C160.941 120.445 160.419 120.885 159.348 120.885H158.08Z" fill="#FFBB00"/>
    <path d="M163.848 118.222H165.397V123.979H163.848V125.52H168.815V123.979H167.265V118.222H168.815V116.682H163.848V118.222Z" fill="#FFBB00"/>
    <path d="M170.009 125.52H175.982V123.979H171.878V121.869H175.658V120.328H171.878V118.222H175.964V116.682H170.009V125.52Z" fill="#FFBB00"/>
    <path d="M178.488 120.16C179.041 120.16 179.52 119.698 179.524 119.124C179.52 118.559 179.041 118.097 178.488 118.097C177.919 118.097 177.448 118.559 177.453 119.124C177.448 119.698 177.919 120.16 178.488 120.16ZM178.488 124.493C179.041 124.493 179.52 124.031 179.524 123.457C179.52 122.892 179.041 122.43 178.488 122.43C177.919 122.43 177.448 122.892 177.453 123.457C177.448 124.031 177.919 124.493 178.488 124.493Z" fill="#FFBB00"/>
    <path d="M119.573 155.968H123.815V157.521H125.602V155.968H126.698V154.47H125.602V148.684H123.263L119.573 154.496V155.968ZM123.85 154.47H121.455V154.401L123.781 150.72H123.85V154.47Z" fill="#FFBB00"/>
    <path d="M131.139 148.563C129.162 148.554 127.829 149.849 127.838 151.627C127.842 153.275 128.985 154.47 130.552 154.47C131.523 154.47 132.386 154 132.779 153.223H132.839C132.835 154.975 132.226 156.041 131.074 156.041C130.397 156.041 129.909 155.67 129.767 155.027H127.924C128.097 156.516 129.305 157.642 131.074 157.642C133.262 157.642 134.673 155.873 134.669 152.874C134.664 149.672 132.956 148.571 131.139 148.563ZM131.152 150.03C132.011 150.03 132.645 150.729 132.653 151.571C132.658 152.416 131.989 153.115 131.135 153.115C130.271 153.115 129.654 152.442 129.65 151.575C129.641 150.712 130.284 150.03 131.152 150.03Z" fill="#FFBB00"/>
    <path d="M136.074 157.521H138.003L141.671 150.233V148.684H135.47V150.211H139.738V150.272L136.074 157.521Z" fill="#FFBB00"/>
    <path d="M142.95 157.521H149.25V155.994H145.539V155.933L146.829 154.669C148.646 153.012 149.134 152.183 149.134 151.178C149.134 149.646 147.882 148.563 145.988 148.563C144.132 148.563 142.859 149.672 142.863 151.407H144.637C144.633 150.561 145.168 150.043 145.975 150.043C146.751 150.043 147.33 150.526 147.33 151.303C147.33 152.006 146.898 152.49 146.096 153.262L142.95 156.175V157.521Z" fill="#FFBB00"/>
    <path d="M150.279 155.968H154.521V157.521H156.307V155.968H157.403V154.47H156.307V148.684H153.968L150.279 154.496V155.968ZM154.555 154.47H152.16V154.401L154.486 150.72H154.555V154.47Z" fill="#FFBB00"/>
    <path d="M162.373 148.684H160.616L158.429 150.069V151.726L160.452 150.457H160.504V157.521H162.373V148.684Z" fill="#FFBB00"/>
    <path d="M164.471 157.521H170.772V155.994H167.061V155.933L168.351 154.669C170.168 153.012 170.655 152.183 170.655 151.178C170.655 149.646 169.404 148.563 167.509 148.563C165.654 148.563 164.381 149.672 164.385 151.407H166.159C166.154 150.561 166.69 150.043 167.497 150.043C168.273 150.043 168.852 150.526 168.852 151.303C168.852 152.006 168.42 152.49 167.617 153.262L164.471 156.175V157.521Z" fill="#FFBB00"/>
    <path d="M175.516 157.642C177.484 157.651 178.826 156.361 178.821 154.561C178.826 152.904 177.669 151.709 176.103 151.709C175.132 151.709 174.273 152.175 173.876 152.956H173.816C173.824 151.234 174.428 150.164 175.581 150.164C176.258 150.164 176.746 150.535 176.888 151.152H178.731C178.554 149.698 177.346 148.563 175.581 148.563C173.397 148.563 171.995 150.332 171.986 153.301C171.982 156.538 173.699 157.634 175.516 157.642ZM175.507 156.175C174.644 156.175 174.006 155.48 174.006 154.617C174.01 153.758 174.661 153.059 175.52 153.059C176.383 153.059 177.013 153.737 177.009 154.613C177.013 155.498 176.37 156.175 175.507 156.175Z" fill="#FFBB00"/>
    </g>
    <path d="M106.5 144.5H203.5V163.5H106.5V144.5Z" fill="#C945DB" fill-opacity="0.2" stroke="#C945DB" stroke-width="5"/>
    <rect width="94" height="24" transform="translate(104 118)" fill="#C945DB"/>
    <path fill-rule="evenodd" clip-rule="evenodd" d="M115 135.413L112 130.135L115 124.857L115 124.858H115L116.082 126.762L114.164 130.136L116.082 133.509L115 135.412H115L115 135.413ZM116.082 133.51L116.082 133.509L118 130.135L118 130.135L116.082 133.51ZM121.946 130.136H118L118 130.135L118 130.135L118 130.135L118 130.135H121.945L121.946 130.136ZM123.999 130.136H121.946L121.946 130.136L120.001 133.559L116.11 133.559L116.082 133.51L115 135.412H121L123.999 130.136ZM124 130.135L123.999 130.136H124L124 130.135ZM123.999 130.135H121.945L120.001 126.713L116.11 126.713L116.082 126.761L115 124.858L121 124.858L123.999 130.135ZM123.999 130.135L124 130.135L124 130.135H123.999ZM118 130.135L118 130.135L116.082 126.762L116.082 126.761L118 130.135Z" fill="#F5F5F5"/>
    <path d="M133.699 132.21H137.807V134H138.812V132.21H140.006V131.273H138.812V125.273H137.534L133.699 131.341V132.21ZM137.807 131.273H134.841V131.205L137.739 126.619H137.807V131.273ZM144.285 125.153C142.512 125.132 141.37 126.466 141.37 128.068C141.37 129.756 142.615 130.966 144.115 130.966C145.018 130.966 145.785 130.523 146.262 129.807H146.33C146.33 131.955 145.495 133.182 144.149 133.182C143.228 133.182 142.666 132.602 142.478 131.801H141.438C141.643 133.182 142.683 134.119 144.149 134.119C146.109 134.119 147.319 132.381 147.319 129.278C147.319 126.074 145.717 125.17 144.285 125.153ZM144.285 126.091C145.376 126.091 146.177 127.028 146.177 128.051C146.177 129.091 145.325 130.028 144.251 130.028C143.177 130.028 142.393 129.159 142.393 128.068C142.393 126.977 143.211 126.091 144.285 126.091ZM148.937 134H150.045L153.932 126.261V125.273H148.341V126.21H152.841V126.278L148.937 134ZM155.424 134H160.93V133.062H156.873V132.994L158.833 130.898C160.333 129.291 160.776 128.541 160.776 127.574C160.776 126.227 159.685 125.153 158.151 125.153C156.621 125.153 155.458 126.193 155.458 127.727H156.464C156.464 126.734 157.107 126.074 158.117 126.074C159.063 126.074 159.788 126.653 159.788 127.574C159.788 128.379 159.315 128.976 158.305 130.08L155.424 133.233V134ZM162.202 132.21H166.31V134H167.315V132.21H168.508V131.273H167.315V125.273H166.037L162.202 131.341V132.21ZM166.31 131.273H163.344V131.205L166.241 126.619H166.31V131.273ZM172.96 125.273H171.904L169.722 126.722V127.795L171.852 126.381H171.904V134H172.96V125.273ZM175.374 134H180.88V133.062H176.823V132.994L178.783 130.898C180.283 129.291 180.727 128.541 180.727 127.574C180.727 126.227 179.636 125.153 178.102 125.153C176.572 125.153 175.408 126.193 175.408 127.727H176.414C176.414 126.734 177.058 126.074 178.067 126.074C179.013 126.074 179.738 126.653 179.738 127.574C179.738 128.379 179.265 128.976 178.255 130.08L175.374 133.233V134ZM185.442 134.119C187.206 134.141 188.356 132.811 188.356 131.188C188.356 129.5 187.108 128.29 185.612 128.29C184.713 128.29 183.942 128.729 183.464 129.449H183.396C183.4 127.322 184.227 126.091 185.578 126.091C186.498 126.091 187.052 126.67 187.248 127.455H188.288C188.075 126.099 187.044 125.153 185.578 125.153C183.614 125.153 182.408 126.892 182.408 129.977C182.408 133.203 184.01 134.102 185.442 134.119ZM185.442 133.182C184.346 133.182 183.545 132.249 183.55 131.205C183.554 130.161 184.393 129.227 185.476 129.227C186.545 129.227 187.334 130.105 187.334 131.188C187.334 132.295 186.511 133.182 185.442 133.182Z" fill="#F5F5F5"/>
    </svg>
