<svg width="65" height="64" viewBox="0 0 65 64" fill="none" xmlns="http://www.w3.org/2000/svg">
<path d="M32.2501 59.1875C26.3426 59.1875 20.7813 58.6387 16.5913 57.6437C12.0088 56.5537 9.68506 55.1087 9.68506 53.3475V10.6525C9.68506 8.89125 12.0088 7.44625 16.5913 6.35625C20.7813 5.35625 26.3413 4.8125 32.2501 4.8125C38.1588 4.8125 43.7188 5.36125 47.9088 6.35625C52.4913 7.44625 54.815 8.89125 54.815 10.6525V53.3475C54.815 55.1087 52.4913 56.5537 47.9088 57.6437C43.7188 58.6387 38.1576 59.1875 32.2501 59.1875ZM32.2501 6.0625C19.0438 6.0625 10.9351 8.73625 10.9351 10.6525V53.3475C10.9351 55.2637 19.0438 57.9375 32.2501 57.9375C45.4563 57.9375 53.565 55.2637 53.565 53.3475V10.6525C53.565 8.73625 45.4563 6.0625 32.2501 6.0625Z" fill="#4255BB"/>
<path d="M29.1251 26.8275C25.4588 26.7025 21.9813 26.3413 19.1026 25.7913C15.8151 25.1663 14.1176 24.4363 13.4351 24.0263V16.6713C14.4776 17.015 15.4138 17.2375 16.0138 17.38C19.6313 18.24 24.2026 18.78 29.1251 18.9413V26.8275Z" fill="#6E85FC"/>
<path d="M29.1251 40.97C25.4588 40.8388 21.9813 40.4825 19.1026 39.9325C15.8151 39.3075 14.1176 38.5775 13.4351 38.1688V30.8125C14.4776 31.1563 15.4138 31.3787 16.0138 31.5213C19.6313 32.3813 24.2026 32.9213 29.1251 33.0825V40.97Z" fill="#6E85FC"/>
<path d="M29.1251 55.31C25.4588 55.185 21.9813 54.8225 19.1026 54.2725C15.8151 53.6475 14.1176 52.9175 13.4351 52.5087V45.1525C14.4776 45.4962 15.4138 45.7187 16.0138 45.8612C19.6313 46.7212 24.2026 47.2612 29.1251 47.4225V55.31Z" fill="#6E85FC"/>
<path d="M32.2501 16.4912C26.3426 16.4912 20.7813 15.9437 16.5913 14.9475C12.0088 13.8587 9.68506 12.4125 9.68506 10.6525H10.9351C10.9351 12.5687 19.0438 15.2412 32.2501 15.2412C45.4563 15.2412 53.565 12.5687 53.565 10.6525H54.815C54.815 12.4125 52.4913 13.8587 47.9088 14.9475C43.7188 15.9437 38.1576 16.4912 32.2501 16.4912Z" fill="#4255BB"/>
<path d="M32.2501 30.6337C26.3426 30.6337 20.7813 30.085 16.5913 29.0887C12.0088 28 9.68506 26.555 9.68506 24.7937H10.9351C10.9351 26.71 19.0438 29.3837 32.2501 29.3837C45.4563 29.3837 53.565 26.71 53.565 24.7937H54.815C54.815 26.555 52.4913 28 47.9088 29.0887C43.7188 30.085 38.1576 30.6337 32.2501 30.6337Z" fill="#4255BB"/>
<path d="M32.2501 44.9738C26.3426 44.9738 20.7813 44.425 16.5913 43.4288C12.0088 42.34 9.68506 40.895 9.68506 39.1338H10.9351C10.9351 41.05 19.0438 43.7238 32.2501 43.7238C45.4563 43.7238 53.565 41.05 53.565 39.1338H54.815C54.815 40.895 52.4913 42.34 47.9088 43.4288C43.7188 44.425 38.1576 44.9738 32.2501 44.9738Z" fill="#4255BB"/>
</svg>
