<svg width="228" height="24" viewBox="0 0 228 24" fill="none" xmlns="http://www.w3.org/2000/svg">
<path d="M12.7231 4.992C12.0991 4.32 11.4911 3.872 10.8991 3.648C10.3231 3.424 9.73906 3.312 9.14706 3.312C8.26706 3.312 7.46706 3.472 6.74706 3.792C6.04306 4.096 5.43506 4.528 4.92306 5.088C4.41106 5.632 4.01106 6.272 3.72306 7.008C3.45106 7.744 3.31506 8.536 3.31506 9.384C3.31506 10.296 3.45106 11.136 3.72306 11.904C4.01106 12.672 4.41106 13.336 4.92306 13.896C5.43506 14.456 6.04306 14.896 6.74706 15.216C7.46706 15.536 8.26706 15.696 9.14706 15.696C9.83506 15.696 10.4991 15.536 11.1391 15.216C11.7951 14.88 12.4031 14.352 12.9631 13.632L15.4591 15.408C14.6911 16.464 13.7551 17.232 12.6511 17.712C11.5471 18.192 10.3711 18.432 9.12306 18.432C7.81106 18.432 6.60306 18.224 5.49906 17.808C4.41106 17.376 3.46706 16.776 2.66706 16.008C1.88306 15.224 1.26706 14.288 0.819056 13.2C0.371055 12.112 0.147055 10.904 0.147055 9.576C0.147055 8.216 0.371055 6.984 0.819056 5.88C1.26706 4.76 1.88306 3.808 2.66706 3.024C3.46706 2.24 4.41106 1.64 5.49906 1.224C6.60306 0.791999 7.81106 0.576 9.12306 0.576C10.2751 0.576 11.3391 0.783999 12.3151 1.2C13.3071 1.6 14.2271 2.288 15.0751 3.264L12.7231 4.992ZM16.6454 12.24C16.6454 11.328 16.8054 10.504 17.1254 9.768C17.4614 9.016 17.9094 8.376 18.4694 7.848C19.0294 7.32 19.6934 6.912 20.4614 6.624C21.2294 6.336 22.0454 6.192 22.9094 6.192C23.7734 6.192 24.5894 6.336 25.3574 6.624C26.1254 6.912 26.7894 7.32 27.3494 7.848C27.9094 8.376 28.3494 9.016 28.6694 9.768C29.0054 10.504 29.1734 11.328 29.1734 12.24C29.1734 13.152 29.0054 13.984 28.6694 14.736C28.3494 15.472 27.9094 16.104 27.3494 16.632C26.7894 17.16 26.1254 17.568 25.3574 17.856C24.5894 18.144 23.7734 18.288 22.9094 18.288C22.0454 18.288 21.2294 18.144 20.4614 17.856C19.6934 17.568 19.0294 17.16 18.4694 16.632C17.9094 16.104 17.4614 15.472 17.1254 14.736C16.8054 13.984 16.6454 13.152 16.6454 12.24ZM19.5254 12.24C19.5254 12.688 19.5974 13.12 19.7414 13.536C19.9014 13.952 20.1254 14.32 20.4134 14.64C20.7174 14.96 21.0774 15.216 21.4934 15.408C21.9094 15.6 22.3814 15.696 22.9094 15.696C23.4374 15.696 23.9094 15.6 24.3254 15.408C24.7414 15.216 25.0934 14.96 25.3814 14.64C25.6854 14.32 25.9094 13.952 26.0534 13.536C26.2134 13.12 26.2934 12.688 26.2934 12.24C26.2934 11.792 26.2134 11.36 26.0534 10.944C25.9094 10.528 25.6854 10.16 25.3814 9.84C25.0934 9.52 24.7414 9.264 24.3254 9.072C23.9094 8.88 23.4374 8.784 22.9094 8.784C22.3814 8.784 21.9094 8.88 21.4934 9.072C21.0774 9.264 20.7174 9.52 20.4134 9.84C20.1254 10.16 19.9014 10.528 19.7414 10.944C19.5974 11.36 19.5254 11.792 19.5254 12.24ZM43.7225 6.48V16.968C43.7225 18.008 43.5945 18.944 43.3385 19.776C43.0825 20.624 42.6825 21.336 42.1385 21.912C41.6105 22.504 40.9385 22.96 40.1225 23.28C39.3065 23.6 38.3385 23.76 37.2185 23.76C36.1465 23.76 35.1305 23.624 34.1705 23.352C33.2105 23.08 32.3225 22.584 31.5065 21.864L33.2345 19.512C33.8105 20.04 34.4105 20.448 35.0345 20.736C35.6585 21.024 36.3785 21.168 37.1945 21.168C37.8825 21.168 38.4585 21.072 38.9225 20.88C39.4025 20.688 39.7785 20.424 40.0505 20.088C40.3385 19.752 40.5385 19.344 40.6505 18.864C40.7785 18.4 40.8425 17.88 40.8425 17.304V16.464H40.7945C40.3785 17.024 39.8265 17.448 39.1385 17.736C38.4505 18.008 37.7465 18.144 37.0265 18.144C36.1625 18.144 35.3785 17.992 34.6745 17.688C33.9705 17.368 33.3625 16.944 32.8505 16.416C32.3545 15.888 31.9705 15.264 31.6985 14.544C31.4265 13.824 31.2905 13.056 31.2905 12.24C31.2905 11.392 31.4185 10.6 31.6745 9.864C31.9305 9.128 32.3065 8.488 32.8025 7.944C33.2985 7.4 33.8905 6.976 34.5785 6.672C35.2825 6.352 36.0825 6.192 36.9785 6.192C37.7945 6.192 38.5545 6.352 39.2585 6.672C39.9625 6.992 40.5225 7.504 40.9385 8.208H40.9865V6.48H43.7225ZM37.5785 8.784C37.0665 8.784 36.6025 8.872 36.1865 9.048C35.7705 9.208 35.4105 9.44 35.1065 9.744C34.8185 10.032 34.5865 10.392 34.4105 10.824C34.2505 11.24 34.1705 11.704 34.1705 12.216C34.1705 12.68 34.2505 13.112 34.4105 13.512C34.5865 13.912 34.8265 14.264 35.1305 14.568C35.4345 14.872 35.7945 15.112 36.2105 15.288C36.6265 15.464 37.0745 15.552 37.5545 15.552C38.0825 15.552 38.5545 15.464 38.9705 15.288C39.4025 15.112 39.7625 14.88 40.0505 14.592C40.3545 14.288 40.5865 13.928 40.7465 13.512C40.9065 13.096 40.9865 12.648 40.9865 12.168C40.9865 11.16 40.6825 10.344 40.0745 9.72C39.4665 9.096 38.6345 8.784 37.5785 8.784ZM46.9803 6.48H49.7163V8.328H49.7643C50.0363 7.752 50.4523 7.256 51.0123 6.84C51.5723 6.408 52.3323 6.192 53.2923 6.192C54.0603 6.192 54.7083 6.32 55.2363 6.576C55.7803 6.832 56.2203 7.168 56.5563 7.584C56.8923 8 57.1323 8.48 57.2763 9.024C57.4203 9.568 57.4923 10.136 57.4923 10.728V18H54.6123V12.168C54.6123 11.848 54.5963 11.496 54.5643 11.112C54.5323 10.712 54.4443 10.344 54.3003 10.008C54.1723 9.656 53.9643 9.368 53.6763 9.144C53.3883 8.904 52.9963 8.784 52.5003 8.784C52.0203 8.784 51.6123 8.864 51.2763 9.024C50.9563 9.184 50.6843 9.4 50.4603 9.672C50.2523 9.944 50.1003 10.256 50.0043 10.608C49.9083 10.96 49.8603 11.328 49.8603 11.712V18H46.9803V6.48ZM60.8062 6.48H63.6862V18H60.8062V6.48ZM60.3982 2.568C60.3982 2.104 60.5662 1.704 60.9022 1.368C61.2542 1.016 61.6942 0.839999 62.2222 0.839999C62.7502 0.839999 63.1902 1.008 63.5422 1.344C63.9102 1.664 64.0942 2.072 64.0942 2.568C64.0942 3.064 63.9102 3.48 63.5422 3.816C63.1902 4.136 62.7502 4.296 62.2222 4.296C61.6942 4.296 61.2542 4.128 60.9022 3.792C60.5662 3.44 60.3982 3.032 60.3982 2.568ZM65.6452 8.928V6.48H68.0212V3.144H70.9012V6.48H74.0692V8.928H70.9012V13.968C70.9012 14.544 71.0052 15 71.2132 15.336C71.4372 15.672 71.8692 15.84 72.5092 15.84C72.7652 15.84 73.0452 15.816 73.3492 15.768C73.6532 15.704 73.8932 15.608 74.0692 15.48V17.904C73.7652 18.048 73.3892 18.144 72.9412 18.192C72.5092 18.256 72.1252 18.288 71.7892 18.288C71.0212 18.288 70.3892 18.2 69.8932 18.024C69.4132 17.864 69.0292 17.616 68.7412 17.28C68.4692 16.928 68.2772 16.496 68.1652 15.984C68.0692 15.472 68.0212 14.88 68.0212 14.208V8.928H65.6452ZM78.618 13.248C78.714 14.112 79.05 14.784 79.626 15.264C80.202 15.744 80.898 15.984 81.714 15.984C82.434 15.984 83.034 15.84 83.514 15.552C84.01 15.248 84.442 14.872 84.81 14.424L86.874 15.984C86.202 16.816 85.45 17.408 84.618 17.76C83.786 18.112 82.914 18.288 82.002 18.288C81.138 18.288 80.322 18.144 79.554 17.856C78.786 17.568 78.122 17.16 77.562 16.632C77.002 16.104 76.554 15.472 76.218 14.736C75.898 13.984 75.738 13.152 75.738 12.24C75.738 11.328 75.898 10.504 76.218 9.768C76.554 9.016 77.002 8.376 77.562 7.848C78.122 7.32 78.786 6.912 79.554 6.624C80.322 6.336 81.138 6.192 82.002 6.192C82.802 6.192 83.53 6.336 84.186 6.624C84.858 6.896 85.426 7.296 85.89 7.824C86.37 8.352 86.738 9.008 86.994 9.792C87.266 10.56 87.402 11.448 87.402 12.456V13.248H78.618ZM84.522 11.088C84.506 10.24 84.242 9.576 83.73 9.096C83.218 8.6 82.506 8.352 81.594 8.352C80.73 8.352 80.042 8.6 79.53 9.096C79.034 9.592 78.73 10.256 78.618 11.088H84.522ZM97.454 1.008H104.15C105.27 1.008 106.35 1.184 107.39 1.536C108.43 1.872 109.35 2.392 110.15 3.096C110.95 3.8 111.59 4.688 112.07 5.76C112.55 6.816 112.79 8.064 112.79 9.504C112.79 10.96 112.51 12.224 111.95 13.296C111.406 14.352 110.694 15.232 109.814 15.936C108.95 16.624 107.982 17.144 106.91 17.496C105.854 17.832 104.814 18 103.79 18H97.454V1.008ZM102.734 15.264C103.678 15.264 104.566 15.16 105.398 14.952C106.246 14.728 106.982 14.392 107.606 13.944C108.23 13.48 108.718 12.888 109.07 12.168C109.438 11.432 109.622 10.544 109.622 9.504C109.622 8.48 109.462 7.6 109.142 6.864C108.822 6.128 108.374 5.536 107.798 5.088C107.238 4.624 106.566 4.288 105.782 4.08C105.014 3.856 104.166 3.744 103.238 3.744H100.478V15.264H102.734ZM122.598 16.416H122.526C122.11 17.072 121.582 17.552 120.942 17.856C120.302 18.144 119.598 18.288 118.83 18.288C118.302 18.288 117.782 18.216 117.27 18.072C116.774 17.928 116.326 17.712 115.926 17.424C115.542 17.136 115.23 16.776 114.99 16.344C114.75 15.912 114.63 15.408 114.63 14.832C114.63 14.208 114.742 13.68 114.966 13.248C115.19 12.8 115.486 12.432 115.854 12.144C116.238 11.84 116.678 11.6 117.174 11.424C117.67 11.248 118.182 11.12 118.71 11.04C119.254 10.944 119.798 10.888 120.342 10.872C120.886 10.84 121.398 10.824 121.878 10.824H122.598V10.512C122.598 9.792 122.35 9.256 121.854 8.904C121.358 8.536 120.726 8.352 119.958 8.352C119.35 8.352 118.782 8.464 118.254 8.688C117.726 8.896 117.27 9.184 116.886 9.552L115.374 8.04C116.014 7.384 116.758 6.912 117.606 6.624C118.47 6.336 119.358 6.192 120.27 6.192C121.086 6.192 121.774 6.288 122.334 6.48C122.894 6.656 123.358 6.888 123.726 7.176C124.094 7.464 124.374 7.8 124.566 8.184C124.774 8.552 124.918 8.928 124.998 9.312C125.094 9.696 125.15 10.072 125.166 10.44C125.182 10.792 125.19 11.104 125.19 11.376V18H122.598V16.416ZM122.43 12.84H121.83C121.43 12.84 120.982 12.856 120.486 12.888C119.99 12.92 119.518 13 119.07 13.128C118.638 13.24 118.27 13.416 117.966 13.656C117.662 13.88 117.51 14.2 117.51 14.616C117.51 14.888 117.566 15.12 117.678 15.312C117.806 15.488 117.966 15.64 118.158 15.768C118.35 15.896 118.566 15.992 118.806 16.056C119.046 16.104 119.286 16.128 119.526 16.128C120.518 16.128 121.246 15.896 121.71 15.432C122.19 14.952 122.43 14.304 122.43 13.488V12.84ZM126.941 8.928V6.48H129.317V3.144H132.197V6.48H135.365V8.928H132.197V13.968C132.197 14.544 132.301 15 132.509 15.336C132.733 15.672 133.165 15.84 133.805 15.84C134.061 15.84 134.341 15.816 134.645 15.768C134.949 15.704 135.189 15.608 135.365 15.48V17.904C135.061 18.048 134.685 18.144 134.237 18.192C133.805 18.256 133.421 18.288 133.085 18.288C132.317 18.288 131.685 18.2 131.189 18.024C130.709 17.864 130.325 17.616 130.037 17.28C129.765 16.928 129.573 16.496 129.461 15.984C129.365 15.472 129.317 14.88 129.317 14.208V8.928H126.941ZM144.81 16.416H144.738C144.322 17.072 143.794 17.552 143.154 17.856C142.514 18.144 141.81 18.288 141.042 18.288C140.514 18.288 139.994 18.216 139.482 18.072C138.986 17.928 138.538 17.712 138.138 17.424C137.754 17.136 137.442 16.776 137.202 16.344C136.962 15.912 136.842 15.408 136.842 14.832C136.842 14.208 136.954 13.68 137.178 13.248C137.402 12.8 137.698 12.432 138.066 12.144C138.45 11.84 138.89 11.6 139.386 11.424C139.882 11.248 140.394 11.12 140.922 11.04C141.466 10.944 142.01 10.888 142.554 10.872C143.098 10.84 143.61 10.824 144.09 10.824H144.81V10.512C144.81 9.792 144.562 9.256 144.066 8.904C143.57 8.536 142.938 8.352 142.17 8.352C141.562 8.352 140.994 8.464 140.466 8.688C139.938 8.896 139.482 9.184 139.098 9.552L137.586 8.04C138.226 7.384 138.97 6.912 139.818 6.624C140.682 6.336 141.57 6.192 142.482 6.192C143.298 6.192 143.986 6.288 144.546 6.48C145.106 6.656 145.57 6.888 145.938 7.176C146.306 7.464 146.586 7.8 146.778 8.184C146.986 8.552 147.13 8.928 147.21 9.312C147.306 9.696 147.362 10.072 147.378 10.44C147.394 10.792 147.402 11.104 147.402 11.376V18H144.81V16.416ZM144.642 12.84H144.042C143.642 12.84 143.194 12.856 142.698 12.888C142.202 12.92 141.73 13 141.282 13.128C140.85 13.24 140.482 13.416 140.178 13.656C139.874 13.88 139.722 14.2 139.722 14.616C139.722 14.888 139.778 15.12 139.89 15.312C140.018 15.488 140.178 15.64 140.37 15.768C140.562 15.896 140.778 15.992 141.018 16.056C141.258 16.104 141.498 16.128 141.738 16.128C142.73 16.128 143.458 15.896 143.922 15.432C144.402 14.952 144.642 14.304 144.642 13.488V12.84ZM157.859 1.008H168.827V3.744H160.883V8.208H168.371V10.944H160.883V18H157.859V1.008ZM181.885 18H179.149V16.152H179.101C178.829 16.728 178.413 17.232 177.853 17.664C177.293 18.08 176.533 18.288 175.573 18.288C174.805 18.288 174.149 18.168 173.605 17.928C173.077 17.672 172.645 17.336 172.309 16.92C171.973 16.488 171.733 16 171.589 15.456C171.445 14.912 171.373 14.344 171.373 13.752V6.48H174.253V12.312C174.253 12.632 174.269 12.992 174.301 13.392C174.333 13.776 174.413 14.144 174.541 14.496C174.685 14.832 174.893 15.12 175.165 15.36C175.453 15.584 175.853 15.696 176.365 15.696C176.845 15.696 177.245 15.616 177.565 15.456C177.901 15.296 178.173 15.08 178.381 14.808C178.605 14.536 178.765 14.224 178.861 13.872C178.957 13.52 179.005 13.152 179.005 12.768V6.48H181.885V18ZM191.295 9.672C190.735 8.888 189.983 8.496 189.039 8.496C188.655 8.496 188.279 8.592 187.911 8.784C187.543 8.976 187.359 9.288 187.359 9.72C187.359 10.072 187.511 10.328 187.815 10.488C188.119 10.648 188.503 10.784 188.967 10.896C189.431 11.008 189.927 11.128 190.455 11.256C190.999 11.368 191.503 11.552 191.967 11.808C192.431 12.048 192.815 12.384 193.119 12.816C193.423 13.248 193.575 13.84 193.575 14.592C193.575 15.28 193.423 15.864 193.119 16.344C192.831 16.808 192.447 17.184 191.967 17.472C191.503 17.76 190.975 17.968 190.383 18.096C189.791 18.224 189.199 18.288 188.607 18.288C187.711 18.288 186.887 18.16 186.135 17.904C185.383 17.648 184.711 17.184 184.119 16.512L186.039 14.712C186.407 15.128 186.799 15.472 187.215 15.744C187.647 16 188.167 16.128 188.775 16.128C188.983 16.128 189.199 16.104 189.423 16.056C189.647 16.008 189.855 15.928 190.047 15.816C190.239 15.704 190.391 15.568 190.503 15.408C190.631 15.232 190.695 15.032 190.695 14.808C190.695 14.408 190.543 14.112 190.239 13.92C189.935 13.728 189.551 13.576 189.087 13.464C188.623 13.336 188.119 13.224 187.575 13.128C187.047 13.016 186.551 12.848 186.087 12.624C185.623 12.384 185.239 12.056 184.935 11.64C184.631 11.224 184.479 10.648 184.479 9.912C184.479 9.272 184.607 8.72 184.863 8.256C185.135 7.776 185.487 7.384 185.919 7.08C186.351 6.776 186.847 6.552 187.407 6.408C187.967 6.264 188.535 6.192 189.111 6.192C189.879 6.192 190.639 6.328 191.391 6.6C192.143 6.856 192.751 7.304 193.215 7.944L191.295 9.672ZM195.86 6.48H198.74V18H195.86V6.48ZM195.452 2.568C195.452 2.104 195.62 1.704 195.956 1.368C196.308 1.016 196.748 0.839999 197.276 0.839999C197.804 0.839999 198.244 1.008 198.596 1.344C198.964 1.664 199.148 2.072 199.148 2.568C199.148 3.064 198.964 3.48 198.596 3.816C198.244 4.136 197.804 4.296 197.276 4.296C196.748 4.296 196.308 4.128 195.956 3.792C195.62 3.44 195.452 3.032 195.452 2.568ZM201.467 12.24C201.467 11.328 201.627 10.504 201.947 9.768C202.283 9.016 202.731 8.376 203.291 7.848C203.851 7.32 204.515 6.912 205.283 6.624C206.051 6.336 206.867 6.192 207.731 6.192C208.595 6.192 209.411 6.336 210.179 6.624C210.947 6.912 211.611 7.32 212.171 7.848C212.731 8.376 213.171 9.016 213.491 9.768C213.827 10.504 213.995 11.328 213.995 12.24C213.995 13.152 213.827 13.984 213.491 14.736C213.171 15.472 212.731 16.104 212.171 16.632C211.611 17.16 210.947 17.568 210.179 17.856C209.411 18.144 208.595 18.288 207.731 18.288C206.867 18.288 206.051 18.144 205.283 17.856C204.515 17.568 203.851 17.16 203.291 16.632C202.731 16.104 202.283 15.472 201.947 14.736C201.627 13.984 201.467 13.152 201.467 12.24ZM204.347 12.24C204.347 12.688 204.419 13.12 204.563 13.536C204.723 13.952 204.947 14.32 205.235 14.64C205.539 14.96 205.899 15.216 206.315 15.408C206.731 15.6 207.203 15.696 207.731 15.696C208.259 15.696 208.731 15.6 209.147 15.408C209.563 15.216 209.915 14.96 210.203 14.64C210.507 14.32 210.731 13.952 210.875 13.536C211.035 13.12 211.115 12.688 211.115 12.24C211.115 11.792 211.035 11.36 210.875 10.944C210.731 10.528 210.507 10.16 210.203 9.84C209.915 9.52 209.563 9.264 209.147 9.072C208.731 8.88 208.259 8.784 207.731 8.784C207.203 8.784 206.731 8.88 206.315 9.072C205.899 9.264 205.539 9.52 205.235 9.84C204.947 10.16 204.723 10.528 204.563 10.944C204.419 11.36 204.347 11.792 204.347 12.24ZM216.688 6.48H219.424V8.328H219.472C219.744 7.752 220.16 7.256 220.72 6.84C221.28 6.408 222.04 6.192 223 6.192C223.768 6.192 224.416 6.32 224.944 6.576C225.488 6.832 225.928 7.168 226.264 7.584C226.6 8 226.84 8.48 226.984 9.024C227.128 9.568 227.2 10.136 227.2 10.728V18H224.32V12.168C224.32 11.848 224.304 11.496 224.272 11.112C224.24 10.712 224.152 10.344 224.008 10.008C223.88 9.656 223.672 9.368 223.384 9.144C223.096 8.904 222.704 8.784 222.208 8.784C221.728 8.784 221.32 8.864 220.984 9.024C220.664 9.184 220.392 9.4 220.168 9.672C219.96 9.944 219.808 10.256 219.712 10.608C219.616 10.96 219.568 11.328 219.568 11.712V18H216.688V6.48Z" fill="#333333"/>
</svg>
