<svg id="Layer_1" data-name="Layer 1" xmlns="http://www.w3.org/2000/svg" viewBox="0 0 1000 1000"><defs><style>.cls-1{fill:#010101;}</style></defs><title>Cognite</title><g id="Group_6673" data-name="Group 6673"><path id="Path_1966" data-name="Path 1966" class="cls-1" d="M703.58,328.24V294.63a29.28,29.28,0,0,0-58.56,0V337.3c-16.88,3.88-36.38,7.76-55.9,11.65V197.57a29.1,29.1,0,0,0-29.73-28.46h-.15a28.78,28.78,0,0,0-28.6,28.45V363.21a10,10,0,0,0-5.21,1.29c-18.18,3.89-35.08,7.77-52,11.65V248.06a28.62,28.62,0,0,0-57.22,0V389c-20.8,3.9-39,7.78-57.19,10.36v-66a28.62,28.62,0,1,0-57.23,0v73.73c-65,7.76-102.68,5.18-106.61-6.51C186,381.21,245.84,354,262.74,345v-1.28h-1.3c-16.9,6.45-89.71,36.2-80.6,62.08,9.09,28.47,120.9,36.23,353.64-20.69,195-47.88,284.75-56.93,293.86-38.81,6.51,15.5-41.62,45.28-88.41,66a4.74,4.74,0,0,0-1.3,3.86c1.3,1.3,2.58,2.59,3.91,1.3,16.88-6.5,105.31-44,101.38-75-3.87-20.69-50.69-27.17-140.4-14.23M302.09,464.41V486.1a28.31,28.31,0,0,0,56.61,0V458a514.94,514.94,0,0,1-56.61,6.4m114.29-16v78.87A28.31,28.31,0,1,0,473,528.39q0-.55,0-1.11V436.77a485.24,485.24,0,0,1-56.61,11.64"/><path id="Path_1967" data-name="Path 1967" class="cls-1" d="M534.57,424.17h-3.9V479.6a29.39,29.39,0,0,0,58.73,0V411.28c-17,3.88-35.23,7.73-54.83,12.91M645,398.43v33.44a29.08,29.08,0,0,0,29.86,28.28H675a28.75,28.75,0,0,0,28.67-28.27v-45q-25.44,5.76-58.75,11.56"/></g><path class="cls-1" d="M142.53,740.17a25.5,25.5,0,0,0-9.45-7.2,31.41,31.41,0,0,0-13-2.51,32.43,32.43,0,0,0-24.52,10.79,37.1,37.1,0,0,0-7.2,12.14,46.34,46.34,0,0,0,0,30.55,37.92,37.92,0,0,0,7.12,12,32,32,0,0,0,10.63,8,30.68,30.68,0,0,0,13.14,2.85,29.5,29.5,0,0,0,14.23-3.35,28.44,28.44,0,0,0,10.21-9.37l21.76,16.23a45.22,45.22,0,0,1-19.09,15.57,59,59,0,0,1-23.77,5A73,73,0,0,1,97,826.54a58.62,58.62,0,0,1-20.25-12.47A56.54,56.54,0,0,1,63.44,794.4a72.05,72.05,0,0,1,0-51.56,56.5,56.5,0,0,1,13.31-19.66A58.64,58.64,0,0,1,97,710.7a73,73,0,0,1,25.61-4.35,63.22,63.22,0,0,1,10.47.92,57.14,57.14,0,0,1,10.71,2.93,47.88,47.88,0,0,1,10.13,5.36,40.58,40.58,0,0,1,8.7,8.2Z"/><path class="cls-1" d="M194.26,768.62A67,67,0,0,1,199,742.84a56.5,56.5,0,0,1,13.31-19.66,58.64,58.64,0,0,1,20.25-12.48,77.56,77.56,0,0,1,51.22,0,58.59,58.59,0,0,1,20.26,12.48,56.5,56.5,0,0,1,13.31,19.66,72.05,72.05,0,0,1,0,51.56,56.54,56.54,0,0,1-13.31,19.67,58.57,58.57,0,0,1-20.26,12.47,77.56,77.56,0,0,1-51.22,0,58.62,58.62,0,0,1-20.25-12.47A56.54,56.54,0,0,1,199,794.4,66.93,66.93,0,0,1,194.26,768.62Zm27.12,0A43.48,43.48,0,0,0,224,783.94a35,35,0,0,0,7.45,12,33.83,33.83,0,0,0,11.63,8,41.69,41.69,0,0,0,30.3,0A33.87,33.87,0,0,0,285,796a35.3,35.3,0,0,0,7.45-12,46.34,46.34,0,0,0,0-30.55A35.22,35.22,0,0,0,285,741.25a34.14,34.14,0,0,0-11.64-8,41.83,41.83,0,0,0-30.3,0,34.1,34.1,0,0,0-11.63,8A34.92,34.92,0,0,0,224,753.39,43.68,43.68,0,0,0,221.38,768.62Z"/><path class="cls-1" d="M468.11,819.51a94.58,94.58,0,0,1-24.1,8.71,122.8,122.8,0,0,1-25.61,2.67,73,73,0,0,1-25.61-4.35,58.57,58.57,0,0,1-20.26-12.47,56.54,56.54,0,0,1-13.31-19.67,72.05,72.05,0,0,1,0-51.56,56.5,56.5,0,0,1,13.31-19.66,58.59,58.59,0,0,1,20.26-12.48,73,73,0,0,1,25.61-4.35,95.06,95.06,0,0,1,26.19,3.43,51.3,51.3,0,0,1,21,11.81l-18.41,20.08a36.79,36.79,0,0,0-12.05-8.37q-6.7-2.84-16.74-2.84a38.92,38.92,0,0,0-15.15,2.84,34.14,34.14,0,0,0-11.64,8,35.07,35.07,0,0,0-7.45,12.14,46.34,46.34,0,0,0,0,30.55,35.15,35.15,0,0,0,7.45,12,33.87,33.87,0,0,0,11.64,8,38.74,38.74,0,0,0,15.15,2.85,49.69,49.69,0,0,0,14.73-1.93,55,55,0,0,0,9.87-3.93V781.68H421.74V757.57h46.37Z"/><path class="cls-1" d="M512,709.37h35.49l50.38,82.35h.34V709.37h26.11V827.88H590.14l-51.72-84.37h-.34v84.37H512Z"/><path class="cls-1" d="M669,709.37H695.1V827.88H669Z"/><path class="cls-1" d="M762.72,732.47H728.91v-23.1h93.74v23.1H788.84v95.41H762.72Z"/><path class="cls-1" d="M857.8,709.37h80.52v24.1H883.91v22.1H935.3v24.1H883.91v24.11h57.42v24.1H857.8Z"/></svg>