<svg width="432" height="114" viewBox="0 0 432 114" fill="none" xmlns="http://www.w3.org/2000/svg">
<rect x="8" y="8.93994" width="301" height="40" rx="20" fill="#F1F3F4"/>
<path fill-rule="evenodd" clip-rule="evenodd" d="M29.5106 28.2086H31.7038C31.8916 26.5396 32.6071 24.9674 33.4497 23.6226C31.3727 24.2271 29.7999 26.0155 29.5106 28.2086ZM35 23.9229C34.1183 25.2241 33.3861 26.7007 33.1778 28.2086H36.8222C36.6139 26.7007 35.8817 25.2241 35 23.9229ZM36.8222 29.6713C36.6139 31.1792 35.8817 32.6558 35 33.957C34.1183 32.6558 33.3861 31.1792 33.1778 29.6713H36.8222ZM31.7038 29.6713H29.5106C29.7999 31.8644 31.3727 33.6528 33.4497 34.2573C32.6071 32.9124 31.8916 31.3403 31.7038 29.6713ZM36.5503 34.2573C37.3929 32.9124 38.1084 31.3403 38.2962 29.6713H40.4894C40.2001 31.8644 38.6273 33.6528 36.5503 34.2573ZM40.4894 28.2086H38.2962C38.1084 26.5396 37.3929 24.9674 36.5503 23.6226C38.6273 24.2271 40.2001 26.0155 40.4894 28.2086ZM28 28.9399C28 25.0739 31.134 21.9399 35 21.9399C38.866 21.9399 42 25.0739 42 28.9399C42 32.8059 38.866 35.9399 35 35.9399C31.134 35.9399 28 32.8059 28 28.9399Z" fill="#333333"/>
<path d="M56.2078 29.4655V33.9399H54.4081V23.7581H56.1681V27.6012H56.2575C56.4365 27.1703 56.7133 26.8306 57.0878 26.582C57.4656 26.3301 57.9462 26.2041 58.5296 26.2041C59.0599 26.2041 59.5222 26.3152 59.9166 26.5372C60.311 26.7593 60.616 27.0841 60.8314 27.5117C61.0502 27.9392 61.1595 28.4612 61.1595 29.0777V33.9399H59.3598V29.3561C59.3598 28.8424 59.2272 28.443 58.9621 28.158C58.7003 27.8696 58.3324 27.7255 57.8584 27.7255C57.5402 27.7255 57.2552 27.7951 57.0033 27.9343C56.7547 28.0701 56.5592 28.2674 56.4166 28.5259C56.2774 28.7844 56.2078 29.0976 56.2078 29.4655ZM66.8073 26.3036V27.6956H62.4173V26.3036H66.8073ZM63.5012 24.474H65.3009V31.6431C65.3009 31.885 65.3373 32.0706 65.4102 32.1999C65.4865 32.3258 65.5859 32.412 65.7085 32.4584C65.8312 32.5048 65.9671 32.528 66.1162 32.528C66.2289 32.528 66.3316 32.5197 66.4244 32.5032C66.5206 32.4866 66.5935 32.4717 66.6432 32.4584L66.9465 33.8654C66.8503 33.8985 66.7128 33.935 66.5338 33.9747C66.3582 34.0145 66.1427 34.0377 65.8875 34.0443C65.4368 34.0576 65.0307 33.9897 64.6695 33.8405C64.3082 33.688 64.0215 33.4527 63.8094 33.1345C63.6006 32.8164 63.4978 32.4186 63.5012 31.9414V24.474ZM72.1256 26.3036V27.6956H67.7357V26.3036H72.1256ZM68.8195 24.474H70.6192V31.6431C70.6192 31.885 70.6557 32.0706 70.7286 32.1999C70.8048 32.3258 70.9043 32.412 71.0269 32.4584C71.1495 32.5048 71.2854 32.528 71.4346 32.528C71.5473 32.528 71.65 32.5197 71.7428 32.5032C71.8389 32.4866 71.9118 32.4717 71.9616 32.4584L72.2648 33.8654C72.1687 33.8985 72.0312 33.935 71.8522 33.9747C71.6765 34.0145 71.4611 34.0377 71.2059 34.0443C70.7551 34.0576 70.3491 33.9897 69.9878 33.8405C69.6266 33.688 69.3399 33.4527 69.1278 33.1345C68.9189 32.8164 68.8162 32.4186 68.8195 31.9414V24.474ZM73.6308 36.8036V26.3036H75.4007V27.5664H75.5051C75.5979 27.3808 75.7288 27.1835 75.8978 26.9747C76.0669 26.7626 76.2955 26.582 76.5839 26.4328C76.8722 26.2804 77.2401 26.2041 77.6876 26.2041C78.2776 26.2041 78.8095 26.355 79.2835 26.6566C79.7607 26.9549 80.1386 27.3973 80.417 27.984C80.6987 28.5673 80.8396 29.2832 80.8396 30.1317C80.8396 30.9702 80.702 31.6828 80.4269 32.2695C80.1518 32.8561 79.7773 33.3036 79.3034 33.6118C78.8294 33.9201 78.2925 34.0742 77.6926 34.0742C77.2551 34.0742 76.8921 34.0013 76.6038 33.8554C76.3154 33.7096 76.0834 33.5339 75.9078 33.3284C75.7354 33.1196 75.6012 32.9224 75.5051 32.7368H75.4305V36.8036H73.6308ZM75.3957 30.1218C75.3957 30.6156 75.4653 31.0481 75.6045 31.4193C75.747 31.7906 75.9508 32.0806 76.216 32.2894C76.4845 32.4949 76.8093 32.5976 77.1904 32.5976C77.5882 32.5976 77.9213 32.4916 78.1897 32.2794C78.4582 32.064 78.6604 31.7707 78.7963 31.3995C78.9355 31.0249 79.0051 30.599 79.0051 30.1218C79.0051 29.6478 78.9371 29.2269 78.8012 28.859C78.6653 28.4911 78.4632 28.2027 78.1947 27.9939C77.9262 27.7851 77.5915 27.6807 77.1904 27.6807C76.806 27.6807 76.4795 27.7818 76.211 27.984C75.9426 28.1862 75.7387 28.4695 75.5995 28.8341C75.4636 29.1987 75.3957 29.6279 75.3957 30.1218ZM88.4163 28.322L86.7757 28.501C86.7293 28.3353 86.6481 28.1795 86.532 28.0337C86.4194 27.8879 86.2669 27.7702 86.0747 27.6807C85.8824 27.5912 85.6471 27.5465 85.3687 27.5465C84.9942 27.5465 84.6793 27.6277 84.4241 27.7901C84.1722 27.9525 84.0479 28.163 84.0512 28.4215C84.0479 28.6435 84.1291 28.8242 84.2948 28.9634C84.4639 29.1026 84.7423 29.2169 85.1301 29.3064L86.4326 29.5848C87.1552 29.7406 87.6921 29.9875 88.0434 30.3256C88.3981 30.6637 88.577 31.1061 88.5803 31.653C88.577 32.1336 88.4362 32.5578 88.1578 32.9257C87.8827 33.2903 87.4999 33.5754 87.0093 33.7809C86.5188 33.9863 85.9553 34.0891 85.319 34.0891C84.3843 34.0891 83.632 33.8935 83.0619 33.5024C82.4918 33.108 82.1521 32.5595 82.0427 31.8568L83.7977 31.6878C83.8772 32.0325 84.0463 32.2927 84.3048 32.4684C84.5633 32.644 84.8997 32.7318 85.314 32.7318C85.7416 32.7318 86.0846 32.644 86.3431 32.4684C86.605 32.2927 86.7359 32.0756 86.7359 31.8171C86.7359 31.5983 86.6514 31.4177 86.4823 31.2752C86.3166 31.1326 86.0581 31.0233 85.7068 30.947L84.4042 30.6736C83.6717 30.5211 83.1298 30.2643 82.7785 29.903C82.4272 29.5384 82.2532 29.0777 82.2565 28.5209C82.2532 28.0503 82.3808 27.6426 82.6393 27.2979C82.9011 26.9499 83.2641 26.6814 83.7281 26.4925C84.1954 26.3003 84.734 26.2041 85.3438 26.2041C86.2387 26.2041 86.943 26.3947 87.4568 26.7759C87.9738 27.157 88.2936 27.6724 88.4163 28.322ZM91.173 34.0493C90.8714 34.0493 90.6129 33.9433 90.3975 33.7311C90.182 33.519 90.076 33.2605 90.0793 32.9556C90.076 32.6573 90.182 32.4021 90.3975 32.1899C90.6129 31.9778 90.8714 31.8718 91.173 31.8718C91.4647 31.8718 91.7182 31.9778 91.9337 32.1899C92.1524 32.4021 92.2635 32.6573 92.2668 32.9556C92.2635 33.1577 92.2104 33.3417 92.1077 33.5074C92.0083 33.6731 91.8757 33.8057 91.71 33.9051C91.5476 34.0013 91.3686 34.0493 91.173 34.0493ZM91.173 28.6005C90.8714 28.6005 90.6129 28.4944 90.3975 28.2823C90.182 28.0668 90.076 27.8083 90.0793 27.5067C90.076 27.2084 90.182 26.9532 90.3975 26.7411C90.6129 26.5256 90.8714 26.4179 91.173 26.4179C91.4647 26.4179 91.7182 26.5256 91.9337 26.7411C92.1524 26.9532 92.2635 27.2084 92.2668 27.5067C92.2635 27.7056 92.2104 27.8879 92.1077 28.0536C92.0083 28.2193 91.8757 28.3519 91.71 28.4513C91.5476 28.5507 91.3686 28.6005 91.173 28.6005ZM98.2812 23.2808L94.9999 35.4712H93.4239L96.7052 23.2808H98.2812ZM103.586 23.2808L100.305 35.4712H98.7286L102.01 23.2808H103.586Z" fill="#696A6C"/>
<path d="M107.568 34.0742C106.968 34.0742 106.431 33.9201 105.957 33.6118C105.483 33.3036 105.109 32.8561 104.834 32.2695C104.559 31.6828 104.421 30.9702 104.421 30.1317C104.421 29.2832 104.56 28.5673 104.839 27.984C105.12 27.3973 105.5 26.9549 105.977 26.6566C106.454 26.355 106.986 26.2041 107.573 26.2041C108.021 26.2041 108.388 26.2804 108.677 26.4328C108.965 26.582 109.194 26.7626 109.363 26.9747C109.532 27.1835 109.663 27.3808 109.756 27.5664H109.83V23.7581H111.635V33.9399H109.865V32.7368H109.756C109.663 32.9224 109.529 33.1196 109.353 33.3284C109.177 33.5339 108.945 33.7096 108.657 33.8554C108.369 34.0013 108.006 34.0742 107.568 34.0742ZM108.07 32.5976C108.451 32.5976 108.776 32.4949 109.045 32.2894C109.313 32.0806 109.517 31.7906 109.656 31.4193C109.795 31.0481 109.865 30.6156 109.865 30.1218C109.865 29.6279 109.795 29.1987 109.656 28.8341C109.52 28.4695 109.318 28.1862 109.05 27.984C108.784 27.7818 108.458 27.6807 108.07 27.6807C107.669 27.6807 107.334 27.7851 107.066 27.9939C106.797 28.2027 106.595 28.4911 106.459 28.859C106.324 29.2269 106.256 29.6478 106.256 30.1218C106.256 30.599 106.324 31.0249 106.459 31.3995C106.599 31.7707 106.802 32.064 107.071 32.2794C107.343 32.4916 107.676 32.5976 108.07 32.5976ZM116.884 34.0891C116.138 34.0891 115.492 33.925 114.945 33.5969C114.398 33.2688 113.974 32.8097 113.672 32.2198C113.374 31.6298 113.225 30.9404 113.225 30.1516C113.225 29.3628 113.374 28.6717 113.672 28.0784C113.974 27.4852 114.398 27.0245 114.945 26.6963C115.492 26.3682 116.138 26.2041 116.884 26.2041C117.629 26.2041 118.276 26.3682 118.823 26.6963C119.369 27.0245 119.792 27.4852 120.09 28.0784C120.392 28.6717 120.543 29.3628 120.543 30.1516C120.543 30.9404 120.392 31.6298 120.09 32.2198C119.792 32.8097 119.369 33.2688 118.823 33.5969C118.276 33.925 117.629 34.0891 116.884 34.0891ZM116.894 32.6473C117.298 32.6473 117.636 32.5363 117.908 32.3142C118.18 32.0889 118.382 31.7872 118.514 31.4094C118.65 31.0316 118.718 30.6106 118.718 30.1466C118.718 29.6793 118.65 29.2567 118.514 28.8789C118.382 28.4977 118.18 28.1944 117.908 27.9691C117.636 27.7437 117.298 27.631 116.894 27.631C116.479 27.631 116.135 27.7437 115.859 27.9691C115.588 28.1944 115.384 28.4977 115.248 28.8789C115.115 29.2567 115.049 29.6793 115.049 30.1466C115.049 30.6106 115.115 31.0316 115.248 31.4094C115.384 31.7872 115.588 32.0889 115.859 32.3142C116.135 32.5363 116.479 32.6473 116.894 32.6473ZM122.07 33.9399V26.3036H123.79V27.6012H123.88C124.039 27.1637 124.302 26.8223 124.67 26.577C125.038 26.3284 125.477 26.2041 125.988 26.2041C126.505 26.2041 126.941 26.3301 127.295 26.582C127.653 26.8306 127.905 27.1703 128.051 27.6012H128.131C128.3 27.1769 128.585 26.8389 128.986 26.587C129.39 26.3318 129.869 26.2041 130.422 26.2041C131.125 26.2041 131.699 26.4262 132.143 26.8703C132.587 27.3145 132.809 27.9624 132.809 28.8142V33.9399H131.004V29.0926C131.004 28.6187 130.878 28.2723 130.626 28.0536C130.374 27.8315 130.066 27.7205 129.702 27.7205C129.267 27.7205 128.928 27.8564 128.682 28.1282C128.44 28.3966 128.32 28.7463 128.32 29.1772V33.9399H126.555V29.0181C126.555 28.6237 126.435 28.3088 126.197 28.0735C125.961 27.8381 125.653 27.7205 125.272 27.7205C125.013 27.7205 124.778 27.7868 124.566 27.9193C124.354 28.0486 124.185 28.2326 124.059 28.4712C123.933 28.7065 123.87 28.9816 123.87 29.2965V33.9399H122.07ZM136.832 34.0941C136.348 34.0941 135.912 34.0079 135.525 33.8355C135.14 33.6599 134.835 33.4014 134.61 33.06C134.388 32.7186 134.277 32.2977 134.277 31.7972C134.277 31.3663 134.356 31.01 134.515 30.7283C134.674 30.4466 134.892 30.2212 135.167 30.0522C135.442 29.8831 135.752 29.7555 136.096 29.6693C136.444 29.5799 136.804 29.5152 137.175 29.4755C137.623 29.4291 137.986 29.3876 138.264 29.3512C138.542 29.3114 138.745 29.2517 138.87 29.1722C139 29.0893 139.064 28.9617 139.064 28.7894V28.7595C139.064 28.385 138.953 28.095 138.731 27.8895C138.509 27.684 138.189 27.5813 137.772 27.5813C137.331 27.5813 136.981 27.6774 136.723 27.8696C136.468 28.0619 136.295 28.2889 136.206 28.5507L134.525 28.3121C134.658 27.8481 134.877 27.4603 135.182 27.1487C135.486 26.8339 135.859 26.5986 136.3 26.4428C136.741 26.2837 137.228 26.2041 137.762 26.2041C138.13 26.2041 138.496 26.2472 138.861 26.3334C139.225 26.4196 139.558 26.5621 139.86 26.761C140.161 26.9565 140.403 27.2233 140.586 27.5614C140.771 27.8995 140.864 28.322 140.864 28.8291V33.9399H139.134V32.8909H139.074C138.965 33.1031 138.811 33.3019 138.612 33.4875C138.416 33.6698 138.169 33.8173 137.871 33.93C137.576 34.0394 137.23 34.0941 136.832 34.0941ZM137.299 32.7716C137.661 32.7716 137.974 32.7004 138.239 32.5578C138.504 32.412 138.708 32.2198 138.851 31.9811C138.996 31.7425 139.069 31.4823 139.069 31.2006V30.3007C139.013 30.3471 138.917 30.3902 138.781 30.43C138.648 30.4698 138.499 30.5046 138.334 30.5344C138.168 30.5642 138.004 30.5907 137.841 30.6139C137.679 30.6371 137.538 30.657 137.419 30.6736C137.15 30.7101 136.91 30.7697 136.698 30.8526C136.486 30.9354 136.318 31.0514 136.196 31.2006C136.073 31.3464 136.012 31.5353 136.012 31.7674C136.012 32.0988 136.133 32.349 136.375 32.5181C136.617 32.6871 136.925 32.7716 137.299 32.7716ZM142.674 33.9399V26.3036H144.473V33.9399H142.674ZM143.579 25.2198C143.294 25.2198 143.048 25.1253 142.843 24.9364C142.637 24.7442 142.535 24.5138 142.535 24.2453C142.535 23.9736 142.637 23.7432 142.843 23.5543C143.048 23.3621 143.294 23.2659 143.579 23.2659C143.867 23.2659 144.112 23.3621 144.314 23.5543C144.52 23.7432 144.623 23.9736 144.623 24.2453C144.623 24.5138 144.52 24.7442 144.314 24.9364C144.112 25.1253 143.867 25.2198 143.579 25.2198ZM148.124 29.4655V33.9399H146.324V26.3036H148.044V27.6012H148.134C148.309 27.1736 148.59 26.8339 148.974 26.582C149.362 26.3301 149.841 26.2041 150.411 26.2041C150.938 26.2041 151.397 26.3168 151.788 26.5422C152.182 26.7676 152.487 27.0941 152.703 27.5216C152.921 27.9492 153.029 28.4679 153.026 29.0777V33.9399H151.226V29.3561C151.226 28.8457 151.094 28.4463 150.828 28.158C150.567 27.8696 150.204 27.7255 149.74 27.7255C149.425 27.7255 149.145 27.7951 148.899 27.9343C148.657 28.0701 148.467 28.2674 148.328 28.5259C148.192 28.7844 148.124 29.0976 148.124 29.4655Z" fill="url(#paint0_linear_625_28940)"/>
<path d="M155.964 34.0493C155.662 34.0493 155.404 33.9433 155.188 33.7311C154.973 33.519 154.867 33.2605 154.87 32.9556C154.867 32.6573 154.973 32.4021 155.188 32.1899C155.404 31.9778 155.662 31.8718 155.964 31.8718C156.256 31.8718 156.509 31.9778 156.725 32.1899C156.943 32.4021 157.054 32.6573 157.058 32.9556C157.054 33.1577 157.001 33.3417 156.899 33.5074C156.799 33.6731 156.667 33.8057 156.501 33.9051C156.339 34.0013 156.16 34.0493 155.964 34.0493ZM162.784 26.3036V27.6956H158.27V26.3036H162.784ZM159.398 33.9399V25.5827C159.398 25.069 159.504 24.6414 159.716 24.3C159.932 23.9586 160.22 23.7034 160.581 23.5344C160.943 23.3654 161.344 23.2808 161.785 23.2808C162.096 23.2808 162.373 23.3057 162.615 23.3554C162.857 23.4051 163.036 23.4499 163.152 23.4897L162.794 24.8817C162.718 24.8585 162.621 24.8353 162.505 24.8121C162.389 24.7856 162.26 24.7723 162.118 24.7723C161.783 24.7723 161.546 24.8535 161.407 25.0159C161.271 25.175 161.203 25.4037 161.203 25.702V33.9399H159.398ZM169.06 30.7283V26.3036H170.86V33.9399H169.115V32.5827H169.036C168.863 33.0103 168.58 33.3599 168.185 33.6317C167.794 33.9035 167.312 34.0394 166.739 34.0394C166.238 34.0394 165.796 33.9283 165.411 33.7063C165.03 33.4809 164.732 33.1544 164.516 32.7269C164.301 32.296 164.193 31.7756 164.193 31.1658V26.3036H165.993V30.8874C165.993 31.3713 166.126 31.7558 166.391 32.0408C166.656 32.3258 167.004 32.4684 167.435 32.4684C167.7 32.4684 167.957 32.4037 168.205 32.2745C168.454 32.1452 168.658 31.953 168.817 31.6978C168.979 31.4392 169.06 31.1161 169.06 30.7283ZM178.746 28.322L177.106 28.501C177.059 28.3353 176.978 28.1795 176.862 28.0337C176.749 27.8879 176.597 27.7702 176.405 27.6807C176.213 27.5912 175.977 27.5465 175.699 27.5465C175.324 27.5465 175.009 27.6277 174.754 27.7901C174.502 27.9525 174.378 28.163 174.381 28.4215C174.378 28.6435 174.459 28.8242 174.625 28.9634C174.794 29.1026 175.072 29.2169 175.46 29.3064L176.763 29.5848C177.485 29.7406 178.022 29.9875 178.373 30.3256C178.728 30.6637 178.907 31.1061 178.91 31.653C178.907 32.1336 178.766 32.5578 178.488 32.9257C178.213 33.2903 177.83 33.5754 177.339 33.7809C176.849 33.9863 176.285 34.0891 175.649 34.0891C174.714 34.0891 173.962 33.8935 173.392 33.5024C172.822 33.108 172.482 32.5595 172.373 31.8568L174.128 31.6878C174.207 32.0325 174.376 32.2927 174.635 32.4684C174.893 32.644 175.23 32.7318 175.644 32.7318C176.072 32.7318 176.415 32.644 176.673 32.4684C176.935 32.2927 177.066 32.0756 177.066 31.8171C177.066 31.5983 176.981 31.4177 176.812 31.2752C176.647 31.1326 176.388 31.0233 176.037 30.947L174.734 30.6736C174.002 30.5211 173.46 30.2643 173.109 29.903C172.757 29.5384 172.583 29.0777 172.587 28.5209C172.583 28.0503 172.711 27.6426 172.969 27.2979C173.231 26.9499 173.594 26.6814 174.058 26.4925C174.525 26.3003 175.064 26.2041 175.674 26.2041C176.569 26.2041 177.273 26.3947 177.787 26.7759C178.304 27.157 178.624 27.6724 178.746 28.322ZM180.394 33.9399V26.3036H182.194V33.9399H180.394ZM181.299 25.2198C181.014 25.2198 180.769 25.1253 180.563 24.9364C180.358 24.7442 180.255 24.5138 180.255 24.2453C180.255 23.9736 180.358 23.7432 180.563 23.5543C180.769 23.3621 181.014 23.2659 181.299 23.2659C181.588 23.2659 181.833 23.3621 182.035 23.5543C182.241 23.7432 182.343 23.9736 182.343 24.2453C182.343 24.5138 182.241 24.7442 182.035 24.9364C181.833 25.1253 181.588 25.2198 181.299 25.2198ZM187.376 34.0891C186.63 34.0891 185.984 33.925 185.437 33.5969C184.89 33.2688 184.466 32.8097 184.164 32.2198C183.866 31.6298 183.717 30.9404 183.717 30.1516C183.717 29.3628 183.866 28.6717 184.164 28.0784C184.466 27.4852 184.89 27.0245 185.437 26.6963C185.984 26.3682 186.63 26.2041 187.376 26.2041C188.122 26.2041 188.768 26.3682 189.315 26.6963C189.862 27.0245 190.284 27.4852 190.582 28.0784C190.884 28.6717 191.035 29.3628 191.035 30.1516C191.035 30.9404 190.884 31.6298 190.582 32.2198C190.284 32.8097 189.862 33.2688 189.315 33.5969C188.768 33.925 188.122 34.0891 187.376 34.0891ZM187.386 32.6473C187.79 32.6473 188.128 32.5363 188.4 32.3142C188.672 32.0889 188.874 31.7872 189.006 31.4094C189.142 31.0316 189.21 30.6106 189.21 30.1466C189.21 29.6793 189.142 29.2567 189.006 28.8789C188.874 28.4977 188.672 28.1944 188.4 27.9691C188.128 27.7437 187.79 27.631 187.386 27.631C186.971 27.631 186.627 27.7437 186.352 27.9691C186.08 28.1944 185.876 28.4977 185.74 28.8789C185.608 29.2567 185.541 29.6793 185.541 30.1466C185.541 30.6106 185.608 31.0316 185.74 31.4094C185.876 31.7872 186.08 32.0889 186.352 32.3142C186.627 32.5363 186.971 32.6473 187.386 32.6473ZM194.362 29.4655V33.9399H192.562V26.3036H194.283V27.6012H194.372C194.548 27.1736 194.828 26.8339 195.212 26.582C195.6 26.3301 196.079 26.2041 196.649 26.2041C197.176 26.2041 197.635 26.3168 198.026 26.5422C198.421 26.7676 198.726 27.0941 198.941 27.5216C199.16 27.9492 199.267 28.4679 199.264 29.0777V33.9399H197.464V29.3561C197.464 28.8457 197.332 28.4463 197.067 28.158C196.805 27.8696 196.442 27.7255 195.978 27.7255C195.663 27.7255 195.383 27.7951 195.138 27.9343C194.896 28.0701 194.705 28.2674 194.566 28.5259C194.43 28.7844 194.362 29.0976 194.362 29.4655ZM202.202 34.0493C201.901 34.0493 201.642 33.9433 201.427 33.7311C201.211 33.519 201.105 33.2605 201.109 32.9556C201.105 32.6573 201.211 32.4021 201.427 32.1899C201.642 31.9778 201.901 31.8718 202.202 31.8718C202.494 31.8718 202.748 31.9778 202.963 32.1899C203.182 32.4021 203.293 32.6573 203.296 32.9556C203.293 33.1577 203.24 33.3417 203.137 33.5074C203.038 33.6731 202.905 33.8057 202.739 33.9051C202.577 34.0013 202.398 34.0493 202.202 34.0493ZM208.485 34.0891C207.723 34.0891 207.068 33.9217 206.521 33.587C205.978 33.2522 205.559 32.7898 205.264 32.1999C204.972 31.6066 204.826 30.9238 204.826 30.1516C204.826 29.376 204.975 28.6916 205.274 28.0983C205.572 27.5017 205.993 27.0377 206.536 26.7063C207.083 26.3715 207.729 26.2041 208.475 26.2041C209.095 26.2041 209.644 26.3185 210.121 26.5472C210.601 26.7726 210.984 27.0924 211.269 27.5067C211.554 27.9177 211.717 28.3983 211.756 28.9485H210.036C209.967 28.5806 209.801 28.274 209.539 28.0287C209.281 27.7801 208.934 27.6559 208.5 27.6559C208.132 27.6559 207.809 27.7553 207.531 27.9541C207.252 28.1497 207.035 28.4314 206.879 28.7993C206.727 29.1672 206.651 29.608 206.651 30.1218C206.651 30.6421 206.727 31.0896 206.879 31.4641C207.032 31.8353 207.246 32.122 207.521 32.3242C207.799 32.523 208.126 32.6225 208.5 32.6225C208.765 32.6225 209.002 32.5728 209.211 32.4733C209.423 32.3706 209.6 32.2231 209.743 32.0309C209.886 31.8386 209.983 31.605 210.036 31.3299H211.756C211.713 31.8701 211.554 32.349 211.279 32.7666C211.004 33.1809 210.63 33.5058 210.156 33.7411C209.682 33.9731 209.125 34.0891 208.485 34.0891ZM216.565 34.0891C215.82 34.0891 215.173 33.925 214.626 33.5969C214.079 33.2688 213.655 32.8097 213.354 32.2198C213.055 31.6298 212.906 30.9404 212.906 30.1516C212.906 29.3628 213.055 28.6717 213.354 28.0784C213.655 27.4852 214.079 27.0245 214.626 26.6963C215.173 26.3682 215.82 26.2041 216.565 26.2041C217.311 26.2041 217.957 26.3682 218.504 26.6963C219.051 27.0245 219.474 27.4852 219.772 28.0784C220.074 28.6717 220.224 29.3628 220.224 30.1516C220.224 30.9404 220.074 31.6298 219.772 32.2198C219.474 32.8097 219.051 33.2688 218.504 33.5969C217.957 33.925 217.311 34.0891 216.565 34.0891ZM216.575 32.6473C216.98 32.6473 217.318 32.5363 217.589 32.3142C217.861 32.0889 218.063 31.7872 218.196 31.4094C218.332 31.0316 218.4 30.6106 218.4 30.1466C218.4 29.6793 218.332 29.2567 218.196 28.8789C218.063 28.4977 217.861 28.1944 217.589 27.9691C217.318 27.7437 216.98 27.631 216.575 27.631C216.161 27.631 215.816 27.7437 215.541 27.9691C215.269 28.1944 215.065 28.4977 214.93 28.8789C214.797 29.2567 214.731 29.6793 214.731 30.1466C214.731 30.6106 214.797 31.0316 214.93 31.4094C215.065 31.7872 215.269 32.0889 215.541 32.3142C215.816 32.5363 216.161 32.6473 216.575 32.6473ZM225.073 36.9627C224.427 36.9627 223.871 36.8748 223.407 36.6992C222.943 36.5268 222.571 36.2948 222.289 36.0032C222.007 35.7115 221.812 35.3883 221.702 35.0337L223.323 34.6409C223.396 34.7901 223.502 34.9376 223.641 35.0834C223.78 35.2326 223.968 35.3552 224.203 35.4513C224.441 35.5507 224.741 35.6005 225.103 35.6005C225.613 35.6005 226.036 35.4762 226.37 35.2276C226.705 34.9823 226.873 34.578 226.873 34.0145V32.5678H226.783C226.69 32.7534 226.554 32.944 226.375 33.1395C226.2 33.3351 225.966 33.4991 225.674 33.6317C225.386 33.7643 225.023 33.8306 224.586 33.8306C223.999 33.8306 223.467 33.693 222.99 33.4179C222.516 33.1395 222.138 32.7252 221.856 32.175C221.578 31.6215 221.439 30.9288 221.439 30.0969C221.439 29.2584 221.578 28.5507 221.856 27.974C222.138 27.394 222.517 26.9549 222.995 26.6566C223.472 26.355 224.004 26.2041 224.591 26.2041C225.038 26.2041 225.406 26.2804 225.694 26.4328C225.986 26.582 226.218 26.7626 226.39 26.9747C226.563 27.1835 226.694 27.3808 226.783 27.5664H226.883V26.3036H228.657V34.0642C228.657 34.7172 228.502 35.2574 228.19 35.685C227.879 36.1125 227.453 36.4324 226.912 36.6445C226.372 36.8566 225.759 36.9627 225.073 36.9627ZM225.088 32.4186C225.469 32.4186 225.794 32.3258 226.062 32.1402C226.331 31.9546 226.535 31.6878 226.674 31.3398C226.813 30.9918 226.883 30.5742 226.883 30.087C226.883 29.6064 226.813 29.1854 226.674 28.8242C226.538 28.4629 226.336 28.1828 226.067 27.984C225.802 27.7818 225.476 27.6807 225.088 27.6807C224.687 27.6807 224.352 27.7851 224.084 27.9939C223.815 28.2027 223.613 28.4894 223.477 28.854C223.341 29.2153 223.273 29.6263 223.273 30.087C223.273 30.5543 223.341 30.9636 223.477 31.3149C223.616 31.663 223.82 31.9347 224.089 32.1303C224.36 32.3225 224.693 32.4186 225.088 32.4186ZM232.302 29.4655V33.9399H230.502V26.3036H232.222V27.6012H232.312C232.487 27.1736 232.767 26.8339 233.152 26.582C233.54 26.3301 234.018 26.2041 234.589 26.2041C235.116 26.2041 235.575 26.3168 235.966 26.5422C236.36 26.7676 236.665 27.0941 236.88 27.5216C237.099 27.9492 237.207 28.4679 237.204 29.0777V33.9399H235.404V29.3561C235.404 28.8457 235.271 28.4463 235.006 28.158C234.744 27.8696 234.381 27.7255 233.917 27.7255C233.602 27.7255 233.322 27.7951 233.077 27.9343C232.835 28.0701 232.645 28.2674 232.505 28.5259C232.37 28.7844 232.302 29.0976 232.302 29.4655ZM239.033 33.9399V26.3036H240.833V33.9399H239.033ZM239.938 25.2198C239.653 25.2198 239.408 25.1253 239.202 24.9364C238.997 24.7442 238.894 24.5138 238.894 24.2453C238.894 23.9736 238.997 23.7432 239.202 23.5543C239.408 23.3621 239.653 23.2659 239.938 23.2659C240.226 23.2659 240.472 23.3621 240.674 23.5543C240.879 23.7432 240.982 23.9736 240.982 24.2453C240.982 24.5138 240.879 24.7442 240.674 24.9364C240.472 25.1253 240.226 25.2198 239.938 25.2198ZM246.497 26.3036V27.6956H242.107V26.3036H246.497ZM243.191 24.474H244.99V31.6431C244.99 31.885 245.027 32.0706 245.1 32.1999C245.176 32.3258 245.275 32.412 245.398 32.4584C245.521 32.5048 245.657 32.528 245.806 32.528C245.918 32.528 246.021 32.5197 246.114 32.5032C246.21 32.4866 246.283 32.4717 246.333 32.4584L246.636 33.8654C246.54 33.8985 246.402 33.935 246.223 33.9747C246.048 34.0145 245.832 34.0377 245.577 34.0443C245.126 34.0576 244.72 33.9897 244.359 33.8405C243.998 33.688 243.711 33.4527 243.499 33.1345C243.29 32.8164 243.187 32.4186 243.191 31.9414V24.474ZM251.301 34.0891C250.535 34.0891 249.874 33.93 249.317 33.6118C248.763 33.2903 248.337 32.8362 248.039 32.2496C247.741 31.6596 247.592 30.9653 247.592 30.1665C247.592 29.381 247.741 28.6916 248.039 28.0983C248.341 27.5017 248.762 27.0377 249.302 26.7063C249.842 26.3715 250.477 26.2041 251.206 26.2041C251.677 26.2041 252.121 26.2804 252.538 26.4328C252.959 26.582 253.331 26.814 253.652 27.1289C253.977 27.4437 254.232 27.8448 254.418 28.332C254.603 28.8159 254.696 29.3926 254.696 30.0621V30.6139H248.437V29.4009H252.971C252.968 29.0562 252.893 28.7496 252.747 28.4811C252.601 28.2094 252.398 27.9956 252.136 27.8398C251.877 27.684 251.576 27.6061 251.231 27.6061C250.863 27.6061 250.54 27.6956 250.261 27.8746C249.983 28.0503 249.766 28.2823 249.61 28.5706C249.458 28.8557 249.38 29.1689 249.377 29.5103V30.5692C249.377 31.0133 249.458 31.3945 249.62 31.7127C249.783 32.0275 250.01 32.2695 250.301 32.4385C250.593 32.6042 250.934 32.6871 251.325 32.6871C251.587 32.6871 251.824 32.6506 252.036 32.5777C252.248 32.5015 252.432 32.3905 252.588 32.2446C252.744 32.0988 252.862 31.9182 252.941 31.7027L254.622 31.8916C254.515 32.3358 254.313 32.7236 254.015 33.055C253.72 33.3831 253.342 33.6383 252.881 33.8206C252.421 33.9996 251.894 34.0891 251.301 34.0891ZM257.327 34.0493C257.026 34.0493 256.767 33.9433 256.552 33.7311C256.336 33.519 256.23 33.2605 256.234 32.9556C256.23 32.6573 256.336 32.4021 256.552 32.1899C256.767 31.9778 257.026 31.8718 257.327 31.8718C257.619 31.8718 257.873 31.9778 258.088 32.1899C258.307 32.4021 258.418 32.6573 258.421 32.9556C258.418 33.1577 258.365 33.3417 258.262 33.5074C258.163 33.6731 258.03 33.8057 257.864 33.9051C257.702 34.0013 257.523 34.0493 257.327 34.0493ZM263.61 34.0891C262.848 34.0891 262.193 33.9217 261.646 33.587C261.103 33.2522 260.684 32.7898 260.389 32.1999C260.097 31.6066 259.951 30.9238 259.951 30.1516C259.951 29.376 260.1 28.6916 260.399 28.0983C260.697 27.5017 261.118 27.0377 261.661 26.7063C262.208 26.3715 262.854 26.2041 263.6 26.2041C264.22 26.2041 264.769 26.3185 265.246 26.5472C265.726 26.7726 266.109 27.0924 266.394 27.5067C266.679 27.9177 266.842 28.3983 266.881 28.9485H265.161C265.092 28.5806 264.926 28.274 264.664 28.0287C264.406 27.7801 264.059 27.6559 263.625 27.6559C263.257 27.6559 262.934 27.7553 262.656 27.9541C262.377 28.1497 262.16 28.4314 262.004 28.7993C261.852 29.1672 261.776 29.608 261.776 30.1218C261.776 30.6421 261.852 31.0896 262.004 31.4641C262.157 31.8353 262.371 32.122 262.646 32.3242C262.924 32.523 263.251 32.6225 263.625 32.6225C263.89 32.6225 264.127 32.5728 264.336 32.4733C264.548 32.3706 264.725 32.2231 264.868 32.0309C265.011 31.8386 265.108 31.605 265.161 31.3299H266.881C266.838 31.8701 266.679 32.349 266.404 32.7666C266.129 33.1809 265.755 33.5058 265.281 33.7411C264.807 33.9731 264.25 34.0891 263.61 34.0891ZM271.69 34.0891C270.945 34.0891 270.298 33.925 269.751 33.5969C269.204 33.2688 268.78 32.8097 268.479 32.2198C268.18 31.6298 268.031 30.9404 268.031 30.1516C268.031 29.3628 268.18 28.6717 268.479 28.0784C268.78 27.4852 269.204 27.0245 269.751 26.6963C270.298 26.3682 270.945 26.2041 271.69 26.2041C272.436 26.2041 273.082 26.3682 273.629 26.6963C274.176 27.0245 274.599 27.4852 274.897 28.0784C275.199 28.6717 275.349 29.3628 275.349 30.1516C275.349 30.9404 275.199 31.6298 274.897 32.2198C274.599 32.8097 274.176 33.2688 273.629 33.5969C273.082 33.925 272.436 34.0891 271.69 34.0891ZM271.7 32.6473C272.105 32.6473 272.443 32.5363 272.714 32.3142C272.986 32.0889 273.188 31.7872 273.321 31.4094C273.457 31.0316 273.525 30.6106 273.525 30.1466C273.525 29.6793 273.457 29.2567 273.321 28.8789C273.188 28.4977 272.986 28.1944 272.714 27.9691C272.443 27.7437 272.105 27.631 271.7 27.631C271.286 27.631 270.941 27.7437 270.666 27.9691C270.394 28.1944 270.19 28.4977 270.055 28.8789C269.922 29.2567 269.856 29.6793 269.856 30.1466C269.856 30.6106 269.922 31.0316 270.055 31.4094C270.19 31.7872 270.394 32.0889 270.666 32.3142C270.941 32.5363 271.286 32.6473 271.7 32.6473ZM276.877 33.9399V26.3036H278.597V27.6012H278.687C278.846 27.1637 279.109 26.8223 279.477 26.577C279.845 26.3284 280.284 26.2041 280.794 26.2041C281.312 26.2041 281.747 26.3301 282.102 26.582C282.46 26.8306 282.712 27.1703 282.858 27.6012H282.937C283.106 27.1769 283.391 26.8389 283.792 26.587C284.197 26.3318 284.676 26.2041 285.229 26.2041C285.932 26.2041 286.505 26.4262 286.949 26.8703C287.393 27.3145 287.616 27.9624 287.616 28.8142V33.9399H285.811V29.0926C285.811 28.6187 285.685 28.2723 285.433 28.0536C285.181 27.8315 284.873 27.7205 284.508 27.7205C284.074 27.7205 283.734 27.8564 283.489 28.1282C283.247 28.3966 283.126 28.7463 283.126 29.1772V33.9399H281.361V29.0181C281.361 28.6237 281.242 28.3088 281.003 28.0735C280.768 27.8381 280.46 27.7205 280.079 27.7205C279.82 27.7205 279.585 27.7868 279.373 27.9193C279.16 28.0486 278.991 28.2326 278.866 28.4712C278.74 28.7065 278.677 28.9816 278.677 29.2965V33.9399H276.877Z" fill="black" fill-opacity="0.4"/>
<path d="M140.4 44.0772L133.3 38.9399C134.119 40.3683 134.937 42.5097 135.631 45.0907L140.4 44.0772Z" fill="url(#paint1_linear_625_28940)"/>
<path d="M133.3 38.9399L128.834 46.5348L135.631 45.0907C134.937 42.5097 134.119 40.3683 133.3 38.9399Z" fill="url(#paint2_linear_625_28940)"/>
<path d="M127.249 80.1824C126.75 80.4193 126.538 81.0157 126.775 81.5147C127.011 82.0136 127.608 82.226 128.107 81.9892L127.249 80.1824ZM140.4 44.0772L140.608 45.0554C140.994 44.9732 141.296 44.671 141.378 44.2843C141.46 43.8975 141.306 43.4989 140.986 43.2671L140.4 44.0772ZM128.834 46.5348L127.972 46.028C127.772 46.3697 127.791 46.7978 128.023 47.1194C128.255 47.441 128.655 47.5954 129.042 47.513L128.834 46.5348ZM133.3 38.9399L133.887 38.1298C133.658 37.9647 133.371 37.9034 133.095 37.9612C132.82 38.0189 132.581 38.1902 132.438 38.4331L133.3 38.9399ZM129.696 47.0417L134.162 39.4468L132.438 38.4331L127.972 46.028L129.696 47.0417ZM132.714 39.7501L139.813 44.8874L140.986 43.2671L133.887 38.1298L132.714 39.7501ZM129.042 47.513L135.838 46.0688L135.423 44.1125L128.627 45.5567L129.042 47.513ZM136.596 44.8312C135.891 42.2083 135.046 39.9754 134.168 38.4427L132.433 39.4372C133.192 40.7611 133.983 42.8111 134.665 45.3502L136.596 44.8312ZM128.107 81.9892C134.375 79.0134 137.2 72.3719 138.126 65.3285C139.057 58.2546 138.12 50.5002 136.596 44.8312L134.665 45.3502C136.136 50.824 137.032 58.3088 136.143 65.0676C135.25 71.8568 132.601 77.6414 127.249 80.1824L128.107 81.9892ZM140.192 43.0991L135.423 44.1125L135.838 46.0688L140.608 45.0554L140.192 43.0991Z" fill="url(#paint3_linear_625_28940)"/>
<path d="M91.856 107.61C91.946 107.574 92.018 107.502 92.108 107.448C92.198 107.412 92.288 107.376 92.378 107.322C92.558 107.178 92.594 106.836 92.648 106.62C92.684 106.386 92.666 106.134 92.666 105.9C92.684 105.432 92.612 104.982 92.63 104.514C92.63 104.388 92.576 104.298 92.54 104.172C92.54 104.064 92.54 103.974 92.522 103.866C92.522 103.668 92.486 103.452 92.486 103.236C92.522 102.768 92.45 102.3 92.45 101.814C92.45 101.58 92.45 101.346 92.396 101.13C92.378 100.932 92.378 100.734 92.324 100.536C92.27 100.32 92.288 100.086 92.288 99.8703L92.234 99.1503C92.234 98.8983 92.198 98.6463 92.198 98.4123C92.18 98.1783 92.252 97.9443 92.27 97.7103C92.27 97.5843 92.234 97.4403 92.252 97.3143C92.27 97.2243 92.324 97.1523 92.378 97.0623C92.45 96.9183 92.612 96.7383 92.63 96.5763C92.648 96.3963 92.63 96.1263 92.54 95.9643C92.45 95.8203 92.27 95.6043 92.108 95.5143C91.928 95.4063 91.694 95.4963 91.514 95.4063C91.352 95.3343 91.172 95.2983 91.028 95.4423C90.704 95.7843 90.686 96.2523 90.704 96.6843C90.704 96.9363 90.632 97.1523 90.614 97.3863C90.596 97.6203 90.596 97.8543 90.56 98.0883C90.524 98.5563 90.632 99.0243 90.632 99.4743C90.65 99.7443 90.614 99.9963 90.614 100.248C90.614 100.5 90.65 100.734 90.668 100.968C90.65 101.202 90.614 101.418 90.686 101.652C90.74 101.85 90.704 102.066 90.686 102.264C90.65 102.516 90.686 102.768 90.74 103.02C90.776 103.236 90.776 103.452 90.758 103.686C90.704 104.136 90.596 104.622 90.65 105.072C90.65 105.216 90.65 105.36 90.632 105.504C90.632 105.612 90.65 105.738 90.614 105.846C90.578 106.08 90.506 106.278 90.506 106.512C90.488 106.746 90.524 107.052 90.704 107.214C90.776 107.304 90.902 107.322 90.992 107.376C91.082 107.412 91.172 107.466 91.262 107.52C91.442 107.646 91.64 107.718 91.856 107.61ZM99.4769 107.682C99.8189 107.754 99.9989 107.502 100.161 107.25C100.323 106.998 100.323 106.62 100.359 106.314C100.377 106.152 100.305 105.99 100.287 105.846C100.269 105.684 100.233 105.594 100.161 105.45C100.107 105.342 100.053 105.198 100.035 105.072C99.9989 104.928 100.053 104.766 100.071 104.622C100.071 104.46 100.017 104.334 100.035 104.172C100.071 104.01 100.089 103.866 100.053 103.704C100.017 103.524 99.9629 103.362 99.9449 103.182C99.9449 103.02 99.9629 102.858 99.9449 102.696C99.9449 102.372 99.9449 102.048 99.9629 101.724C99.9629 101.562 99.8729 101.436 99.8729 101.256C99.8549 101.112 99.8549 100.986 99.8369 100.842C99.8009 100.68 99.8189 100.536 99.8009 100.374C99.7649 100.23 99.7289 100.068 99.7289 99.9063C99.7109 99.7263 99.7469 99.5463 99.7289 99.3663C99.7289 99.2043 99.7289 99.0603 99.7649 98.8983C99.8369 98.5923 99.6929 98.2683 99.7469 97.9443C99.7649 97.8183 99.8189 97.6023 99.8909 97.4943C99.9809 97.3863 100.089 97.4043 100.215 97.4223C100.377 97.4403 100.539 97.4223 100.701 97.4043C100.791 97.3683 100.863 97.3863 100.953 97.3683C101.025 97.3683 101.097 97.3503 101.169 97.3503C101.313 97.3683 101.421 97.4583 101.583 97.4583C101.727 97.4583 101.871 97.4583 102.015 97.4763C102.177 97.4763 102.357 97.4223 102.519 97.4223C102.681 97.4223 102.771 97.4043 102.897 97.3143C103.113 97.1703 103.347 96.8103 103.401 96.5583C103.437 96.3963 103.365 96.2163 103.275 96.0903C103.167 95.9823 103.005 95.9283 102.897 95.8563C102.735 95.7843 102.591 95.6943 102.429 95.6403C102.249 95.5863 102.141 95.6223 101.979 95.6583C101.655 95.7303 101.313 95.6403 101.007 95.7303C100.863 95.7843 100.719 95.7663 100.557 95.7843C100.395 95.8023 100.233 95.8203 100.071 95.8023C99.4589 95.7663 98.8469 95.9103 98.2529 95.8023C97.9469 95.7483 97.6049 95.8383 97.2989 95.8563C97.1189 95.8743 96.9569 95.9283 96.7949 95.9283C96.6329 95.9463 96.4709 95.9103 96.3089 95.9103C96.3089 95.8563 95.4809 95.9643 95.3729 96.0003C94.7969 96.1983 94.8869 97.0263 95.3369 97.3323C95.4629 97.4223 95.5709 97.5663 95.7149 97.6203C95.8589 97.6743 95.9849 97.7103 96.1109 97.7643C96.2909 97.8183 96.3629 97.7463 96.5069 97.6383C96.6149 97.5663 96.7229 97.5483 96.8489 97.5303C97.0289 97.5123 97.2089 97.5303 97.3709 97.5123C97.5329 97.4943 97.6949 97.4223 97.8389 97.4223C98.1089 97.4223 98.0549 97.9803 98.0909 98.1603C98.2349 98.8083 98.2349 99.4743 98.2529 100.14C98.2709 100.842 98.3789 101.58 98.3429 102.3C98.3249 102.624 98.3789 102.948 98.3249 103.272C98.2709 103.614 98.3429 103.974 98.3429 104.316C98.3429 104.676 98.3609 105.036 98.3429 105.396C98.3429 105.72 98.2529 106.044 98.3789 106.35C98.3969 106.44 98.4509 106.512 98.4689 106.62C98.4689 106.674 98.4869 106.746 98.5229 106.818C98.5589 106.926 98.6129 107.07 98.6849 107.178C98.7749 107.304 98.9729 107.376 99.0989 107.466C99.2249 107.538 99.3509 107.646 99.4769 107.682ZM105.928 99.9783C106.036 100.014 106.144 100.05 106.252 99.9783C106.306 99.9423 106.396 99.8883 106.432 99.8163C106.558 99.6723 106.612 99.4923 106.666 99.3303C106.756 99.1683 106.828 98.9523 106.882 98.7543C106.918 98.6823 106.918 98.5923 106.972 98.4843C107.008 98.3943 107.044 98.2863 107.062 98.1963C107.134 97.9983 107.188 97.8003 107.26 97.6023C107.332 97.4043 107.35 97.2063 107.404 97.0263C107.458 96.9183 107.494 96.8283 107.476 96.7023C107.476 96.6303 107.404 96.5223 107.35 96.4503C107.242 96.2883 107.098 96.1803 106.972 96.0363C106.828 95.9103 106.774 95.7303 106.612 95.6403C106.504 95.6043 106.396 95.5863 106.306 95.5503C106.216 95.5143 106.162 95.4783 106.072 95.4783C105.964 95.4783 105.856 95.5143 105.766 95.5503C105.676 95.5683 105.586 95.5503 105.496 95.6043C105.442 95.6763 105.424 95.7303 105.352 95.8023C105.298 95.8743 105.244 95.9463 105.208 96.0543L105.1 96.3963C105.064 96.4863 105.01 96.5943 104.992 96.7023C104.974 96.9003 105.118 97.1163 105.226 97.2603C105.352 97.4223 105.424 97.5663 105.622 97.6383C105.784 97.6923 105.982 97.6563 106.036 97.8543C106.09 98.0523 105.982 98.2683 105.946 98.4663C105.91 98.6823 105.82 98.8623 105.766 99.0783C105.694 99.2583 105.604 99.4383 105.676 99.6543C105.712 99.8163 105.766 99.9243 105.928 99.9783ZM114.097 108.132C114.223 108.15 114.295 108.078 114.403 108.06C114.529 108.024 114.619 108.096 114.727 108.096C114.835 108.114 114.925 108.042 115.033 108.006C115.249 107.916 115.483 107.898 115.699 107.772L116.239 107.412C116.437 107.286 116.635 107.142 116.797 106.998C116.941 106.872 117.121 106.692 117.193 106.53C117.247 106.422 117.247 106.314 117.301 106.224C117.337 106.116 117.409 106.026 117.445 105.936C117.535 105.738 117.589 105.522 117.625 105.324C117.733 104.838 117.679 104.316 117.625 103.848C117.607 103.614 117.607 103.38 117.481 103.164C117.355 103.002 117.211 102.894 117.049 102.768C116.887 102.624 116.797 102.426 116.653 102.264C116.581 102.192 116.527 102.084 116.455 102.048C116.383 101.976 116.275 101.976 116.203 101.94C116.023 101.85 115.897 101.688 115.699 101.616C115.519 101.544 115.447 101.436 115.285 101.31C115.159 101.166 114.961 101.148 114.799 101.058C114.619 100.968 114.511 100.896 114.367 100.77C114.277 100.716 114.205 100.644 114.097 100.608C114.007 100.572 113.917 100.572 113.845 100.518C113.701 100.374 113.611 100.194 113.431 100.104C113.215 99.9783 113.125 99.8523 113.017 99.6363C112.945 99.4563 112.873 99.2583 112.783 99.0963C112.819 98.8443 112.855 98.5923 112.945 98.3943C113.017 98.1963 113.197 98.0883 113.359 98.0163C113.557 97.8723 113.755 97.7643 113.989 97.7103C114.151 97.6563 114.295 97.4763 114.457 97.4403C114.673 97.4043 114.925 97.5123 115.123 97.5483C115.303 97.5663 115.429 97.5843 115.591 97.6743C115.735 97.7643 115.825 97.8723 115.843 98.0703C115.861 98.2683 115.897 98.4483 115.969 98.6283C116.023 98.8083 116.167 99.0603 116.365 99.1503C116.527 99.2223 116.797 99.1863 116.995 99.1503C117.139 99.1323 117.229 99.1143 117.319 98.9703C117.427 98.8263 117.517 98.6283 117.535 98.4483C117.517 98.3583 117.481 98.2683 117.463 98.1603C117.463 98.0703 117.517 97.9803 117.481 97.8723C117.481 97.7643 117.391 97.6923 117.355 97.6023C117.301 97.5123 117.319 97.4043 117.283 97.2963C117.229 97.1163 117.031 96.9183 116.905 96.7923C116.761 96.6483 116.581 96.6123 116.419 96.5223C116.239 96.4143 116.131 96.2163 115.915 96.1623C115.699 96.1083 115.591 96.0003 115.393 95.9103C115.213 95.8023 114.997 95.8383 114.799 95.8383C114.673 95.8383 114.565 95.8023 114.457 95.8203C114.331 95.8563 114.223 95.8743 114.097 95.8563C113.827 95.8383 113.629 95.9283 113.377 96.0003L113.089 96.1083C112.999 96.1263 112.927 96.1083 112.819 96.1803C112.639 96.2883 112.477 96.4683 112.297 96.5763C112.099 96.6663 111.955 96.7743 111.793 96.9363C111.667 97.0623 111.523 97.2423 111.433 97.4403C111.397 97.5303 111.343 97.6023 111.289 97.6743C111.235 97.7643 111.235 97.8543 111.199 97.9443C111.145 98.1423 111.019 98.3043 111.001 98.5203C110.965 98.7183 111.019 98.9703 111.091 99.1683C111.253 99.6003 111.271 100.086 111.523 100.5C111.631 100.68 111.757 100.86 111.955 100.968C112.027 101.022 112.117 101.04 112.189 101.094C112.279 101.148 112.315 101.22 112.369 101.292C112.459 101.382 112.567 101.418 112.657 101.49C112.747 101.544 112.801 101.616 112.873 101.688C113.017 101.814 113.197 101.85 113.323 101.994C113.395 102.048 113.467 102.156 113.575 102.174C113.647 102.228 113.737 102.228 113.827 102.264C113.989 102.372 114.115 102.498 114.277 102.606C114.421 102.732 114.565 102.84 114.745 102.912C114.835 102.948 114.907 103.002 114.979 103.038C115.051 103.092 115.141 103.11 115.231 103.164C115.321 103.2 115.375 103.344 115.447 103.434C115.501 103.506 115.609 103.542 115.663 103.632C115.789 103.758 115.897 103.992 115.933 104.172C115.951 104.388 116.005 104.658 115.951 104.874C115.897 105.072 115.753 105.234 115.663 105.414C115.573 105.63 115.537 105.846 115.375 106.008C115.231 106.134 114.997 106.188 114.817 106.278C114.709 106.35 114.655 106.368 114.511 106.35C114.403 106.332 114.349 106.332 114.241 106.35C114.043 106.422 113.845 106.476 113.629 106.404C113.431 106.332 113.215 106.296 113.053 106.206C112.855 106.134 112.855 105.99 112.711 105.846C112.657 105.774 112.567 105.72 112.531 105.612C112.477 105.504 112.441 105.414 112.405 105.288C112.315 105.072 112.261 104.892 112.081 104.784C111.901 104.676 111.667 104.604 111.469 104.604C111.253 104.586 111.073 104.712 110.911 104.82C110.497 105.09 110.713 105.612 110.749 106.026C110.785 106.116 110.767 106.242 110.821 106.332C110.875 106.44 110.983 106.53 111.037 106.602C111.199 106.782 111.343 106.944 111.505 107.106C111.559 107.196 111.649 107.268 111.739 107.34C111.793 107.412 111.829 107.484 111.919 107.52C112.099 107.646 112.315 107.754 112.495 107.862C112.603 107.916 112.711 108.006 112.819 108.042C112.927 108.06 113.035 108.024 113.143 108.042C113.251 108.042 113.377 108.078 113.485 108.078C113.575 108.096 113.665 108.06 113.773 108.078C113.881 108.078 113.989 108.15 114.097 108.132ZM129.852 107.682C130.194 107.754 130.374 107.502 130.536 107.25C130.698 106.998 130.698 106.62 130.734 106.314C130.752 106.152 130.68 105.99 130.662 105.846C130.644 105.684 130.608 105.594 130.536 105.45C130.482 105.342 130.428 105.198 130.41 105.072C130.374 104.928 130.428 104.766 130.446 104.622C130.446 104.46 130.392 104.334 130.41 104.172C130.446 104.01 130.464 103.866 130.428 103.704C130.392 103.524 130.338 103.362 130.32 103.182C130.32 103.02 130.338 102.858 130.32 102.696C130.32 102.372 130.32 102.048 130.338 101.724C130.338 101.562 130.248 101.436 130.248 101.256C130.23 101.112 130.23 100.986 130.212 100.842C130.176 100.68 130.194 100.536 130.176 100.374C130.14 100.23 130.104 100.068 130.104 99.9063C130.086 99.7263 130.122 99.5463 130.104 99.3663C130.104 99.2043 130.104 99.0603 130.14 98.8983C130.212 98.5923 130.068 98.2683 130.122 97.9443C130.14 97.8183 130.194 97.6023 130.266 97.4943C130.356 97.3863 130.464 97.4043 130.59 97.4223C130.752 97.4403 130.914 97.4223 131.076 97.4043C131.166 97.3683 131.238 97.3863 131.328 97.3683C131.4 97.3683 131.472 97.3503 131.544 97.3503C131.688 97.3683 131.796 97.4583 131.958 97.4583C132.102 97.4583 132.246 97.4583 132.39 97.4763C132.552 97.4763 132.732 97.4223 132.894 97.4223C133.056 97.4223 133.146 97.4043 133.272 97.3143C133.488 97.1703 133.722 96.8103 133.776 96.5583C133.812 96.3963 133.74 96.2163 133.65 96.0903C133.542 95.9823 133.38 95.9283 133.272 95.8563C133.11 95.7843 132.966 95.6943 132.804 95.6403C132.624 95.5863 132.516 95.6223 132.354 95.6583C132.03 95.7303 131.688 95.6403 131.382 95.7303C131.238 95.7843 131.094 95.7663 130.932 95.7843C130.77 95.8023 130.608 95.8203 130.446 95.8023C129.834 95.7663 129.222 95.9103 128.628 95.8023C128.322 95.7483 127.98 95.8383 127.674 95.8563C127.494 95.8743 127.332 95.9283 127.17 95.9283C127.008 95.9463 126.846 95.9103 126.684 95.9103C126.684 95.8563 125.856 95.9643 125.748 96.0003C125.172 96.1983 125.262 97.0263 125.712 97.3323C125.838 97.4223 125.946 97.5663 126.09 97.6203C126.234 97.6743 126.36 97.7103 126.486 97.7643C126.666 97.8183 126.738 97.7463 126.882 97.6383C126.99 97.5663 127.098 97.5483 127.224 97.5303C127.404 97.5123 127.584 97.5303 127.746 97.5123C127.908 97.4943 128.07 97.4223 128.214 97.4223C128.484 97.4223 128.43 97.9803 128.466 98.1603C128.61 98.8083 128.61 99.4743 128.628 100.14C128.646 100.842 128.754 101.58 128.718 102.3C128.7 102.624 128.754 102.948 128.7 103.272C128.646 103.614 128.718 103.974 128.718 104.316C128.718 104.676 128.736 105.036 128.718 105.396C128.718 105.72 128.628 106.044 128.754 106.35C128.772 106.44 128.826 106.512 128.844 106.62C128.844 106.674 128.862 106.746 128.898 106.818C128.934 106.926 128.988 107.07 129.06 107.178C129.15 107.304 129.348 107.376 129.474 107.466C129.6 107.538 129.726 107.646 129.852 107.682ZM144.421 107.484C144.619 107.412 144.709 107.178 144.835 106.998C144.871 106.908 144.961 106.8 144.979 106.674C144.979 106.584 144.907 106.476 144.889 106.386C144.871 106.242 144.889 106.134 144.907 105.99C144.907 105.882 144.871 105.774 144.871 105.648C144.835 105.54 144.817 105.45 144.799 105.324C144.817 105.198 144.853 105.09 144.853 104.964C144.853 104.82 144.799 104.712 144.799 104.586C144.763 104.478 144.763 104.37 144.781 104.262C144.781 104.028 144.781 103.794 144.817 103.56C144.835 103.29 144.853 103.02 144.853 102.75C144.871 102.552 144.799 102.372 144.817 102.156C144.817 101.994 144.817 101.85 144.799 101.706C144.781 101.58 144.817 101.472 144.799 101.364C144.781 101.112 144.745 100.878 144.763 100.626C144.781 100.356 144.799 100.104 144.727 99.8523C144.691 99.6183 144.709 99.3663 144.709 99.1323C144.727 98.8443 144.781 98.5563 144.745 98.2863L144.691 97.9803C144.691 97.8543 144.709 97.7103 144.727 97.5843C144.763 97.3143 144.817 97.0623 144.871 96.7923C144.907 96.5583 145.015 96.3063 144.997 96.0543C144.961 95.6043 144.511 95.2983 144.115 95.1543C143.899 95.2263 143.611 95.2623 143.413 95.4063C143.233 95.5503 143.125 95.7483 143.107 95.9643C143.035 96.2343 143.107 96.4683 143.125 96.7203C143.161 96.9723 143.107 97.2063 143.071 97.4403C143.053 97.5843 143.035 97.7463 143.053 97.8903C143.053 97.9983 143.089 98.1063 143.089 98.2143C143.107 98.3403 143.053 98.4663 143.053 98.5923C143.071 98.7183 143.071 98.8623 143.071 98.9883C143.089 99.2583 143.053 99.5283 143.071 99.7983C143.071 99.9423 143.179 100.23 143.017 100.338C142.927 100.392 142.711 100.428 142.603 100.446L142.297 100.482C142.207 100.482 142.117 100.518 142.045 100.482C141.937 100.446 141.847 100.374 141.739 100.392C141.631 100.41 141.541 100.5 141.433 100.536C141.325 100.572 141.199 100.59 141.091 100.608C140.875 100.644 140.677 100.644 140.461 100.662C140.317 100.662 140.173 100.698 140.029 100.716C139.885 100.752 139.777 100.716 139.651 100.698C139.399 100.662 139.147 100.716 138.895 100.698C138.769 100.698 138.607 100.68 138.499 100.626C138.427 100.59 138.355 100.518 138.265 100.5C138.085 100.428 138.013 100.356 138.013 100.158C138.049 99.8883 138.031 99.6183 138.085 99.3483C138.121 99.0963 138.103 98.8803 138.085 98.6463C138.049 98.3943 138.067 98.1603 138.049 97.9083C138.031 97.7463 138.067 97.5843 138.085 97.4043C138.139 97.1523 138.211 96.8283 138.157 96.5763C138.121 96.3783 138.031 96.2163 137.923 96.0363C137.815 95.8023 137.761 95.6763 137.491 95.6583C137.257 95.6403 137.023 95.6763 136.789 95.7663C136.537 95.8743 136.411 95.9823 136.357 96.2523C136.321 96.5043 136.375 96.6663 136.429 96.9183C136.519 97.4223 136.465 97.9803 136.393 98.5023C136.357 98.9703 136.501 99.4563 136.447 99.9243C136.429 100.212 136.429 100.5 136.429 100.77C136.429 101.004 136.411 101.256 136.465 101.49C136.483 101.724 136.465 101.976 136.501 102.21C136.519 102.444 136.465 102.624 136.465 102.84C136.447 102.966 136.483 103.074 136.501 103.2C136.501 103.344 136.465 103.452 136.429 103.596C136.393 103.83 136.411 104.064 136.429 104.298C136.447 104.568 136.501 104.838 136.501 105.108C136.519 105.36 136.465 105.594 136.411 105.846C136.393 105.954 136.339 106.116 136.357 106.242C136.375 106.35 136.447 106.476 136.501 106.566C136.591 106.746 136.699 106.908 136.861 107.016C137.023 107.142 137.131 107.376 137.365 107.376C137.581 107.358 137.815 107.34 137.995 107.232C138.103 107.16 138.121 107.07 138.211 106.98C138.247 106.89 138.337 106.818 138.373 106.728C138.463 106.512 138.445 106.224 138.409 106.008C138.409 105.882 138.355 105.756 138.355 105.63C138.337 105.522 138.355 105.396 138.337 105.27C138.301 105.036 138.193 104.802 138.229 104.55C138.265 104.082 138.211 103.578 138.193 103.092C138.175 102.804 138.175 102.678 138.463 102.57C138.715 102.498 138.967 102.48 139.183 102.462C139.345 102.444 139.471 102.462 139.615 102.462C139.723 102.462 139.831 102.444 139.957 102.462C140.065 102.48 140.173 102.57 140.317 102.534C140.389 102.498 140.443 102.426 140.551 102.408C140.677 102.39 140.767 102.462 140.893 102.48C141.019 102.48 141.127 102.39 141.253 102.408C141.361 102.426 141.451 102.498 141.559 102.516C141.667 102.534 141.775 102.48 141.883 102.462C142.027 102.444 142.117 102.534 142.243 102.57C142.351 102.606 142.477 102.606 142.585 102.624C142.693 102.642 142.855 102.606 142.963 102.642C143.071 102.696 143.035 102.84 143.017 102.93C143.017 103.074 143.053 103.182 143.071 103.326C143.089 103.452 143.089 103.596 143.071 103.722C143.053 103.956 143.071 104.154 143.089 104.388C143.107 104.622 143.053 104.874 143.035 105.126C143.017 105.36 142.927 105.594 142.927 105.828C142.927 106.314 142.927 106.782 143.269 107.142C143.359 107.25 143.449 107.232 143.575 107.286C143.683 107.304 143.719 107.376 143.809 107.43C143.971 107.538 144.223 107.556 144.421 107.484ZM149.065 108.168C149.353 108.078 149.623 107.952 149.785 107.628C149.857 107.466 149.893 107.304 149.911 107.106C149.929 106.944 150.001 106.782 150.037 106.62C150.055 106.44 150.163 106.35 150.217 106.188C150.289 106.026 150.289 105.846 150.361 105.684C150.415 105.522 150.505 105.396 150.577 105.252C150.631 105.108 150.649 104.928 150.793 104.856C151.099 104.622 151.477 104.622 151.819 104.586C151.999 104.586 152.071 104.496 152.197 104.406C152.341 104.316 152.503 104.352 152.665 104.352C152.863 104.352 153.025 104.334 153.205 104.388C153.385 104.424 153.511 104.442 153.691 104.442C153.889 104.442 154.105 104.478 154.321 104.478C154.555 104.478 154.573 104.532 154.645 104.748C154.717 104.928 154.789 105.108 154.807 105.306C154.825 105.468 154.789 105.612 154.807 105.756C154.843 105.936 154.861 106.116 154.915 106.296C154.969 106.458 155.041 106.602 155.113 106.746C155.239 107.034 155.329 107.358 155.563 107.556C155.707 107.7 155.887 107.754 156.049 107.826C156.193 107.898 156.373 108.006 156.535 108.042C156.913 108.078 157.237 107.862 157.471 107.628C157.633 107.484 157.741 107.394 157.687 107.196C157.669 107.016 157.651 106.854 157.579 106.674C157.453 106.368 157.399 106.008 157.219 105.684C157.111 105.54 157.003 105.432 156.931 105.27C156.859 105.108 156.841 104.928 156.787 104.748C156.715 104.586 156.661 104.442 156.625 104.28C156.607 104.1 156.535 103.938 156.463 103.776C156.373 103.632 156.355 103.47 156.301 103.308C156.247 103.128 156.157 102.984 156.103 102.822C155.977 102.498 156.067 102.084 155.869 101.814C155.779 101.688 155.689 101.544 155.617 101.382C155.545 101.238 155.563 101.112 155.527 100.95C155.491 100.77 155.383 100.59 155.329 100.41L155.167 99.8883C155.059 99.5643 154.897 99.2763 154.825 98.9343C154.753 98.5743 154.465 98.2863 154.375 97.9263C154.267 97.6023 154.141 97.2783 154.033 96.9723C153.979 96.7923 153.943 96.5943 153.907 96.4143C153.871 96.2703 153.943 96.1443 153.871 96.0003C153.835 95.8743 153.727 95.7843 153.601 95.7303C153.457 95.6763 153.349 95.5863 153.205 95.5503C152.845 95.4783 152.521 95.3523 152.143 95.4963C151.801 95.6223 151.603 95.9103 151.531 96.2703C151.495 96.4323 151.549 96.6123 151.513 96.7923C151.495 96.9363 151.441 97.0623 151.387 97.2063C151.207 97.5303 151.189 97.9263 151.027 98.2143C150.937 98.3943 150.829 98.5383 150.793 98.7363C150.775 98.8983 150.757 99.0783 150.721 99.2403C150.595 99.5643 150.433 99.9063 150.289 100.248C150.181 100.608 150.091 100.968 150.037 101.328C150.019 101.526 149.929 101.688 149.857 101.85C149.803 101.976 149.749 102.138 149.713 102.282C149.659 102.462 149.605 102.642 149.533 102.822C149.479 102.984 149.353 103.128 149.317 103.29C149.245 103.65 149.083 103.938 148.957 104.28C148.831 104.622 148.723 104.982 148.543 105.324C148.471 105.486 148.471 105.63 148.399 105.792C148.345 105.972 148.291 106.134 148.219 106.314C148.111 106.656 147.895 106.944 147.805 107.268C147.769 107.466 147.787 107.574 147.931 107.718C148.021 107.808 148.111 107.916 148.183 108.042C148.381 108.276 148.777 108.258 149.065 108.168ZM153.313 102.714C153.115 102.678 152.971 102.642 152.773 102.66H152.233C151.909 102.606 151.351 102.84 151.549 102.3C151.621 102.12 151.603 101.94 151.657 101.814C151.675 101.616 151.765 101.49 151.837 101.31C151.945 101.004 151.909 100.626 152.107 100.32C152.287 100.032 152.377 99.7083 152.557 99.4203C152.593 99.2943 152.629 99.0063 152.737 98.9523C152.845 98.9343 152.971 99.1503 153.007 99.2043C153.097 99.4023 153.115 99.5643 153.169 99.7263C153.241 99.8523 153.313 99.9783 153.385 100.068C153.583 100.41 153.691 100.878 153.781 101.256C153.817 101.436 153.871 101.634 153.907 101.85C153.943 101.976 153.997 102.264 153.961 102.372C153.889 102.606 153.511 102.714 153.313 102.714ZM162.16 107.682C162.502 107.754 162.682 107.502 162.844 107.25C163.006 106.998 163.006 106.62 163.042 106.314C163.06 106.152 162.988 105.99 162.97 105.846C162.952 105.684 162.916 105.594 162.844 105.45C162.79 105.342 162.736 105.198 162.718 105.072C162.682 104.928 162.736 104.766 162.754 104.622C162.754 104.46 162.7 104.334 162.718 104.172C162.754 104.01 162.772 103.866 162.736 103.704C162.7 103.524 162.646 103.362 162.628 103.182C162.628 103.02 162.646 102.858 162.628 102.696C162.628 102.372 162.628 102.048 162.646 101.724C162.646 101.562 162.556 101.436 162.556 101.256C162.538 101.112 162.538 100.986 162.52 100.842C162.484 100.68 162.502 100.536 162.484 100.374C162.448 100.23 162.412 100.068 162.412 99.9063C162.394 99.7263 162.43 99.5463 162.412 99.3663C162.412 99.2043 162.412 99.0603 162.448 98.8983C162.52 98.5923 162.376 98.2683 162.43 97.9443C162.448 97.8183 162.502 97.6023 162.574 97.4943C162.664 97.3863 162.772 97.4043 162.898 97.4223C163.06 97.4403 163.222 97.4223 163.384 97.4043C163.474 97.3683 163.546 97.3863 163.636 97.3683C163.708 97.3683 163.78 97.3503 163.852 97.3503C163.996 97.3683 164.104 97.4583 164.266 97.4583C164.41 97.4583 164.554 97.4583 164.698 97.4763C164.86 97.4763 165.04 97.4223 165.202 97.4223C165.364 97.4223 165.454 97.4043 165.58 97.3143C165.796 97.1703 166.03 96.8103 166.084 96.5583C166.12 96.3963 166.048 96.2163 165.958 96.0903C165.85 95.9823 165.688 95.9283 165.58 95.8563C165.418 95.7843 165.274 95.6943 165.112 95.6403C164.932 95.5863 164.824 95.6223 164.662 95.6583C164.338 95.7303 163.996 95.6403 163.69 95.7303C163.546 95.7843 163.402 95.7663 163.24 95.7843C163.078 95.8023 162.916 95.8203 162.754 95.8023C162.142 95.7663 161.53 95.9103 160.936 95.8023C160.63 95.7483 160.288 95.8383 159.982 95.8563C159.802 95.8743 159.64 95.9283 159.478 95.9283C159.316 95.9463 159.154 95.9103 158.992 95.9103C158.992 95.8563 158.164 95.9643 158.056 96.0003C157.48 96.1983 157.57 97.0263 158.02 97.3323C158.146 97.4223 158.254 97.5663 158.398 97.6203C158.542 97.6743 158.668 97.7103 158.794 97.7643C158.974 97.8183 159.046 97.7463 159.19 97.6383C159.298 97.5663 159.406 97.5483 159.532 97.5303C159.712 97.5123 159.892 97.5303 160.054 97.5123C160.216 97.4943 160.378 97.4223 160.522 97.4223C160.792 97.4223 160.738 97.9803 160.774 98.1603C160.918 98.8083 160.918 99.4743 160.936 100.14C160.954 100.842 161.062 101.58 161.026 102.3C161.008 102.624 161.062 102.948 161.008 103.272C160.954 103.614 161.026 103.974 161.026 104.316C161.026 104.676 161.044 105.036 161.026 105.396C161.026 105.72 160.936 106.044 161.062 106.35C161.08 106.44 161.134 106.512 161.152 106.62C161.152 106.674 161.17 106.746 161.206 106.818C161.242 106.926 161.296 107.07 161.368 107.178C161.458 107.304 161.656 107.376 161.782 107.466C161.908 107.538 162.034 107.646 162.16 107.682Z" fill="#404040"/>
<defs>
<linearGradient id="paint0_linear_625_28940" x1="173.062" y1="8.93994" x2="169.637" y2="48.6507" gradientUnits="userSpaceOnUse">
<stop stop-color="#4967FB"/>
<stop offset="1" stop-color="#C844DB"/>
</linearGradient>
<linearGradient id="paint1_linear_625_28940" x1="134.15" y1="17.867" x2="111.169" y2="24.6827" gradientUnits="userSpaceOnUse">
<stop stop-color="#4967FB"/>
<stop offset="1" stop-color="#C844DB"/>
</linearGradient>
<linearGradient id="paint2_linear_625_28940" x1="134.15" y1="17.867" x2="111.169" y2="24.6827" gradientUnits="userSpaceOnUse">
<stop stop-color="#4967FB"/>
<stop offset="1" stop-color="#C844DB"/>
</linearGradient>
<linearGradient id="paint3_linear_625_28940" x1="134.15" y1="17.867" x2="111.169" y2="24.6827" gradientUnits="userSpaceOnUse">
<stop stop-color="#4967FB"/>
<stop offset="1" stop-color="#C844DB"/>
</linearGradient>
</defs>
</svg>
