<?xml version="1.0" encoding="UTF-8"?>
<svg xmlns="http://www.w3.org/2000/svg" xmlns:xlink="http://www.w3.org/1999/xlink" width="50px" height="20px" viewBox="0 0 50 20" version="1.1">
<g id="surface1">
<path style=" stroke:none;fill-rule:nonzero;fill:rgb(100%,100%,100%);fill-opacity:0.8;" d="M 0.832031 4 C 0.371094 4 0 4.148438 0 4.332031 L 0 10 C 0 10.183594 0.371094 10.332031 0.832031 10.332031 C 1.292969 10.332031 1.667969 10.183594 1.667969 10 L 1.667969 4.332031 C 1.667969 4.148438 1.292969 4 0.832031 4 Z M 0.832031 4 "/>
<path style=" stroke:none;fill-rule:nonzero;fill:rgb(100%,100%,100%);fill-opacity:0.8;" d="M 49.167969 4 C 48.707031 4 48.332031 4.148438 48.332031 4.332031 L 48.332031 10 C 48.332031 10.183594 48.707031 10.332031 49.167969 10.332031 C 49.628906 10.332031 50 10.183594 50 10 L 50 4.332031 C 50 4.148438 49.628906 4 49.167969 4 Z M 49.167969 4 "/>
<path style=" stroke:none;fill-rule:nonzero;fill:rgb(100%,100%,100%);fill-opacity:0.8;" d="M 49.582031 11.332031 L 46.25 11.332031 C 46.019531 11.332031 45.835938 11.40625 45.835938 11.5 L 45.835938 12.332031 C 45.835938 12.515625 45.460938 12.667969 45 12.667969 C 44.542969 12.667969 44.167969 12.519531 44.167969 12.332031 L 44.167969 11.5 C 44.167969 11.40625 43.980469 11.332031 43.75 11.332031 L 41.25 11.332031 C 41.019531 11.332031 40.835938 11.40625 40.835938 11.5 L 40.835938 13 C 40.835938 13.183594 40.460938 13.332031 40 13.332031 C 39.542969 13.332031 39.167969 13.183594 39.167969 13 L 39.167969 11.5 C 39.167969 11.40625 38.980469 11.332031 38.75 11.332031 L 36.25 11.332031 C 36.019531 11.332031 35.832031 11.40625 35.832031 11.5 L 35.835938 12.332031 C 35.835938 12.515625 35.460938 12.667969 35 12.667969 C 34.539062 12.667969 34.167969 12.519531 34.167969 12.332031 L 34.167969 11.5 C 34.167969 11.40625 33.980469 11.332031 33.75 11.332031 L 31.25 11.332031 C 31.019531 11.332031 30.832031 11.40625 30.832031 11.5 L 30.835938 13 C 30.835938 13.183594 30.460938 13.332031 30 13.332031 C 29.539062 13.332031 29.167969 13.183594 29.167969 13 L 29.167969 11.5 C 29.167969 11.40625 28.980469 11.332031 28.75 11.332031 L 26.25 11.332031 C 26.019531 11.332031 25.832031 11.40625 25.832031 11.5 L 25.835938 12.332031 C 25.835938 12.515625 25.460938 12.667969 25 12.667969 C 24.539062 12.667969 24.167969 12.519531 24.167969 12.332031 L 24.167969 11.5 C 24.167969 11.40625 23.980469 11.332031 23.75 11.332031 L 21.25 11.332031 C 21.019531 11.332031 20.832031 11.40625 20.832031 11.5 L 20.835938 13 C 20.835938 13.183594 20.460938 13.332031 20 13.332031 C 19.539062 13.332031 19.167969 13.183594 19.167969 13 L 19.167969 11.5 C 19.167969 11.40625 18.980469 11.332031 18.75 11.332031 L 16.25 11.332031 C 16.019531 11.332031 15.832031 11.40625 15.832031 11.5 L 15.835938 12.332031 C 15.835938 12.515625 15.460938 12.667969 15 12.667969 C 14.539062 12.667969 14.167969 12.519531 14.167969 12.332031 L 14.167969 11.5 C 14.167969 11.40625 13.980469 11.332031 13.75 11.332031 L 11.25 11.332031 C 11.019531 11.332031 10.832031 11.40625 10.832031 11.5 L 10.835938 13 C 10.835938 13.183594 10.460938 13.332031 10 13.332031 C 9.539062 13.332031 9.167969 13.183594 9.167969 13 L 9.167969 11.5 C 9.167969 11.40625 8.980469 11.332031 8.75 11.332031 L 6.25 11.332031 C 6.019531 11.332031 5.832031 11.40625 5.832031 11.5 L 5.832031 12.332031 C 5.832031 12.519531 5.460938 12.667969 5 12.667969 C 4.539062 12.667969 4.167969 12.519531 4.167969 12.332031 L 4.167969 11.5 C 4.167969 11.40625 3.980469 11.332031 3.75 11.332031 L 0.417969 11.332031 C 0.1875 11.332031 0 11.40625 0 11.5 L 0 15.832031 C 0 15.925781 0.1875 16 0.417969 16 L 49.582031 16 C 49.8125 16 50 15.925781 50 15.832031 L 50 11.5 C 50 11.40625 49.8125 11.332031 49.582031 11.332031 Z M 49.582031 11.332031 "/>
<path style=" stroke:none;fill-rule:nonzero;fill:rgb(100%,100%,100%);fill-opacity:0.8;" d="M 46.488281 7.121094 L 42.617188 5.121094 C 42.410156 5.011719 42.066406 4.972656 41.761719 5.019531 C 41.453125 5.066406 41.25 5.191406 41.25 5.332031 L 41.25 7 L 8.75 7 L 8.75 5.332031 C 8.75 5.191406 8.546875 5.066406 8.238281 5.019531 C 7.933594 4.972656 7.589844 5.011719 7.382812 5.121094 L 3.511719 7.121094 C 3.394531 7.183594 3.332031 7.257812 3.332031 7.332031 C 3.332031 7.410156 3.394531 7.484375 3.511719 7.546875 L 7.382812 9.546875 C 7.53125 9.625 7.75 9.667969 7.976562 9.667969 C 8.0625 9.667969 8.152344 9.660156 8.238281 9.648438 C 8.546875 9.597656 8.75 9.472656 8.75 9.332031 L 8.75 7.667969 L 41.25 7.667969 L 41.25 9.332031 C 41.25 9.472656 41.453125 9.597656 41.757812 9.648438 C 41.84375 9.660156 41.933594 9.667969 42.023438 9.667969 C 42.246094 9.667969 42.464844 9.625 42.617188 9.546875 L 46.488281 7.546875 C 46.605469 7.484375 46.667969 7.410156 46.667969 7.332031 C 46.667969 7.257812 46.605469 7.183594 46.488281 7.121094 Z M 46.488281 7.121094 "/>
</g>
</svg>
