<svg width="164" height="164" viewBox="0 0 164 164" fill="none" xmlns="http://www.w3.org/2000/svg">
<ellipse cx="82" cy="82" rx="67.24" ry="67.24" fill="#F2F4FF"/>
<path d="M159.586 80.9542C159.599 81.9657 159.592 82.9814 159.565 84.0009L159.065 83.9877C159.043 84.8273 159.007 85.6694 158.958 86.5139C158.908 87.3584 158.845 88.199 158.769 89.0353L159.267 89.0806C159.175 90.0963 159.063 91.1059 158.932 92.109L158.436 92.0444C158.217 93.7225 157.945 95.3825 157.622 97.0225L158.112 97.1194C157.915 98.1193 157.699 99.1119 157.464 100.097L156.977 99.9808C156.585 101.625 156.141 103.247 155.646 104.846L156.124 104.993C155.823 105.966 155.503 106.931 155.166 107.887L154.694 107.72C154.132 109.311 153.519 110.878 152.858 112.417L153.318 112.614C152.916 113.55 152.497 114.475 152.06 115.391L151.609 115.176C150.883 116.697 150.109 118.191 149.289 119.654L149.725 119.899C149.227 120.786 148.713 121.662 148.183 122.527L147.756 122.265C146.875 123.702 145.948 125.106 144.978 126.477L145.387 126.766C144.799 127.596 144.196 128.413 143.578 129.218L143.182 128.913C142.156 130.249 141.087 131.549 139.979 132.812L140.355 133.142C139.684 133.906 138.999 134.656 138.3 135.392L137.938 135.048C136.779 136.268 135.582 137.45 134.347 138.592L134.686 138.959C133.941 139.649 133.181 140.324 132.409 140.984L132.085 140.604C130.806 141.697 129.492 142.748 128.145 143.756L128.444 144.156C127.631 144.764 126.806 145.357 125.969 145.933L125.686 145.521C124.301 146.475 122.885 147.384 121.439 148.247L121.695 148.676C120.824 149.196 119.941 149.699 119.049 150.185L118.81 149.746C117.335 150.549 115.832 151.305 114.302 152.013L114.512 152.467C113.591 152.892 112.661 153.301 111.721 153.691L111.529 153.229C109.98 153.873 108.407 154.467 106.81 155.01L106.971 155.483C106.011 155.81 105.043 156.118 104.067 156.408L103.925 155.929C102.319 156.405 100.691 156.83 99.0453 157.202L99.1556 157.69C98.1671 157.914 97.1718 158.118 96.1701 158.304L96.0792 157.812C94.4335 158.116 92.7706 158.368 91.0923 158.565L91.1507 159.062C90.145 159.18 89.1339 159.279 88.1178 159.358L88.079 158.859C86.4123 158.989 84.7319 159.065 83.0397 159.086L83.0459 159.586C82.0344 159.599 81.0187 159.592 79.9992 159.565L80.0123 159.065C79.1728 159.043 78.3307 159.007 77.4862 158.958C76.6417 158.908 75.8011 158.845 74.9648 158.769L74.9195 159.267C73.9038 159.175 72.8942 159.063 71.8911 158.932L71.9557 158.436C70.2776 158.217 68.6176 157.945 66.9775 157.622L66.8807 158.112C65.8808 157.915 64.8882 157.698 63.9032 157.463L64.0193 156.977C62.3756 156.585 60.7534 156.141 59.1546 155.646L59.0068 156.124C58.0337 155.823 57.0691 155.503 56.1135 155.166L56.2801 154.694C54.6888 154.132 53.1226 153.519 51.583 152.858L51.3858 153.318C50.4503 152.916 49.5247 152.497 48.6092 152.06L48.8245 151.609C47.3027 150.883 45.8092 150.109 44.346 149.289L44.1015 149.725C43.2142 149.227 42.338 148.713 41.4732 148.183L41.7347 147.756C40.2983 146.875 38.8938 145.948 37.523 144.978L37.2342 145.386C36.4045 144.799 35.587 144.196 34.7823 143.578L35.0869 143.182C33.7515 142.156 32.4512 141.087 31.188 139.979L30.8582 140.355C30.0945 139.684 29.3442 138.999 28.6079 138.3L28.9521 137.938C27.7317 136.779 26.5497 135.582 25.4079 134.347L25.0408 134.686C24.3512 133.941 23.6761 133.181 23.0161 132.409L23.3962 132.084C22.3035 130.806 21.2522 129.492 20.2443 128.145L19.8439 128.444C19.2357 127.631 18.6432 126.806 18.0669 125.969L18.4786 125.686C17.5253 124.301 16.6163 122.885 15.7535 121.439L15.3241 121.695C14.8042 120.824 14.301 119.941 13.8149 119.049L14.254 118.81C13.4508 117.335 12.6946 115.831 11.9873 114.302L11.5335 114.512C11.1077 113.591 10.6994 112.661 10.3092 111.721L10.7709 111.529C10.1274 109.98 9.53317 108.407 8.99009 106.81L8.51674 106.971C8.19006 106.011 7.88176 105.043 7.59225 104.067L8.0716 103.925C7.59514 102.318 7.16988 100.691 6.79762 99.0452L6.30994 99.1555C6.08637 98.167 5.8818 97.1717 5.6966 96.1701L6.18827 96.0792C5.88398 94.4334 5.63232 92.7705 5.43503 91.0922L4.93845 91.1506C4.82022 90.1449 4.72139 89.1338 4.64232 88.1177L5.14081 88.0789C5.01111 86.4122 4.93492 84.7318 4.91385 83.0396L4.41389 83.0458C4.4013 82.0343 4.40829 81.0186 4.43519 79.9991L4.93502 80.0123C4.95717 79.1727 4.99292 78.3306 5.04245 77.4861C5.09199 76.6416 5.15493 75.801 5.23108 74.9647L4.73314 74.9194C4.82561 73.9037 4.93741 72.8941 5.06817 71.891L5.56398 71.9556C5.78273 70.2775 6.05485 68.6175 6.3785 66.9775L5.88796 66.8806C6.08529 65.8807 6.30165 64.8881 6.53663 63.9031L7.02298 64.0192C7.41512 62.3755 7.85947 60.7533 8.35406 59.1545L7.8764 59.0067C8.17742 58.0336 8.49695 57.069 8.83454 56.1134L9.30599 56.28C9.86813 54.6887 10.4807 53.1225 11.1417 51.5829L10.6822 51.3857C11.0839 50.4502 11.5032 49.5246 11.9399 48.6091L12.3912 48.8244C13.1172 47.3026 13.8913 45.8091 14.7115 44.3459L14.2754 44.1015C14.7728 43.2141 15.287 42.3379 15.8176 41.4731L16.2437 41.7346C17.125 40.2982 18.0517 38.8937 19.0218 37.5229L18.6137 37.2341C19.2008 36.4044 19.8037 35.5869 20.422 34.7822L20.8185 35.0868C21.8444 33.7514 22.9127 32.4511 24.0214 31.1879L23.6456 30.8581C24.3158 30.0944 25.0007 29.3441 25.6997 28.6078L26.0624 28.952C27.2209 27.7316 28.4186 26.5496 29.6532 25.4078L29.3138 25.0407C30.0595 24.3511 30.8187 23.676 31.5908 23.016L31.9157 23.3961C33.1939 22.3034 34.5079 21.2521 35.8554 20.2442L35.5559 19.8438C36.3689 19.2356 37.1941 18.6431 38.0309 18.0668L38.3145 18.4785C39.6987 17.5252 41.1149 16.6162 42.5611 15.7534L42.305 15.324C43.1765 14.8041 44.0588 14.3009 44.9514 13.8148L45.1906 14.2539C46.6654 13.4507 48.1686 12.6945 49.6981 11.9872L49.4883 11.5334C50.4092 11.1076 51.3395 10.6993 52.2789 10.3091L52.4707 10.7708C54.0198 10.1273 55.5935 9.53306 57.1897 8.98998L57.0287 8.51663C57.9889 8.18994 58.9572 7.88165 59.9332 7.59214L60.0754 8.07149C61.6817 7.59503 63.3088 7.16977 64.9549 6.7975L64.8446 6.30982C65.8331 6.08626 66.8284 5.88169 67.83 5.69649L67.9209 6.18815C69.5666 5.88386 71.2296 5.63221 72.9079 5.43491L72.8495 4.93833C73.8551 4.8201 74.8663 4.72127 75.8824 4.6422L75.9212 5.14069C77.5879 5.011 79.2682 4.9348 80.9605 4.91374L80.9543 4.41377C81.9658 4.40118 82.9815 4.40817 84.001 4.43507L83.9878 4.9349C84.8273 4.95705 85.6695 4.9928 86.514 5.04233C87.3585 5.09187 88.199 5.15482 89.0354 5.23096L89.0807 4.73302C90.0964 4.82549 91.106 4.9373 92.1091 5.06805L92.0445 5.56386C93.7226 5.78261 95.3826 6.05473 97.0226 6.37838L97.1194 5.88784C98.1194 6.08517 99.112 6.30153 100.097 6.53651L99.9809 7.02286C101.625 7.41501 103.247 7.85935 104.846 8.35395L104.993 7.87628C105.966 8.17731 106.931 8.49684 107.887 8.83443L107.72 9.30588C109.311 9.86802 110.878 10.4806 112.417 11.1416L112.614 10.6821C113.55 11.0837 114.476 11.5031 115.391 11.9398L115.176 12.3911C116.698 13.1171 118.191 13.8912 119.654 14.7114L119.899 14.2753C120.786 14.7726 121.662 15.2869 122.527 15.8175L122.266 16.2436C123.702 17.1249 125.106 18.0516 126.477 19.0217L126.766 18.6136C127.596 19.2007 128.413 19.8036 129.218 20.4219L128.913 20.8184C130.249 21.8443 131.549 22.9126 132.812 24.0213L133.142 23.6455C133.906 24.3157 134.656 25.0006 135.392 25.6996L135.048 26.0623C136.268 27.2208 137.451 28.4185 138.592 29.6531L138.959 29.3137C139.649 30.0594 140.324 30.8186 140.984 31.5907L140.604 31.9156C141.697 33.1938 142.748 34.5078 143.756 35.8553L144.156 35.5558C144.764 36.3688 145.357 37.194 145.933 38.0308L145.522 38.3144C146.475 39.6986 147.384 41.1148 148.247 42.561L148.676 42.3049C149.196 43.1764 149.699 44.0587 150.185 44.9514L149.746 45.1905C150.549 46.6653 151.306 48.1685 152.013 49.698L152.467 49.4882C152.893 50.4091 153.301 51.3394 153.691 52.2788L153.229 52.4706C153.873 54.0197 154.467 55.5934 155.01 57.1896L155.483 57.0286C155.81 57.9888 156.118 58.9571 156.408 59.9331L155.929 60.0753C156.405 61.6816 156.83 63.3087 157.203 64.9548L157.69 64.8445C157.914 65.833 158.118 66.8283 158.304 67.8299L157.812 67.9208C158.116 69.5666 158.368 71.2295 158.565 72.9078L159.062 72.8494C159.18 73.8551 159.279 74.8662 159.358 75.8823L158.859 75.9211C158.989 77.5878 159.065 79.2682 159.086 80.9604L159.586 80.9542Z" stroke="#B5B9FB" stroke-dasharray="5 3"/>
<path d="M144.075 75.6489C144.164 76.6465 144.229 77.6509 144.269 78.6616L143.77 78.6818C143.803 79.5103 143.82 80.3431 143.82 81.1799C143.82 82.0167 143.803 82.8495 143.77 83.6781L144.269 83.6982C144.229 84.7089 144.164 85.7134 144.075 86.7109L143.577 86.6666C143.428 88.3362 143.212 89.9864 142.931 91.6145L143.424 91.6995C143.252 92.6949 143.057 93.6822 142.838 94.6607L142.35 94.5515C141.985 96.1832 141.555 97.7902 141.062 99.3696L141.539 99.5185C141.239 100.482 140.915 101.435 140.569 102.377L140.1 102.205C139.524 103.773 138.886 105.311 138.188 106.815L138.642 107.025C138.218 107.94 137.772 108.842 137.305 109.732L136.862 109.499C136.087 110.976 135.253 112.416 134.363 113.818L134.785 114.086C134.246 114.937 133.686 115.773 133.106 116.595L132.697 116.306C131.737 117.667 130.723 118.987 129.657 120.263L130.041 120.583C129.395 121.356 128.731 122.112 128.05 122.852L127.682 122.513C126.554 123.737 125.377 124.914 124.153 126.042L124.492 126.409C123.753 127.091 122.996 127.755 122.223 128.401L121.903 128.017C120.627 129.083 119.307 130.097 117.946 131.057L118.235 131.466C117.413 132.046 116.577 132.606 115.726 133.145L115.458 132.723C114.056 133.613 112.616 134.447 111.139 135.222L111.372 135.665C110.482 136.132 109.58 136.578 108.665 137.002L108.455 136.548C106.951 137.246 105.413 137.884 103.845 138.46L104.017 138.929C103.075 139.275 102.122 139.599 101.159 139.899L101.01 139.422C99.4303 139.915 97.8233 140.345 96.1916 140.71L96.3007 141.198C95.3223 141.417 94.335 141.612 93.3396 141.784L93.2546 141.291C91.6265 141.572 89.9763 141.788 88.3066 141.937L88.351 142.435C87.3535 142.523 86.349 142.589 85.3383 142.629L85.3182 142.13C84.4896 142.163 83.6568 142.18 82.82 142.18C81.9832 142.18 81.1504 142.163 80.3218 142.13L80.3017 142.629C79.291 142.589 78.2866 142.523 77.289 142.435L77.3334 141.937C75.6637 141.788 74.0135 141.572 72.3854 141.291L72.3005 141.784C71.305 141.612 70.3177 141.417 69.3393 141.198L69.4484 140.71C67.8167 140.345 66.2097 139.915 64.6303 139.422L64.4814 139.899C63.5181 139.599 62.5649 139.275 61.6226 138.929L61.7949 138.46C60.2271 137.884 58.6894 137.246 57.1849 136.548L56.9745 137.002C56.06 136.578 55.1576 136.132 54.2681 135.665L54.5006 135.222C53.0243 134.447 51.5836 133.613 50.1818 132.723L49.9139 133.145C49.0633 132.606 48.2269 132.046 47.4053 131.466L47.6936 131.057C46.3327 130.097 45.0129 129.083 43.7372 128.017L43.4167 128.401C42.6441 127.755 41.8875 127.091 41.1477 126.409L41.4866 126.042C40.2632 124.914 39.0859 123.737 37.9581 122.513L37.5905 122.852C36.9086 122.112 36.2445 121.356 35.5991 120.583L35.9828 120.263C34.9172 118.987 33.9028 117.667 32.9426 116.306L32.5341 116.595C31.9544 115.773 31.3944 114.937 30.8546 114.086L31.2768 113.818C30.3872 112.416 29.5533 110.976 28.778 109.499L28.3354 109.732C27.8683 108.842 27.4223 107.94 26.9982 107.025L27.4518 106.815C26.754 105.311 26.1158 103.773 25.5401 102.205L25.0708 102.377C24.7248 101.435 24.4012 100.482 24.1006 99.5185L24.5779 99.3696C24.0852 97.7902 23.6549 96.1832 23.29 94.5515L22.8021 94.6607C22.5832 93.6822 22.3877 92.6949 22.2162 91.6995L22.7089 91.6145C22.4283 89.9865 22.2122 88.3362 22.0634 86.6666L21.5654 86.711C21.4764 85.7134 21.4113 84.7089 21.3706 83.6982L21.8702 83.6781C21.8369 82.8495 21.82 82.0167 21.82 81.1799C21.82 80.3431 21.8369 79.5103 21.8702 78.6818L21.3706 78.6616C21.4113 77.6509 21.4764 76.6465 21.5654 75.6489L22.0634 75.6933C22.2122 74.0236 22.4283 72.3734 22.7089 70.7453L22.2162 70.6604C22.3877 69.6649 22.5832 68.6777 22.8021 67.6992L23.29 67.8083C23.6549 66.1766 24.0852 64.5697 24.5779 62.9903L24.1006 62.8413C24.4012 61.878 24.7248 60.9248 25.0708 59.9825L25.5401 60.1548C26.1158 58.587 26.754 57.0493 27.4517 55.5448L26.9982 55.3345C27.4223 54.4199 27.8683 53.5176 28.3354 52.628L28.778 52.8605C29.5533 51.3842 30.3872 49.9436 31.2768 48.5417L30.8546 48.2738C31.3943 47.4232 31.9544 46.5868 32.534 45.7652L32.9426 46.0535C33.9028 44.6926 34.9172 43.3728 35.9828 42.0971L35.5991 41.7766C36.2445 41.004 36.9086 40.2474 37.5905 39.5076L37.9581 39.8465C39.0859 38.6231 40.2631 37.4459 41.4866 36.3181L41.1477 35.9504C41.8875 35.2685 42.644 34.6044 43.4167 33.959L43.7372 34.3428C45.0129 33.2771 46.3327 32.2627 47.6936 31.3025L47.4053 30.894C48.2269 30.3143 49.0633 29.7543 49.9139 29.2145L50.1817 29.6367C51.5836 28.7471 53.0243 27.9132 54.5006 27.138L54.2681 26.6953C55.1576 26.2282 56.06 25.7822 56.9745 25.3581L57.1849 25.8117C58.6894 25.1139 60.227 24.4757 61.7949 23.9L61.6226 23.4307C62.5649 23.0847 63.5181 22.7611 64.4814 22.4605L64.6303 22.9379C66.2097 22.4451 67.8167 22.0148 69.4484 21.6499L69.3393 21.162C70.3177 20.9432 71.305 20.7477 72.3005 20.5761L72.3854 21.0688C74.0135 20.7882 75.6637 20.5721 77.3334 20.4233L77.289 19.9253C78.2866 19.8364 79.291 19.7713 80.3017 19.7306L80.3218 20.2301C81.1504 20.1968 81.9832 20.1799 82.82 20.1799C83.6568 20.1799 84.4896 20.1968 85.3182 20.2301L85.3383 19.7306C86.349 19.7713 87.3535 19.8364 88.351 19.9253L88.3066 20.4233C89.9763 20.5721 91.6265 20.7882 93.2546 21.0688L93.3396 20.5761C94.335 20.7477 95.3223 20.9432 96.3007 21.162L96.1916 21.6499C97.8233 22.0148 99.4303 22.4451 101.01 22.9378L101.159 22.4605C102.122 22.7611 103.075 23.0847 104.017 23.4307L103.845 23.9C105.413 24.4757 106.951 25.1139 108.455 25.8117L108.665 25.3581C109.58 25.7822 110.482 26.2282 111.372 26.6953L111.139 27.138C112.616 27.9132 114.056 28.7471 115.458 29.6367L115.726 29.2145C116.577 29.7543 117.413 30.3143 118.235 30.894L117.946 31.3025C119.307 32.2627 120.627 33.2771 121.903 34.3428L122.223 33.959C122.996 34.6044 123.753 35.2685 124.492 35.9504L124.153 36.3181C125.377 37.4459 126.554 38.6231 127.682 39.8465L128.05 39.5076C128.731 40.2474 129.396 41.004 130.041 41.7766L129.657 42.0971C130.723 43.3728 131.737 44.6926 132.697 46.0535L133.106 45.7652C133.686 46.5868 134.246 47.4232 134.785 48.2738L134.363 48.5417C135.253 49.9436 136.087 51.3842 136.862 52.8605L137.305 52.628C137.772 53.5175 138.218 54.4199 138.642 55.3345L138.188 55.5448C138.886 57.0493 139.524 58.587 140.1 60.1548L140.569 59.9825C140.915 60.9248 141.239 61.878 141.539 62.8413L141.062 62.9902C141.555 64.5696 141.985 66.1766 142.35 67.8083L142.838 67.6992C143.057 68.6777 143.252 69.6649 143.424 70.6604L142.931 70.7453C143.212 72.3734 143.428 74.0236 143.577 75.6933L144.075 75.6489Z" stroke="#ACB1FA" stroke-dasharray="5 3"/>
<circle cx="60.92" cy="40.8" r="7" fill="#4D6AF2"/>
<circle cx="142.74" cy="71.2598" r="7.37997" fill="#ACB1FA"/>
<ellipse cx="104.14" cy="137.98" rx="7.37999" ry="7.38" fill="#FFBB00"/>
<rect x="23.9032" y="49.5" width="112.176" height="73" rx="1.5" fill="white" stroke="#DADADA"/>
<line x1="26.0353" y1="69.4375" x2="135.28" y2="69.4375" stroke="#DADADA"/>
<line x1="45.451" y1="74.9023" x2="45.451" y2="115.527" stroke="#DADADA" stroke-linecap="round"/>
<line x1="67.2159" y1="74.9023" x2="67.2159" y2="115.527" stroke="#DADADA" stroke-linecap="round"/>
<line x1="88.9806" y1="74.9023" x2="88.9806" y2="115.527" stroke="#DADADA" stroke-linecap="round"/>
<line x1="110.745" y1="74.9023" x2="110.745" y2="115.527" stroke="#DADADA" stroke-linecap="round"/>
<line x1="35.6823" y1="86.6912" x2="121.741" y2="86.6912" stroke="#DADADA" stroke-linecap="round"/>
<path d="M36.4611 102.537H120.962" stroke="#DADADA" stroke-linecap="round"/>
</svg>
