<svg xmlns="http://www.w3.org/2000/svg" width="16" height="16" fill="none" xmlns:v="https://vecta.io/nano"><path d="M6.042 3.118a.254.254 0 0 0-.232 0L2.556 4.781v7.763l2.558-1.308a1.78 1.78 0 0 1 1.624 0l3.22 1.646a.254.254 0 0 0 .232 0l3.254-1.663V3.456l-2.558 1.308a1.78 1.78 0 0 1-1.624 0l-3.22-1.646Zm-.928-1.422a1.78 1.78 0 0 1 1.624 0l3.22 1.646a.254.254 0 0 0 .232 0l2.934-1.5c.862-.44 1.876.2 1.876 1.185v8.355c0 .502-.277.961-.717 1.186l-3.397 1.736a1.78 1.78 0 0 1-1.624 0l-3.22-1.646a.254.254 0 0 0-.232 0l-2.934 1.5c-.862.44-1.876-.2-1.876-1.185V4.617c0-.501.277-.96.717-1.185l3.397-1.736Z" fill="#000"/></svg>