<svg width="16" height="16" viewBox="0 0 16 16" fill="none" xmlns="http://www.w3.org/2000/svg">
<path d="M6.75 5.75C6.75 6.44036 7.30964 7 8 7C8.69036 7 9.25 6.44036 9.25 5.75C9.25 5.05964 8.69036 4.5 8 4.5C7.30964 4.5 6.75 5.05964 6.75 5.75Z" fill="#333333"/>
<path d="M11.25 5.75C11.25 6.44036 11.8096 7 12.5 7C13.1904 7 13.75 6.44036 13.75 5.75C13.75 5.05964 13.1904 4.5 12.5 4.5C11.8096 4.5 11.25 5.05964 11.25 5.75Z" fill="#333333"/>
<path d="M2.25 5.75C2.25 6.44036 2.80964 7 3.5 7C4.19036 7 4.75 6.44036 4.75 5.75C4.75 5.05964 4.19036 4.5 3.5 4.5C2.80964 4.5 2.25 5.05964 2.25 5.75Z" fill="#333333"/>
<path d="M6.75 10.25C6.75 10.9404 7.30964 11.5 8 11.5C8.69036 11.5 9.25 10.9404 9.25 10.25C9.25 9.55964 8.69036 9 8 9C7.30964 9 6.75 9.55964 6.75 10.25Z" fill="#333333"/>
<path d="M11.25 10.25C11.25 10.9404 11.8096 11.5 12.5 11.5C13.1904 11.5 13.75 10.9404 13.75 10.25C13.75 9.55964 13.1904 9 12.5 9C11.8096 9 11.25 9.55964 11.25 10.25Z" fill="#333333"/>
<path d="M2.25 10.25C2.25 10.9404 2.80964 11.5 3.5 11.5C4.19036 11.5 4.75 10.9404 4.75 10.25C4.75 9.55964 4.19036 9 3.5 9C2.80964 9 2.25 9.55964 2.25 10.25Z" fill="#333333"/>
</svg>
