<svg xmlns="http://www.w3.org/2000/svg" width="16" height="16" fill="none" xmlns:v="https://vecta.io/nano"><path d="M7.08 1.262a1.757 1.757 0 0 1 1.84 0h.002l4.18 2.547c.277.17.504.414.66.702s.238.613.238.942v5.093a1.99 1.99 0 0 1-.238.943 1.868 1.868 0 0 1-.66.702l-.003.002-4.177 2.544-.001.001c-.278.17-.596.262-.921.262a1.75 1.75 0 0 1-.92-.262h-.002l-4.177-2.545-.002-.002a1.869 1.869 0 0 1-.661-.702A1.982 1.982 0 0 1 2 10.547V5.454a1.99 1.99 0 0 1 .238-.943 1.87 1.87 0 0 1 .66-.702l.003-.002 4.177-2.544.001-.001zm1.547 12.17l3.824-2.329h.001a.604.604 0 0 0 .212-.228.694.694 0 0 0 .082-.33V6.097l-4.12 2.28v5.056zM8 7.276l4.377-2.423-4.105-2.5a.518.518 0 0 0-.544 0h-.002l-4.103 2.5L8 7.275zM3.254 6.097v4.449a.71.71 0 0 0 .082.329.604.604 0 0 0 .213.228l3.824 2.33V8.378l-4.12-2.281z" fill="#000"/></svg>