<svg width="21" height="8" viewBox="0 0 21 8" fill="none" xmlns="http://www.w3.org/2000/svg">
<path d="M4 3.5C3.72386 3.5 3.5 3.72386 3.5 4C3.5 4.27614 3.72386 4.5 4 4.5L4 3.5ZM20.3535 4.35355C20.5487 4.15829 20.5487 3.84171 20.3535 3.64644L17.1715 0.464464C16.9762 0.269202 16.6597 0.269202 16.4644 0.464464C16.2691 0.659726 16.2691 0.976309 16.4644 1.17157L19.2928 4L16.4644 6.82843C16.2691 7.02369 16.2691 7.34027 16.4644 7.53553C16.6597 7.73079 16.9762 7.73079 17.1715 7.53553L20.3535 4.35355ZM4 4.5L19.9999 4.5L19.9999 3.5L4 3.5L4 4.5Z" fill="#5D5D5D"/>
<g clip-path="url(#clip0_343_20242)">
<circle opacity="0.15" cx="4" cy="4" r="3.5" fill="#5D5D5D"/>
<path d="M5.5 4C5.5 4.82843 4.82843 5.5 4 5.5C3.17157 5.5 2.5 4.82843 2.5 4C2.5 3.17157 3.17157 2.5 4 2.5C4.82843 2.5 5.5 3.17157 5.5 4Z" fill="#5D5D5D"/>
<path fill-rule="evenodd" clip-rule="evenodd" d="M4 5.5C4.82843 5.5 5.5 4.82843 5.5 4C5.5 3.17157 4.82843 2.5 4 2.5C3.17157 2.5 2.5 3.17157 2.5 4C2.5 4.82843 3.17157 5.5 4 5.5Z" fill="#5D5D5D"/>
</g>
<defs>
<clipPath id="clip0_343_20242">
<rect width="8" height="8" fill="white"/>
</clipPath>
</defs>
</svg>
