<svg width="45" height="44" viewBox="0 0 45 44" fill="none" xmlns="http://www.w3.org/2000/svg">
<g filter="url(#filter0_i_1041_37915)">
<path d="M7.38574 42.5947H37.6143C38.3731 42.5947 38.9883 41.9796 38.9883 41.2207V10.7291C38.9883 10.3744 38.8511 10.0335 38.6055 9.77759L30.9436 1.79649C30.6845 1.52659 30.3265 1.37402 29.9524 1.37402H7.38574C6.62689 1.37402 6.01172 1.9892 6.01172 2.74805V41.2207C6.01172 41.9796 6.62689 42.5947 7.38574 42.5947Z" fill="#D9D9D9"/>
</g>
<path d="M14.9906 27.0775C16.874 27.0775 18.0743 25.9602 18.2012 24.3695H16.5129C16.3617 25.1746 15.781 25.6381 15.0052 25.6381C13.9025 25.6381 13.1901 24.7159 13.1901 23.1838C13.1901 21.6712 13.9171 20.7637 15.0052 20.7637C15.8542 20.7637 16.3763 21.3101 16.5129 22.0323H18.2012C18.0792 20.4075 16.8106 19.3389 14.9808 19.3389C12.7851 19.3389 11.3994 20.9247 11.3994 23.2131C11.3994 25.482 12.751 27.0775 14.9906 27.0775ZM25.5751 21.4175C25.3311 20.1489 24.3162 19.3389 22.5597 19.3389C20.7543 19.3389 19.5247 20.2269 19.5296 21.6127C19.5247 22.7056 20.1981 23.4278 21.6375 23.7254L22.9158 23.9938C23.6038 24.145 23.9259 24.4232 23.9259 24.8477C23.9259 25.36 23.3696 25.7455 22.5304 25.7455C21.7204 25.7455 21.1934 25.3942 21.0422 24.7208L19.3198 24.8867C19.5393 26.2627 20.6957 27.0775 22.5353 27.0775C24.4089 27.0775 25.7312 26.1065 25.7361 24.6867C25.7312 23.6181 25.0432 22.9642 23.6282 22.6568L22.3498 22.3836C21.5887 22.2128 21.2861 21.9493 21.291 21.5151C21.2861 21.0076 21.8473 20.6563 22.5841 20.6563C23.3989 20.6563 23.8283 21.1003 23.9649 21.5931L25.5751 21.4175ZM33.8871 19.4365H32.0085L30.2812 25.0038H30.2031L28.4807 19.4365H26.5973L29.2663 26.9312H31.2181L33.8871 19.4365Z" fill="white"/>
<path fill-rule="evenodd" clip-rule="evenodd" d="M38.9883 9.96167L30.4006 1.37402V9.96167H38.9883Z" fill="#CDCDCD"/>
<defs>
<filter id="filter0_i_1041_37915" x="6.01172" y="1.37402" width="32.9766" height="41.2207" filterUnits="userSpaceOnUse" color-interpolation-filters="sRGB">
<feFlood flood-opacity="0" result="BackgroundImageFix"/>
<feBlend mode="normal" in="SourceGraphic" in2="BackgroundImageFix" result="shape"/>
<feColorMatrix in="SourceAlpha" type="matrix" values="0 0 0 0 0 0 0 0 0 0 0 0 0 0 0 0 0 0 127 0" result="hardAlpha"/>
<feOffset dy="-3.77588"/>
<feComposite in2="hardAlpha" operator="arithmetic" k2="-1" k3="1"/>
<feColorMatrix type="matrix" values="0 0 0 0 0.803922 0 0 0 0 0.803922 0 0 0 0 0.803922 0 0 0 1 0"/>
<feBlend mode="normal" in2="shape" result="effect1_innerShadow_1041_37915"/>
</filter>
</defs>
</svg>
