<svg width="214" height="129" viewBox="0 0 214 129" fill="none" xmlns="http://www.w3.org/2000/svg">
<path d="M24.0435 29.2103C25.0256 29.4469 26.0817 28.8621 26.4025 27.9042C26.7232 26.9463 26.1871 25.978 25.205 25.7414L5.42938 20.9775L20.9858 3.37063C21.6547 2.61362 21.5553 1.49111 20.7638 0.863457C19.9722 0.235801 18.7884 0.340669 18.1195 1.09769L0.548689 20.9844C-0.120171 21.7414 -0.0207387 22.8639 0.770777 23.4916C1.1295 23.7761 1.56882 23.9101 2.00426 23.9011L24.0435 29.2103Z" fill="#E8E8E8"/>
<path fill-rule="evenodd" clip-rule="evenodd" d="M56.2479 26.5793C37.923 18.6445 17.8278 19.5136 4.94923 22.774C3.96946 23.0221 2.97412 22.4289 2.72607 21.4491C2.47803 20.4693 3.07121 19.474 4.05098 19.226C17.5057 15.8197 38.4605 14.8889 57.7023 23.2207C76.6941 31.4443 93.8211 48.6136 100.423 80.757C124.422 75.1074 179.283 75.3369 213.475 121.917C214.073 122.732 213.898 123.877 213.083 124.475C212.268 125.073 211.123 124.898 210.525 124.083C177.45 79.0239 124.176 78.8526 101.093 84.3592C103.816 101.64 97.4795 114.564 89.0562 121.882C84.7331 125.637 79.8206 127.947 75.2803 128.548C70.7466 129.149 66.3586 128.05 63.5838 124.659C59.5196 119.692 57.7998 111.451 62.5194 103.1C67.075 95.0387 77.4683 87.134 96.8769 81.6838C90.534 50.5389 74.1369 34.3254 56.2479 26.5793ZM97.5347 85.3011C78.8122 90.6147 69.5668 98.0686 65.7058 104.9C61.7504 111.899 63.2806 118.508 66.4165 122.341C68.1416 124.45 71.0806 125.413 74.7994 124.92C78.5115 124.428 82.7771 122.488 86.6559 119.118C94.0607 112.686 99.9151 101.155 97.5347 85.3011Z" fill="#E8E8E8"/>
</svg>
