<svg width="39" height="35" viewBox="0 0 39 35" fill="none" xmlns="http://www.w3.org/2000/svg">
    <path d="M0 9C0 8.44772 0.447715 8 1 8H24C28.4183 8 32 11.5817 32 16V31C32 31.5523 31.5523 32 31 32H1C0.447715 32 0 31.5523 0 31V9Z" fill="#D9D9D9"/>
    <path d="M0 8C0 7.44772 0.447715 7 1 7H24C28.4183 7 32 10.5817 32 15V30C32 30.5523 31.5523 31 31 31H1C0.447715 31 0 30.5523 0 30V8Z" fill="#E7ECF5"/>
    <path d="M32.5 1C32.2148 1 31.9282 3.63428 30.7812 4.78125C29.6343 5.92822 27 6.32812 27 6.5C27 6.67188 29.6343 7.07178 30.7812 8.21875C31.9282 9.36572 32.2148 12 32.5 12C32.7852 12 33.0718 9.36572 34.2188 8.21875C35.3657 7.07178 38 6.67188 38 6.5C38 6.32812 35.3657 5.92822 34.2188 4.78125C33.0718 3.63428 32.7852 1 32.5 1Z" fill="url(#paint0_linear)" stroke="white"/>
    <rect width="10.5" height="7.22222" rx="1" transform="matrix(-1 0 0 1 14.5 17.7773)" fill="#FFF7F3" fill-opacity="0.8" stroke="#FF6918"/>
    <rect width="10.5" height="7.22222" rx="1" transform="matrix(-1 0 0 1 28 12)" fill="#F0FCF8" fill-opacity="0.8" stroke="#078D79"/>
    <defs>
    <linearGradient id="paint0_linear" x1="32.5961" y1="-4.5" x2="21.5961" y2="6.30776" gradientUnits="userSpaceOnUse">
    <stop stop-color="#4967FB"/>
    <stop offset="1" stop-color="#C844DB"/>
    </linearGradient>
    </defs>
    </svg>
