<svg width="32" height="32" viewBox="0 0 32 32" fill="none" xmlns="http://www.w3.org/2000/svg">
    <rect y="5" width="32" height="24" rx="1" fill="#D9D9D9"/>
    <rect y="4" width="32" height="24" rx="1" fill="#FAFAFA"/>
    <path d="M27.0547 24.3711H23.0547H21.0547L20.0547 23.0742L21.0547 21.7773L23.0547 19.1836L27.0547 24.3711Z" fill="#595959" stroke="#595959" stroke-width="2"/>
    <path d="M12 16.5L6 24.371H12H18L12 16.5Z" fill="#BFBFBF"/>
    <path d="M12 16.5L6 24.371H12M12 16.5L18 24.371H12M12 16.5V24.371" stroke="#BFBFBF" stroke-width="2"/>
    <path d="M18.4922 14.5625C19.5968 14.5625 20.4922 13.6671 20.4922 12.5625C20.4922 11.4579 19.5968 10.5625 18.4922 10.5625C17.3876 10.5625 16.4922 11.4579 16.4922 12.5625C16.4922 13.6671 17.3876 14.5625 18.4922 14.5625Z" fill="#595959"/>
    </svg>
