<?xml version="1.0" encoding="utf-8"?>
<!-- Generator: Adobe Illustrator 23.0.1, SVG Export Plug-In . SVG Version: 6.00 Build 0)  -->
<svg version="1.1" id="Layer_1" xmlns="http://www.w3.org/2000/svg" xmlns:xlink="http://www.w3.org/1999/xlink" x="0px" y="0px"
	 viewBox="0 0 1920 1080" style="enable-background:new 0 0 1920 1080;" xml:space="preserve">
<style type="text/css">
	.st0{fill:#F7F6F5;}
	.st1{opacity:5.000000e-02;clip-path:url(#SVGID_2_);enable-background:new    ;}
</style>
<rect id="joao-silveira-435279-unsplash" class="st0" width="1914.1" height="1080"/>
<g>
	<defs>
		<rect id="SVGID_1_" y="0" width="1920" height="1080"/>
	</defs>
	<clipPath id="SVGID_2_">
		<use xlink:href="#SVGID_1_"  style="overflow:visible;"/>
	</clipPath>
	<g class="st1">
		<path d="M919.2,98.2c10.6,7.3,19.9,16.1,27.9,26.4l-64.2,52.3c-8.3-10-18.4-17.6-30.4-22.9c-12-5.3-25.8-8-41.6-8
			c-15.8,0-30.3,3-43.6,9c-13.3,6-24.8,14.4-34.6,25.4c-9.8,11-17.5,23.9-23.2,38.8c-5.6,14.9-8.5,31.2-8.5,48.8h-86.7
			c0-30.2,5.1-57.7,15.2-82.4c10.1-24.7,24.3-45.7,42.6-63c18.3-17.3,39.8-30.5,64.7-39.8c24.9-9.3,52.3-13.9,82.2-13.9
			c11.3,0,22.4,1,33.4,3c11.6,2,23.1,5.2,34.4,9.5C898.1,85.6,908.9,91.3,919.2,98.2z"/>
	</g>
	<g class="st1">
		<path d="M1217.9,611.7h87.7v398.4H1191l-74.2-120.5V725.3l100.1,163.4h1V611.7z"/>
	</g>
</g>
</svg>
