<svg width="16" height="16" viewBox="0 0 16 16" fill="none" xmlns="http://www.w3.org/2000/svg">
<path d="M3.61677 10.6916C3.61677 11.4142 3.03099 12 2.30839 12C1.58579 12 1 11.4142 1 10.6916C1 9.96901 1.58579 9.38323 2.30839 9.38323C3.03099 9.38323 3.61677 9.96901 3.61677 10.6916Z" fill="#333333"/>
<path d="M3.61677 10.6916C3.61677 11.4142 3.03099 12 2.30839 12C1.58579 12 1 11.4142 1 10.6916C1 9.96901 1.58579 9.38323 2.30839 9.38323C3.03099 9.38323 3.61677 9.96901 3.61677 10.6916Z" fill="#333333"/>
<path d="M8.99982 5.30839C8.99982 6.03099 8.41403 6.61677 7.69143 6.61677C6.96883 6.61677 6.38304 6.03099 6.38304 5.30839C6.38304 4.58579 6.96883 4 7.69143 4C8.41403 4 8.99982 4.58579 8.99982 5.30839Z" fill="#333333"/>
<path d="M8.99982 5.30839C8.99982 6.03099 8.41403 6.61677 7.69143 6.61677C6.96883 6.61677 6.38304 6.03099 6.38304 5.30839C6.38304 4.58579 6.96883 4 7.69143 4C8.41403 4 8.99982 4.58579 8.99982 5.30839Z" fill="#333333"/>
<path d="M14.3829 10.6915C14.3829 11.4141 13.7971 11.9999 13.0745 11.9999C12.3519 11.9999 11.7661 11.4141 11.7661 10.6915C11.7661 9.96886 12.3519 9.38308 13.0745 9.38308C13.7971 9.38308 14.3829 9.96886 14.3829 10.6915Z" fill="#333333"/>
<path d="M14.3829 10.6915C14.3829 11.4141 13.7971 11.9999 13.0745 11.9999C12.3519 11.9999 11.7661 11.4141 11.7661 10.6915C11.7661 9.96886 12.3519 9.38308 13.0745 9.38308C13.7971 9.38308 14.3829 9.96886 14.3829 10.6915Z" fill="#333333"/>
<path d="M2.70711 9.95012C2.31658 10.3406 2.1028 10.76 2.22962 10.8868C2.35643 11.0137 2.77581 10.7999 3.16634 10.4094L7.40898 6.16671C7.7995 5.77619 8.01328 5.3568 7.88647 5.22999C7.75966 5.10317 7.34027 5.31696 6.94975 5.70748L2.70711 9.95012Z" fill="#333333"/>
<path d="M11.9498 10.4091C12.3403 10.7996 12.7597 11.0134 12.8865 10.8866C13.0133 10.7598 12.7995 10.3404 12.409 9.94987L8.16634 5.70723C7.77582 5.31671 7.35644 5.10293 7.22962 5.22974C7.10281 5.35655 7.31659 5.77594 7.70711 6.16646L11.9498 10.4091Z" fill="#333333"/>
</svg>
