<svg width="42" height="26" viewBox="0 0 42 26" fill="none" xmlns="http://www.w3.org/2000/svg">
    <path fill-rule="evenodd" clip-rule="evenodd" d="M33.1105 10.5908V8.47276C33.1105 7.44941 32.281 6.61982 31.2576 6.61982C30.2342 6.61982 29.4047 7.44941 29.4047 8.47276V11.1719C28.337 11.4172 27.1035 11.6634 25.8691 11.9095V2.33159C25.8469 1.31741 25.0083 0.512378 23.9941 0.531587H23.9852C22.9902 0.534901 22.1822 1.3366 22.1711 2.33159V12.8095C22.0559 12.8056 21.9419 12.8341 21.842 12.8916C20.7083 13.134 19.6479 13.3765 18.5875 13.6189L18.55 13.6275V5.5257C18.5194 4.54871 17.7186 3.7725 16.7411 3.7725C15.7637 3.7725 14.9628 4.54871 14.9323 5.5257V14.4419C14.5864 14.5068 14.2515 14.5716 13.925 14.6348L13.9248 14.6349C13.0097 14.8119 12.16 14.9763 11.3147 15.0966V10.9239C11.2719 9.956 10.4747 9.19327 9.50584 9.19327C8.53696 9.19327 7.73978 9.956 7.69701 10.9239V15.5881C3.58525 16.0795 1.20201 15.9163 0.953191 15.1769C0.445692 14.0909 3.33927 12.6214 4.75723 11.9012C4.94418 11.8063 5.10548 11.7244 5.22996 11.6581V11.5769H5.1479C4.07937 11.9854 -0.526515 13.871 0.0496617 15.5034C0.624073 17.3051 7.69702 17.7975 22.4191 14.1948C34.7517 11.1666 40.4261 10.5904 41.0023 11.7375C41.4135 12.7186 38.3694 14.6016 35.41 15.911C35.3465 15.9755 35.3163 16.0657 35.3279 16.1554L35.3292 16.1567C35.4108 16.2383 35.4916 16.3191 35.575 16.2375C36.6426 15.8263 42.2358 13.4563 41.9879 11.4913C41.7426 10.183 38.7826 9.77352 33.1105 10.5908ZM7.71466 20.5831V19.2119C8.91505 19.1431 10.1107 19.0079 11.2961 18.8069V20.5831C11.2745 21.5566 10.4791 22.3345 9.5054 22.3345C8.53165 22.3345 7.73627 21.5566 7.71466 20.5831ZM14.9438 18.1989V23.1878C14.9352 24.1695 15.7184 24.9752 16.7 24.9943C17.6816 25.0134 18.4957 24.2388 18.5253 23.2575V17.4622C17.3471 17.7786 16.1512 18.0246 14.9438 18.1989ZM29.2093 15.1227V15.1248L29.2057 15.1254L29.2093 15.1227ZM29.2093 15.1248C30.6125 14.8803 31.8502 14.6366 32.9222 14.3939V17.2404C32.9059 18.2309 32.0997 19.0261 31.109 19.0289H31.0984C30.6107 19.0424 30.1375 18.8615 29.7832 18.5261C29.4289 18.1906 29.2224 17.7281 29.2093 17.2404V15.1248ZM22.2272 16.7533H21.9802V20.2589C22.0235 21.2532 22.8422 22.037 23.8375 22.037C24.8328 22.037 25.6515 21.2532 25.6949 20.2589V15.9354C25.4404 15.9935 25.1813 16.0516 24.9175 16.1107C24.0693 16.3009 23.1729 16.5018 22.2272 16.7515V16.7533Z" fill="url(#paint0_linear)"/>
    <defs>
        <linearGradient id="paint0_linear" x1="20.9979" y1="0.53125" x2="20.9979" y2="24.9947" gradientUnits="userSpaceOnUse">
            <stop stop-color="#FF6918"/>
            <stop offset="1" stop-color="#FC2574"/>
        </linearGradient>
    </defs>
</svg>
