<svg width="371" height="266" viewBox="0 0 371 266" fill="none" xmlns="http://www.w3.org/2000/svg">
<g clip-path="url(#clip0_852_184072)">
<g filter="url(#filter0_dd_852_184072)">
<g clip-path="url(#clip1_852_184072)">
<rect x="25.0586" y="6.13831" width="332" height="591" rx="10" transform="rotate(0.932921 25.0586 6.13831)" fill="white"/>
<path fill-rule="evenodd" clip-rule="evenodd" d="M61.4472 26.0263C61.8313 26.4231 61.821 27.0562 61.4242 27.4403L58.0781 30.6792L61.3169 34.0252C61.701 34.4221 61.6907 35.0552 61.2939 35.4393C60.8971 35.8234 60.264 35.8131 59.8799 35.4162L55.9455 31.3517C55.5614 30.9548 55.5717 30.3217 55.9686 29.9376L60.0332 26.0033C60.43 25.6192 61.0631 25.6295 61.4472 26.0263Z" fill="#333333"/>
<path d="M139.711 37.0091L141.53 37.0388L143.689 29.9288L143.769 29.9301L145.691 37.1065L147.51 37.1361L150.549 27.0025L148.566 26.9702L146.609 34.4265L146.52 34.4251L144.678 26.9069L142.874 26.8775L140.793 34.3268L140.699 34.3253L138.987 26.8142L137.003 26.7819L139.711 37.0091ZM153.991 37.3908C156.228 37.4273 157.676 35.8746 157.714 33.5134C157.753 31.1473 156.357 29.5434 154.12 29.5069C151.883 29.4705 150.435 31.0281 150.397 33.3943C150.358 35.7555 151.754 37.3544 153.991 37.3908ZM154.025 35.9494C152.787 35.9293 152.199 34.8159 152.221 33.419C152.244 32.0222 152.869 30.9136 154.106 30.9338C155.324 30.9536 155.913 32.0819 155.89 33.4788C155.867 34.8756 155.243 35.9693 154.025 35.9494ZM159.04 37.3239L160.839 37.3532L160.912 32.8644C160.928 31.8951 161.67 31.221 162.659 31.2371C162.962 31.2421 163.339 31.3029 163.493 31.3551L163.52 29.6998C163.356 29.6673 163.073 29.6428 162.874 29.6396C161.999 29.6253 161.26 30.1105 160.968 30.9908L160.888 30.9895L160.909 29.7169L159.164 29.6885L159.04 37.3239ZM164.45 37.412L166.249 37.4413L166.291 34.8763L166.959 34.1861L169.242 37.49L171.394 37.5251L168.333 33.1344L171.345 29.8869L169.242 29.8526L166.448 32.875L166.324 32.873L166.415 27.2608L164.616 27.2315L164.45 37.412ZM179.549 30.0205L178.043 29.996L178.072 28.1666L176.273 28.1373L176.243 29.9666L175.159 29.949L175.137 31.3409L176.22 31.3585L176.151 35.6037C176.118 37.0401 177.15 37.763 178.503 37.7452C179.015 37.7387 179.37 37.645 179.565 37.5835L179.284 36.1718C179.185 36.1951 178.98 36.2365 178.756 36.2328C178.304 36.2255 177.944 36.0605 177.956 35.3347L178.02 31.3878L179.526 31.4123L179.549 30.0205ZM181.861 40.5595C183.263 40.5824 184.085 39.8748 184.537 38.6639L187.744 30.1639L185.82 30.1226L183.961 35.8601L183.882 35.8588L182.216 30.0639L180.307 30.0328L182.949 37.8723L182.788 38.2824C182.441 39.1469 181.913 39.198 181.132 38.9565L180.691 40.3515C180.933 40.4549 181.369 40.5515 181.861 40.5595ZM188.682 40.6706L190.481 40.6999L190.547 36.6337L190.622 36.6349C190.896 37.1962 191.475 37.9863 192.787 38.0077C194.587 38.037 195.957 36.6323 195.998 34.117C196.04 31.5719 194.675 30.1674 192.911 30.1386C191.563 30.1167 190.989 30.9178 190.706 31.4651L190.602 31.4634L190.622 30.2008L188.853 30.172L188.682 40.6706ZM190.555 34.0184C190.579 32.5371 191.231 31.588 192.389 31.6069C193.587 31.6264 194.187 32.6555 194.164 34.0772C194.141 35.5088 193.497 36.5425 192.309 36.5231C191.161 36.5044 190.531 35.4997 190.555 34.0184ZM200.715 38.1517C202.495 38.1807 203.732 37.3307 204.071 36.0086L202.394 35.7924C202.14 36.4346 201.538 36.7629 200.763 36.7503C199.6 36.7314 198.841 35.9533 198.848 34.6457L204.167 34.7323L204.176 34.1805C204.219 31.5012 202.628 30.2969 200.749 30.2663C198.562 30.2306 197.109 31.813 197.071 34.1692C197.032 36.5652 198.413 38.1142 200.715 38.1517ZM198.873 33.4329C198.943 32.4594 199.677 31.651 200.751 31.6685C201.785 31.6853 202.469 32.4522 202.462 33.4913L198.873 33.4329Z" fill="#333333"/>
<path fill-rule="evenodd" clip-rule="evenodd" d="M281.003 29.6015C281.4 29.2174 282.033 29.2277 282.417 29.6246L286.352 33.6892C286.736 34.086 286.726 34.7191 286.329 35.1032L282.264 39.0375C281.867 39.4217 281.234 39.4113 280.85 39.0145C280.466 38.6177 280.476 37.9846 280.873 37.6005L284.219 34.3616L280.98 31.0156C280.596 30.6187 280.607 29.9857 281.003 29.6015Z" fill="#333333"/>
<path fill-rule="evenodd" clip-rule="evenodd" d="M322.443 30.7287C322.775 30.4071 323.305 30.4158 323.627 30.748L326.647 33.8684L329.767 30.8482C330.1 30.5266 330.63 30.5353 330.951 30.8675C331.273 31.1998 331.264 31.7298 330.932 32.0514L327.812 35.0715L330.832 38.1916C331.154 38.5239 331.145 39.0539 330.813 39.3755C330.481 39.6971 329.951 39.6885 329.629 39.3562L326.609 36.236L323.488 39.2565C323.156 39.578 322.626 39.5694 322.304 39.2372C321.983 38.9049 321.991 38.3749 322.324 38.0533L325.444 35.0329L322.424 31.9126C322.102 31.5803 322.111 31.0503 322.443 30.7287Z" fill="#333333"/>
<line x1="24.285" y1="53.632" x2="356.241" y2="59.0376" stroke="black" stroke-opacity="0.15"/>
<path d="M42.4979 78.5725L45.6693 78.6241L45.5251 87.4823L47.0561 87.5072L47.2004 78.649L50.3768 78.7008L50.3983 77.3785L42.5194 77.2502L42.4979 78.5725ZM51.8583 90.4494C53.0861 90.4694 53.872 89.8408 54.334 88.6451L57.6313 80.057L56.0259 80.0159L53.9957 85.9098L53.9162 85.9085L52.079 79.9516L50.4883 79.9257L53.156 87.706L52.9638 88.21C52.5695 89.218 52.0362 89.2938 51.2246 89.0568L50.8469 90.2689C51.0246 90.3513 51.4109 90.4422 51.8583 90.4494ZM58.8471 90.5633L60.3334 90.5875L60.3994 86.5361L60.4889 86.5376C60.7494 87.0291 61.2823 87.8881 62.6742 87.9107C64.5234 87.9408 65.8896 86.4814 65.9299 84.0108C65.9702 81.5353 64.6319 80.0566 62.7877 80.0266C61.3709 80.0035 60.8448 80.8601 60.5737 81.3281L60.4494 81.326L60.4696 80.0883L59.0181 80.0646L58.8471 90.5633ZM60.4124 83.906C60.4384 82.3104 61.1515 81.2629 62.449 81.284C63.7961 81.306 64.4536 82.4553 64.4289 83.9714C64.404 85.5025 63.689 86.6593 62.3618 86.6377C61.0842 86.6169 60.3862 85.5116 60.4124 83.906ZM70.8075 88.0481C72.4727 88.0753 73.6642 87.2742 74.0224 86.037L72.6198 85.7606C72.3396 86.477 71.6874 86.8343 70.8424 86.8206C69.5698 86.7998 68.7282 85.9607 68.7124 84.4887L74.1407 84.5771L74.1493 84.0502C74.1942 81.2913 72.5614 80.1857 70.8315 80.1576C68.704 80.1229 67.2758 81.7206 67.2376 84.0669C67.199 86.438 68.5556 88.0115 70.8075 88.0481ZM68.7355 83.3753C68.8128 82.2926 69.6135 81.3659 70.8215 81.3856C71.9747 81.4043 72.7164 82.2716 72.7023 83.4399L68.7355 83.3753Z" fill="#595959"/>
<path fill-rule="evenodd" clip-rule="evenodd" d="M142.576 77.0611L142.525 77.0603L142.525 77.0603C141.584 77.0449 140.804 77.0322 140.185 77.1052C139.534 77.182 138.951 77.3638 138.479 77.8207C138.007 78.2776 137.806 78.8537 137.708 79.5024C137.615 80.1188 137.603 80.8984 137.587 81.8397L137.587 81.8397L137.587 81.8909L137.519 86.0695L137.518 86.1207L137.518 86.1208C137.502 87.062 137.49 87.8416 137.563 88.4608C137.639 89.1122 137.821 89.6946 138.278 90.1666C138.735 90.6387 139.311 90.8393 139.96 90.9373C140.576 91.0304 141.356 91.0431 142.297 91.0584L142.348 91.0592L146.527 91.1273L146.578 91.1281C147.519 91.1435 148.299 91.1562 148.918 91.0832C149.57 91.0064 150.152 90.8246 150.624 90.3677C151.096 89.9107 151.297 89.3346 151.395 88.686C151.488 88.0696 151.501 87.2899 151.516 86.3487L151.517 86.2974L151.585 82.1189L151.586 82.0676C151.601 81.1264 151.614 80.3468 151.541 79.7276C151.464 79.0761 151.282 78.4938 150.825 78.0217C150.368 77.5497 149.792 77.349 149.143 77.2511C148.527 77.1579 147.747 77.1453 146.806 77.13L146.806 77.13L146.755 77.1291L142.576 77.0611ZM139.496 78.8717C139.646 78.7266 139.867 78.6155 140.356 78.5578C140.866 78.4977 141.547 78.5072 142.552 78.5236L146.731 78.5916C147.737 78.608 148.417 78.6206 148.925 78.6973C149.412 78.7709 149.629 78.8892 149.774 79.039C149.919 79.1889 150.03 79.4099 150.088 79.8989C150.148 80.4089 150.139 81.0895 150.122 82.0951L150.054 86.2736C150.038 87.2792 150.025 87.9598 149.948 88.4675C149.875 88.9543 149.757 89.1716 149.607 89.3167C149.457 89.4617 149.236 89.5729 148.747 89.6306C148.237 89.6907 147.556 89.6812 146.551 89.6648L142.372 89.5967C141.367 89.5804 140.686 89.5677 140.178 89.491C139.691 89.4175 139.474 89.2992 139.329 89.1493C139.184 88.9995 139.073 88.7784 139.015 88.2895C138.955 87.7795 138.965 87.0989 138.981 86.0933L139.049 81.9148C139.065 80.9092 139.078 80.2286 139.155 79.7208C139.228 79.234 139.347 79.0167 139.496 78.8717ZM142.187 81.7046L142.188 81.6524L143.859 81.6796L143.781 86.4849L143.337 86.4777C142.933 86.4711 142.601 86.7932 142.594 87.1971C142.588 87.6009 142.91 87.9336 143.313 87.9402L145.664 87.9785C146.068 87.9851 146.4 87.663 146.407 87.2591C146.414 86.8553 146.092 86.5226 145.688 86.516L145.244 86.5088L145.322 81.7034L146.993 81.7306L146.993 81.7829C146.986 82.1867 147.308 82.5195 147.712 82.526C148.116 82.5326 148.448 82.2105 148.455 81.8067L148.467 81.0754C148.476 80.5236 147.994 80.2841 147.686 80.279L141.543 80.179C141.235 80.174 140.746 80.3977 140.737 80.9496L140.725 81.6808C140.718 82.0847 141.04 82.4174 141.444 82.424C141.848 82.4305 142.181 82.1085 142.187 81.7046Z" fill="#333333"/>
<path d="M163.394 81.7643L164.587 81.7837C164.557 80.2468 163.159 79.0755 161.191 79.0434C159.242 79.0117 157.692 80.1201 157.665 81.8301C157.642 83.2021 158.623 84.0335 160.206 84.5167L161.453 84.895C162.522 85.2108 163.47 85.6041 163.454 86.6182C163.436 87.7317 162.35 88.4499 160.938 88.4269C159.725 88.4071 158.66 87.8528 158.58 86.6979L157.307 86.6772C157.399 88.3494 158.733 89.5048 160.92 89.5404C163.266 89.5786 164.62 88.3078 164.647 86.6575C164.678 84.7487 162.878 84.1028 161.829 83.8073L160.8 83.5121C160.047 83.3009 158.841 82.8835 158.859 81.7899C158.874 80.8156 159.781 80.1143 161.133 80.1364C162.366 80.1564 163.291 80.7582 163.394 81.7643ZM169.914 81.8705L168.284 81.8439L168.314 80.0146L167.141 79.9955L167.111 81.8248L165.957 81.806L165.941 82.8002L167.095 82.819L167.017 87.5911C166.995 88.9233 168.059 89.5771 169.053 89.5933C169.49 89.6004 169.77 89.5254 169.93 89.4683L169.708 88.4106C169.609 88.4289 169.449 88.466 169.19 88.4618C168.673 88.4534 168.179 88.2862 168.195 87.2921L168.268 82.8381L169.898 82.8647L169.914 81.8705ZM171.555 89.5346L172.728 89.5537L172.807 84.7219C172.823 83.688 173.651 82.9457 174.764 82.9638C175.078 82.9689 175.4 83.0338 175.479 83.055L175.498 81.862C175.364 81.8498 175.056 81.8349 174.882 81.832C173.968 81.8171 173.164 82.3212 172.873 83.0722L172.794 83.0709L172.812 81.9177L171.679 81.8992L171.555 89.5346ZM176.763 89.6194L177.936 89.6385L178.06 82.0031L176.887 81.984L176.763 89.6194ZM177.505 80.7212C177.962 80.7286 178.345 80.3769 178.353 79.9394C178.36 79.502 177.988 79.1379 177.53 79.1305C177.073 79.123 176.69 79.4748 176.682 79.9122C176.675 80.3497 177.047 80.7137 177.505 80.7212ZM181.333 85.0994C181.354 83.7672 182.192 83.0251 183.315 83.0434C184.404 83.0611 185.054 83.7827 185.034 84.9807L184.956 89.7528L186.129 89.7719L186.208 84.9203C186.24 82.9717 185.216 82.0202 183.671 81.995C182.517 81.9763 181.793 82.4816 181.423 83.2512L181.323 83.2496L181.343 82.0566L180.209 82.0381L180.085 89.6735L181.258 89.6926L181.333 85.0994ZM191.306 92.8793C193.135 92.9091 194.62 92.0979 194.652 90.1295L194.78 82.2754L193.647 82.2569L193.627 83.4698L193.508 83.4679C193.256 83.066 192.793 82.1436 191.302 82.1193C189.373 82.0879 188.016 83.5972 187.978 85.9435C187.939 88.3296 189.309 89.7043 191.158 89.7344C192.65 89.7587 193.141 88.8916 193.406 88.4783L193.506 88.4799L193.48 90.0308C193.46 91.3034 192.556 91.8654 191.323 91.8454C189.936 91.8228 189.461 91.0841 189.154 90.6565L188.209 91.2974C188.673 92.1055 189.601 92.8515 191.306 92.8793ZM191.334 88.6832C189.863 88.6592 189.126 87.5334 189.152 85.9427C189.177 84.3918 189.933 83.1511 191.424 83.1754C192.856 83.1987 193.593 84.3643 193.566 86.0146C193.538 87.7047 192.746 88.7062 191.334 88.6832Z" fill="#595959"/>
<line x1="23.3734" y1="109.625" x2="355.329" y2="115.03" stroke="black" stroke-opacity="0.15"/>
<line x1="23.3734" y1="109.625" x2="355.329" y2="115.03" stroke="#D9D9D9"/>
<rect x="31.2339" y="118.254" width="316" height="171" rx="8" transform="rotate(0.932921 31.2339 118.254)" fill="#FAFAFA"/>
<path d="M43.9113 145.464L45.4474 145.489L45.5196 141.05L49.8444 141.12L49.8658 139.803L45.5411 139.732L45.5916 136.631L50.3687 136.708L50.3902 135.386L44.0771 135.283L43.9113 145.464ZM51.8844 145.594L53.3707 145.618L53.4466 140.955C53.4629 139.956 54.2451 139.248 55.299 139.265C55.6072 139.27 55.9542 139.33 56.073 139.367L56.0961 137.945C55.9473 137.923 55.6543 137.903 55.4654 137.9C54.5706 137.886 53.7968 138.38 53.5051 139.196L53.4256 139.194L53.4453 137.982L52.0087 137.958L51.8844 145.594ZM60.2576 145.884C61.9228 145.911 63.1143 145.11 63.4726 143.873L62.0699 143.596C61.7897 144.313 61.1375 144.67 60.2925 144.656C59.0199 144.636 58.1784 143.797 58.1625 142.325L63.5908 142.413L63.5994 141.886C63.6443 139.127 62.0115 138.022 60.2816 137.993C58.1541 137.959 56.7259 139.557 56.6877 141.903C56.6491 144.274 58.0057 145.847 60.2576 145.884ZM58.1857 141.211C58.2629 140.128 59.0637 139.202 60.2716 139.221C61.4248 139.24 62.1665 140.108 62.1525 141.276L58.1857 141.211ZM71.7656 148.781L71.9365 138.283L70.485 138.259L70.4649 139.497L70.3406 139.495C70.0848 139.018 69.5869 138.145 68.1702 138.122C66.326 138.092 64.9402 139.526 64.8999 142.002C64.8597 144.472 66.1777 145.975 68.0269 146.006C69.4188 146.028 69.9794 145.187 70.2558 144.704L70.3452 144.706L70.2793 148.757L71.7656 148.781ZM70.4179 142.077C70.3917 143.682 69.6581 144.764 68.3806 144.743C67.0533 144.722 66.3764 143.542 66.4014 142.011C66.4261 140.495 67.1206 139.368 68.4678 139.39C69.7652 139.411 70.4439 140.481 70.4179 142.077ZM78.6848 142.863C78.6686 144.16 77.6942 144.761 76.8591 144.747C75.9395 144.732 75.3141 144.056 75.331 143.017L75.4072 138.339L73.9208 138.315L73.8418 143.172C73.8109 145.066 74.8338 146.067 76.3002 146.091C77.4485 146.109 78.2388 145.516 78.6051 144.706L78.6846 144.707L78.6631 146.03L80.1245 146.053L80.2488 138.418L78.7576 138.394L78.6848 142.863ZM85.3958 146.293C87.0611 146.32 88.2526 145.519 88.6108 144.282L87.2082 144.006C86.928 144.722 86.2758 145.08 85.4307 145.066C84.1582 145.045 83.3166 144.206 83.3008 142.734L88.7291 142.822L88.7376 142.295C88.7826 139.537 87.1498 138.431 85.4199 138.403C83.2923 138.368 81.8642 139.966 81.8259 142.312C81.7873 144.683 83.144 146.257 85.3958 146.293ZM83.3239 141.621C83.4012 140.538 84.2019 139.611 85.4099 139.631C86.5631 139.65 87.3048 140.517 87.2907 141.685L83.3239 141.621ZM91.8694 141.71C91.8893 140.492 92.6462 139.808 93.6802 139.825C94.6893 139.842 95.2899 140.513 95.2719 141.621L95.1957 146.299L96.682 146.323L96.7611 141.466C96.7919 139.577 95.7691 138.571 94.2082 138.546C93.0599 138.527 92.3006 139.047 91.9345 139.851L91.84 139.85L91.8603 138.607L90.4336 138.584L90.3093 146.219L91.7956 146.243L91.8694 141.71ZM101.875 146.562C103.68 146.591 104.865 145.526 105.054 144.043L103.607 144.019C103.405 144.841 102.756 145.318 101.905 145.304C100.648 145.284 99.8546 144.222 99.8818 142.556C99.9084 140.921 100.75 139.905 101.993 139.926C102.938 139.941 103.504 140.547 103.652 141.265L105.098 141.289C104.964 139.745 103.723 138.701 101.989 138.673C99.8362 138.638 98.4179 140.235 98.38 142.567C98.3425 144.868 99.658 146.526 101.875 146.562ZM107.483 149.363C108.71 149.383 109.496 148.754 109.958 147.559L113.256 138.97L111.65 138.929L109.62 144.823L109.54 144.822L107.703 138.865L106.113 138.839L108.78 146.619L108.588 147.124C108.194 148.131 107.66 148.207 106.849 147.97L106.471 149.182C106.649 149.265 107.035 149.356 107.483 149.363ZM120.428 146.879C121.69 146.899 122.412 146.27 122.704 145.703L122.764 145.704L122.747 146.747L124.199 146.771L124.281 141.701C124.317 139.479 122.575 139.008 121.362 138.988C119.98 138.966 118.698 139.502 118.179 140.885L119.57 141.226C119.798 140.688 120.363 140.175 121.362 140.191C122.322 140.207 122.805 140.717 122.791 141.582L122.791 141.617C122.782 142.159 122.225 142.14 120.851 142.276C119.402 142.422 117.914 142.775 117.886 144.51C117.861 146.012 118.976 146.855 120.428 146.879ZM120.77 145.691C119.93 145.677 119.33 145.29 119.342 144.554C119.355 143.759 120.065 143.487 120.927 143.386C121.41 143.33 122.556 143.219 122.773 143.009L122.757 143.993C122.742 144.898 122.008 145.711 120.77 145.691ZM127.724 142.294C127.744 141.076 128.501 140.392 129.535 140.409C130.544 140.425 131.145 141.097 131.127 142.205L131.051 146.883L132.537 146.907L132.616 142.05C132.647 140.161 131.624 139.155 130.063 139.13C128.915 139.111 128.156 139.631 127.789 140.435L127.695 140.434L127.715 139.191L126.289 139.168L126.164 146.803L127.651 146.827L127.724 142.294ZM136.736 147.144C137.998 147.165 138.719 146.535 139.012 145.968L139.072 145.969L139.055 147.013L140.506 147.037L140.589 141.966C140.625 139.744 138.882 139.273 137.67 139.254C136.288 139.231 135.006 139.767 134.486 141.151L135.878 141.492C136.105 140.954 136.671 140.441 137.67 140.457C138.629 140.473 139.113 140.983 139.099 141.848L139.099 141.882C139.09 142.424 138.533 142.405 137.159 142.542C135.709 142.687 134.222 143.041 134.194 144.776C134.169 146.277 135.284 147.121 136.736 147.144ZM137.078 145.957C136.238 145.943 135.638 145.555 135.65 144.82C135.663 144.024 136.373 143.752 137.235 143.652C137.718 143.595 138.864 143.485 139.081 143.274L139.065 144.259C139.05 145.163 138.316 145.977 137.078 145.957ZM142.638 136.888L142.501 145.289C142.481 146.497 143.092 147.153 144.38 147.154C144.778 147.156 145.097 147.096 145.307 147.035L145.058 145.843C144.953 145.871 144.848 145.904 144.589 145.905C144.112 145.912 143.982 145.661 143.992 145.005L144.124 136.912L142.638 136.888ZM147.165 150.009C148.393 150.029 149.179 149.4 149.641 148.205L152.938 139.617L151.332 139.576L149.302 145.469L149.223 145.468L147.385 139.511L145.795 139.485L148.462 147.266L148.27 147.77C147.876 148.778 147.343 148.853 146.531 148.616L146.153 149.829C146.331 149.911 146.717 150.002 147.165 150.009ZM160.016 141.582C159.727 140.388 158.81 139.598 157.16 139.571C155.435 139.543 154.197 140.433 154.175 141.785C154.157 142.868 154.802 143.6 156.228 143.941L157.516 144.246C158.249 144.422 158.587 144.755 158.579 145.233C158.569 145.824 157.93 146.276 156.956 146.26C156.066 146.246 155.501 145.854 155.334 145.1L153.894 145.296C154.121 146.652 155.232 147.431 156.947 147.459C158.791 147.489 160.084 146.53 160.107 145.148C160.124 144.069 159.449 143.392 158.053 143.046L156.844 142.748C156.007 142.536 155.649 142.246 155.663 141.729C155.667 141.143 156.31 140.736 157.155 140.749C158.08 140.764 158.499 141.283 158.665 141.798L160.016 141.582ZM161.691 147.382L163.177 147.406L163.302 139.77L161.815 139.746L161.691 147.382ZM162.585 138.58C163.097 138.589 163.531 138.198 163.539 137.711C163.547 137.224 163.126 136.814 162.614 136.806C162.097 136.797 161.668 137.193 161.66 137.68C161.652 138.167 162.068 138.572 162.585 138.58ZM170.978 141.76C170.69 140.567 169.773 139.776 168.122 139.75C166.397 139.721 165.16 140.611 165.138 141.963C165.12 143.047 165.765 143.778 167.191 144.12L168.479 144.424C169.212 144.6 169.549 144.934 169.542 145.411C169.532 146.003 168.893 146.455 167.919 146.439C167.029 146.424 166.464 146.032 166.297 145.279L164.857 145.474C165.083 146.83 166.194 147.609 167.909 147.637C169.754 147.667 171.047 146.709 171.07 145.327C171.087 144.248 170.412 143.571 169.015 143.225L167.807 142.927C166.97 142.714 166.612 142.425 166.625 141.908C166.63 141.321 167.273 140.914 168.118 140.928C169.043 140.943 169.462 141.462 169.627 141.977L170.978 141.76Z" fill="#333333"/>
<path d="M44.0395 163.014L42.8394 162.994L46.1566 172.504L47.3382 172.523L50.9633 163.126L49.7632 163.107L46.8272 171.019L46.7164 171.017L44.0395 163.014ZM53.5574 172.791C54.7945 172.811 55.4515 172.157 55.6806 171.699L55.736 171.699L55.7203 172.66L56.8097 172.677L56.8857 168.006C56.9224 165.754 55.2095 165.467 54.3048 165.452C53.2339 165.435 52.0093 165.784 51.4344 167.068L52.4623 167.454C52.7108 166.941 53.2875 166.396 54.3261 166.413C55.3278 166.429 55.813 166.968 55.7982 167.878L55.7976 167.914C55.789 168.441 55.2543 168.386 53.9592 168.531C52.6409 168.68 51.2006 168.948 51.1742 170.572C51.1516 171.957 52.2096 172.769 53.5574 172.791ZM53.7395 171.815C52.8717 171.801 52.2503 171.403 52.2626 170.646C52.2761 169.815 53.0373 169.569 53.8885 169.472C54.351 169.424 55.5901 169.315 55.7784 169.096L55.7621 170.093C55.7477 170.979 55.0319 171.836 53.7395 171.815ZM58.9516 163.256L58.8229 171.159C58.8064 172.17 59.3137 172.773 60.3477 172.79C60.6615 172.795 60.9717 172.745 61.1619 172.693L60.9556 171.748C60.8489 171.778 60.7515 171.809 60.4928 171.814C60.0126 171.82 59.9058 171.569 59.917 170.881L60.0409 163.274L58.9516 163.256ZM66.6765 169.938C66.6548 171.268 65.6294 171.861 64.817 171.847C63.9123 171.833 63.2769 171.157 63.2938 170.123L63.3659 165.692L62.2766 165.674L62.2032 170.18C62.1737 171.989 63.1197 172.872 64.4491 172.894C65.52 172.911 66.2309 172.351 66.575 171.636L66.6488 171.637L66.6293 172.837L67.7186 172.855L67.8341 165.765L66.7447 165.747L66.6765 169.938ZM72.6837 173.084C74.1239 173.107 75.188 172.404 75.5378 171.339L74.4902 171.026C74.2012 171.76 73.5536 172.119 72.6996 172.105C71.4211 172.084 70.5529 171.244 70.5268 169.724L75.6735 169.808L75.681 169.346C75.724 166.706 74.1694 165.776 72.6923 165.752C70.7721 165.72 69.4735 167.214 69.438 169.392C69.4025 171.571 70.6343 173.05 72.6837 173.084ZM70.5422 168.782C70.634 167.68 71.4301 166.71 72.6764 166.73C73.858 166.75 74.6006 167.648 74.581 168.848L70.5422 168.782Z" fill="black" fill-opacity="0.45"/>
<path d="M213.189 168.723C212.87 166.779 211.338 165.609 209.436 165.578C207.017 165.538 205.233 167.374 205.184 170.366C205.135 173.357 206.859 175.25 209.278 175.289C211.179 175.32 212.749 174.201 213.131 172.268L211.987 172.249C211.688 173.556 210.551 174.239 209.295 174.219C207.578 174.191 206.252 172.839 206.292 170.384C206.332 167.928 207.701 166.621 209.418 166.648C210.674 166.669 211.789 167.389 212.044 168.704L213.189 168.723ZM217.663 175.444C219.583 175.476 220.899 174.038 220.935 171.841C220.971 169.625 219.703 168.146 217.782 168.114C215.862 168.083 214.546 169.521 214.51 171.736C214.474 173.933 215.743 175.413 217.663 175.444ZM217.679 174.466C216.22 174.442 215.576 173.176 215.599 171.754C215.622 170.332 216.308 169.069 217.766 169.093C219.225 169.117 219.869 170.402 219.846 171.823C219.823 173.245 219.138 174.49 217.679 174.466ZM227.056 172.55C227.034 173.879 226.009 174.472 225.196 174.459C224.292 174.444 223.656 173.769 223.673 172.735L223.745 168.304L222.656 168.286L222.583 172.791C222.553 174.601 223.499 175.484 224.829 175.506C225.899 175.523 226.61 174.962 226.954 174.248L227.028 174.249L227.009 175.449L228.098 175.467L228.214 168.377L227.124 168.359L227.056 172.55ZM231.252 171.252C231.272 170.015 232.05 169.326 233.093 169.343C234.104 169.359 234.707 170.029 234.689 171.141L234.616 175.573L235.706 175.59L235.779 171.085C235.809 169.276 234.858 168.392 233.423 168.369C232.352 168.352 231.679 168.821 231.335 169.536L231.243 169.534L231.261 168.426L230.208 168.409L230.093 175.499L231.182 175.517L231.252 171.252ZM240.895 168.583L239.381 168.558L239.409 166.86L238.319 166.842L238.292 168.541L237.221 168.523L237.206 169.446L238.277 169.464L238.204 173.895C238.184 175.132 239.172 175.739 240.095 175.754C240.501 175.761 240.761 175.691 240.909 175.638L240.704 174.656C240.611 174.673 240.463 174.708 240.223 174.704C239.743 174.696 239.284 174.541 239.299 173.617L239.366 169.482L240.88 169.506L240.895 168.583Z" fill="black" fill-opacity="0.45"/>
<rect x="42.2227" y="180.441" width="292" height="1" rx="0.5" transform="rotate(0.932921 42.2227 180.441)" fill="#D9D9D9"/>
<path d="M52.294 195.516L53.4018 195.534C53.3742 194.107 52.0761 193.019 50.2482 192.989C48.4388 192.96 47 193.989 46.9741 195.577C46.9533 196.851 47.8642 197.623 49.3344 198.072L50.4921 198.423C51.4847 198.716 52.3652 199.081 52.3499 200.023C52.333 201.057 51.3249 201.724 50.014 201.703C48.8877 201.684 47.8988 201.17 47.8239 200.097L46.6422 200.078C46.7278 201.631 47.9661 202.703 49.9971 202.737C52.1758 202.772 53.4324 201.592 53.4574 200.06C53.4862 198.287 51.8154 197.687 50.841 197.413L49.8851 197.139C49.1865 196.943 48.0663 196.555 48.0828 195.54C48.0975 194.635 48.9392 193.984 50.1947 194.004C51.3395 194.023 52.1984 194.582 52.294 195.516ZM55.6851 202.663L56.6796 200.001L60.5015 200.063L61.4088 202.756L62.6089 202.776L59.2917 193.266L58.11 193.247L54.485 202.643L55.6851 202.663ZM57.0561 198.992L58.6396 194.751L58.7134 194.752L60.158 199.042L57.0561 198.992ZM64.081 202.8L65.2258 202.818L65.2946 198.59L69.3935 198.657L69.41 197.641L65.3112 197.575L65.3632 194.381L69.8867 194.454L69.9033 193.439L64.235 193.346L64.081 202.8Z" fill="#595959"/>
<path d="M208.72 205.284C210.553 205.314 211.933 204.187 211.958 202.641C211.978 201.44 211.281 200.557 210.094 200.339L210.095 200.265C211.055 199.99 211.663 199.215 211.681 198.148C211.702 196.81 210.665 195.602 208.915 195.573C207.281 195.546 205.908 196.531 205.828 198.016L206.936 198.034C206.993 197.093 207.897 196.554 208.881 196.57C209.924 196.587 210.587 197.23 210.572 198.186C210.556 199.183 209.765 199.816 208.643 199.798L207.886 199.786L207.87 200.801L208.627 200.813C210.062 200.837 210.849 201.579 210.832 202.622C210.816 203.624 209.932 204.288 208.718 204.268C207.624 204.251 206.766 203.673 206.711 202.758L205.548 202.739C205.593 204.227 206.888 205.254 208.72 205.284ZM216.756 205.415C218.556 205.444 219.898 204.137 219.928 202.327C219.957 200.495 218.705 199.131 216.97 199.102C216.333 199.092 215.711 199.308 215.318 199.611L215.262 199.61L215.64 196.828L219.591 196.892L219.608 195.876L214.697 195.797L214.048 200.44L215.117 200.587C215.514 200.311 216.187 200.119 216.768 200.133C217.973 200.162 218.84 201.091 218.819 202.328C218.8 203.542 217.936 204.419 216.773 204.4C215.803 204.384 215.043 203.748 214.969 202.893L213.861 202.875C213.907 204.316 215.131 205.389 216.756 205.415ZM224.878 195.833C222.958 195.779 221.697 197.203 221.669 198.939C221.639 200.767 222.966 202.1 224.59 202.126C225.569 202.142 226.408 201.675 226.937 200.908L227.011 200.91C226.973 203.236 226.047 204.551 224.588 204.527C223.591 204.511 222.992 203.873 222.803 203.002L221.677 202.984C221.874 204.483 222.984 205.517 224.572 205.542C226.695 205.577 228.037 203.715 228.091 200.355C228.148 196.884 226.428 195.877 224.878 195.833ZM224.861 196.849C226.043 196.868 226.894 197.897 226.876 199.005C226.858 200.131 225.918 201.132 224.755 201.113C223.591 201.094 222.757 200.139 222.777 198.957C222.796 197.775 223.698 196.83 224.861 196.849ZM229.823 205.499L235.787 205.596L235.803 204.58L231.409 204.509L231.41 204.435L233.57 202.198C235.223 200.485 235.717 199.68 235.734 198.632C235.757 197.174 234.595 195.991 232.933 195.964C231.276 195.937 229.997 197.043 229.97 198.705L231.06 198.722C231.077 197.647 231.786 196.943 232.88 196.961C233.905 196.977 234.679 197.618 234.663 198.615C234.649 199.487 234.126 200.125 233.012 201.303L229.836 204.668L229.823 205.499ZM240.774 205.806C242.86 205.84 244.089 204.092 244.139 201.004C244.189 197.939 243 196.128 240.932 196.094C238.864 196.061 237.616 197.832 237.566 200.897C237.516 203.985 238.687 205.772 240.774 205.806ZM240.79 204.791C239.415 204.768 238.634 203.375 238.674 200.915C238.714 198.459 239.549 197.069 240.916 197.091C242.282 197.114 243.072 198.53 243.032 200.986C242.992 203.446 242.166 204.813 240.79 204.791Z" fill="#595959"/>
<rect x="266.965" y="198.102" width="67" height="8" rx="4" transform="rotate(0.932921 266.965 198.102)" fill="#F2F2F5"/>
<rect x="266.965" y="198.102" width="54" height="8" rx="4" transform="rotate(0.932921 266.965 198.102)" fill="#6E85FC"/>
<path d="M46.5527 230.518L49.9684 230.574C52.2025 230.61 53.1434 229.536 53.1666 228.114C53.1909 226.618 52.1702 225.789 51.3033 225.72L51.3048 225.627C52.1208 225.419 52.8496 224.895 52.8695 223.677C52.892 222.292 51.9872 221.151 50.0116 221.119L46.7066 221.065L46.5527 230.518ZM47.714 229.521L47.7675 226.235L50.0939 226.273C51.3309 226.293 52.0929 227.136 52.0772 228.096C52.0637 228.927 51.4805 229.582 49.985 229.558L47.714 229.521ZM47.7837 225.238L47.8348 222.099L49.9951 222.134C51.2506 222.154 51.7937 222.828 51.7801 223.659C51.7639 224.656 50.941 225.289 49.907 225.272L47.7837 225.238ZM61.364 221.303L61.2636 227.47C61.241 228.855 60.2739 229.836 58.6953 229.811C57.1167 229.785 56.182 228.773 56.2046 227.388L56.305 221.221L55.1603 221.202L55.0583 227.461C55.0268 229.4 56.453 230.845 58.6779 230.882C60.9027 230.918 62.3752 229.52 62.4068 227.581L62.5087 221.322L61.364 221.303ZM69.9257 223.807L71.0335 223.825C71.006 222.398 69.7078 221.31 67.8799 221.28C66.0705 221.251 64.6317 222.28 64.6058 223.868C64.5851 225.142 65.4959 225.914 66.9661 226.363L68.1239 226.714C69.1164 227.007 69.9969 227.372 69.9816 228.314C69.9647 229.348 68.9566 230.015 67.6457 229.993C66.5194 229.975 65.5305 229.46 65.4556 228.388L64.274 228.369C64.3595 229.921 65.5979 230.994 67.6288 231.027C69.8075 231.063 71.0641 229.883 71.0891 228.35C71.1179 226.578 69.4471 225.978 68.4727 225.704L67.5168 225.43C66.8182 225.234 65.698 224.846 65.7145 223.831C65.7293 222.926 66.5709 222.275 67.8264 222.295C68.9712 222.314 69.8301 222.873 69.9257 223.807Z" fill="#595959"/>
<path d="M208.023 233.277C209.91 233.307 211.244 232.226 211.278 230.689C211.288 229.493 210.506 228.465 209.489 228.259L209.49 228.203C210.38 227.987 210.976 227.129 211.002 226.122C211.016 224.682 209.824 223.592 208.181 223.565C206.519 223.538 205.292 224.589 205.278 226.029C205.252 227.035 205.82 227.913 206.721 228.158L206.72 228.214C205.678 228.386 204.863 229.388 204.853 230.584C204.819 232.121 206.116 233.246 208.023 233.277ZM208.039 232.261C206.742 232.24 205.954 231.562 205.98 230.547C205.988 229.481 206.882 228.733 208.096 228.753C209.292 228.773 210.161 229.549 210.153 230.615C210.127 231.63 209.318 232.282 208.039 232.261ZM208.112 227.775C207.078 227.758 206.359 227.1 206.385 226.121C206.391 225.161 207.103 224.545 208.164 224.562C209.208 224.579 209.899 225.218 209.893 226.178C209.867 227.157 209.128 227.791 208.112 227.775ZM213.301 233.233L214.502 233.253L218.848 224.939L218.865 223.868L212.809 223.77L212.793 224.785L217.667 224.864L217.666 224.938L213.301 233.233ZM223.408 233.527C225.24 233.557 226.621 232.43 226.646 230.884C226.665 229.683 225.969 228.799 224.781 228.582L224.782 228.508C225.742 228.232 226.351 227.457 226.368 226.391C226.39 225.053 225.352 223.844 223.603 223.816C221.969 223.789 220.595 224.774 220.516 226.259L221.624 226.277C221.68 225.336 222.585 224.797 223.568 224.813C224.611 224.83 225.275 225.473 225.259 226.429C225.243 227.426 224.452 228.059 223.331 228.041L222.574 228.028L222.557 229.044L223.314 229.056C224.75 229.08 225.537 229.822 225.52 230.865C225.503 231.867 224.62 232.531 223.406 232.511C222.312 232.494 221.453 231.916 221.399 231.001L220.236 230.982C220.281 232.47 221.575 233.497 223.408 233.527ZM228.492 233.481L234.455 233.578L234.472 232.562L230.077 232.491L230.079 232.417L232.239 230.18C233.892 228.467 234.385 227.662 234.402 226.614C234.426 225.156 233.263 223.973 231.602 223.946C229.945 223.919 228.666 225.025 228.639 226.687L229.728 226.704C229.746 225.629 230.455 224.925 231.549 224.943C232.573 224.959 233.348 225.6 233.332 226.597C233.317 227.469 232.794 228.107 231.681 229.285L228.505 232.65L228.492 233.481Z" fill="#595959"/>
<rect x="266.509" y="226.099" width="67" height="8" rx="4" transform="rotate(0.932921 266.509 226.099)" fill="#F2F2F5"/>
<rect x="266.509" y="226.099" width="15.5" height="8" rx="4" transform="rotate(0.932921 266.509 226.099)" fill="#6E85FC"/>
<path d="M46.4849 258.521L47.4793 255.859L51.3013 255.921L52.2085 258.614L53.4087 258.633L50.0915 249.124L48.9098 249.104L45.2847 258.501L46.4849 258.521ZM47.8559 254.849L49.4394 250.609L49.5132 250.61L50.9578 254.9L47.8559 254.849ZM57.7959 258.834C59.8823 258.868 61.1112 257.12 61.1615 254.032C61.2114 250.967 60.022 249.156 57.9541 249.122C55.8862 249.089 54.6384 250.86 54.5885 253.925C54.5382 257.013 55.7096 258.8 57.7959 258.834ZM57.8125 257.819C56.4369 257.796 55.6562 256.403 55.6963 253.943C55.7363 251.487 56.5715 250.097 57.9378 250.119C59.3041 250.142 60.0937 251.558 60.0537 254.014C60.0136 256.474 59.188 257.841 57.8125 257.819ZM66.3156 249.388L65.1709 249.369L62.782 250.9L62.763 252.063L65.0959 250.568L65.1513 250.569L65.0169 258.822L66.1616 258.841L66.3156 249.388Z" fill="#595959"/>
<path d="M207.413 261.27C209.245 261.3 210.626 260.173 210.651 258.627C210.67 257.427 209.974 256.543 208.786 256.325L208.787 256.251C209.748 255.976 210.356 255.201 210.373 254.134C210.395 252.796 209.357 251.588 207.608 251.559C205.974 251.533 204.6 252.517 204.521 254.002L205.629 254.02C205.686 253.079 206.59 252.54 207.573 252.556C208.616 252.573 209.28 253.216 209.264 254.172C209.248 255.169 208.458 255.802 207.336 255.784L206.579 255.772L206.562 256.787L207.319 256.8C208.755 256.823 209.542 257.565 209.525 258.608C209.508 259.61 208.625 260.274 207.411 260.255C206.317 260.237 205.458 259.66 205.404 258.744L204.241 258.726C204.286 260.213 205.58 261.241 207.413 261.27ZM215.689 261.405C217.521 261.435 218.902 260.308 218.927 258.762C218.946 257.561 218.25 256.677 217.062 256.46L217.063 256.386C218.024 256.11 218.632 255.335 218.649 254.269C218.671 252.931 217.633 251.722 215.884 251.694C214.25 251.667 212.876 252.652 212.797 254.137L213.905 254.155C213.961 253.214 214.866 252.675 215.849 252.691C216.892 252.708 217.556 253.351 217.54 254.307C217.524 255.304 216.734 255.937 215.612 255.919L214.855 255.906L214.838 256.922L215.595 256.934C217.031 256.958 217.818 257.7 217.801 258.743C217.784 259.745 216.901 260.409 215.687 260.389C214.593 260.372 213.734 259.794 213.68 258.879L212.517 258.86C212.562 260.348 213.856 261.375 215.689 261.405ZM223.799 261.537C225.686 261.568 227.02 260.486 227.054 258.949C227.064 257.754 226.282 256.725 225.265 256.519L225.266 256.464C226.156 256.247 226.752 255.389 226.778 254.383C226.792 252.943 225.6 251.852 223.957 251.825C222.295 251.798 221.068 252.85 221.054 254.29C221.028 255.296 221.596 256.173 222.497 256.419L222.496 256.474C221.454 256.646 220.639 257.649 220.629 258.845C220.595 260.382 221.892 261.506 223.799 261.537ZM223.815 260.522C222.518 260.501 221.73 259.823 221.756 258.808C221.764 257.741 222.658 256.994 223.872 257.014C225.068 257.033 225.937 257.809 225.929 258.876C225.903 259.891 225.094 260.543 223.815 260.522ZM223.888 256.035C222.854 256.018 222.135 255.36 222.161 254.382C222.167 253.422 222.879 252.805 223.94 252.822C224.984 252.839 225.675 253.479 225.669 254.439C225.643 255.417 224.904 256.052 223.888 256.035ZM231.863 261.669C233.95 261.703 235.179 259.954 235.229 256.866C235.279 253.801 234.089 251.99 232.021 251.957C229.954 251.923 228.706 253.694 228.656 256.759C228.606 259.847 229.777 261.635 231.863 261.669ZM231.88 260.653C230.504 260.631 229.724 259.237 229.764 256.777C229.804 254.322 230.639 252.932 232.005 252.954C233.371 252.976 234.161 254.392 234.121 256.848C234.081 259.308 233.255 260.675 231.88 260.653Z" fill="#595959"/>
<rect x="266.053" y="254.095" width="67" height="8" rx="4" transform="rotate(0.932921 266.053 254.095)" fill="#F2F2F5"/>
<rect x="266.053" y="254.095" width="6" height="8" rx="3" transform="rotate(0.932921 266.053 254.095)" fill="#6E85FC"/>
</g>
<rect x="24.5668" y="5.63023" width="333" height="592" rx="10.5" transform="rotate(0.932921 24.5668 5.63023)" stroke="#E8E8E8"/>
</g>
<g opacity="0.1" filter="url(#filter1_f_852_184072)">
<rect x="112.342" y="96.3655" width="236.618" height="174.916" rx="20" transform="rotate(0.0341532 112.342 96.3655)" fill="black"/>
</g>
<g filter="url(#filter2_dd_852_184072)">
<rect x="117.674" y="94.4529" width="1013.03" height="824.721" rx="10" transform="rotate(0.928365 117.674 94.4529)" fill="white"/>
<g clip-path="url(#clip2_852_184072)">
<g clip-path="url(#clip3_852_184072)">
<path d="M117.438 109.001C117.568 100.966 124.187 94.5584 132.222 94.6886L1130.57 110.866L1128.17 259.304L115.268 242.891L117.438 109.001Z" fill="white"/>
<path d="M139.771 115.151L142.243 115.191L142.133 121.973L143.57 121.996L143.68 115.214L146.151 115.254L146.171 114.04L139.791 113.936L139.771 115.151ZM148.006 122.189C148.947 122.204 149.517 121.772 149.783 121.273L149.83 121.273L149.816 122.097L151.175 122.119L151.24 118.105C151.266 116.52 149.981 116.023 148.837 116.004C147.576 115.984 146.598 116.531 146.268 117.619L147.585 117.828C147.732 117.42 148.136 117.075 148.827 117.086C149.483 117.097 149.837 117.438 149.827 118.028L149.827 118.051C149.82 118.457 149.395 118.47 148.335 118.566C147.169 118.672 146.051 119.002 146.029 120.353C146.01 121.532 146.862 122.17 148.006 122.189ZM148.39 121.156C147.801 121.147 147.383 120.87 147.392 120.351C147.401 119.808 147.877 119.59 148.511 119.51C148.882 119.465 149.626 119.384 149.812 119.238L149.8 119.945C149.789 120.613 149.241 121.17 148.39 121.156ZM152.549 122.141L153.939 122.164L153.954 121.219L154.036 121.22C154.251 121.661 154.706 122.282 155.737 122.299C157.15 122.321 158.226 121.218 158.259 119.242C158.291 117.243 157.219 116.14 155.833 116.118C154.775 116.101 154.323 116.73 154.102 117.16L154.043 117.159L154.092 114.168L152.678 114.145L152.549 122.141ZM153.983 119.165C154.002 118.002 154.514 117.256 155.424 117.271C156.365 117.286 156.836 118.095 156.818 119.211C156.8 120.336 156.294 121.148 155.361 121.133C154.459 121.118 153.964 120.329 153.983 119.165ZM159.431 114.255L159.326 120.763C159.309 121.81 159.843 122.33 160.988 122.317C161.347 122.315 161.59 122.261 161.755 122.213L161.538 121.139C161.463 121.161 161.381 121.179 161.194 121.18C160.846 121.182 160.736 121.005 160.743 120.556L160.845 114.278L159.431 114.255ZM165.002 122.46C166.399 122.483 167.371 121.815 167.638 120.777L166.32 120.607C166.121 121.112 165.648 121.37 165.039 121.36C164.125 121.345 163.53 120.734 163.535 119.707L167.712 119.774L167.72 119.341C167.754 117.237 166.504 116.291 165.028 116.267C163.31 116.239 162.169 117.482 162.139 119.333C162.108 121.215 163.194 122.431 165.002 122.46ZM163.554 118.754C163.609 117.99 164.186 117.354 165.029 117.368C165.842 117.381 166.379 117.984 166.373 118.8L163.554 118.754ZM176.185 118.111C176.006 117.093 175.204 116.432 173.799 116.409C172.354 116.386 171.359 117.08 171.345 118.189C171.327 119.064 171.856 119.65 173.004 119.907L174.023 120.138C174.572 120.268 174.826 120.495 174.821 120.835C174.814 121.245 174.364 121.546 173.692 121.535C173.044 121.525 172.627 121.237 172.515 120.696L171.134 120.806C171.292 121.91 172.207 122.577 173.679 122.601C175.178 122.625 176.249 121.865 176.271 120.729C176.281 119.874 175.739 119.342 174.611 119.078L173.591 118.843C172.984 118.696 172.746 118.481 172.755 118.134C172.758 117.728 173.212 117.454 173.801 117.463C174.453 117.474 174.791 117.835 174.894 118.231L176.185 118.111ZM181.161 120.082C181.146 120.996 180.487 121.438 179.862 121.428C179.183 121.417 178.737 120.929 178.75 120.168L178.808 116.568L177.395 116.545L177.333 120.364C177.31 121.805 178.116 122.634 179.295 122.653C180.193 122.668 180.834 122.205 181.118 121.538L181.18 121.539L181.163 122.605L182.533 122.627L182.631 116.63L181.217 116.607L181.161 120.082ZM183.877 122.649L185.29 122.672L185.349 119.025C185.361 118.287 185.861 117.796 186.47 117.805C187.068 117.815 187.471 118.224 187.461 118.841L187.399 122.706L188.785 122.729L188.845 118.988C188.856 118.313 189.266 117.851 189.949 117.862C190.519 117.871 190.967 118.214 190.955 118.956L190.893 122.763L192.31 122.786L192.376 118.76C192.397 117.421 191.636 116.698 190.535 116.68C189.664 116.666 188.993 117.085 188.717 117.748L188.655 117.747C188.435 117.064 187.86 116.637 187.052 116.624C186.248 116.611 185.64 117.015 185.379 117.694L185.308 117.693L185.325 116.674L183.974 116.652L183.877 122.649ZM193.634 122.807L195.048 122.83L195.107 119.183C195.119 118.445 195.619 117.954 196.228 117.964C196.825 117.973 197.229 118.382 197.219 118.999L197.156 122.864L198.542 122.887L198.603 119.146C198.614 118.471 199.023 118.009 199.707 118.02C200.277 118.029 200.724 118.372 200.712 119.114L200.651 122.921L202.068 122.944L202.133 118.918C202.155 117.579 201.393 116.856 200.292 116.838C199.422 116.824 198.751 117.243 198.474 117.906L198.412 117.905C198.193 117.222 197.618 116.795 196.809 116.782C196.005 116.769 195.397 117.173 195.136 117.852L195.066 117.851L195.082 116.832L193.732 116.81L193.634 122.807ZM205.116 123.114C206.057 123.13 206.626 122.697 206.892 122.198L206.939 122.199L206.925 123.023L208.284 123.045L208.349 119.031C208.375 117.446 207.09 116.948 205.946 116.93C204.685 116.909 203.708 117.456 203.378 118.544L204.694 118.753C204.841 118.345 205.245 118 205.936 118.012C206.592 118.022 206.946 118.364 206.937 118.953L206.936 118.977C206.93 119.383 206.504 119.395 205.444 119.491C204.278 119.598 203.16 119.927 203.138 121.278C203.119 122.457 203.972 123.096 205.116 123.114ZM205.499 122.082C204.91 122.072 204.493 121.796 204.501 121.277C204.51 120.734 204.986 120.515 205.62 120.436C205.992 120.391 206.735 120.309 206.921 120.164L206.909 120.87C206.899 121.538 206.351 122.095 205.499 122.082ZM209.595 123.066L211.009 123.089L211.066 119.563C211.078 118.802 211.661 118.272 212.438 118.285C212.676 118.289 212.972 118.336 213.092 118.377L213.114 117.077C212.985 117.052 212.763 117.033 212.607 117.03C211.919 117.019 211.339 117.4 211.109 118.091L211.047 118.09L211.063 117.091L209.692 117.069L209.595 123.066ZM214.869 125.401C215.97 125.419 216.616 124.863 216.971 123.912L219.489 117.235L217.978 117.203L216.519 121.71L216.456 121.709L215.147 117.157L213.648 117.133L215.724 123.29L215.597 123.612C215.325 124.291 214.91 124.331 214.296 124.142L213.95 125.238C214.14 125.319 214.483 125.395 214.869 125.401Z" fill="#333333"/>
<g filter="url(#filter3_ddd_852_184072)">
<g clip-path="url(#clip4_852_184072)">
<rect x="133.458" y="138.452" width="190.373" height="88.2249" rx="5.49814" transform="rotate(0.928365 133.458 138.452)" fill="white"/>
<path d="M133.368 143.952C133.418 140.914 135.92 138.492 138.957 138.541L318.306 141.448C321.343 141.497 323.766 143.999 323.716 147.036L323.311 172.027L132.963 168.943L133.368 143.952Z" fill="white"/>
<path d="M144.885 160.637L146.333 160.66L146.381 157.732L147.857 157.756L149.379 160.709L150.995 160.736L149.317 157.537C150.264 157.174 150.773 156.377 150.791 155.292C150.815 153.765 149.848 152.719 148.013 152.689L145.014 152.64L144.885 160.637ZM146.4 156.529L146.443 153.874L147.771 153.896C148.852 153.913 149.329 154.417 149.315 155.268C149.301 156.119 148.809 156.568 147.736 156.551L146.4 156.529ZM154.392 160.908C156.149 160.936 157.285 159.717 157.315 157.862C157.345 156.004 156.249 154.744 154.492 154.715C152.735 154.687 151.598 155.91 151.568 157.769C151.538 159.624 152.635 160.879 154.392 160.908ZM154.418 159.776C153.446 159.76 152.983 158.885 153.001 157.788C153.019 156.691 153.509 155.82 154.482 155.836C155.438 155.852 155.9 156.738 155.882 157.835C155.865 158.932 155.374 159.791 154.418 159.776ZM159.433 160.872L160.909 160.896L162.099 156.862L162.181 156.863L163.24 160.934L164.712 160.958L166.508 154.988L165.063 154.965L163.957 159.141L163.898 159.14L162.888 154.93L161.463 154.906L160.317 159.106L160.263 159.105L159.277 154.871L157.836 154.848L159.433 160.872ZM172.099 156.664C171.92 155.646 171.119 154.985 169.713 154.962C168.268 154.939 167.273 155.633 167.259 156.742C167.241 157.617 167.77 158.203 168.918 158.46L169.938 158.692C170.486 158.821 170.74 159.048 170.735 159.388C170.728 159.798 170.278 160.099 169.606 160.088C168.958 160.078 168.541 159.79 168.429 159.249L167.049 159.359C167.206 160.463 168.121 161.13 169.593 161.154C171.092 161.178 172.163 160.419 172.185 159.282C172.195 158.427 171.653 157.895 170.525 157.631L169.506 157.396C168.899 157.249 168.66 157.034 168.67 156.687C168.672 156.281 169.126 156.007 169.715 156.017C170.367 156.027 170.705 156.388 170.808 156.784L172.099 156.664ZM175.793 163.387L177.206 163.41L177.258 160.216L177.316 160.217C177.532 160.658 177.987 161.278 179.017 161.295C180.431 161.318 181.507 160.215 181.539 158.239C181.571 156.24 180.5 155.137 179.114 155.114C178.055 155.097 177.604 155.727 177.382 156.156L177.3 156.155L177.316 155.163L175.926 155.141L175.793 163.387ZM177.264 158.162C177.283 156.998 177.795 156.253 178.704 156.268C179.645 156.283 180.116 157.091 180.098 158.208C180.08 159.332 179.575 160.144 178.642 160.129C177.74 160.115 177.245 159.325 177.264 158.162ZM182.591 161.248L184.004 161.271L184.061 157.745C184.074 156.983 184.656 156.454 185.433 156.467C185.672 156.47 185.968 156.518 186.088 156.559L186.109 155.259C185.981 155.233 185.758 155.214 185.602 155.212C184.915 155.201 184.335 155.582 184.105 156.273L184.042 156.272L184.059 155.273L182.688 155.25L182.591 161.248ZM189.207 161.472C190.964 161.5 192.101 160.281 192.131 158.426C192.161 156.568 191.065 155.308 189.308 155.28C187.551 155.251 186.414 156.475 186.384 158.333C186.354 160.188 187.45 161.444 189.207 161.472ZM189.234 160.34C188.261 160.324 187.799 159.45 187.817 158.352C187.835 157.255 188.325 156.385 189.297 156.4C190.254 156.416 190.716 157.302 190.698 158.399C190.681 159.496 190.19 160.355 189.234 160.34ZM196.307 155.471L195.062 155.451L195.07 154.979C195.077 154.51 195.277 154.252 195.804 154.26C196.026 154.264 196.213 154.317 196.329 154.355L196.632 153.266C196.45 153.2 196.049 153.092 195.561 153.085C194.519 153.068 193.677 153.652 193.658 154.862L193.649 155.428L192.762 155.414L192.745 156.507L193.631 156.521L193.551 161.425L194.965 161.448L195.044 156.544L196.29 156.564L196.307 155.471ZM197.207 161.484L198.621 161.507L198.718 155.51L197.304 155.487L197.207 161.484ZM198.029 154.648C198.478 154.655 198.85 154.317 198.857 153.896C198.864 153.47 198.503 153.12 198.054 153.113C197.601 153.106 197.228 153.444 197.221 153.869C197.214 154.291 197.576 154.64 198.029 154.648ZM200.094 153.533L199.988 160.042C199.971 161.088 200.506 161.608 201.65 161.596C202.009 161.594 202.253 161.539 202.417 161.491L202.2 160.417C202.126 160.439 202.044 160.458 201.856 160.458C201.508 160.461 201.398 160.283 201.405 159.834L201.507 153.556L200.094 153.533ZM205.664 161.739C207.062 161.761 208.033 161.094 208.3 160.055L206.983 159.885C206.783 160.39 206.31 160.648 205.701 160.638C204.788 160.623 204.192 160.012 204.197 158.985L208.375 159.053L208.382 158.619C208.416 156.515 207.166 155.569 205.69 155.545C203.972 155.517 202.831 156.76 202.801 158.611C202.771 160.493 203.856 161.709 205.664 161.739ZM204.217 158.032C204.272 157.268 204.848 156.633 205.692 156.646C206.504 156.66 207.041 157.262 207.035 158.078L204.217 158.032ZM211.642 161.824C212.673 161.841 213.147 161.235 213.377 160.801L213.463 160.803L213.448 161.748L214.838 161.77L214.967 153.774L213.55 153.751L213.501 156.742L213.443 156.741C213.235 156.304 212.804 155.66 211.746 155.643C210.36 155.621 209.253 156.689 209.221 158.688C209.189 160.663 210.229 161.801 211.642 161.824ZM212.055 160.671C211.122 160.655 210.643 159.828 210.662 158.703C210.68 157.586 211.177 156.794 212.118 156.809C213.028 156.824 213.515 157.586 213.496 158.749C213.477 159.913 212.957 160.685 212.055 160.671Z" fill="#595959"/>
<path d="M149.885 202.716L158.436 202.854L158.47 200.781L153.433 200.699L153.434 200.617L155.213 198.93C157.715 196.721 158.395 195.607 158.417 194.242C158.451 192.163 156.776 190.666 154.205 190.624C151.687 190.583 149.935 192.061 149.903 194.415L152.31 194.454C152.322 193.306 153.06 192.615 154.155 192.633C155.209 192.65 155.984 193.318 155.966 194.373C155.951 195.327 155.355 195.974 154.248 197.004L149.915 200.888L149.885 202.716ZM164.649 203.119C167.32 203.162 169.164 201.452 169.197 199.028C169.24 196.732 167.662 195.054 165.501 195.019C164.447 195.002 163.532 195.427 163.101 196.011L163.03 196.01L163.389 193.011L168.631 193.096L168.665 191.023L161.332 190.904L160.662 197.22L162.91 197.66C163.287 197.168 164.006 196.87 164.715 196.881C165.922 196.907 166.774 197.793 166.754 199.052C166.734 200.3 165.87 201.147 164.681 201.128C163.674 201.111 162.87 200.466 162.827 199.534L160.367 199.494C160.38 201.568 162.166 203.079 164.649 203.119ZM175.597 203.396C178.613 203.445 180.472 201.179 180.542 197.225C180.611 193.302 178.803 191.023 175.798 190.974C172.788 190.925 170.925 193.139 170.855 197.068C170.779 201.01 172.575 203.341 175.597 203.396ZM175.631 201.293C174.255 201.271 173.387 199.875 173.438 197.11C173.488 194.387 174.394 193.031 175.765 193.053C177.129 193.075 177.997 194.46 177.953 197.183C177.914 199.948 177.002 201.316 175.631 201.293ZM182.103 201.129L187.86 201.222L187.826 203.331L190.251 203.37L190.285 201.261L191.773 201.286L191.806 199.253L190.318 199.229L190.445 191.375L187.271 191.324L182.136 199.132L182.103 201.129ZM187.94 199.191L184.69 199.138L184.691 199.044L187.929 194.1L188.023 194.101L187.94 199.191ZM198.124 203.761C201.141 203.81 202.999 201.544 203.069 197.59C203.139 193.667 201.33 191.388 198.326 191.339C195.315 191.29 193.452 193.504 193.382 197.434C193.307 201.375 195.103 203.706 198.124 203.761ZM198.159 201.658C196.782 201.636 195.914 200.24 195.965 197.475C196.015 194.752 196.922 193.396 198.292 193.418C199.657 193.44 200.525 194.825 200.481 197.549C200.442 200.313 199.529 201.681 198.159 201.658ZM209.477 203.945C212.493 203.994 214.351 201.728 214.421 197.774C214.491 193.851 212.682 191.572 209.678 191.523C206.668 191.474 204.804 193.688 204.734 197.617C204.659 201.559 206.455 203.89 209.477 203.945ZM209.511 201.842C208.134 201.82 207.267 200.424 207.317 197.659C207.367 194.936 208.274 193.58 209.644 193.602C211.009 193.624 211.877 195.009 211.833 197.732C211.794 200.497 210.881 201.865 209.511 201.842Z" fill="#333333"/>
<path d="M263.065 191.672C263.101 189.395 264.977 187.578 267.254 187.615L300.497 188.154C302.774 188.191 304.59 190.067 304.554 192.344L304.286 208.836C304.249 211.113 302.373 212.929 300.096 212.892L266.854 212.354C264.576 212.317 262.76 210.441 262.797 208.164L263.065 191.672Z" fill="#39A263" fill-opacity="0.12"/>
<path d="M274.601 196.109L273.572 196.092L271.808 197.205L271.792 198.216L273.483 197.15L273.524 197.151L273.428 203.088L274.487 203.105L274.601 196.109ZM278.814 203.292C280.43 203.318 281.398 202.014 281.435 199.722C281.472 197.447 280.533 196.109 278.931 196.083C277.325 196.057 276.347 197.36 276.307 199.639C276.27 201.928 277.195 203.262 278.814 203.292ZM278.829 202.38C277.882 202.364 277.327 201.405 277.356 199.656C277.387 197.914 277.973 196.963 278.916 196.978C279.856 196.993 280.414 197.963 280.386 199.705C280.358 201.454 279.772 202.395 278.829 202.38ZM285.024 203.392C286.64 203.419 287.608 202.115 287.645 199.823C287.682 197.547 286.743 196.21 285.141 196.184C283.535 196.158 282.557 197.461 282.517 199.74C282.48 202.029 283.405 203.363 285.024 203.392ZM285.039 202.48C284.092 202.465 283.537 201.506 283.566 199.757C283.597 198.014 284.183 197.064 285.126 197.079C286.066 197.094 286.624 198.063 286.596 199.806C286.568 201.555 285.982 202.495 285.039 202.48ZM292.473 202.085C292.464 202.874 292.949 203.548 293.874 203.563C294.79 203.578 295.303 202.92 295.316 202.131L295.322 201.762C295.335 200.969 294.857 200.298 293.928 200.283C293.015 200.269 292.496 200.927 292.479 201.716L292.473 202.085ZM289.019 198.024C289.007 198.813 289.495 199.487 290.421 199.502C291.333 199.517 291.849 198.862 291.858 198.07L291.864 197.701C291.881 196.908 291.399 196.237 290.474 196.222C289.565 196.208 289.038 196.862 289.025 197.655L289.019 198.024ZM289.22 203.344L290.037 203.357L294.96 196.439L294.144 196.425L289.22 203.344ZM293.275 201.729C293.285 201.336 293.462 200.959 293.917 200.967C294.388 200.974 294.529 201.356 294.522 201.749L294.516 202.118C294.51 202.511 294.343 202.887 293.886 202.88C293.421 202.872 293.267 202.487 293.269 202.098L293.275 201.729ZM289.825 197.668C289.831 197.278 290.008 196.898 290.463 196.906C290.934 196.913 291.075 197.295 291.068 197.688L291.062 198.057C291.056 198.45 290.889 198.826 290.432 198.819C289.967 198.811 289.813 198.429 289.819 198.037L289.825 197.668Z" fill="#22633C"/>
</g>
<rect x="133.796" y="138.801" width="189.686" height="87.5376" rx="5.1545" transform="rotate(0.928365 133.796 138.801)" stroke="#EAEAEA" stroke-width="0.687267"/>
</g>
<g filter="url(#filter4_ddd_852_184072)">
<g clip-path="url(#clip5_852_184072)">
<path d="M340.209 147.301C340.258 144.265 342.759 141.844 345.795 141.893L522.4 144.755C525.436 144.804 527.857 147.305 527.808 150.341L526.557 227.56C526.508 230.596 524.006 233.017 520.97 232.968L344.366 230.106C341.33 230.057 338.908 227.556 338.957 224.52L340.209 147.301Z" fill="white"/>
<path d="M340.209 147.303C340.258 144.266 342.76 141.844 345.797 141.893L527.897 144.844L527.403 175.334L339.804 172.294L340.209 147.303Z" fill="white"/>
<path d="M358.656 158.801C358.438 157.02 357.088 155.968 355.316 155.939C353.227 155.905 351.629 157.402 351.587 159.987C351.545 162.568 353.074 164.12 355.183 164.154C357.084 164.185 358.365 162.975 358.613 161.452L357.152 161.421C356.954 162.355 356.18 162.869 355.223 162.854C353.927 162.833 353.014 161.846 353.043 160.011C353.073 158.207 354.01 157.218 355.318 157.239C356.29 157.255 357.043 157.818 357.195 158.777L358.656 158.801ZM362.338 164.277C364.095 164.306 365.232 163.086 365.262 161.232C365.292 159.373 364.195 158.114 362.438 158.085C360.681 158.057 359.544 159.28 359.514 161.139C359.484 162.993 360.581 164.249 362.338 164.277ZM362.364 163.145C361.392 163.13 360.929 162.255 360.947 161.158C360.965 160.061 361.456 159.19 362.428 159.206C363.384 159.221 363.846 160.107 363.829 161.205C363.811 162.302 363.321 163.161 362.364 163.145ZM366.433 156.228L366.327 162.737C366.31 163.783 366.845 164.304 367.989 164.291C368.348 164.289 368.591 164.234 368.756 164.186L368.539 163.113C368.465 163.135 368.382 163.153 368.195 163.154C367.847 163.156 367.737 162.979 367.744 162.53L367.846 156.251L366.433 156.228ZM373.213 161.814C373.198 162.727 372.539 163.17 371.914 163.159C371.235 163.148 370.79 162.661 370.802 161.9L370.86 158.3L369.447 158.277L369.385 162.095C369.362 163.536 370.168 164.365 371.348 164.384C372.246 164.399 372.886 163.937 373.17 163.27L373.232 163.271L373.215 164.337L374.586 164.359L374.683 158.362L373.269 158.339L373.213 161.814ZM375.929 164.381L377.343 164.403L377.402 160.757C377.414 160.019 377.914 159.527 378.523 159.537C379.12 159.547 379.524 159.955 379.514 160.572L379.451 164.438L380.837 164.46L380.898 160.72C380.909 160.044 381.318 159.582 382.002 159.593C382.572 159.602 383.019 159.946 383.007 160.687L382.945 164.494L384.363 164.517L384.428 160.492C384.45 159.153 383.688 158.429 382.587 158.412C381.716 158.397 381.046 158.816 380.769 159.48L380.707 159.479C380.487 158.795 379.912 158.368 379.104 158.355C378.3 158.342 377.692 158.746 377.431 159.425L377.361 159.424L377.377 158.405L376.026 158.383L375.929 164.381ZM387.157 161.048C387.171 160.181 387.702 159.69 388.448 159.702C389.178 159.713 389.608 160.201 389.595 161.001L389.536 164.601L390.95 164.624L391.012 160.805C391.039 159.369 390.232 158.535 388.994 158.515C388.096 158.501 387.473 158.92 387.188 159.584L387.118 159.582L387.135 158.563L385.784 158.542L385.687 164.539L387.1 164.562L387.157 161.048ZM397.088 160.31C396.909 159.292 396.108 158.631 394.702 158.608C393.257 158.584 392.262 159.279 392.248 160.388C392.23 161.263 392.759 161.849 393.907 162.106L394.927 162.337C395.475 162.467 395.729 162.694 395.724 163.034C395.717 163.444 395.267 163.745 394.596 163.734C393.947 163.724 393.53 163.436 393.418 162.895L392.038 163.005C392.195 164.109 393.11 164.776 394.582 164.8C396.082 164.824 397.152 164.064 397.175 162.928C397.184 162.073 396.642 161.541 395.514 161.277L394.495 161.042C393.888 160.895 393.649 160.68 393.659 160.333C393.661 159.927 394.115 159.653 394.705 159.662C395.357 159.673 395.694 160.034 395.797 160.43L397.088 160.31ZM400.782 167.033L402.195 167.056L402.247 163.862L402.306 163.863C402.521 164.304 402.976 164.924 404.006 164.941C405.42 164.964 406.496 163.86 406.528 161.885C406.56 159.886 405.489 158.783 404.103 158.76C403.045 158.743 402.593 159.372 402.371 159.802L402.289 159.801L402.305 158.809L400.915 158.787L400.782 167.033ZM402.253 161.808C402.272 160.644 402.784 159.899 403.693 159.914C404.634 159.929 405.106 160.737 405.087 161.854C405.069 162.978 404.564 163.79 403.631 163.775C402.729 163.76 402.234 162.971 402.253 161.808ZM407.58 164.893L408.993 164.916L409.051 161.391C409.063 160.629 409.646 160.1 410.423 160.112C410.661 160.116 410.957 160.164 411.077 160.205L411.098 158.905C410.97 158.879 410.747 158.86 410.591 158.858C409.904 158.846 409.324 159.228 409.094 159.919L409.031 159.918L409.048 158.918L407.677 158.896L407.58 164.893ZM414.196 165.118C415.953 165.146 417.09 163.927 417.12 162.072C417.15 160.214 416.054 158.954 414.297 158.925C412.54 158.897 411.403 160.12 411.373 161.979C411.343 163.834 412.44 165.089 414.196 165.118ZM414.223 163.986C413.25 163.97 412.788 163.095 412.806 161.998C412.824 160.901 413.314 160.03 414.286 160.046C415.243 160.062 415.705 160.948 415.687 162.045C415.67 163.142 415.179 164.001 414.223 163.986ZM421.297 159.117L420.051 159.097L420.059 158.624C420.066 158.156 420.266 157.897 420.793 157.906C421.015 157.91 421.202 157.963 421.319 158L421.621 156.912C421.439 156.846 421.038 156.738 420.55 156.73C419.508 156.713 418.666 157.297 418.647 158.508L418.638 159.074L417.751 159.06L417.734 160.153L418.62 160.167L418.54 165.071L419.954 165.094L420.033 160.19L421.279 160.21L421.297 159.117ZM422.196 165.13L423.61 165.153L423.707 159.156L422.293 159.133L422.196 165.13ZM423.018 158.293C423.467 158.301 423.839 157.963 423.846 157.541C423.853 157.116 423.492 156.766 423.043 156.759C422.59 156.752 422.217 157.089 422.21 157.515C422.204 157.937 422.565 158.286 423.018 158.293ZM425.083 157.179L424.977 163.687C424.96 164.734 425.495 165.254 426.639 165.241C426.999 165.239 427.242 165.185 427.406 165.137L427.189 164.063C427.115 164.085 427.033 164.103 426.845 164.104C426.498 164.106 426.387 163.929 426.394 163.48L426.496 157.202L425.083 157.179ZM430.653 165.385C432.051 165.407 433.022 164.739 433.289 163.701L431.972 163.531C431.772 164.036 431.3 164.294 430.69 164.284C429.777 164.269 429.181 163.658 429.186 162.631L433.364 162.699L433.371 162.265C433.405 160.161 432.155 159.215 430.679 159.191C428.961 159.163 427.82 160.406 427.79 162.257C427.76 164.139 428.845 165.355 430.653 165.385ZM429.206 161.678C429.261 160.914 429.838 160.279 430.681 160.292C431.493 160.305 432.03 160.908 432.025 161.724L429.206 161.678ZM436.631 165.47C437.662 165.486 438.137 164.881 438.366 164.447L438.452 164.449L438.437 165.393L439.827 165.416L439.956 157.42L438.539 157.397L438.491 160.388L438.432 160.387C438.224 159.95 437.793 159.306 436.735 159.289C435.349 159.267 434.242 160.334 434.21 162.333C434.178 164.309 435.218 165.447 436.631 165.47ZM437.044 164.316C436.111 164.301 435.633 163.473 435.651 162.349C435.669 161.232 436.166 160.44 437.107 160.455C438.017 160.47 438.504 161.231 438.485 162.395C438.467 163.558 437.946 164.331 437.044 164.316Z" fill="#595959"/>
<path d="M362.138 194.158L359.755 194.119L356.755 195.951L356.718 198.2L359.493 196.522L359.563 196.524L359.408 206.111L361.944 206.152L362.138 194.158ZM369.223 206.434C371.917 206.478 373.868 205.027 373.895 202.977C373.925 201.484 372.994 200.403 371.235 200.151L371.236 200.058C372.581 199.839 373.522 198.906 373.538 197.558C373.574 195.667 371.941 194.152 369.458 194.112C366.998 194.072 365.124 195.483 365.055 197.556L367.486 197.595C367.53 196.682 368.377 196.104 369.414 196.121C370.438 196.137 371.114 196.769 371.093 197.671C371.084 198.614 370.271 199.24 369.117 199.221L367.999 199.203L367.969 201.065L369.087 201.083C370.446 201.105 371.284 201.798 371.263 202.765C371.253 203.719 370.422 204.362 369.263 204.343C368.144 204.325 367.316 203.726 367.284 202.847L364.73 202.805C364.737 204.903 366.588 206.391 369.223 206.434Z" fill="#333333"/>
</g>
<path d="M345.784 142.58L522.389 145.442L522.411 144.068L345.806 141.206L345.784 142.58ZM527.121 150.33L525.87 227.549L527.244 227.571L528.495 150.353L527.121 150.33ZM520.981 232.281L344.377 229.419L344.355 230.794L520.959 233.655L520.981 232.281ZM339.645 224.531L340.896 147.313L339.522 147.29L338.27 224.509L339.645 224.531ZM344.377 229.419C341.72 229.376 339.602 227.188 339.645 224.531L338.27 224.509C338.215 227.924 340.939 230.738 344.355 230.794L344.377 229.419ZM525.87 227.549C525.827 230.205 523.638 232.324 520.981 232.281L520.959 233.655C524.375 233.711 527.189 230.987 527.244 227.571L525.87 227.549ZM522.389 145.442C525.045 145.485 527.164 147.674 527.121 150.33L528.495 150.353C528.551 146.937 525.827 144.123 522.411 144.068L522.389 145.442ZM345.806 141.206C342.391 141.151 339.577 143.875 339.522 147.29L340.896 147.313C340.939 144.656 343.128 142.537 345.784 142.58L345.806 141.206Z" fill="#EAEAEA"/>
</g>
</g>
<g clip-path="url(#clip6_852_184072)">
<rect width="980.043" height="24.9963" transform="translate(131.672 248.655) rotate(0.928365)" fill="white"/>
<path d="M131.565 255.252C131.602 252.943 131.621 251.788 132.085 250.914C132.493 250.144 133.134 249.524 133.916 249.141C134.805 248.706 135.96 248.725 138.269 248.762L262.51 250.775C264.82 250.813 265.974 250.832 266.849 251.295C267.618 251.703 268.239 252.344 268.621 253.126C269.057 254.015 269.038 255.17 269 257.479L268.809 269.278C268.772 271.588 268.753 272.742 268.289 273.617C267.882 274.386 267.241 275.007 266.458 275.389C265.569 275.825 264.415 275.806 262.105 275.768L137.864 273.755C135.555 273.718 134.4 273.699 133.525 273.235C132.756 272.827 132.135 272.186 131.753 271.404C131.318 270.515 131.336 269.36 131.374 267.051L131.565 255.252Z" fill="white"/>
<path d="M144.426 259.113L145.246 259.126C145.225 258.07 144.264 257.265 142.911 257.243C141.572 257.222 140.507 257.983 140.488 259.159C140.473 260.102 141.147 260.673 142.235 261.005L143.092 261.265C143.827 261.482 144.479 261.752 144.467 262.449C144.455 263.214 143.709 263.708 142.739 263.692C141.905 263.679 141.173 263.298 141.118 262.504L140.243 262.49C140.306 263.639 141.223 264.433 142.726 264.458C144.339 264.484 145.269 263.61 145.287 262.476C145.308 261.164 144.072 260.72 143.35 260.517L142.643 260.314C142.126 260.169 141.297 259.883 141.309 259.131C141.32 258.461 141.943 257.979 142.872 257.994C143.719 258.008 144.355 258.422 144.426 259.113ZM148.738 264.541C149.804 264.559 150.592 264.038 150.851 263.25L150.075 263.018C149.861 263.562 149.382 263.827 148.75 263.817C147.804 263.802 147.161 263.18 147.142 262.055L150.951 262.117L150.957 261.775C150.988 259.821 149.837 259.133 148.744 259.115C147.323 259.092 146.362 260.197 146.336 261.81C146.31 263.422 147.221 264.517 148.738 264.541ZM147.153 261.358C147.221 260.542 147.81 259.824 148.732 259.839C149.607 259.853 150.157 260.518 150.142 261.407L147.153 261.358ZM153.682 264.635C154.597 264.65 155.083 264.166 155.253 263.827L155.294 263.827L155.282 264.538L156.089 264.551L156.145 261.094C156.172 259.427 154.904 259.215 154.234 259.204C153.442 259.191 152.535 259.45 152.11 260.4L152.871 260.685C153.055 260.305 153.481 259.902 154.25 259.915C154.991 259.927 155.351 260.326 155.34 260.999L155.339 261.026C155.333 261.415 154.937 261.375 153.979 261.482C153.003 261.593 151.937 261.791 151.918 262.994C151.901 264.018 152.684 264.619 153.682 264.635ZM153.816 263.913C153.174 263.902 152.714 263.608 152.723 263.048C152.733 262.433 153.296 262.25 153.926 262.179C154.269 262.143 155.186 262.062 155.325 261.901L155.313 262.638C155.303 263.294 154.773 263.928 153.816 263.913ZM157.56 264.575L158.367 264.588L158.42 261.267C158.432 260.557 159.001 260.046 159.766 260.059C159.981 260.062 160.202 260.107 160.257 260.121L160.27 259.302C160.178 259.293 159.966 259.283 159.847 259.281C159.218 259.271 158.666 259.617 158.466 260.133L158.411 260.133L158.424 259.34L157.645 259.327L157.56 264.575ZM163.11 264.774C164.272 264.793 165.048 264.095 165.2 263.168L164.394 263.155C164.234 263.726 163.75 264.06 163.122 264.05C162.165 264.034 161.563 263.232 161.583 262.016C161.602 260.827 162.243 260.058 163.186 260.073C163.897 260.085 164.313 260.529 164.429 261.009L165.235 261.022C165.114 260.036 164.291 259.367 163.184 259.349C161.763 259.326 160.802 260.431 160.776 262.03C160.751 263.601 161.634 264.75 163.11 264.774ZM167.211 261.574C167.226 260.658 167.819 260.148 168.615 260.161C169.373 260.174 169.823 260.659 169.81 261.493L169.757 264.773L170.563 264.786L170.617 261.451C170.639 260.102 169.932 259.458 168.859 259.441C168.032 259.427 167.555 259.765 167.3 260.304L167.232 260.303L167.274 257.734L166.467 257.721L166.354 264.717L167.16 264.73L167.211 261.574ZM176.874 264.997C178.035 265.016 178.812 264.318 178.964 263.391L178.158 263.378C177.998 263.949 177.514 264.283 176.886 264.273C175.929 264.257 175.327 263.455 175.347 262.239C175.366 261.05 176.007 260.281 176.95 260.296C177.661 260.308 178.077 260.752 178.192 261.232L178.999 261.245C178.878 260.259 178.055 259.59 176.948 259.572C175.527 259.549 174.566 260.654 174.54 262.253C174.514 263.824 175.398 264.973 176.874 264.997ZM182.248 265.084C183.669 265.107 184.643 264.043 184.669 262.417C184.696 260.777 183.757 259.682 182.336 259.659C180.914 259.636 179.94 260.7 179.914 262.34C179.887 263.966 180.827 265.061 182.248 265.084ZM182.259 264.36C181.18 264.343 180.703 263.405 180.72 262.353C180.737 261.301 181.244 260.366 182.324 260.383C183.403 260.401 183.88 261.352 183.863 262.404C183.846 263.456 183.339 264.378 182.259 264.36ZM185.971 258.037L185.877 263.886C185.864 264.634 186.24 265.081 187.005 265.093C187.238 265.097 187.467 265.06 187.608 265.021L187.455 264.321C187.376 264.344 187.304 264.367 187.113 264.37C186.757 264.375 186.678 264.189 186.686 263.68L186.778 258.05L185.971 258.037ZM191.689 262.982C191.674 263.966 190.915 264.405 190.313 264.395C189.644 264.384 189.173 263.884 189.186 263.119L189.239 259.839L188.433 259.826L188.379 263.161C188.357 264.5 189.057 265.154 190.041 265.17C190.834 265.182 191.36 264.767 191.614 264.238L191.669 264.239L191.655 265.127L192.461 265.14L192.546 259.893L191.74 259.88L191.689 262.982ZM193.938 265.164L194.744 265.177L194.797 261.898C194.81 261.129 195.379 260.595 196.007 260.605C196.619 260.615 197.039 261.022 197.03 261.62L196.971 265.214L197.791 265.227L197.847 261.81C197.858 261.134 198.289 260.642 199.027 260.654C199.601 260.663 200.088 260.975 200.076 261.751L200.019 265.263L200.825 265.276L200.882 261.764C200.902 260.531 200.248 259.949 199.312 259.934C198.561 259.922 198.005 260.258 197.726 260.797L197.672 260.796C197.421 260.232 196.969 259.896 196.279 259.885C195.595 259.874 195.084 260.194 194.857 260.751L194.788 260.749L194.802 259.929L194.023 259.917L193.938 265.164ZM203.157 262.156C203.172 261.241 203.747 260.731 204.519 260.743C205.267 260.755 205.714 261.251 205.7 262.074L205.647 265.354L206.454 265.367L206.508 262.033C206.529 260.694 205.826 260.04 204.763 260.023C203.971 260.01 203.473 260.357 203.218 260.886L203.15 260.885L203.163 260.065L202.384 260.052L202.299 265.3L203.106 265.313L203.157 262.156ZM211.49 262.291C211.505 261.376 212.08 260.866 212.853 260.878C213.601 260.89 214.047 261.386 214.034 262.209L213.981 265.489L214.787 265.502L214.841 262.168C214.863 260.829 214.159 260.175 213.097 260.158C212.304 260.145 211.806 260.492 211.552 261.021L211.483 261.02L211.497 260.2L210.718 260.187L210.633 265.435L211.439 265.448L211.49 262.291ZM217.802 265.674C218.718 265.689 219.204 265.205 219.374 264.866L219.415 264.866L219.403 265.577L220.21 265.59L220.266 262.133C220.293 260.466 219.025 260.254 218.355 260.243C217.563 260.23 216.656 260.489 216.231 261.439L216.992 261.724C217.175 261.345 217.602 260.941 218.371 260.954C219.112 260.966 219.472 261.365 219.461 262.038L219.46 262.065C219.454 262.454 219.058 262.414 218.1 262.521C217.124 262.632 216.058 262.83 216.038 264.033C216.022 265.057 216.805 265.658 217.802 265.674ZM217.937 264.952C217.295 264.941 216.835 264.647 216.844 264.087C216.854 263.472 217.417 263.289 218.047 263.218C218.39 263.182 219.307 263.101 219.446 262.94L219.434 263.678C219.423 264.333 218.894 264.967 217.937 264.952ZM221.681 265.614L222.487 265.627L222.541 262.347C222.553 261.579 223.122 261.045 223.751 261.055C224.362 261.065 224.783 261.471 224.773 262.069L224.715 265.663L225.535 265.676L225.59 262.26C225.601 261.584 226.033 261.092 226.771 261.104C227.345 261.113 227.832 261.425 227.819 262.2L227.762 265.712L228.569 265.726L228.625 262.214C228.645 260.98 227.992 260.399 227.056 260.384C226.304 260.372 225.749 260.708 225.47 261.247L225.415 261.246C225.165 260.681 224.712 260.346 224.022 260.335C223.339 260.324 222.828 260.643 222.6 261.2L222.532 261.199L222.545 260.379L221.766 260.366L221.681 265.614ZM232.241 265.894C233.307 265.912 234.095 265.391 234.353 264.603L233.578 264.371C233.364 264.915 232.885 265.18 232.253 265.17C231.306 265.155 230.664 264.533 230.644 263.408L234.454 263.47L234.459 263.128C234.491 261.174 233.34 260.486 232.247 260.468C230.826 260.445 229.865 261.55 229.839 263.163C229.812 264.775 230.724 265.87 232.241 265.894ZM230.656 262.711C230.724 261.896 231.313 261.177 232.235 261.192C233.11 261.206 233.659 261.871 233.645 262.76L230.656 262.711Z" fill="black" fill-opacity="0.45"/>
<path d="M133.525 273.235L132.882 274.45L133.525 273.235ZM131.753 271.404L130.518 272.008L131.753 271.404ZM268.289 273.617L269.504 274.261L268.289 273.617ZM266.458 275.389L265.854 274.155L266.458 275.389ZM266.849 251.295L267.493 250.081L266.849 251.295ZM268.621 253.126L267.387 253.73L268.621 253.126ZM133.916 249.141L133.312 247.906L133.916 249.141ZM132.085 250.914L130.87 250.27L132.085 250.914ZM138.247 250.136L262.488 252.15L262.533 249.401L138.291 247.388L138.247 250.136ZM267.626 257.457L267.435 269.256L270.184 269.301L270.375 257.501L267.626 257.457ZM262.128 274.394L137.886 272.381L137.841 275.129L262.083 277.143L262.128 274.394ZM132.748 267.074L132.939 255.274L130.191 255.23L129.999 267.029L132.748 267.074ZM137.886 272.381C136.709 272.362 135.909 272.348 135.291 272.287C134.689 272.228 134.382 272.134 134.169 272.021L132.882 274.45C133.543 274.8 134.251 274.947 135.023 275.023C135.778 275.097 136.71 275.111 137.841 275.129L137.886 272.381ZM129.999 267.029C129.981 268.161 129.965 269.092 130.014 269.85C130.065 270.624 130.189 271.336 130.518 272.008L132.987 270.8C132.881 270.583 132.797 270.274 132.758 269.671C132.717 269.051 132.729 268.251 132.748 267.074L129.999 267.029ZM134.169 272.021C133.656 271.749 133.243 271.322 132.987 270.8L130.518 272.008C131.028 273.051 131.856 273.906 132.882 274.45L134.169 272.021ZM267.435 269.256C267.416 270.433 267.402 271.234 267.341 271.851C267.282 272.453 267.188 272.76 267.075 272.973L269.504 274.261C269.855 273.599 270.001 272.891 270.077 272.12C270.151 271.364 270.165 270.433 270.184 269.301L267.435 269.256ZM262.083 277.143C263.215 277.161 264.147 277.177 264.904 277.128C265.678 277.077 266.39 276.953 267.062 276.624L265.854 274.155C265.638 274.261 265.328 274.345 264.725 274.384C264.105 274.425 263.305 274.413 262.128 274.394L262.083 277.143ZM267.075 272.973C266.803 273.486 266.376 273.9 265.854 274.155L267.062 276.624C268.105 276.114 268.96 275.286 269.504 274.261L267.075 272.973ZM262.488 252.15C263.665 252.169 264.466 252.183 265.083 252.243C265.685 252.302 265.992 252.397 266.205 252.51L267.493 250.081C266.831 249.73 266.123 249.583 265.352 249.507C264.596 249.433 263.665 249.419 262.533 249.401L262.488 252.15ZM270.375 257.501C270.393 256.37 270.409 255.438 270.36 254.681C270.309 253.907 270.185 253.195 269.856 252.522L267.387 253.73C267.493 253.947 267.577 254.257 267.616 254.86C267.657 255.479 267.645 256.28 267.626 257.457L270.375 257.501ZM266.205 252.51C266.718 252.782 267.132 253.209 267.387 253.73L269.856 252.522C269.346 251.479 268.518 250.625 267.493 250.081L266.205 252.51ZM138.291 247.388C137.159 247.369 136.228 247.353 135.47 247.403C134.697 247.453 133.984 247.577 133.312 247.906L134.52 250.376C134.737 250.27 135.046 250.185 135.65 250.146C136.269 250.106 137.069 250.117 138.247 250.136L138.291 247.388ZM132.939 255.274C132.958 254.097 132.972 253.297 133.033 252.679C133.092 252.077 133.186 251.771 133.299 251.558L130.87 250.27C130.52 250.931 130.373 251.639 130.297 252.411C130.223 253.166 130.209 254.098 130.191 255.23L132.939 255.274ZM133.312 247.906C132.269 248.417 131.414 249.244 130.87 250.27L133.299 251.558C133.571 251.045 133.998 250.631 134.52 250.376L133.312 247.906Z" fill="#D9D9D9"/>
<rect x="277.24" y="258.015" width="1.37453" height="10.9963" rx="0.687267" transform="rotate(0.928365 277.24 258.015)" fill="#E8E8E8"/>
<path d="M286.818 260.771C286.873 257.411 286.9 255.731 287.574 254.458C288.168 253.339 289.101 252.436 290.239 251.879C291.533 251.246 293.212 251.273 296.572 251.327L352.358 252.231C355.717 252.286 357.397 252.313 358.67 252.988C359.79 253.581 360.693 254.514 361.249 255.652C361.882 256.946 361.855 258.626 361.801 261.986L361.707 267.781C361.652 271.141 361.625 272.821 360.951 274.094C360.357 275.213 359.424 276.116 358.286 276.673C356.992 277.306 355.312 277.279 351.953 277.224L296.167 276.32C292.807 276.266 291.128 276.239 289.855 275.564C288.735 274.971 287.832 274.038 287.276 272.9C286.643 271.606 286.67 269.926 286.724 266.566L286.818 260.771Z" fill="#4A67FB" fill-opacity="0.08"/>
<path d="M301.504 259.909L300.476 259.892L298.711 261.005L298.695 262.016L300.387 260.95L300.428 260.951L300.331 266.888L301.39 266.906L301.504 259.909ZM305.717 267.071C307.145 267.095 308.208 266.257 308.224 265.096C308.241 264.211 307.715 263.567 306.788 263.408L306.789 263.354C307.523 263.178 308.008 262.611 308.017 261.826C308.037 260.797 307.207 259.906 305.861 259.884C304.577 259.863 303.532 260.622 303.48 261.759L304.501 261.775C304.536 261.134 305.147 260.754 305.833 260.765C306.547 260.777 307.008 261.218 306.994 261.864C306.987 262.54 306.437 262.976 305.661 262.963L305.07 262.953L305.056 263.814L305.647 263.824C306.617 263.84 307.17 264.341 307.158 265.044C307.147 265.724 306.549 266.176 305.725 266.163C304.967 266.15 304.382 265.751 304.351 265.129L303.279 265.111C303.304 266.253 304.303 267.048 305.717 267.071ZM314.252 267.22C315.492 267.24 316.307 266.508 316.437 265.489L315.442 265.473C315.303 266.038 314.857 266.365 314.273 266.356C313.409 266.342 312.864 265.612 312.882 264.467C312.9 263.343 313.479 262.645 314.333 262.659C314.982 262.67 315.372 263.086 315.473 263.58L316.467 263.596C316.375 262.535 315.522 261.817 314.33 261.798C312.851 261.774 311.876 262.872 311.85 264.475C311.824 266.056 312.728 267.195 314.252 267.22ZM319.711 267.308C321.19 267.332 322.174 266.265 322.201 264.642C322.227 263.009 321.278 261.911 319.799 261.887C318.319 261.863 317.335 262.93 317.308 264.563C317.282 266.186 318.231 267.284 319.711 267.308ZM319.728 266.451C318.761 266.435 318.324 265.584 318.34 264.576C318.356 263.572 318.821 262.725 319.788 262.741C320.748 262.756 321.185 263.618 321.169 264.622C321.153 265.63 320.688 266.467 319.728 266.451ZM323.412 260.264L323.319 266.038C323.305 266.868 323.725 267.319 324.61 267.319C324.883 267.32 325.103 267.28 325.247 267.238L325.076 266.418C325.004 266.437 324.931 266.46 324.754 266.461C324.426 266.466 324.336 266.293 324.343 265.842L324.434 260.28L323.412 260.264ZM329.279 265.181C329.268 266.072 328.599 266.485 328.025 266.476C327.393 266.466 326.963 266.001 326.974 265.287L327.026 262.072L326.005 262.056L325.951 265.393C325.93 266.695 326.633 267.383 327.641 267.399C328.43 267.412 328.973 267.004 329.225 266.448L329.279 266.449L329.265 267.357L330.269 267.374L330.354 262.126L329.329 262.109L329.279 265.181ZM331.641 267.396L332.663 267.412L332.715 264.177C332.727 263.47 333.23 262.986 333.811 262.995C334.378 263.005 334.765 263.387 334.756 263.957L334.699 267.445L335.717 267.462L335.771 264.117C335.782 263.485 336.175 263.034 336.841 263.044C337.381 263.053 337.82 263.361 337.809 264.072L337.753 267.495L338.775 267.511L338.832 263.993C338.851 262.793 338.191 262.185 337.242 262.169C336.487 262.157 335.914 262.51 335.652 263.066L335.597 263.065C335.377 262.488 334.901 262.131 334.201 262.12C333.508 262.109 332.986 262.445 332.758 263.019L332.693 263.018L332.707 262.164L331.727 262.148L331.641 267.396ZM341.216 264.434C341.23 263.597 341.75 263.127 342.46 263.139C343.154 263.15 343.567 263.611 343.554 264.373L343.502 267.588L344.524 267.605L344.578 264.267C344.599 262.969 343.896 262.277 342.823 262.26C342.034 262.247 341.512 262.604 341.261 263.157L341.196 263.156L341.209 262.302L340.229 262.286L340.144 267.534L341.165 267.55L341.216 264.434ZM349.89 263.724C349.692 262.904 349.061 262.361 347.927 262.342C346.742 262.323 345.891 262.935 345.876 263.864C345.864 264.609 346.307 265.112 347.287 265.346L348.172 265.555C348.676 265.676 348.908 265.905 348.903 266.233C348.896 266.64 348.457 266.951 347.788 266.94C347.176 266.93 346.788 266.66 346.673 266.143L345.683 266.277C345.839 267.209 346.603 267.744 347.781 267.763C349.049 267.784 349.938 267.125 349.953 266.175C349.965 265.434 349.501 264.968 348.541 264.731L347.711 264.526C347.136 264.38 346.889 264.181 346.898 263.826C346.902 263.423 347.344 263.143 347.924 263.152C348.56 263.163 348.848 263.519 348.962 263.873L349.89 263.724Z" fill="#4A67FB"/>
<path d="M367.298 262.075C367.353 258.715 367.38 257.035 368.054 255.762C368.648 254.643 369.581 253.74 370.719 253.183C372.013 252.55 373.692 252.577 377.052 252.631L400.587 253.013C403.947 253.067 405.627 253.095 406.9 253.769C408.019 254.363 408.922 255.295 409.479 256.433C410.112 257.727 410.085 259.407 410.03 262.767L409.936 268.563C409.882 271.923 409.855 273.602 409.18 274.875C408.587 275.995 407.654 276.898 406.516 277.454C405.222 278.088 403.542 278.06 400.182 278.006L376.647 277.624C373.287 277.57 371.608 277.543 370.335 276.868C369.215 276.275 368.312 275.342 367.756 274.204C367.122 272.91 367.15 271.23 367.204 267.87L367.298 262.075Z" fill="white"/>
<path d="M370.335 276.868L369.866 277.752L370.335 276.868ZM367.756 274.204L366.857 274.643L367.756 274.204ZM409.18 274.875L408.297 274.407L409.18 274.875ZM406.516 277.454L406.955 278.353L406.516 277.454ZM406.9 253.769L406.431 254.653L406.9 253.769ZM409.479 256.433L408.581 256.873L409.479 256.433ZM377.036 253.631L400.571 254.013L400.603 252.013L377.069 251.632L377.036 253.631ZM409.03 262.751L408.937 268.546L410.936 268.579L411.03 262.783L409.03 262.751ZM400.198 277.006L376.664 276.625L376.631 278.624L400.166 279.006L400.198 277.006ZM368.204 267.886L368.298 262.091L366.298 262.058L366.204 267.854L368.204 267.886ZM376.664 276.625C374.967 276.597 373.755 276.577 372.806 276.484C371.869 276.392 371.276 276.235 370.803 275.985L369.866 277.752C370.666 278.175 371.55 278.37 372.611 278.474C373.66 278.577 374.968 278.597 376.631 278.624L376.664 276.625ZM366.204 267.854C366.177 269.517 366.155 270.825 366.224 271.877C366.294 272.941 366.46 273.831 366.857 274.643L368.654 273.764C368.418 273.283 368.281 272.686 368.22 271.747C368.158 270.795 368.177 269.583 368.204 267.886L366.204 267.854ZM370.803 275.985C369.87 275.49 369.118 274.713 368.654 273.764L366.857 274.643C367.507 275.971 368.56 277.059 369.866 277.752L370.803 275.985ZM408.937 268.546C408.909 270.243 408.889 271.455 408.796 272.404C408.704 273.341 408.547 273.934 408.297 274.407L410.064 275.344C410.487 274.544 410.682 273.66 410.786 272.599C410.889 271.55 410.909 270.242 410.936 268.579L408.937 268.546ZM400.166 279.006C401.829 279.033 403.137 279.055 404.189 278.986C405.253 278.916 406.143 278.75 406.955 278.353L406.076 276.556C405.595 276.792 404.998 276.929 404.058 276.99C403.107 277.052 401.895 277.033 400.198 277.006L400.166 279.006ZM408.297 274.407C407.802 275.34 407.025 276.092 406.076 276.556L406.955 278.353C408.283 277.703 409.371 276.65 410.064 275.344L408.297 274.407ZM400.571 254.013C402.267 254.04 403.48 254.061 404.429 254.154C405.366 254.246 405.958 254.402 406.431 254.653L407.368 252.886C406.569 252.462 405.684 252.267 404.624 252.163C403.575 252.06 402.267 252.04 400.603 252.013L400.571 254.013ZM411.03 262.783C411.057 261.12 411.079 259.812 411.01 258.76C410.941 257.697 410.775 256.807 410.377 255.994L408.581 256.873C408.816 257.354 408.953 257.951 409.015 258.891C409.077 259.842 409.058 261.055 409.03 262.751L411.03 262.783ZM406.431 254.653C407.364 255.147 408.117 255.924 408.581 256.873L410.377 255.994C409.728 254.666 408.674 253.578 407.368 252.886L406.431 254.653ZM377.069 251.632C375.405 251.605 374.097 251.583 373.045 251.652C371.982 251.721 371.092 251.887 370.279 252.285L371.158 254.081C371.639 253.846 372.236 253.709 373.176 253.647C374.128 253.585 375.34 253.604 377.036 253.631L377.069 251.632ZM368.298 262.091C368.325 260.394 368.346 259.182 368.439 258.233C368.531 257.296 368.687 256.704 368.938 256.231L367.171 255.294C366.747 256.093 366.552 256.977 366.448 258.038C366.346 259.087 366.325 260.395 366.298 262.058L368.298 262.091ZM370.279 252.285C368.951 252.934 367.863 253.988 367.171 255.294L368.938 256.231C369.432 255.298 370.21 254.545 371.158 254.081L370.279 252.285Z" fill="black" fill-opacity="0.15"/>
</g>
</g>
</g>
</g>
<defs>
<filter id="filter0_dd_852_184072" x="-5.6709" y="-6.70023" width="383.524" height="705.157" filterUnits="userSpaceOnUse" color-interpolation-filters="sRGB">
<feFlood flood-opacity="0" result="BackgroundImageFix"/>
<feColorMatrix in="SourceAlpha" type="matrix" values="0 0 0 0 0 0 0 0 0 0 0 0 0 0 0 0 0 0 127 0" result="hardAlpha"/>
<feOffset dy="2"/>
<feGaussianBlur stdDeviation="5"/>
<feColorMatrix type="matrix" values="0 0 0 0 0 0 0 0 0 0 0 0 0 0 0 0 0 0 0.06 0"/>
<feBlend mode="normal" in2="BackgroundImageFix" result="effect1_dropShadow_852_184072"/>
<feColorMatrix in="SourceAlpha" type="matrix" values="0 0 0 0 0 0 0 0 0 0 0 0 0 0 0 0 0 0 127 0" result="hardAlpha"/>
<feMorphology radius="4" operator="dilate" in="SourceAlpha" result="effect2_dropShadow_852_184072"/>
<feOffset dy="8"/>
<feGaussianBlur stdDeviation="8"/>
<feColorMatrix type="matrix" values="0 0 0 0 0 0 0 0 0 0 0 0 0 0 0 0 0 0 0.08 0"/>
<feBlend mode="normal" in2="effect1_dropShadow_852_184072" result="effect2_dropShadow_852_184072"/>
<feBlend mode="normal" in="SourceGraphic" in2="effect2_dropShadow_852_184072" result="shape"/>
</filter>
<filter id="filter1_f_852_184072" x="84.2373" y="68.3655" width="292.723" height="231.057" filterUnits="userSpaceOnUse" color-interpolation-filters="sRGB">
<feFlood flood-opacity="0" result="BackgroundImageFix"/>
<feBlend mode="normal" in="SourceGraphic" in2="BackgroundImageFix" result="shape"/>
<feGaussianBlur stdDeviation="14" result="effect1_foregroundBlur_852_184072"/>
</filter>
<filter id="filter2_dd_852_184072" x="87.5279" y="84.3827" width="1059.83" height="874.593" filterUnits="userSpaceOnUse" color-interpolation-filters="sRGB">
<feFlood flood-opacity="0" result="BackgroundImageFix"/>
<feColorMatrix in="SourceAlpha" type="matrix" values="0 0 0 0 0 0 0 0 0 0 0 0 0 0 0 0 0 0 127 0" result="hardAlpha"/>
<feOffset dy="1.67836"/>
<feGaussianBlur stdDeviation="4.1959"/>
<feColorMatrix type="matrix" values="0 0 0 0 0 0 0 0 0 0 0 0 0 0 0 0 0 0 0.06 0"/>
<feBlend mode="normal" in2="BackgroundImageFix" result="effect1_dropShadow_852_184072"/>
<feColorMatrix in="SourceAlpha" type="matrix" values="0 0 0 0 0 0 0 0 0 0 0 0 0 0 0 0 0 0 127 0" result="hardAlpha"/>
<feMorphology radius="3.35672" operator="dilate" in="SourceAlpha" result="effect2_dropShadow_852_184072"/>
<feOffset dy="6.71344"/>
<feGaussianBlur stdDeviation="6.71344"/>
<feColorMatrix type="matrix" values="0 0 0 0 0 0 0 0 0 0 0 0 0 0 0 0 0 0 0.08 0"/>
<feBlend mode="normal" in2="effect1_dropShadow_852_184072" result="effect2_dropShadow_852_184072"/>
<feBlend mode="normal" in="SourceGraphic" in2="effect2_dropShadow_852_184072" result="shape"/>
</filter>
<filter id="filter3_ddd_852_184072" x="128.028" y="135.452" width="199.778" height="99.2978" filterUnits="userSpaceOnUse" color-interpolation-filters="sRGB">
<feFlood flood-opacity="0" result="BackgroundImageFix"/>
<feColorMatrix in="SourceAlpha" type="matrix" values="0 0 0 0 0 0 0 0 0 0 0 0 0 0 0 0 0 0 127 0" result="hardAlpha"/>
<feOffset dy="1"/>
<feGaussianBlur stdDeviation="2"/>
<feColorMatrix type="matrix" values="0 0 0 0 0 0 0 0 0 0 0 0 0 0 0 0 0 0 0.06 0"/>
<feBlend mode="normal" in2="BackgroundImageFix" result="effect1_dropShadow_852_184072"/>
<feColorMatrix in="SourceAlpha" type="matrix" values="0 0 0 0 0 0 0 0 0 0 0 0 0 0 0 0 0 0 127 0" result="hardAlpha"/>
<feOffset dy="1"/>
<feGaussianBlur stdDeviation="1"/>
<feColorMatrix type="matrix" values="0 0 0 0 0 0 0 0 0 0 0 0 0 0 0 0 0 0 0.08 0"/>
<feBlend mode="normal" in2="effect1_dropShadow_852_184072" result="effect2_dropShadow_852_184072"/>
<feColorMatrix in="SourceAlpha" type="matrix" values="0 0 0 0 0 0 0 0 0 0 0 0 0 0 0 0 0 0 127 0" result="hardAlpha"/>
<feOffset/>
<feGaussianBlur stdDeviation="0.5"/>
<feColorMatrix type="matrix" values="0 0 0 0 0 0 0 0 0 0 0 0 0 0 0 0 0 0 0.08 0"/>
<feBlend mode="normal" in2="effect2_dropShadow_852_184072" result="effect3_dropShadow_852_184072"/>
<feBlend mode="normal" in="SourceGraphic" in2="effect3_dropShadow_852_184072" result="shape"/>
</filter>
<filter id="filter4_ddd_852_184072" x="334.868" y="138.804" width="197.029" height="99.2532" filterUnits="userSpaceOnUse" color-interpolation-filters="sRGB">
<feFlood flood-opacity="0" result="BackgroundImageFix"/>
<feColorMatrix in="SourceAlpha" type="matrix" values="0 0 0 0 0 0 0 0 0 0 0 0 0 0 0 0 0 0 127 0" result="hardAlpha"/>
<feOffset dy="1"/>
<feGaussianBlur stdDeviation="2"/>
<feColorMatrix type="matrix" values="0 0 0 0 0 0 0 0 0 0 0 0 0 0 0 0 0 0 0.06 0"/>
<feBlend mode="normal" in2="BackgroundImageFix" result="effect1_dropShadow_852_184072"/>
<feColorMatrix in="SourceAlpha" type="matrix" values="0 0 0 0 0 0 0 0 0 0 0 0 0 0 0 0 0 0 127 0" result="hardAlpha"/>
<feOffset dy="1"/>
<feGaussianBlur stdDeviation="1"/>
<feColorMatrix type="matrix" values="0 0 0 0 0 0 0 0 0 0 0 0 0 0 0 0 0 0 0.08 0"/>
<feBlend mode="normal" in2="effect1_dropShadow_852_184072" result="effect2_dropShadow_852_184072"/>
<feColorMatrix in="SourceAlpha" type="matrix" values="0 0 0 0 0 0 0 0 0 0 0 0 0 0 0 0 0 0 127 0" result="hardAlpha"/>
<feOffset/>
<feGaussianBlur stdDeviation="0.5"/>
<feColorMatrix type="matrix" values="0 0 0 0 0 0 0 0 0 0 0 0 0 0 0 0 0 0 0.08 0"/>
<feBlend mode="normal" in2="effect2_dropShadow_852_184072" result="effect3_dropShadow_852_184072"/>
<feBlend mode="normal" in="SourceGraphic" in2="effect3_dropShadow_852_184072" result="shape"/>
</filter>
<clipPath id="clip0_852_184072">
<rect width="371" height="267" fill="white"/>
</clipPath>
<clipPath id="clip1_852_184072">
<rect x="25.0586" y="6.13831" width="332" height="591" rx="10" transform="rotate(0.932921 25.0586 6.13831)" fill="white"/>
</clipPath>
<clipPath id="clip2_852_184072">
<rect x="117.674" y="94.4529" width="1013.03" height="824.721" rx="10" transform="rotate(0.928365 117.674 94.4529)" fill="white"/>
</clipPath>
<clipPath id="clip3_852_184072">
<path d="M117.438 109.001C117.568 100.966 124.187 94.5584 132.222 94.6886L1130.57 110.866L1128.17 259.304L115.268 242.891L117.438 109.001Z" fill="white"/>
</clipPath>
<clipPath id="clip4_852_184072">
<rect x="133.458" y="138.452" width="190.373" height="88.2249" rx="5.49814" transform="rotate(0.928365 133.458 138.452)" fill="white"/>
</clipPath>
<clipPath id="clip5_852_184072">
<path d="M340.209 147.301C340.258 144.265 342.759 141.844 345.795 141.893L522.4 144.755C525.436 144.804 527.857 147.305 527.808 150.341L526.557 227.56C526.508 230.596 524.006 233.017 520.97 232.968L344.366 230.106C341.33 230.057 338.908 227.556 338.957 224.52L340.209 147.301Z" fill="white"/>
</clipPath>
<clipPath id="clip6_852_184072">
<rect width="1013.03" height="721.66" fill="white" transform="translate(115.269 242.891) rotate(0.928365)"/>
</clipPath>
</defs>
</svg>
