<svg width="16" height="16" viewBox="0 0 16 16" fill="none" xmlns="http://www.w3.org/2000/svg">
<path d="M3.61677 10.6916C3.61677 11.4142 3.03099 12 2.30839 12C1.58579 12 1 11.4142 1 10.6916C1 9.96901 1.58579 9.38323 2.30839 9.38323C3.03099 9.38323 3.61677 9.96901 3.61677 10.6916Z" fill="#333333"/>
<path d="M3.61677 10.6916C3.61677 11.4142 3.03099 12 2.30839 12C1.58579 12 1 11.4142 1 10.6916C1 9.96901 1.58579 9.38323 2.30839 9.38323C3.03099 9.38323 3.61677 9.96901 3.61677 10.6916Z" fill="#333333"/>
<path d="M8.99982 5.30839C8.99982 6.03099 8.41403 6.61677 7.69143 6.61677C6.96883 6.61677 6.38304 6.03099 6.38304 5.30839C6.38304 4.58579 6.96883 4 7.69143 4C8.41403 4 8.99982 4.58579 8.99982 5.30839Z" fill="#333333"/>
<path d="M8.99982 5.30839C8.99982 6.03099 8.41403 6.61677 7.69143 6.61677C6.96883 6.61677 6.38304 6.03099 6.38304 5.30839C6.38304 4.58579 6.96883 4 7.69143 4C8.41403 4 8.99982 4.58579 8.99982 5.30839Z" fill="#333333"/>
<path d="M14.3829 10.6915C14.3829 11.4141 13.7971 11.9999 13.0745 11.9999C12.3519 11.9999 11.7661 11.4141 11.7661 10.6915C11.7661 9.96886 12.3519 9.38308 13.0745 9.38308C13.7971 9.38308 14.3829 9.96886 14.3829 10.6915Z" fill="#333333"/>
<path d="M14.3829 10.6915C14.3829 11.4141 13.7971 11.9999 13.0745 11.9999C12.3519 11.9999 11.7661 11.4141 11.7661 10.6915C11.7661 9.96886 12.3519 9.38308 13.0745 9.38308C13.7971 9.38308 14.3829 9.96886 14.3829 10.6915Z" fill="#333333"/>
<path d="M1.18695 10.8462C1.18695 10.6837 1.3334 10.5519 1.51405 10.5519L7.12142 10.5519C7.19884 10.5519 7.26161 10.4954 7.26161 10.4257L7.26161 5.37905C7.26161 5.21646 7.40805 5.08466 7.5887 5.08466C7.76935 5.08466 7.9158 5.21646 7.9158 5.37905L7.9158 10.4257C7.9158 10.8205 7.56014 11.1406 7.12142 11.1406L1.51405 11.1406C1.3334 11.1406 1.18695 11.0088 1.18695 10.8462Z" fill="#333333"/>
<path d="M13.0045 11.4766C12.8419 11.4766 12.7101 11.3301 12.7101 11.1495L12.7101 5.54209C12.7101 5.46467 12.6536 5.40191 12.5839 5.40191L7.53731 5.40191C7.37473 5.40191 7.24292 5.25546 7.24292 5.07481C7.24292 4.89416 7.37473 4.74771 7.53731 4.74771L12.5839 4.74771C12.9788 4.74771 13.2989 5.10337 13.2989 5.54209L13.2989 11.1495C13.2989 11.3301 13.1671 11.4766 13.0045 11.4766Z" fill="#333333"/>
</svg>
