<svg width="16" height="16" viewBox="0 0 16 16" fill="none" xmlns="http://www.w3.org/2000/svg">
<path d="M5 5.75V5.05C5 5.02239 5.02686 5 5.06 5H10.94C10.9731 5 11 5.02239 11 5.05V5.75M8 5.5V10.5M6.875 11H9.125" stroke="#333333" stroke-width="1.4" stroke-miterlimit="16" stroke-linecap="round"/>
<path d="M2 10V6C2 4.11438 2 3.17157 2.58579 2.58579C3.17157 2 4.11438 2 6 2H10C11.8856 2 12.8284 2 13.4142 2.58579C14 3.17157 14 4.11438 14 6V10C14 11.8856 14 12.8284 13.4142 13.4142C12.8284 14 11.8856 14 10 14H6C4.11438 14 3.17157 14 2.58579 13.4142C2 12.8284 2 11.8856 2 10Z" stroke="#333333" stroke-width="1.4"/>
</svg>
