<svg width="24" height="25" viewBox="0 0 24 25" fill="none" xmlns="http://www.w3.org/2000/svg">
<path fill-rule="evenodd" clip-rule="evenodd" d="M10.346 8.33859C8.91333 8.33859 7.76551 9.4948 7.76551 10.9043C7.76551 12.3137 8.91333 13.4699 10.346 13.4699C11.7787 13.4699 12.9265 12.3137 12.9265 10.9043C12.9265 9.4948 11.7787 8.33859 10.346 8.33859ZM6.02463 10.9043C6.02463 8.51207 7.96687 6.58643 10.346 6.58643C12.7251 6.58643 14.6674 8.51207 14.6674 10.9043C14.6674 13.2965 12.7251 15.2221 10.346 15.2221C7.96687 15.2221 6.02463 13.2965 6.02463 10.9043ZM5.6304 20.3263C5.65172 20.3387 5.6891 20.3534 5.74467 20.3534H14.9478C15.0033 20.3534 15.0407 20.3387 15.062 20.3263C14.8908 19.7681 14.5532 19.0882 13.8853 18.5426C13.2146 17.9948 12.1305 17.5166 10.3463 17.5166C8.56227 17.5166 7.47813 17.9947 6.80729 18.5426C6.13936 19.0881 5.80167 19.7681 5.6304 20.3263ZM5.71035 17.1821C6.74347 16.3383 8.23551 15.7644 10.3463 15.7644C12.4572 15.7644 13.9493 16.3383 14.9823 17.1821C16.0066 18.0188 16.5005 19.0559 16.738 19.851C16.9213 20.4646 16.7529 21.059 16.3816 21.4775C16.0233 21.8815 15.4967 22.1056 14.9478 22.1056H5.74467C5.1957 22.1056 4.66909 21.8815 4.31074 21.4775C3.93945 21.0589 3.77111 20.4644 3.95444 19.8509C4.19201 19.0558 4.68602 18.0187 5.71035 17.1821Z" fill="#333333"/>
<path fill-rule="evenodd" clip-rule="evenodd" d="M19.7084 11.9177C19.7084 12.6639 19.1034 13.2689 18.3572 13.2689C17.611 13.2689 17.006 12.6639 17.006 11.9177C17.006 11.1715 17.611 10.5665 18.3572 10.5665C19.1034 10.5665 19.7084 11.1715 19.7084 11.9177ZM17.643 4.79405C17.9045 4.64483 18.2147 4.58911 18.5176 4.63955C18.8202 4.68995 19.0899 4.842 19.2813 5.06276C19.4722 5.28296 19.5737 5.5589 19.5733 5.83897C19.5733 6.0834 19.379 6.37818 18.9211 6.68321C18.7169 6.81924 18.507 6.92472 18.3448 6.99672C18.2649 7.03221 18.1995 7.05832 18.1559 7.07491C18.1342 7.08318 18.1181 7.08901 18.1086 7.09239L18.0995 7.09556C17.7692 7.20628 17.5465 7.51572 17.5465 7.86422V8.53981C17.5465 8.98755 17.9095 9.35051 18.3572 9.35051C18.805 9.35051 19.1679 8.98755 19.1679 8.53981V8.40224C19.36 8.30974 19.5883 8.18697 19.8201 8.03261C20.3755 7.66262 21.1944 6.94499 21.1947 5.8396C21.1956 5.16333 20.9498 4.51206 20.5064 4.00062C20.0633 3.48959 19.4523 3.15148 18.7839 3.04017C18.1157 2.92889 17.4273 3.05033 16.8395 3.38579C16.2511 3.72152 15.7986 4.25193 15.5682 4.88773C15.4157 5.3087 15.6333 5.77359 16.0543 5.92611C16.4753 6.07863 16.9402 5.86101 17.0927 5.44004C17.1893 5.17349 17.382 4.943 17.643 4.79405Z" fill="#333333"/>
</svg>
