<svg width="65" height="64" viewBox="0 0 65 64" fill="none" xmlns="http://www.w3.org/2000/svg">
<path d="M42.1248 7.0625C37.7561 7.0625 34.2148 10.5538 34.2148 14.8588L36.6048 21.125C36.2104 20.2978 36.0063 19.3927 36.0073 18.4762V15.64C37.7648 15.64 39.1011 12.265 39.1011 12.265C39.1011 12.265 42.5198 15.6012 48.2986 15.6562L48.3123 16.625V18.4762C48.3134 19.3927 48.1093 20.2978 47.7148 21.125L50.0348 14.8588C50.0348 10.5538 46.4998 7.0625 42.1248 7.0625Z" fill="#6E85FC"/>
<path d="M48.2786 21.395L47.1286 20.9075L47.5036 19.8875C47.6251 19.427 47.686 18.9525 47.6848 18.4762V16.2638C44.6625 16.1323 41.7504 15.09 39.3311 13.2738C38.8448 14.2388 37.8998 15.7737 36.6348 16.1675V18.4762C36.6328 18.9913 36.7027 19.5042 36.8423 20L37.1898 20.9088L36.0411 21.4013C35.8862 21.0787 35.7575 20.7443 35.6561 20.4013L33.5898 14.975V14.8588C33.5898 10.215 37.4186 6.4375 42.1248 6.4375C46.8311 6.4375 50.6598 10.215 50.6598 14.8588V14.9712L48.6998 20.265C48.593 20.6533 48.452 21.0315 48.2786 21.395ZM34.8411 14.75L35.3823 16.1712V15.0188H36.0073C37.0073 15.0188 38.1323 13.0112 38.5211 12.0387L38.8673 11.1637L39.5373 11.8188C39.5698 11.8488 42.8648 14.9788 48.3048 15.0312H48.9148L48.9298 16.04L49.4086 14.75C49.3498 10.845 46.1048 7.6875 42.1248 7.6875C38.1448 7.6875 34.9023 10.8438 34.8411 14.75Z" fill="#4255BB"/>
<path d="M42.1603 25.2499C40.3634 25.2479 38.6407 24.5332 37.3701 23.2626C36.0995 21.992 35.3848 20.2693 35.3828 18.4724V15.0149H36.0078C37.0078 15.0149 38.1328 13.0074 38.5216 12.0349L38.8678 11.1599L39.5378 11.8149C39.5703 11.8449 42.8653 14.9749 48.3053 15.0274H48.9153L48.9378 16.6074V18.4674C48.9372 20.2652 48.223 21.9892 46.9523 23.2609C45.6816 24.5325 43.9581 25.2479 42.1603 25.2499ZM36.6328 16.1637V18.4724C36.6328 19.9384 37.2152 21.3443 38.2518 22.3809C39.2884 23.4176 40.6943 23.9999 42.1603 23.9999C43.6263 23.9999 45.0322 23.4176 46.0688 22.3809C47.1055 21.3443 47.6878 19.9384 47.6878 18.4724V16.2599C44.6654 16.1285 41.7534 15.0862 39.3341 13.2699C38.8428 14.2387 37.8978 15.7674 36.6328 16.1674V16.1637Z" fill="#4255BB"/>
<path d="M32.7498 28.9375C28.3811 28.9375 24.8398 32.4287 24.8398 36.7337L27.2298 43C26.8354 42.1728 26.6313 41.2677 26.6323 40.3512V37.515C28.3898 37.515 29.7261 34.14 29.7261 34.14C29.7261 34.14 33.1448 37.4762 38.9236 37.5312L38.9373 38.5V40.3512C38.9384 41.2677 38.7343 42.1728 38.3398 43L40.6598 36.7337C40.6598 32.4287 37.1248 28.9375 32.7498 28.9375Z" fill="#6E85FC"/>
<path d="M38.9036 43.27L37.7536 42.7825L38.1286 41.7625C38.2501 41.302 38.311 40.8275 38.3098 40.3512V38.1387C35.2875 38.0073 32.3754 36.965 29.9561 35.1488C29.4698 36.1138 28.5248 37.6425 27.2598 38.0425V40.3512C27.2578 40.8663 27.3277 41.3792 27.4673 41.875L27.8148 42.7837L26.6661 43.2762C26.5109 42.9517 26.3822 42.6152 26.2811 42.27L24.2148 36.85V36.7337C24.2148 32.09 28.0436 28.3125 32.7498 28.3125C37.4561 28.3125 41.2848 32.09 41.2848 36.7337V36.8462L39.3248 42.14C39.218 42.5283 39.077 42.9065 38.9036 43.27ZM25.4661 36.625L26.0073 38.0462V36.8937H26.6323C27.6323 36.8937 28.7573 34.8862 29.1461 33.9137L29.4923 33.0387L30.1623 33.6937C30.1948 33.7237 33.4898 36.8538 38.9298 36.9062H39.5398L39.5548 37.915L40.0336 36.625C39.9748 32.72 36.7298 29.5625 32.7498 29.5625C28.7698 29.5625 25.5273 32.7188 25.4661 36.625Z" fill="#4255BB"/>
<path d="M17.875 57.6874L18.0837 56.9024C19.8062 50.4186 25.8337 45.8899 32.75 45.8899C39.6663 45.8899 45.6937 50.4186 47.4162 56.9011L47.625 57.6861L17.875 57.6874ZM32.75 47.1399C26.6875 47.1399 21.365 50.9236 19.5263 56.4374H45.9738C44.1338 50.9236 38.8125 47.1399 32.75 47.1399Z" fill="#4255BB"/>
<path d="M32.7853 47.1249C30.9884 47.1229 29.2657 46.4082 27.9951 45.1376C26.7245 43.867 26.0098 42.1443 26.0078 40.3474V36.8899H26.6328C27.6328 36.8899 28.7578 34.8824 29.1466 33.9099L29.4928 33.0349L30.1628 33.6899C30.1953 33.7199 33.4903 36.8499 38.9303 36.9024H39.5403L39.5628 38.4824V40.3424C39.5622 42.1402 38.848 43.8642 37.5773 45.1359C36.3066 46.4075 34.5831 47.1229 32.7853 47.1249ZM27.2578 38.0387V40.3474C27.2578 41.8134 27.8402 43.2193 28.8768 44.2559C29.9134 45.2926 31.3193 45.8749 32.7853 45.8749C34.2513 45.8749 35.6572 45.2926 36.6938 44.2559C37.7305 43.2193 38.3128 41.8134 38.3128 40.3474V38.1349C35.2904 38.0035 32.3784 36.9612 29.9591 35.1449C29.4678 36.1137 28.5228 37.6424 27.2578 38.0424V38.0387Z" fill="#4255BB"/>
<path d="M7 35.8126L7.20875 35.0276C8.93125 28.5439 14.9587 24.0151 21.875 24.0151C23.8845 24.0042 25.8763 24.3901 27.7363 25.1507C29.5963 25.9114 31.2878 27.0317 32.7138 28.4476L33.705 29.4326L32.3088 29.5139C28.9875 29.7089 26.2275 32.0914 25.5987 35.3064L25.5 35.8064L7 35.8126ZM21.875 25.2651C15.8125 25.2651 10.49 29.0489 8.65125 34.5626H24.4862C24.885 33.0575 25.6911 31.6914 26.8158 30.6146C27.9404 29.5378 29.3402 28.7919 30.8612 28.4589C28.3299 26.3789 25.1512 25.2492 21.875 25.2651Z" fill="#4255BB"/>
<path d="M40.0001 35.8124L39.9013 35.3124C39.2501 31.9424 36.2351 29.4999 32.7501 29.4999C32.4156 29.5008 32.0815 29.5238 31.7501 29.5686L29.9238 29.8186L31.2238 28.5124C32.6514 27.0766 34.3505 25.9395 36.2221 25.1673C38.0938 24.3951 40.1004 24.0034 42.1251 24.0149C49.0376 24.0149 55.0688 28.5436 56.7913 35.0261L57.0001 35.8111L40.0001 35.8124ZM33.3663 28.2711C37.0088 28.5311 40.1013 31.0699 41.0138 34.5624H55.3488C53.5088 29.0499 48.1876 25.2661 42.1251 25.2661C38.9498 25.2491 35.8624 26.3083 33.3663 28.2711Z" fill="#4255BB"/>
<path d="M21.8747 24.64C23.9125 24.6373 25.9292 25.0534 27.7997 25.8625C29.3684 25.5771 30.9142 25.1773 32.4247 24.6663C30.4547 21.6163 29.7872 14.8588 29.7872 14.8588C29.7847 10.5538 26.2497 7.0625 21.8747 7.0625C17.4996 7.0625 13.9646 10.5538 13.9646 14.8588C13.9646 14.8588 13.2971 21.6163 11.3271 24.6663C12.8377 25.1769 14.3834 25.5767 15.9521 25.8625C17.8217 25.0536 19.8376 24.6375 21.8747 24.64ZM15.7571 16.4263V15.64C17.5146 15.64 18.8509 12.265 18.8509 12.265C18.8509 12.265 22.2696 15.6012 28.0484 15.6562L28.0622 16.625V18.4762C28.0622 20.108 27.4139 21.6729 26.2601 22.8267C25.1063 23.9805 23.5414 24.6287 21.9097 24.6287C20.2779 24.6287 18.713 23.9805 17.5592 22.8267C16.4054 21.6729 15.7571 20.108 15.7571 18.4762V16.4263Z" fill="#6E85FC"/>
<path d="M27.725 26.5112L27.5513 26.4363C25.7582 25.6636 23.8262 25.265 21.8738 25.265C19.9213 25.265 17.9893 25.6636 16.1962 26.4363L16.0212 26.5112L15.835 26.4775C14.2376 26.1853 12.6634 25.7775 11.125 25.2575L10.375 25L10.8088 24.3263C12.61 21.5387 13.2962 15.305 13.3462 14.8263C13.3637 10.2013 17.1863 6.4375 21.8813 6.4375C26.5763 6.4375 30.3988 10.1975 30.4163 14.8263C30.4662 15.3062 31.1525 21.5387 32.9538 24.3263L33.3875 25L32.625 25.2575C31.0865 25.7786 29.5118 26.1863 27.9137 26.4775L27.725 26.5112ZM25.2388 24.375C26.1409 24.5748 27.0232 24.8555 27.875 25.2138C29.0997 24.9824 30.31 24.6807 31.5 24.31C29.7812 20.9775 29.1912 15.185 29.1663 14.9213V14.8588C29.1663 10.905 25.8988 7.6875 21.8813 7.6875C17.8638 7.6875 14.5962 10.905 14.5962 14.8588V14.9213C14.5712 15.1838 13.9812 20.9775 12.2625 24.31C13.4526 24.6802 14.6629 24.982 15.8875 25.2138C16.7552 24.8502 17.6544 24.5669 18.5737 24.3675C17.5332 23.7754 16.6679 22.9185 16.0657 21.8838C15.4635 20.8491 15.1458 19.6734 15.145 18.4762V15.015H15.77C16.7775 15.015 17.895 13.0075 18.2825 12.035L18.6287 11.16L19.3 11.8162C19.3325 11.8463 22.6275 14.9763 28.0675 15.0288H28.6775L28.7 16.6087V18.4688C28.6988 19.6718 28.3776 20.8528 27.7694 21.8907C27.1611 22.9286 26.2877 23.786 25.2388 24.375ZM16.3825 16.1637V18.4725C16.3825 19.9385 16.9649 21.3444 18.0015 22.381C19.0381 23.4176 20.444 24 21.91 24C23.376 24 24.7819 23.4176 25.8185 22.381C26.8551 21.3444 27.4375 19.9385 27.4375 18.4725V16.26C24.4151 16.1285 21.5031 15.0863 19.0837 13.27C18.5925 14.2388 17.6475 15.7675 16.3825 16.1675V16.1637Z" fill="#4255BB"/>
</svg>
