<svg version="1.1" id="Layer_1" xmlns="http://www.w3.org/2000/svg"
     viewBox="0 0 189 153" width="189" height="153" >
<g transform="translate(15,-15) scale(0.8)">
	<g>
		<path d="M174.6,165.9l-5.9-12.5V66.1c0-5.9-4.6-10.6-10.6-10.6h-11v4.6h11.4c3.3,0,5.9,2.6,5.9,5.9v85.4H35.5V66.1
			c0-3.3,2.6-5.9,5.9-5.9h11v-4.6h-11c-5.9,0-10.6,4.6-10.6,10.6v87.2L24.9,166c-0.9,2.1-0.9,4.6,0.5,6.5c1.3,2.2,3.6,3.3,5.9,3.3
			h137.6c2.3,0,4.6-1.3,5.9-3.3C175.6,170.6,175.9,168.2,174.6,165.9z M134.5,166.1H64.9c-1.4,0-2.3-1-2.3-2.3s1-2.3,2.3-2.3h69.8
			c1.3,0,2.3,1.3,2.3,2.3C136.9,165,136,166.1,134.5,166.1z"/>
	</g>
	<g>
		<polygon points="78.5,26.4 58.5,45.8 78.5,45.8"/>
	</g>
	<g>
		<path fill="none" stroke="#000000" stroke-width="4.16" stroke-miterlimit="10" d="M59.5,145h80.3c1.3,0,2.3-1,2.3-2.3V27.4c0-1.4-1.3-2.3-2.3-2.3H83.3v23.1c0,0.8-0.3,1.3-0.8,1.7
			s-1,0.6-1.6,0.6H57.2v92.2C57.2,143.9,58.4,145,59.5,145z"/>
		<path fill="#4A67FB" d="M83.3,129.3c0,1.4-1,2.3-2.3,2.3h-8.6c-1.4,0-2.3-1-2.3-2.3v-19.2c0-1.4,1-2.3,2.3-2.3H81
			c1.4,0,2.3,1,2.3,2.3V129.3L83.3,129.3z"/>
		<path d="M88.9,89.8h-7c-1.4,0-2.3-1-2.3-2.3c0-1.4,1-2.3,2.3-2.3h7c1.4,0,2.3,1,2.3,2.3C91.2,88.6,90.1,89.8,88.9,89.8z"/>
		<path fill="#4A67FB" d="M107.3,129.3c0,1.4-1,2.3-2.3,2.3h-8.6c-1.4,0-2.3-1-2.3-2.3v-24.6c0-1.4,1-2.3,2.3-2.3h8.6
			c1.4,0,2.3,1,2.3,2.3V129.3L107.3,129.3z"/>
		<path d="M110.2,89.8c-1.4,0-2.3-1-2.3-2.3c0-1.4,1-2.3,2.3-2.3h7c1.4,0,2.3,1,2.3,2.3c0,1.4-1,2.3-2.3,2.3H110.2z"/>
		<path fill="#4A67FB" d="M131.4,129.3c0,1.4-1,2.3-2.3,2.3h-8.6c-1.4,0-2.3-1-2.3-2.3V99.1c0-1.4,1-2.3,2.3-2.3h8.6
			c1.4,0,2.3,1,2.3,2.3V129.3z"/>
		<path d="M131.4,89.8h-7c-1.4,0-2.3-1-2.3-2.3c0-1.4,1-2.3,2.3-2.3h7c1.4,0,2.3,1,2.3,2.3C133.7,88.6,132.7,89.8,131.4,89.8z"/>
		<path fill="#4A67FB" d="M116.6,34.9c4.6,0,8.2,3.8,8.2,8.6s-3.8,10.2-8.2,10.2c-4.6,0-8.2-5.6-8.2-10.2
			C108.1,38.6,111.7,34.9,116.6,34.9z"/>
		<path fill="#4A67FB" d="M100.2,63.3c0-1.8,1.3-3.6,2.8-4.6c2.2-1.3,4.6-2.2,6.6-2.8c1-0.3,2.2,0.3,2.6,1.3l3.8,6.9h0.3l3.8-6.9
			c0.5-1,1.7-1.4,2.6-1.3c2.2,0.8,4.6,1.4,6.9,2.8c1.7,1,2.8,2.6,2.8,4.6l1,9c0,0.8-0.3,1.3-0.8,1.8s-1.3,0.8-1.7,0.8h-29.2
			c-0.8,0-1.3-0.3-1.7-0.8c-0.5-0.5-0.8-1.3-0.8-1.8L100.2,63.3z"/>
		<path d="M103,85.1c1.4,0,2.3,1,2.3,2.3c0,1.4-1,2.3-2.3,2.3h-7c-1.4,0-2.3-1-2.3-2.3c0-1.4,1-2.3,2.3-2.3H103z"/>
		<path fill="#4A67FB" d="M67.7,58.6H87c1.4,0,2.3,1,2.3,2.3c0,1.4-1,2.3-2.3,2.3H67.7c-1.4,0-2.3-1-2.3-2.3
			C65.3,59.7,66.2,58.6,67.7,58.6z"/>
		<path fill="#4A67FB" d="M67.7,70H93c1.4,0,2.3,1,2.3,2.3c0,1.4-1,2.3-2.3,2.3H67.7c-1.4,0-2.3-1-2.3-2.3C65.3,71,66.2,70,67.7,70z"/>
		<path d="M67.7,85.1h7c1.4,0,2.3,1,2.3,2.3c0,1.4-1,2.3-2.3,2.3h-7c-1.4,0-2.3-1-2.3-2.3C65.3,86,66.2,85.1,67.7,85.1z"/>
	</g>
</g>
</svg>
