<svg viewBox="0 0 15 15" fill="none" xmlns="http://www.w3.org/2000/svg">
<path d="M13.6055 8.625H7.12505V2.14453C7.12505 1.89844 6.9063 1.70703 6.68755 1.70703C6.66021 1.70703 6.63287 1.70703 6.63287 1.70703C3.37896 2.17188 0.890678 5.01562 1.00005 8.43359C1.10943 11.8242 3.92583 14.6406 7.31646 14.75C7.39849 14.75 7.48052 14.75 7.56255 14.75C10.8711 14.75 13.5782 12.3164 14.043 9.11719C14.0704 8.87109 13.8516 8.625 13.6055 8.625ZM7.56255 13.4375C7.48052 13.4375 7.42583 13.4375 7.37115 13.4375C4.66412 13.3555 2.39458 11.0859 2.31255 8.37891C2.23052 6.05469 3.67974 4.00391 5.81255 3.26562V9.9375H12.4844C11.7735 12.0156 9.80474 13.4375 7.56255 13.4375ZM8.87505 0.777344C8.87505 0.777344 8.87505 0.75 8.84771 0.75C8.62896 0.75 8.43755 0.96875 8.43755 1.21484V7.3125H14.5352C14.7813 7.3125 15.0001 7.12109 14.9727 6.875C14.754 3.59375 12.1563 0.996094 8.87505 0.777344Z" fill="#595959"/>
</svg>
