<svg height="21" viewBox="0 0 14 16" fill="none" xmlns="http://www.w3.org/2000/svg">
<path d="M7 1.5C10.0312 1.5 12.5 2.375 12.5 3.4375V3.59375C12.5 4.65625 10.0312 5.5 7 5.5C3.9375 5.5 1.5 4.65625 1.5 3.59375V3.4375C1.5 2.375 3.9375 1.5 7 1.5ZM12.5 5.75V6.5625C12.5 7.625 10.0312 8.5 7 8.5C3.9375 8.5 1.5 7.625 1.5 6.5625V5.75C2.65625 6.59375 4.84375 7 7 7C9.125 7 11.3125 6.59375 12.5 5.75ZM12.5 8.75V9.5625C12.5 10.625 10.0312 11.5 7 11.5C3.9375 11.5 1.5 10.625 1.5 9.5625V8.75C2.65625 9.59375 4.84375 10 7 10C9.125 10 11.3125 9.59375 12.5 8.75ZM12.5 11.75V12.5938C12.5 13.6562 10.0312 14.5 7 14.5C3.9375 14.5 1.5 13.6562 1.5 12.5938V11.75C2.65625 12.5938 4.84375 13 7 13C9.125 13 11.3125 12.5938 12.5 11.75ZM7 0C4.28125 0 0 0.75 0 3.4375V12.5938C0 15.2812 4.28125 16 7 16C9.6875 16 14 15.2812 14 12.5938V3.4375C14 0.75 9.6875 0 7 0Z" fill="#333333"/>
</svg>
