<svg viewBox="0 0 18 15" fill="none" xmlns="http://www.w3.org/2000/svg">
<path d="M16.875 0.75H13.375C12.8828 0.75 12.5 1.16016 12.5 1.625V2.5H5.5V1.625C5.5 1.16016 5.08984 0.75 4.625 0.75H1.125C0.632812 0.75 0.25 1.16016 0.25 1.625V5.125C0.25 5.61719 0.632812 6 1.125 6H3.72266L6.375 10.6211V13.875C6.375 14.3672 6.75781 14.75 7.25 14.75H10.75C11.2148 14.75 11.625 14.3672 11.625 13.875V10.375C11.625 9.91016 11.2148 9.5 10.75 9.5H7.74219L5.5 5.5625V4.25H12.5V5.125C12.5 5.61719 12.8828 6 13.375 6H16.875C17.3398 6 17.75 5.61719 17.75 5.125V1.625C17.75 1.16016 17.3398 0.75 16.875 0.75ZM4.1875 4.6875H1.5625V2.0625H4.1875V4.6875ZM7.6875 10.8125H10.3125V13.4375H7.6875V10.8125ZM16.4375 4.6875H13.8125V2.0625H16.4375V4.6875Z" fill="#333333"/>
</svg>
