<svg  viewBox="0 0 20 16" fill="none" xmlns="http://www.w3.org/2000/svg">
<path d="M13.5 10H11.5C10.9375 10 10.5 10.4688 10.5 11V15C10.5 15.5625 10.9375 16 11.5 16H13.5C14.0312 16 14.5 15.5625 14.5 15V11C14.5 10.4688 14.0312 10 13.5 10ZM13 14.5H12V11.5H13V14.5ZM18.5 6H16.5C15.9375 6 15.5 6.46875 15.5 7V15C15.5 15.5625 15.9375 16 16.5 16H18.5C19.0312 16 19.5 15.5625 19.5 15V7C19.5 6.46875 19.0312 6 18.5 6ZM18 14.5H17V7.5H18V14.5ZM8.5 6H6.5C5.9375 6 5.5 6.46875 5.5 7V15C5.5 15.5625 5.9375 16 6.5 16H8.5C9.03125 16 9.5 15.5625 9.5 15V7C9.5 6.46875 9.03125 6 8.5 6ZM8 14.5H7V7.5H8V14.5ZM3.5 11H1.5C0.9375 11 0.5 11.4688 0.5 12V15C0.5 15.5625 0.9375 16 1.5 16H3.5C4.03125 16 4.5 15.5625 4.5 15V12C4.5 11.4688 4.03125 11 3.5 11ZM3 14.5H2V12.5H3V14.5ZM2.5 8C3.3125 8 4 7.34375 4 6.5C4 6.375 3.96875 6.25 3.9375 6.125L7.09375 2.96875C7.21875 3 7.34375 3 7.5 3C7.6875 3 7.84375 2.96875 8.03125 2.90625L11 5.28125C11 5.375 11 5.4375 11 5.5C11 6.34375 11.6562 7 12.5 7C13.3125 7 14 6.34375 14 5.5C14 5.4375 13.9688 5.375 13.9688 5.28125L16.9375 2.90625C17.125 2.96875 17.2812 3 17.5 3C18.3125 3 19 2.34375 19 1.5C19 0.6875 18.3125 0 17.5 0C16.6562 0 16 0.6875 16 1.5C16 1.59375 16 1.65625 16 1.75L13.0312 4.125C12.8438 4.0625 12.6875 4 12.4688 4C12.2812 4 12.125 4.0625 11.9375 4.125L8.96875 1.75C8.96875 1.65625 9 1.59375 9 1.5C9 0.6875 8.3125 0 7.5 0C6.65625 0 6 0.6875 6 1.5C6 1.65625 6 1.78125 6.03125 1.90625L2.875 5.0625C2.75 5.03125 2.625 5 2.5 5C1.65625 5 1 5.6875 1 6.5C1 7.34375 1.65625 8 2.5 8Z" fill="#333333"/>
</svg>
