<svg viewBox="0 0 18 16" fill="none" xmlns="http://www.w3.org/2000/svg">
<path d="M5.625 3.21875C5.375 3.46875 5.5625 3.84375 5.90625 3.84375H8V8.625C8 8.84375 8.15625 9 8.375 9H9.625C9.8125 9 10 8.84375 10 8.625V3.84375H12.0938C12.4062 3.84375 12.5938 3.46875 12.3438 3.21875L9.25 0.125C9.09375 -0.03125 8.875 -0.03125 8.71875 0.125L5.625 3.21875ZM18 11.0938C18 10.7188 17.8438 10.375 17.5938 10.0938L14.4375 6.53125C14.1562 6.1875 13.75 6 13.3125 6H11.6875C11.5625 6 11.5 6.09375 11.5 6.1875V7.3125C11.5 7.4375 11.5625 7.5 11.6875 7.5H13.3125L15.0938 9.5H11.8125L10.8125 11.5H7.15625L6.15625 9.5H2.875L4.65625 7.5H6.3125C6.40625 7.5 6.5 7.4375 6.5 7.3125V6.1875C6.5 6.09375 6.40625 6 6.3125 6H4.65625C4.21875 6 3.8125 6.1875 3.53125 6.53125L0.375 10.0938C0.125 10.375 0 10.7188 0 11.0938V14.5C0 15.3438 0.65625 16 1.5 16H16.5C17.3125 16 18 15.3438 18 14.5V11.0938ZM16.5 11V14.5H1.5V11H5.25L6.25 13H11.75L12.75 11H16.5Z" fill="#333333"/>
</svg>
