<svg height="19" viewBox="0 0 16 14" fill="none" xmlns="http://www.w3.org/2000/svg">
<path d="M14.5 0H1.5C0.65625 0 0 0.6875 0 1.5V12.5C0 13.3438 0.65625 14 1.5 14H14.5C15.3125 14 16 13.3438 16 12.5V1.5C16 0.6875 15.3125 0 14.5 0ZM1.5 1.875C1.5 1.6875 1.65625 1.5 1.875 1.5H3.125C3.3125 1.5 3.5 1.6875 3.5 1.875V2.625C3.5 2.84375 3.3125 3 3.125 3H1.875C1.65625 3 1.5 2.84375 1.5 2.625V1.875ZM14.5 12.3125C14.5 12.4375 14.4062 12.5 14.3125 12.5H1.6875C1.5625 12.5 1.5 12.4375 1.5 12.3125V4.25H14.5V12.3125ZM14.5 2.625C14.5 2.84375 14.3125 3 14.125 3H5.375C5.15625 3 5 2.84375 5 2.625V1.875C5 1.6875 5.15625 1.5 5.375 1.5H14.125C14.3125 1.5 14.5 1.6875 14.5 1.875V2.625Z" fill="#333333"/>
</svg>
